<svg width="336" height="336" viewBox="0 0 336 336" fill="none" xmlns="http://www.w3.org/2000/svg">
<path d="M216.452 65.4125C215.754 65.9724 214.942 66.3717 214.073 66.5818C211.687 67.1126 205.337 66.8438 204.261 69.7603C203.918 70.6355 203.383 71.4227 202.696 72.0645C202.008 72.7063 201.186 73.1864 200.29 73.4698C200.29 73.4698 195.257 73.7386 194.988 74.8138C194.719 75.889 192.871 77.7302 192.871 77.7302H279.552C279.552 77.7302 282.469 73.2278 277.698 68.9942C273.525 65.2848 265.897 70.9027 264.93 66.3062" stroke="#263238" stroke-linecap="round" stroke-linejoin="round"/>
<path d="M264.143 59.5593C263.176 56.0716 261.14 51.3676 257.007 49.6204C250.112 46.704 244.286 50.6822 242.693 54.6537C241.1 58.6252 240.045 61.2796 233.957 57.8323C227.869 54.3849 222.533 54.6537 220.705 59.1763C220.178 60.4856 219.518 61.7375 218.736 62.9126" stroke="#263238" stroke-linecap="round" stroke-linejoin="round"/>
<path d="M69.249 111.619H99.3479C99.3479 111.619 101.109 108.931 98.2257 106.33C95.3428 103.73 89.7249 108.575 90.5313 103.125C90.5313 103.125 89.8593 96.405 85.7197 94.6309C84.6544 94.1429 83.4799 93.942 82.3129 94.0481C81.1458 94.1542 80.0269 94.5636 79.0669 95.2357" stroke="#263238" stroke-linecap="round" stroke-linejoin="round"/>
<path d="M77.065 97.6752C76.104 100.081 75.4589 101.707 71.7764 99.5971C68.0938 97.487 64.8816 97.6752 63.7594 100.403C62.6372 103.132 61.1924 104.57 59.7274 104.886C58.2624 105.202 54.4388 105.047 53.7936 106.814C53.5842 107.343 53.2596 107.819 52.8435 108.208C52.4275 108.596 51.9302 108.887 51.3879 109.059C51.3879 109.059 48.3437 109.213 48.1824 109.859C47.8618 110.517 47.4273 111.113 46.8989 111.619H64.512" stroke="#263238" stroke-linecap="round" stroke-linejoin="round"/>
<path d="M219.912 111.619H234.125C234.125 111.619 235.885 108.931 233.002 106.331C230.12 103.73 224.508 108.575 225.308 103.125C225.308 103.125 224.67 96.4051 220.496 94.631C216.323 92.8569 212.809 95.303 211.841 97.6752C210.873 100.047 210.242 101.707 206.552 99.5971C202.863 97.487 199.658 97.6752 198.542 100.403C197.427 103.132 195.975 104.57 194.51 104.886C193.045 105.202 189.222 105.047 188.583 106.814C188.373 107.343 188.048 107.818 187.632 108.207C187.216 108.595 186.719 108.886 186.177 109.059C186.177 109.059 183.133 109.213 182.972 109.859C182.651 110.517 182.217 111.113 181.688 111.619H215.168" stroke="#263238" stroke-linecap="round" stroke-linejoin="round"/>
<g opacity="0.1">
<path opacity="0.1" d="M15.6107 156.018C18.2584 156.542 24.1384 155.125 24.1384 155.125C24.1384 155.125 22.0283 151.529 21.867 151.321C19.9787 148.888 14.8984 145.273 11.666 146.483C11.1343 146.694 10.6528 147.015 10.2529 147.424C9.853 147.834 9.54355 148.322 9.34462 148.859C9.14569 149.396 9.06171 149.968 9.09812 150.539C9.13453 151.11 9.29051 151.667 9.55597 152.174C10.611 154.365 13.3595 155.568 15.6107 156.018Z" fill="black"/>
<path opacity="0.1" d="M21.383 172.704C23.9635 172.523 28.9027 169.848 29.2992 169.633C30.8257 172.461 32.5386 175.184 34.4266 177.784C35.5152 179.303 36.6643 180.802 37.8336 182.287C37.1952 181.689 36.624 181.158 36.5366 181.091C34.0771 179.249 28.2307 177.133 25.4218 179.122C24.9646 179.466 24.5849 179.903 24.3074 180.403C24.0298 180.904 23.8605 181.457 23.8104 182.028C23.7604 182.598 23.8307 183.172 24.0168 183.713C24.2029 184.255 24.5007 184.751 24.8909 185.17C26.4902 186.997 29.4538 187.434 31.7453 187.273C34.0368 187.112 38.3309 184.908 39.4464 184.316C39.9034 184.881 40.3469 185.452 40.7904 186.016C42.9811 188.704 45.1786 191.392 47.255 194.121C47.9875 195.075 48.6662 196.043 49.3584 197.004C48.7939 196.473 48.3168 196.029 48.2362 195.969C45.7699 194.121 39.9303 192.004 37.1213 194C36.6624 194.343 36.281 194.779 36.0022 195.28C35.7234 195.78 35.5534 196.334 35.5033 196.905C35.4532 197.476 35.5241 198.051 35.7114 198.592C35.8988 199.134 36.1983 199.63 36.5904 200.048C38.1898 201.882 41.1533 202.312 43.4448 202.151C45.7363 201.99 49.6138 200.001 50.9443 199.302C51.6163 200.31 52.2883 201.318 52.9066 202.326C53.3098 202.998 53.7398 203.67 54.1027 204.389L55.2182 206.492C55.8902 207.836 56.5622 209.261 57.1738 210.605C57.6039 211.539 58.0003 212.433 58.3968 213.34C57.6778 212.379 56.2397 210.531 56.0986 210.39C53.9482 208.199 48.4915 205.222 45.407 206.761C44.9031 207.032 44.4617 207.406 44.1116 207.858C43.7615 208.31 43.5105 208.832 43.3748 209.387C43.2392 209.943 43.222 210.521 43.3244 211.084C43.4267 211.647 43.6464 212.182 43.969 212.654C45.2726 214.711 48.1354 215.584 50.4269 215.773C52.9469 215.981 58.0406 214.18 58.6723 213.951C59.3443 215.45 59.9491 216.908 60.5136 218.299C60.9392 219.321 61.3357 220.309 61.703 221.263L63.7997 220.806C63.3517 219.753 62.8835 218.651 62.3952 217.5C61.7232 215.981 61.0042 214.368 60.2314 212.722C61.6715 211.748 63.0516 210.689 64.3642 209.55C66.4944 211.042 71.3866 212.238 72.0182 212.419C71.736 214.025 71.4538 215.584 71.1581 217.056C71.0035 217.836 70.849 218.568 70.6944 219.301L72.912 218.817C72.9994 218.36 73.08 217.91 73.1606 217.432C73.4563 215.799 73.7318 214.072 74.0006 212.251C74.6726 212.251 80.0486 212.164 82.3671 211.095C84.4502 210.121 86.8291 208.307 87.3399 205.928C87.4782 205.372 87.4981 204.794 87.3982 204.23C87.2984 203.667 87.081 203.13 86.7603 202.656C86.4396 202.182 86.0227 201.781 85.5367 201.479C85.0507 201.176 84.5065 200.979 83.9395 200.901C80.5191 200.525 76.4333 205.209 75.2035 208.018C75.1296 208.186 74.5315 210.074 74.1687 211.27C74.2695 210.531 74.3837 209.819 74.4778 209.059C74.6861 207.561 74.8474 206.062 75.0288 204.443C75.0893 203.663 75.1498 202.87 75.2102 202.07C75.2707 201.271 75.2707 200.438 75.3043 199.611C75.3043 197.689 75.3043 195.747 75.1834 193.791C76.5274 193.966 81.1709 194.531 83.3818 193.885C85.5927 193.24 88.2202 191.802 89.0803 189.531C89.3024 189.003 89.4107 188.435 89.3983 187.863C89.3858 187.29 89.2529 186.727 89.0081 186.21C88.7634 185.692 88.4123 185.232 87.9778 184.86C87.5433 184.487 87.0351 184.21 86.4864 184.047C83.1264 183.154 78.4224 187.166 76.7424 189.753C76.6416 189.914 75.6538 191.903 75.1296 193.005C75.0624 191.829 74.9952 190.66 74.8877 189.47C74.5718 186.043 74.1485 182.582 73.7453 179.128C73.6176 178.067 73.5034 177.012 73.3891 175.957C73.8528 176.024 79.3968 176.817 81.8765 176.091C84.0806 175.419 86.7082 174.008 87.5751 171.736C87.7959 171.208 87.9031 170.64 87.8897 170.067C87.8763 169.495 87.7426 168.932 87.4973 168.415C87.2521 167.898 86.9006 167.438 86.466 167.065C86.0313 166.693 85.5231 166.416 84.9744 166.253C81.6144 165.359 76.9104 169.378 75.2371 171.958C75.1094 172.153 73.6915 175.022 73.369 175.768C73.1136 173.437 72.8784 171.118 72.744 168.82C72.5424 165.719 72.5424 162.607 72.744 159.506C72.959 159.54 78.7382 160.393 81.2784 159.647C83.4826 158.975 86.1168 157.571 86.977 155.293C87.1979 154.765 87.3054 154.197 87.2924 153.625C87.2795 153.053 87.1464 152.49 86.9018 151.973C86.6571 151.456 86.3065 150.996 85.8726 150.623C85.4386 150.25 84.9311 149.973 84.383 149.809C81.023 148.922 76.319 152.934 74.639 155.521C74.5114 155.723 72.9859 158.8 72.7507 159.385C72.7507 159.204 72.7507 159.015 72.7507 158.834C73.0389 155.73 73.6034 152.658 74.4374 149.654C74.8742 147.988 75.3917 146.422 75.9226 144.91C76.9843 145.179 81.8429 146.355 84.2016 145.938C86.5603 145.522 89.2349 144.399 90.3437 142.236C90.6206 141.735 90.7891 141.182 90.8383 140.612C90.8875 140.042 90.8163 139.468 90.6294 138.928C90.4424 138.387 90.1439 137.892 89.7532 137.474C89.3624 137.057 88.8882 136.726 88.3613 136.503C85.1491 135.247 79.9949 138.721 78.0528 141.107C77.952 141.234 77.0246 142.672 76.3594 143.727C76.6147 143.055 76.8566 142.343 77.112 141.711C78.0595 139.286 79.0742 137.122 79.9882 135.206C80.5191 134.125 81.0163 133.19 81.4934 132.256C82.6694 131.981 87.4071 130.798 89.2752 129.367C91.1434 127.935 93.0317 125.684 93.0182 123.252C93.0342 122.679 92.9295 122.11 92.7109 121.581C92.4924 121.052 92.1648 120.574 91.7496 120.18C91.3344 119.786 90.8409 119.483 90.3011 119.292C89.7613 119.101 89.1874 119.026 88.6166 119.072C85.1894 119.441 82.2125 124.891 81.5942 127.909C81.5405 128.164 81.1642 132.337 81.2246 132.324H81.2918C80.8147 133.184 80.3175 134.104 79.7866 135.126C78.8323 137.021 77.7706 139.158 76.7626 141.584C75.6627 144.156 74.7136 146.79 73.92 149.473C73.0086 152.497 72.3699 155.596 72.0115 158.733C72.0083 158.771 72.0083 158.809 72.0115 158.847C71.8099 157.86 71.1648 155.111 71.0909 154.903C70.056 152.006 66.3533 147.02 62.9059 147.128C62.3358 147.163 61.7794 147.318 61.2729 147.582C60.7663 147.846 60.321 148.214 59.9656 148.661C59.6102 149.109 59.3527 149.625 59.2098 150.179C59.0669 150.732 59.0417 151.309 59.136 151.872C59.4586 154.278 61.6896 156.274 63.6922 157.409C65.9501 158.679 71.5478 159.17 71.9914 159.21C71.7043 162.412 71.6302 165.629 71.7696 168.84C71.8435 170.708 71.9712 172.59 72.1258 174.478C71.9309 173.625 71.7427 172.865 71.7091 172.765C70.6742 169.868 66.9648 164.882 63.5242 164.99C62.953 165.023 62.3954 165.177 61.8875 165.44C61.3797 165.703 60.9331 166.071 60.5767 166.519C60.2204 166.966 59.9624 167.484 59.8195 168.038C59.6767 168.592 59.6521 169.17 59.7475 169.734C60.0701 172.146 62.3011 174.142 64.3037 175.271C66.3063 176.4 71.0976 176.938 72.3677 177.059C72.4349 177.778 72.4887 178.503 72.5626 179.222C72.8918 182.69 73.2346 186.144 73.4765 189.551C73.5638 190.747 73.5974 191.93 73.6445 193.113C73.463 192.36 73.3085 191.728 73.2749 191.634C72.24 188.731 68.5709 183.745 65.0899 183.853C64.5185 183.887 63.9607 184.041 63.4529 184.306C62.945 184.57 62.4985 184.938 62.1422 185.386C61.786 185.834 61.5281 186.352 61.3853 186.907C61.2425 187.461 61.2179 188.039 61.3133 188.604C61.6358 191.016 63.8736 193.012 65.8694 194.141C67.8653 195.27 72.1997 195.754 73.6982 195.902C73.6982 197.111 73.6982 198.327 73.6982 199.503C73.6445 200.31 73.6512 201.083 73.5571 201.889C73.463 202.695 73.4026 203.475 73.3287 204.254C73.1203 205.76 72.9254 207.305 72.6567 208.764C72.5021 209.778 72.3341 210.746 72.1661 211.72C72.0989 210.524 71.9107 208.186 71.8771 207.998C71.2546 205.36 69.9658 202.926 68.1341 200.928C68.0812 200.631 67.9978 200.341 67.8854 200.061C67.6954 199.521 67.3937 199.028 67.0001 198.612C66.6065 198.197 66.1297 197.869 65.6009 197.651C65.0721 197.432 64.5031 197.327 63.9311 197.343C63.3591 197.359 62.7968 197.495 62.281 197.743C59.2166 199.315 58.3968 205.478 58.921 208.495C58.921 208.67 59.4922 210.578 59.8483 211.774C59.5325 211.102 59.2301 210.43 58.8941 209.758C58.2221 208.414 57.5501 207.07 56.8042 205.605L55.6483 203.529C55.272 202.857 54.7949 202.131 54.3648 201.425C53.3367 199.806 52.2144 198.213 51.0518 196.641C52.248 196.063 56.4278 193.953 57.9466 192.192C59.4653 190.431 60.8294 187.79 60.2986 185.418C60.1888 184.858 59.9626 184.326 59.6348 183.859C59.3069 183.391 58.8846 182.997 58.3951 182.703C57.9056 182.408 57.3598 182.22 56.7929 182.149C56.226 182.079 55.6507 182.128 55.104 182.293C51.8381 183.389 50.0976 189.356 50.1312 192.427C50.1312 192.622 50.4067 194.826 50.5747 196.036C49.9027 195.095 49.1702 194.148 48.4243 193.214C46.2739 190.525 44.0093 187.878 41.7648 185.223C41.0928 184.41 40.4208 183.59 39.7488 182.777C40.1722 182.576 45.2323 180.177 46.8989 178.201C48.384 176.447 49.7818 173.799 49.2509 171.427C49.1446 170.864 48.9209 170.33 48.5942 169.86C48.2675 169.39 47.8453 168.993 47.355 168.697C46.8648 168.401 46.3176 168.212 45.7492 168.141C45.1808 168.071 44.6039 168.121 44.0563 168.289C40.7904 169.378 39.0499 175.345 39.0835 178.423C39.0835 178.651 39.4867 181.823 39.6211 182.623C38.1293 180.829 36.6509 179.021 35.2733 177.18C33.397 174.703 31.6821 172.108 30.1392 169.411C30.3341 169.317 35.6227 166.838 37.3296 164.815C38.8147 163.061 40.2192 160.413 39.6816 158.041C39.5752 157.479 39.3516 156.946 39.0254 156.476C38.6991 156.006 38.2776 155.61 37.7881 155.314C37.2987 155.018 36.7524 154.828 36.1848 154.757C35.6171 154.687 35.041 154.736 34.4938 154.903C31.2211 155.991 29.4806 161.959 29.5142 165.037C29.5142 165.278 29.951 168.692 30.072 169.304C29.9846 169.142 29.8704 168.995 29.783 168.833C28.3155 166.083 27.0923 163.209 26.1274 160.245C25.5763 158.619 25.1395 157.026 24.7834 155.467C25.8182 155.111 30.5155 153.411 32.256 151.758C33.9965 150.105 35.616 147.726 35.3338 145.286C35.2907 144.716 35.1277 144.16 34.8554 143.656C34.5832 143.153 34.2078 142.712 33.7538 142.363C33.2997 142.015 32.7772 141.766 32.2204 141.632C31.6636 141.499 31.085 141.485 30.5222 141.59C27.1622 142.316 24.7699 148.055 24.4742 151.119C24.4742 151.287 24.4742 152.994 24.5146 154.244C24.3466 153.539 24.1651 152.813 24.0173 152.134C23.4662 149.587 23.1168 147.222 22.8278 145.125C22.6733 143.929 22.559 142.847 22.4582 141.832C23.2848 140.952 26.5776 137.35 27.3504 135.112C28.1232 132.875 28.4525 129.965 27.1018 127.949C26.799 127.463 26.3973 127.046 25.9229 126.725C25.4484 126.404 24.9118 126.186 24.3478 126.086C23.7839 125.986 23.2051 126.005 22.6492 126.143C22.0933 126.281 21.5726 126.535 21.121 126.887C18.4733 129.085 18.9974 135.28 20.1398 138.136C20.2339 138.385 22.223 142.068 22.2634 142.021L22.3171 141.967C22.391 142.948 22.4851 143.983 22.6061 145.139C22.8547 147.242 23.1504 149.621 23.6477 152.195C24.16 154.969 24.8331 157.711 25.6637 160.406C26.5716 163.429 27.7478 166.363 29.1782 169.176C29.1782 169.176 29.2186 169.243 29.232 169.277C28.56 168.558 26.4701 166.622 26.2954 166.495C23.8291 164.647 17.9894 162.53 15.1805 164.526C14.7216 164.869 14.3402 165.305 14.0614 165.806C13.7826 166.306 13.6126 166.86 13.5625 167.431C13.5124 168.002 13.5833 168.577 13.7706 169.118C13.958 169.66 14.2575 170.156 14.6496 170.574C16.128 172.415 19.0915 172.845 21.383 172.704Z" fill="black"/>
<path opacity="0.1" d="M75.6539 144.285C75.7143 144.285 75.8756 140.126 75.8555 139.863C75.6203 136.792 73.3623 131.006 70.0158 130.2C69.4557 130.082 68.877 130.083 68.3174 130.204C67.7579 130.324 67.2299 130.561 66.7678 130.899C66.3058 131.237 65.92 131.668 65.6355 132.165C65.3511 132.661 65.1744 133.212 65.1169 133.782C64.7943 136.194 66.4206 138.708 68.0468 140.327C69.962 142.229 75.6539 144.285 75.6539 144.285Z" fill="black"/>
</g>
<g opacity="0.1">
<path opacity="0.1" d="M315.209 213.891C312.938 213.972 308.24 212.009 308.24 212.009C308.24 212.009 310.471 209.321 310.639 209.153C312.528 207.386 317.225 205.088 319.758 206.465C320.172 206.712 320.529 207.043 320.807 207.437C321.085 207.83 321.277 208.278 321.371 208.751C321.464 209.223 321.458 209.71 321.351 210.18C321.245 210.65 321.041 211.092 320.753 211.478C319.577 213.185 317.138 213.817 315.209 213.891Z" fill="black"/>
<path opacity="0.1" d="M308.186 226.968C306.063 226.477 302.319 223.608 302.017 223.359C300.365 225.508 298.568 227.542 296.641 229.448C295.532 230.57 294.383 231.659 293.214 232.74C293.819 232.324 294.363 231.961 294.45 231.921C296.742 230.711 301.876 229.737 303.946 231.766C304.28 232.113 304.538 232.526 304.702 232.979C304.866 233.431 304.933 233.913 304.899 234.394C304.865 234.874 304.73 235.342 304.503 235.767C304.277 236.192 303.963 236.564 303.583 236.86C302.01 238.17 299.49 238.13 297.609 237.693C295.727 237.256 292.448 234.851 291.601 234.205C291.144 234.615 290.701 235.032 290.257 235.435C288.08 237.397 285.896 239.34 283.806 241.315C283.073 241.987 282.375 242.72 281.676 243.425C282.213 243.062 282.67 242.753 282.744 242.713C285.036 241.51 290.176 240.536 292.246 242.565C292.58 242.911 292.838 243.324 293.002 243.776C293.166 244.228 293.233 244.71 293.199 245.19C293.165 245.669 293.03 246.137 292.803 246.561C292.577 246.985 292.263 247.357 291.883 247.652C290.311 248.996 287.791 248.929 285.903 248.492C284.014 248.055 281.064 245.878 280.049 245.132C279.377 245.878 278.658 246.631 278.033 247.383C277.603 247.908 277.16 248.385 276.763 248.942L275.554 250.542C274.828 251.583 274.069 252.659 273.383 253.693C272.899 254.412 272.456 255.105 271.999 255.804C272.725 255.098 274.169 253.788 274.304 253.66C276.387 252.121 281.313 250.381 283.671 252.067C284.054 252.36 284.371 252.73 284.601 253.153C284.832 253.576 284.971 254.043 285.009 254.523C285.048 255.003 284.985 255.486 284.825 255.94C284.666 256.395 284.412 256.811 284.081 257.161C282.737 258.693 280.224 259.043 278.295 258.888C276.179 258.727 272.187 256.549 271.69 256.274C270.944 257.43 270.231 258.559 269.58 259.634C269.096 260.427 268.632 261.2 268.195 261.939L266.515 261.267C267.019 260.447 267.557 259.6 268.121 258.707C268.874 257.531 269.701 256.294 270.561 255.024C269.494 254.024 268.488 252.961 267.55 251.839C265.581 252.793 261.354 253.183 260.83 253.183C260.83 254.527 260.877 255.871 260.931 257.148C260.931 257.82 260.985 258.451 261.012 259.076L259.238 258.404C259.238 258.008 259.238 257.625 259.238 257.215C259.238 255.817 259.238 254.325 259.238 252.8C258.686 252.706 254.198 251.919 252.437 250.723C250.838 249.635 249.077 247.807 248.996 245.764C248.955 245.284 249.015 244.8 249.172 244.345C249.33 243.89 249.582 243.473 249.912 243.122C250.241 242.77 250.642 242.493 251.086 242.306C251.53 242.12 252.009 242.03 252.491 242.041C255.38 242.189 258.149 246.624 258.821 249.124C258.861 249.272 259.11 250.918 259.251 251.966C259.251 251.335 259.251 250.73 259.285 250.085C259.285 248.815 259.379 247.545 259.439 246.18C259.5 245.508 259.553 244.836 259.607 244.164C259.661 243.493 259.775 242.82 259.863 242.108C260.084 240.509 260.393 238.903 260.736 237.29C259.621 237.29 255.662 237.109 253.909 236.275C252.155 235.442 250.172 233.903 249.756 231.894C249.643 231.426 249.63 230.94 249.718 230.466C249.806 229.993 249.992 229.544 250.264 229.147C250.536 228.751 250.889 228.416 251.299 228.164C251.71 227.913 252.168 227.75 252.645 227.687C255.528 227.391 258.935 231.356 259.977 233.735C260.044 233.883 260.602 235.67 260.884 236.652C261.099 235.684 261.307 234.716 261.556 233.748C262.275 230.94 263.088 228.124 263.888 225.308C264.136 224.441 264.365 223.581 264.607 222.721C264.21 222.721 259.5 222.634 257.537 221.7C255.79 220.866 253.794 219.321 253.384 217.318C253.27 216.85 253.255 216.363 253.342 215.889C253.429 215.415 253.614 214.965 253.887 214.568C254.16 214.171 254.514 213.836 254.925 213.585C255.336 213.334 255.796 213.172 256.274 213.111C259.157 212.816 262.564 216.781 263.606 219.159C263.679 219.334 264.479 221.908 264.647 222.566C265.171 220.671 265.675 218.77 266.092 216.881C266.674 214.333 267.09 211.749 267.335 209.147C267.147 209.147 262.235 209.079 260.225 208.118C258.478 207.292 256.482 205.746 256.066 203.744C255.952 203.275 255.939 202.788 256.026 202.314C256.113 201.84 256.299 201.39 256.571 200.993C256.844 200.595 257.197 200.26 257.608 200.008C258.018 199.756 258.478 199.593 258.955 199.53C261.845 199.235 265.245 203.206 266.287 205.578C266.374 205.766 267.228 208.535 267.349 209.046C267.349 208.891 267.389 208.737 267.402 208.589C267.577 205.97 267.516 203.341 267.221 200.733C267.08 199.295 266.865 197.924 266.623 196.594C265.709 196.674 261.516 197.004 259.607 196.345C257.699 195.686 255.629 194.396 254.997 192.447C254.833 191.994 254.767 191.512 254.802 191.031C254.837 190.551 254.972 190.083 255.2 189.658C255.427 189.234 255.742 188.862 256.123 188.567C256.503 188.271 256.942 188.06 257.41 187.945C260.239 187.333 264.063 190.902 265.359 193.146C265.427 193.267 266.031 194.584 266.415 195.552C266.3 194.954 266.186 194.336 266.065 193.764C265.601 191.621 265.044 189.685 264.54 187.979C264.244 187.011 263.955 186.137 263.679 185.291C262.739 184.901 258.975 183.275 257.631 181.85C256.287 180.425 254.997 178.288 255.333 176.272C255.395 175.794 255.557 175.334 255.809 174.923C256.06 174.512 256.396 174.158 256.794 173.885C257.191 173.613 257.642 173.427 258.117 173.34C258.591 173.254 259.078 173.268 259.547 173.383C262.342 174.149 264.089 179.075 264.21 181.662C264.21 181.89 263.975 185.398 263.928 185.378H263.868C264.15 186.157 264.446 186.991 264.748 187.911C265.292 189.612 265.89 191.54 266.401 193.677C266.983 195.979 267.432 198.312 267.745 200.666C268.097 203.3 268.217 205.96 268.101 208.616C268.097 208.647 268.097 208.679 268.101 208.71C268.397 207.91 269.304 205.713 269.391 205.551C270.635 203.287 274.378 199.631 277.227 200.175C277.697 200.28 278.14 200.483 278.526 200.77C278.913 201.057 279.235 201.422 279.471 201.841C279.708 202.261 279.853 202.725 279.898 203.205C279.944 203.684 279.887 204.168 279.734 204.624C279.142 206.586 277.046 207.984 275.211 208.656C273.161 209.415 268.444 209.073 268.074 209.046C267.843 211.74 267.435 214.416 266.851 217.056C266.542 218.602 266.179 220.147 265.803 221.693C266.079 221.021 266.334 220.409 266.381 220.349C267.631 218.077 271.374 214.428 274.216 214.973C274.687 215.077 275.13 215.279 275.518 215.565C275.905 215.852 276.227 216.217 276.464 216.637C276.7 217.057 276.846 217.522 276.89 218.002C276.935 218.481 276.878 218.965 276.723 219.421C276.132 221.377 274.035 222.741 272.2 223.413C270.366 224.085 266.334 223.89 265.265 223.816C265.118 224.408 264.97 225.006 264.815 225.59C264.076 228.426 263.33 231.255 262.678 234.051C262.45 235.039 262.255 236.013 262.067 236.994C262.315 236.389 262.524 235.885 262.564 235.812C263.814 233.54 267.557 229.891 270.406 230.436C270.876 230.54 271.319 230.743 271.706 231.03C272.092 231.317 272.414 231.682 272.65 232.101C272.887 232.521 273.032 232.986 273.078 233.465C273.123 233.944 273.067 234.428 272.913 234.884C272.321 236.84 270.225 238.204 268.383 238.876C266.542 239.548 262.913 239.366 261.663 239.292C261.495 240.3 261.327 241.309 261.207 242.296C261.146 242.968 261.038 243.64 261.005 244.312L260.884 246.328C260.85 247.605 260.81 248.916 260.81 250.159C260.81 251.026 260.81 251.852 260.81 252.679C261.025 251.698 261.482 249.782 261.549 249.628C262.411 247.521 263.8 245.67 265.581 244.252C265.667 244.018 265.775 243.793 265.904 243.58C266.135 243.158 266.452 242.789 266.834 242.497C267.217 242.205 267.657 241.997 268.125 241.886C268.593 241.776 269.08 241.764 269.552 241.853C270.025 241.943 270.474 242.13 270.87 242.404C273.208 244.124 273.067 249.352 272.214 251.812C272.167 251.953 271.468 253.472 271.011 254.419C271.367 253.902 271.683 253.398 272.073 252.867C272.799 251.825 273.551 250.797 274.364 249.695L275.601 248.123C276.004 247.592 276.495 247.074 276.945 246.543C278.02 245.34 279.162 244.164 280.338 243.009C279.418 242.37 276.206 240.059 275.204 238.399C274.203 236.739 273.39 234.367 274.156 232.452C274.32 232.002 274.576 231.592 274.908 231.247C275.24 230.903 275.64 230.632 276.083 230.451C276.527 230.271 277.003 230.185 277.481 230.2C277.959 230.215 278.429 230.329 278.86 230.536C281.427 231.88 282.079 237.068 281.642 239.622C281.642 239.776 281.091 241.577 280.789 242.552C281.501 241.88 282.207 241.174 282.952 240.502C285.103 238.553 287.334 236.652 289.551 234.75L291.567 232.982C291.238 232.761 287.354 230.093 286.232 228.231C285.231 226.578 284.424 224.199 285.183 222.291C285.348 221.841 285.604 221.431 285.936 221.087C286.267 220.742 286.668 220.471 287.11 220.29C287.553 220.109 288.029 220.022 288.507 220.036C288.986 220.05 289.456 220.163 289.887 220.369C292.455 221.713 293.106 226.901 292.67 229.454C292.67 229.649 291.883 232.23 291.662 232.875C293.147 231.585 294.612 230.274 296.003 228.93C297.926 227.11 299.727 225.163 301.392 223.104C301.238 222.997 297.179 220.235 296.016 218.326C295.015 216.666 294.202 214.294 294.961 212.379C295.126 211.926 295.384 211.513 295.719 211.167C296.054 210.821 296.457 210.548 296.904 210.368C297.351 210.187 297.83 210.103 298.312 210.119C298.793 210.136 299.266 210.253 299.699 210.464C302.266 211.808 302.918 216.996 302.481 219.549C302.447 219.751 301.634 222.526 301.453 223.017C301.547 222.902 301.654 222.788 301.748 222.667C303.338 220.58 304.739 218.356 305.935 216.021C306.607 214.738 307.185 213.474 307.716 212.238C306.903 211.801 303.227 209.758 302.004 208.159C300.781 206.559 299.759 204.335 300.303 202.366C300.416 201.897 300.626 201.457 300.92 201.075C301.213 200.693 301.585 200.377 302.009 200.148C302.433 199.919 302.901 199.782 303.382 199.746C303.863 199.711 304.346 199.777 304.799 199.94C307.487 200.995 308.717 206.076 308.562 208.676C308.562 208.817 308.307 210.235 308.119 211.263C308.347 210.706 308.596 210.128 308.791 209.583C309.584 207.567 310.189 205.619 310.713 203.912C311.002 202.944 311.244 202.057 311.459 201.224C310.887 200.377 308.63 196.95 308.287 195.001C307.944 193.052 308.058 190.572 309.449 189.081C309.765 188.717 310.154 188.424 310.591 188.22C311.027 188.016 311.502 187.907 311.984 187.899C312.465 187.89 312.943 187.984 313.387 188.172C313.83 188.361 314.228 188.641 314.557 188.993C316.472 191.177 315.229 196.251 313.885 198.468C313.77 198.663 311.627 201.459 311.6 201.419L311.559 201.365C311.371 202.171 311.15 203.025 310.887 203.959C310.464 205.632 309.873 207.594 309.12 209.664C308.331 211.902 307.411 214.092 306.365 216.223C305.208 218.614 303.838 220.897 302.272 223.044C302.254 223.07 302.234 223.095 302.212 223.117C302.884 222.62 304.866 221.283 305.028 221.196C307.319 219.993 312.46 219.012 314.53 221.041C314.864 221.388 315.122 221.801 315.286 222.253C315.45 222.706 315.517 223.188 315.483 223.669C315.449 224.149 315.314 224.617 315.087 225.042C314.861 225.467 314.547 225.839 314.167 226.135C312.594 227.445 310.068 227.412 308.186 226.968Z" fill="black"/>
<path opacity="0.1" d="M266.878 196.137C266.824 196.137 267.247 192.649 267.301 192.427C267.906 189.914 270.554 185.405 273.443 185.183C273.924 185.16 274.405 185.238 274.853 185.412C275.302 185.587 275.709 185.854 276.048 186.196C276.386 186.539 276.649 186.949 276.818 187.399C276.988 187.85 277.061 188.331 277.032 188.812C276.985 190.828 275.298 192.73 273.725 193.859C271.877 195.182 266.878 196.13 266.878 196.137Z" fill="black"/>
</g>
<path d="M140.213 22.418L148.613 102.245" stroke="#263238" stroke-linecap="round" stroke-linejoin="round"/>
<path d="M165.406 39.3793L159.143 40.8174L153.411 52.154L144.333 49.5601L144.077 52.033L155.367 56.7169L159.405 51.1124V60.89L171.528 61.4142L174.008 50.3329L178.437 54.2439V64.539H181.044L182.61 51.6366L175.701 40.4276L165.406 39.3793Z" fill="white" stroke="#263238" stroke-linecap="round" stroke-linejoin="round"/>
<path d="M159.406 51.1123L159.312 45.5952" stroke="#263238" stroke-linecap="round" stroke-linejoin="round"/>
<path d="M165.312 43.008L167.013 46.2C167.013 46.2 171.717 47.6918 172.55 47.9001C173.383 48.1085 175.957 47.2617 178.081 46.8384C180.204 46.415 187.025 49.8153 187.025 49.8153L192.985 50.0304L189.793 46.2L178.296 44.4931L172.335 46.415L168.303 45.3465L169.163 43.68L167.248 40.6963L165.312 43.008Z" fill="black" stroke="#263238" stroke-linecap="round" stroke-linejoin="round"/>
<path d="M165.924 38.4654C165.578 38.4 165.22 38.4732 164.927 38.6693C164.634 38.8653 164.43 39.1686 164.358 39.5138C164.103 40.8174 163.841 44.0766 163.841 44.0766L166.966 43.1627L170.621 44.7285C170.621 44.7285 171.791 41.3349 171.139 40.1656C170.487 38.9963 167.49 37.4238 165.924 38.4654Z" fill="white" stroke="#263238" stroke-linecap="round" stroke-linejoin="round"/>
<path d="M165.271 36.6442C165.271 36.6442 165.661 40.2931 165.796 41.5968C165.93 42.9005 166.71 44.856 167.227 44.4662C167.744 44.0765 169.572 40.4342 169.572 40.4342L170.486 37.9613L165.271 36.6442Z" fill="white" stroke="#263238" stroke-linecap="round" stroke-linejoin="round"/>
<path d="M165.312 31.3153C165.312 31.3153 164.17 31.2145 164.17 33.0826C164.17 34.9508 164.996 35.0516 164.996 35.0516L165.312 31.3153Z" fill="white" stroke="#263238" stroke-linecap="round" stroke-linejoin="round"/>
<path d="M172.953 32.8743C173.101 32.8822 173.246 32.9224 173.376 32.9922C173.507 33.0619 173.621 33.1595 173.71 33.278C173.799 33.3965 173.861 33.5331 173.892 33.6781C173.922 33.8231 173.921 33.9731 173.887 34.1175C173.679 35.2599 171.71 36.8055 171.71 36.8055L172.953 32.8743Z" fill="white" stroke="#263238" stroke-linecap="round" stroke-linejoin="round"/>
<path d="M169.183 27.552C169.183 27.552 167.099 27.0279 165.923 29.5075C164.747 31.9872 165.009 34.9843 165.251 36.6778C165.493 38.3712 167.079 39.1507 168.645 39.1507C170.211 39.1507 172.549 35.8983 173.073 33.4186C173.598 30.9389 173.221 27.552 169.183 27.552Z" fill="white" stroke="#263238" stroke-linecap="round" stroke-linejoin="round"/>
<path d="M141.812 48.1152L142.33 52.0263L144.675 52.2883L144.285 47.8531L141.812 48.1152Z" fill="white" stroke="#263238" stroke-linecap="round" stroke-linejoin="round"/>
<path d="M144.332 48.0548L145.28 47.9271L145.468 50.0103L144.52 50.138L144.332 48.0548Z" fill="white" stroke="#263238" stroke-linecap="round" stroke-linejoin="round"/>
<path d="M178.436 64.5389L177.012 66.77L177.381 69.0077L178.625 68.8868L180.741 68.1409L181.044 64.5389H178.436Z" fill="white" stroke="#263238" stroke-linecap="round" stroke-linejoin="round"/>
<path d="M159.405 60.89L158.484 64.9086L148.283 78.3351L155.124 97.6148L156.865 97.2385L155.373 78.8324L163.706 70.0023L164.7 70.6273L164.727 80.4788L174.276 96.6203L176.265 96.1162L171.79 80.5729L172.038 64.035L171.528 61.4142L159.405 60.89Z" fill="#263238" stroke="#263238" stroke-linecap="round" stroke-linejoin="round"/>
<path d="M155.125 97.6148L153.633 99.7249C153.633 99.7249 151.268 100.847 150.898 101.465C150.529 102.084 152.914 101.963 152.914 101.963L155.649 101.714L158.512 99.8526L156.893 97.2385L155.125 97.6148Z" fill="white" stroke="#263238" stroke-linecap="round" stroke-linejoin="round"/>
<path d="M140.569 25.2605C140.569 25.2605 139.319 28.1098 134.158 30.0653C128.997 32.0208 121.525 33.0893 119.569 37.1818C117.614 41.2743 117.614 40.9248 117.257 43.2298C117.067 44.5771 116.442 45.8254 115.477 46.7847C115.477 46.7847 117.257 46.9661 118.165 45.7229C119.072 44.4797 119.414 40.9181 120.853 40.3805C122.291 39.8429 124.905 38.976 124.905 38.976C124.905 38.976 122.418 41.113 122.217 42.1815C122.015 43.2499 121.861 45.7431 121.504 47.3424C121.349 48.2168 120.924 49.0206 120.288 49.6407C120.288 49.6407 122.6 49.6407 123.312 48.0413C124.024 46.4419 123.312 44.305 125.624 42.6989C127.935 41.0928 130.429 41.8119 134.36 41.9866C138.291 42.1613 142.014 39.8563 142.014 39.8563L140.569 25.2605Z" fill="black" stroke="#263238" stroke-linecap="round" stroke-linejoin="round"/>
<path d="M174.277 96.6202L172.563 102.312L176.817 102.144L176.266 96.1162L174.277 96.6202Z" fill="white" stroke="#263238" stroke-linecap="round" stroke-linejoin="round"/>
<path d="M167.758 32.5449C167.684 32.8809 167.449 33.1161 167.22 33.0691C166.992 33.022 166.871 32.7062 166.945 32.3971C167.018 32.088 167.254 31.8259 167.482 31.8729C167.711 31.92 167.825 32.2089 167.758 32.5449Z" fill="#263238"/>
<path d="M170.87 33.2708C170.796 33.6068 170.561 33.842 170.332 33.7949C170.104 33.7479 169.983 33.432 170.057 33.1229C170.131 32.8138 170.366 32.5517 170.594 32.5988C170.823 32.6458 170.937 32.928 170.87 33.2708Z" fill="#263238"/>
<path d="M168.8 32.9751L167.974 35.4682H169.324" stroke="#263238" stroke-linecap="round" stroke-linejoin="round"/>
<path d="M166.938 36.194C166.938 36.194 167.664 37.4372 169.532 36.7114" stroke="#263238" stroke-linecap="round" stroke-linejoin="round"/>
<path d="M166.831 30.7978C167.101 30.6519 167.414 30.6029 167.716 30.6592C168.018 30.7154 168.291 30.8735 168.491 31.1069" stroke="#263238" stroke-linecap="round" stroke-linejoin="round"/>
<path d="M170.05 31.5236C170.232 31.4239 170.432 31.3637 170.639 31.347C170.845 31.3302 171.053 31.3573 171.249 31.4265C171.444 31.4956 171.623 31.6053 171.773 31.7482C171.923 31.8912 172.041 32.0643 172.12 32.2561" stroke="#263238" stroke-linecap="round" stroke-linejoin="round"/>
<path d="M164.862 30.4887L172.328 29.5681C172.328 29.5681 172.019 30.8113 172.436 31.1204C172.852 31.4295 172.953 32.8877 172.953 32.8877L172.644 34.5476L174.304 31.6445C174.304 31.6445 174.821 29.3597 174.405 28.634C174.268 28.415 174.087 28.2274 173.873 28.0837C173.658 27.9401 173.416 27.8436 173.162 27.8007C172.717 27.1284 172.091 26.5964 171.355 26.2668C170.62 25.9372 169.806 25.8236 169.009 25.9393C166.106 26.2484 164.862 27.6999 164.862 28.8423V30.4887Z" fill="#263238" stroke="#263238" stroke-linecap="round" stroke-linejoin="round"/>
<path d="M159.351 312.614L172.522 237.035L122.808 191.413L140.851 129.938L121.538 130.368L113.38 137.666L96.3309 137.249L94.026 145.562L89.3489 144.977L87.7361 147.894L79.7594 163.82L75.6132 179.726L60.1572 199.046L58.4637 244.635L33.546 280.6L25.7104 312.614H159.351Z" fill="#808080" stroke="#39515E" stroke-linecap="round" stroke-linejoin="round"/>
<path d="M271.528 312.614L255.031 276.441L281.911 294.349V265.689L266.112 246.973L268.451 225.92L244.46 180.298L243.264 164.506L235.079 156.899L193.066 159.936L190.068 145.186L163.188 129.978L147.06 169.028L132.203 175.6L142.672 189.954L140.979 201.331L144.48 218.897L86.016 231.766C86.016 231.766 85.4313 259.842 85.4313 262.181C85.4313 264.519 73.7318 277.973 73.7318 277.973L73.1875 312.614H271.528Z" fill="#ABABAB" stroke="#39515E" stroke-linecap="round" stroke-linejoin="round"/>
<path d="M304.087 312.614L297.105 309.557L288.328 290.842L277.798 283.241L273.121 272.126L268.444 263.35L243.445 251.14L247.323 312.614H304.087Z" fill="#CCCCCC" stroke="#39515E" stroke-linecap="round" stroke-linejoin="round"/>
<path d="M42.4367 312.541H73.6914L74.2559 294.35L71.3327 283.826V255.75L64.317 254.581L58.4639 261.012L49.1097 266.28L28.8354 312.615H42.4367V312.541Z" fill="#CCCCCC" stroke="#39515E" stroke-linecap="round" stroke-linejoin="round"/>
<path d="M53.249 282.085L53.9345 279.169" stroke="#39515E" stroke-miterlimit="10"/>
<path d="M42.4365 312.614L46.6029 296.157L50.5341 293.657L52.8324 283.859" stroke="#39515E" stroke-miterlimit="10"/>
<path d="M35.6895 312.789L42.3087 294.014" stroke="#39515E" stroke-miterlimit="10"/>
<path d="M64.4108 262.349L63.7656 265.4" stroke="#39515E" stroke-miterlimit="10"/>
<path d="M65.9096 255.212L64.6865 261.038" stroke="#39515E" stroke-miterlimit="10"/>
<path d="M73.6912 312.541L74.2556 294.35L71.3324 283.826V255.75L65.486 293.18L60.2176 294.934L58.4636 305.464L57.375 312.541H73.6912Z" fill="white" stroke="#39515E" stroke-linecap="round" stroke-linejoin="round"/>
<path d="M173.786 291.796C177.111 291.346 180.362 290.46 183.456 289.162C185.926 288.154 188.099 286.535 189.773 284.458C189.967 284.196 190.149 283.92 190.324 283.645L185.707 262.813L176.601 254.869L175.083 248.055L166.347 241.241L163.323 251.845L158.397 258.66L158.021 283.651L162.725 292.643C166.426 292.611 170.122 292.328 173.786 291.796Z" fill="white" stroke="#39515E" stroke-linecap="round" stroke-linejoin="round"/>
<path d="M173.786 291.796L172.858 284.014L175.593 276.642V272.274L175.042 265.447" stroke="#39515E" stroke-miterlimit="10"/>
<path d="M179.33 268.142L180.782 276.367L183.51 276.911L182.966 283.739L184.054 287.294" stroke="#39515E" stroke-miterlimit="10"/>
<path d="M178.321 262.443L178.805 265.185" stroke="#39515E" stroke-miterlimit="10"/>
<path d="M169.311 244.964L171.495 267.355" stroke="#39515E" stroke-miterlimit="10"/>
<path d="M142.632 291.238C148.914 292.193 155.261 292.665 161.616 292.649C162.893 292.649 164.143 292.616 165.372 292.569L165.238 285.54L162.967 282.516V260.931L166.757 257.141L166.374 241.248L161.831 249.581L155.783 254.876L151.993 265.857L145.945 273.054L144.426 280.627L137.236 286.675L134.366 289.733C137.077 290.311 139.832 290.813 142.632 291.238Z" fill="#CCCCCC" stroke="#39515E" stroke-linecap="round" stroke-linejoin="round"/>
<path d="M252.067 312.615L283.819 312.554L242.706 287.919L232.767 263.935L224.575 262.766L217.56 253.411L214.045 256.919L216.384 277.388L207.614 292.011V301.372L203.521 311.896L223.305 312.615H252.067Z" fill="white" stroke="#39515E" stroke-linecap="round" stroke-linejoin="round"/>
<path d="M236.141 312.574L234.643 304.208L237.001 299.269L236.356 289.612L238.292 291.547L251.382 312.574H236.141Z" fill="#CCCCCC" stroke="#39515E" stroke-linecap="round" stroke-linejoin="round"/>
<path d="M236.355 289.612L245.589 294.121L249.231 298.623L259.748 303.993L267.046 308.502L271.528 312.615L251.381 312.574L236.355 289.612Z" fill="white" stroke="#39515E" stroke-linecap="round" stroke-linejoin="round"/>
<path d="M207.614 292.011V301.372L203.206 312.426L219.905 312.641L216.384 292.596L223.406 286.164L214.045 256.919L216.384 277.388L207.614 292.011Z" fill="#CCCCCC" stroke="#39515E" stroke-linecap="round" stroke-linejoin="round"/>
<path d="M224.575 262.766L230.751 275.822L233.479 276.098L235.663 282.65" stroke="#39515E" stroke-miterlimit="10"/>
<path d="M228.722 302.266L229.662 305.317" stroke="#39515E" stroke-miterlimit="10"/>
<path d="M225.019 278.551L226.927 285.929L230.206 291.386L226.383 294.665L228.036 300.035" stroke="#39515E" stroke-miterlimit="10"/>
<path d="M146.993 128.52L133.284 143.512L132.813 116.028L146.462 99.4561L146.993 128.52Z" fill="#CCCCCC" stroke="#39515E" stroke-linecap="round" stroke-linejoin="round"/>
<path d="M137.478 188.543L151.495 176.172C152.501 175.299 153.62 174.567 154.822 173.994C156.33 173.279 157.906 172.716 159.526 172.314C161.603 171.809 163.714 171.459 165.843 171.266C168.523 171.019 171.215 170.92 173.907 170.97C180.414 171.056 186.906 171.629 193.327 172.684C198.665 173.568 203.942 174.786 209.126 176.333C213.79 177.724 217.862 179.216 221.377 180.593C224.891 181.971 227.794 183.234 230.146 184.162L211.955 195.955C209.731 195.082 206.969 193.892 203.656 192.595C200.343 191.298 196.479 189.907 192.064 188.563C187.16 187.107 182.168 185.964 177.119 185.143C171.039 184.155 164.893 183.624 158.733 183.557C156.18 183.513 153.627 183.612 151.086 183.853C149.072 184.038 147.075 184.373 145.111 184.854C143.567 185.233 142.065 185.769 140.629 186.453C139.489 187.005 138.429 187.708 137.478 188.543Z" fill="#CCCCCC" stroke="#39515E" stroke-linecap="round" stroke-linejoin="round"/>
<path d="M182.112 289.706L166.293 295.754C167.676 295.24 169 294.583 170.245 293.792C171.347 293.089 172.339 292.226 173.188 291.231C173.989 290.289 174.609 289.207 175.016 288.039C175.435 286.796 175.63 285.487 175.594 284.175C175.583 281.886 174.88 279.654 173.578 277.771C171.908 275.557 169.775 273.734 167.328 272.429C163.804 270.503 160.099 268.928 156.267 267.725C151.697 266.186 146.187 264.667 139.702 263.088C130.87 261.031 122.222 258.253 113.844 254.782C106.277 251.681 99.1747 247.552 92.7362 242.511C86.8228 237.892 81.952 232.075 78.4428 225.443C74.8845 218.394 73.0425 210.605 73.0668 202.709C73.0331 199.502 73.2579 196.297 73.7388 193.126C74.1979 190.078 74.9173 187.074 75.8892 184.148C76.8461 181.281 78.0536 178.504 79.4978 175.849C80.953 173.192 82.6371 170.667 84.5311 168.303L95.4242 154.641C91.4072 159.638 88.3166 165.314 86.2984 171.4C85.2598 174.493 84.4909 177.67 84.0002 180.896C83.5022 184.254 83.2775 187.648 83.3282 191.043C83.3228 199.413 85.2913 207.667 89.0738 215.134C92.7956 222.165 97.9566 228.334 104.221 233.238C110.591 238.365 118.165 242.646 126.585 246.228C135.45 249.914 144.601 252.867 153.949 255.058C160.837 256.738 166.636 258.357 171.468 259.99C175.524 261.279 179.443 262.965 183.167 265.023C186.178 266.777 188.335 268.632 189.76 270.675C191.148 272.665 191.9 275.029 191.917 277.455C191.962 278.845 191.757 280.231 191.312 281.548C190.884 282.777 190.232 283.916 189.39 284.908C188.492 285.953 187.443 286.859 186.279 287.596C184.968 288.444 183.571 289.151 182.112 289.706Z" fill="#CCCCCC" stroke="#39515E" stroke-linecap="round" stroke-linejoin="round"/>
<path d="M104.22 233.238C110.591 238.365 118.164 242.646 126.584 246.228C135.449 249.914 144.601 252.867 153.948 255.058C160.836 256.738 166.636 258.357 171.467 259.99C175.523 261.279 179.442 262.965 183.167 265.023C186.177 266.777 188.335 268.632 189.759 270.675C191.148 272.665 191.9 275.029 191.916 277.455C192.027 279.974 191.263 282.453 189.752 284.471C188.079 286.549 185.906 288.168 183.436 289.175C180.348 290.472 177.104 291.357 173.786 291.809C169.756 292.392 165.688 292.678 161.616 292.663C155.261 292.678 148.914 292.206 142.632 291.252C136.599 290.337 130.627 289.055 124.75 287.414C119.038 285.822 113.601 283.981 108.535 282.038C103.468 280.096 98.7636 278.006 94.5233 275.99L85.9351 312.48H240.287C245.097 307.123 248.86 300.912 251.382 294.168C254.025 286.983 255.252 279.355 254.997 271.703C254.768 263.525 253.525 256.247 251.086 249.722C248.659 243.199 244.88 237.263 239.998 232.304C234.978 227.156 228.574 222.62 220.604 218.575C212.634 214.529 203.038 210.948 191.708 207.715C184.415 205.592 178.037 203.553 172.576 201.6C167.913 199.986 163.365 198.06 158.961 195.834C155.333 193.933 152.611 192.044 150.797 190.109C148.982 188.174 148.055 186.205 148.015 184.135C147.963 182.442 148.328 180.762 149.076 179.243C150.009 177.476 151.402 175.995 153.108 174.955C155.559 173.478 158.261 172.464 161.078 171.965C165.324 171.17 169.643 170.835 173.96 170.964C180.468 171.05 186.959 171.623 193.381 172.677C198.719 173.561 203.995 174.78 209.18 176.326C213.844 177.717 217.916 179.209 221.431 180.587C224.945 181.964 227.848 183.228 230.2 184.155L240.199 139.131C237.055 137.787 233.674 136.443 229.972 135.166C226.269 133.889 222.237 132.693 217.808 131.611C213.38 130.529 208.542 129.595 203.219 128.782C197.897 127.969 192.071 127.391 185.687 127.015L185.102 100.39L146.496 99.4561L147.027 128.52C137.638 129.816 128.477 132.419 119.811 136.255C112.348 139.552 105.537 144.158 99.6977 149.856C94.3555 155.131 90.1558 161.449 87.3598 168.417C84.5394 175.62 83.1692 183.309 83.3278 191.043C83.3224 199.413 85.2909 207.667 89.0734 215.134C92.7952 222.165 97.9561 228.334 104.22 233.238Z" fill="white" stroke="#39515E" stroke-linecap="round" stroke-linejoin="round"/>
<path d="M85.9352 312.48L94.5234 275.97L83.5227 282.851L76.5205 312.48H85.9352Z" fill="#CCCCCC" stroke="#39515E" stroke-linecap="round" stroke-linejoin="round"/>
<path d="M271.589 303.67C270.912 303.543 270.212 303.68 269.634 304.053L272.644 305.861C272.725 305.648 272.761 305.421 272.751 305.194C272.741 304.967 272.684 304.744 272.586 304.54C272.487 304.335 272.348 304.152 272.177 304.003C272.005 303.853 271.806 303.74 271.589 303.67Z" fill="#263238"/>
<path d="M272.436 279.881C272.436 279.881 272.839 278.188 272.852 278.08C272.987 276.81 272.496 274.27 271.186 273.685C270.965 273.595 270.728 273.552 270.49 273.56C270.252 273.567 270.018 273.625 269.804 273.729C269.589 273.833 269.399 273.981 269.246 274.163C269.093 274.346 268.98 274.558 268.915 274.788C268.599 275.749 269.076 276.898 269.62 277.684C270.265 278.611 272.436 279.875 272.436 279.881Z" fill="#263238"/>
<path d="M292.36 290.217C293.18 289.229 294.168 286.857 293.395 285.634C293.262 285.436 293.089 285.269 292.886 285.143C292.684 285.017 292.457 284.936 292.221 284.904C291.985 284.872 291.744 284.891 291.516 284.959C291.287 285.027 291.076 285.142 290.895 285.298C290.532 285.664 290.253 286.105 290.079 286.59C289.905 287.075 289.839 287.593 289.887 288.107C289.887 289.229 291.023 291.467 291.03 291.467C291.036 291.467 292.32 290.304 292.36 290.217Z" fill="#263238"/>
<path d="M264.674 299.557C265.623 300.164 266.662 300.617 267.752 300.901C267.664 301.399 267.577 301.896 267.469 302.373C267.469 302.494 267.409 302.615 267.382 302.743L268.014 303.119C268.054 302.924 268.094 302.723 268.141 302.528C268.296 301.741 268.424 300.942 268.525 300.135C269.603 300.533 270.736 300.76 271.885 300.807C272.404 300.794 272.913 300.666 273.378 300.434C273.842 300.202 274.25 299.87 274.573 299.463C274.701 299.262 274.787 299.036 274.823 298.799C274.859 298.563 274.844 298.321 274.781 298.091C274.718 297.86 274.606 297.645 274.455 297.46C274.303 297.275 274.114 297.124 273.901 297.017C272.604 296.406 270.359 297.689 269.479 298.623C269.425 298.684 268.874 299.423 268.578 299.84C268.639 299.349 268.699 298.865 268.746 298.368C268.874 296.943 268.961 295.492 269.049 294.047C269.049 293.61 269.109 293.167 269.143 292.703C269.331 292.77 271.535 293.509 272.61 293.375C273.558 293.274 274.747 292.884 275.298 292.031C275.427 291.83 275.512 291.604 275.548 291.368C275.584 291.132 275.57 290.892 275.506 290.661C275.443 290.431 275.332 290.217 275.18 290.033C275.029 289.848 274.84 289.698 274.626 289.592C273.329 288.98 271.085 290.264 270.205 291.198C270.144 291.272 269.344 292.34 269.156 292.616C269.223 291.648 269.304 290.68 269.418 289.726C269.563 288.443 269.787 287.171 270.09 285.916C270.178 285.916 272.483 286.729 273.578 286.588C274.532 286.487 275.715 286.097 276.266 285.244C276.395 285.043 276.48 284.817 276.516 284.581C276.552 284.345 276.537 284.104 276.474 283.874C276.411 283.644 276.3 283.43 276.148 283.246C275.996 283.061 275.808 282.911 275.594 282.804C274.297 282.186 272.053 283.476 271.179 284.41C271.105 284.484 270.252 285.634 270.11 285.849C270.11 285.775 270.144 285.701 270.164 285.627C270.516 284.379 270.977 283.165 271.542 281.998C271.844 281.326 272.173 280.741 272.503 280.163C272.919 280.352 274.821 281.198 275.816 281.205C276.81 281.212 277.993 280.956 278.611 280.15C278.762 279.966 278.873 279.751 278.936 279.521C278.999 279.291 279.013 279.05 278.977 278.815C278.941 278.579 278.855 278.353 278.726 278.153C278.597 277.952 278.428 277.781 278.228 277.65C277.012 276.898 274.64 277.932 273.665 278.766C273.612 278.813 273.121 279.33 272.772 279.713C272.926 279.451 273.081 279.182 273.235 278.934C273.806 278.013 274.384 277.207 274.902 276.488C275.197 276.084 275.473 275.728 275.735 275.392C276.895 275.37 278.044 275.168 279.142 274.794C279.989 274.357 280.957 273.564 281.158 272.57C281.203 272.339 281.2 272.101 281.148 271.871C281.097 271.642 280.998 271.425 280.858 271.236C280.719 271.046 280.541 270.888 280.337 270.77C280.133 270.653 279.907 270.579 279.673 270.554C278.242 270.453 276.615 272.462 276.132 273.645C276.091 273.753 275.621 275.426 275.648 275.426H275.681C275.419 275.742 275.144 276.098 274.855 276.461C274.317 277.166 273.719 277.966 273.128 278.88C272.483 279.859 271.893 280.873 271.36 281.917C270.76 283.087 270.265 284.308 269.882 285.566C269.882 285.566 269.882 285.6 269.882 285.613C269.882 285.19 269.821 284.021 269.808 283.927C269.6 282.663 268.464 280.345 267.039 280.13C266.803 280.102 266.563 280.123 266.335 280.193C266.108 280.263 265.897 280.38 265.717 280.537C265.538 280.693 265.393 280.885 265.292 281.101C265.191 281.317 265.136 281.551 265.131 281.79C265.084 282.804 265.85 283.806 266.582 284.404C267.416 285.076 269.667 285.748 269.848 285.748C269.492 287.037 269.22 288.348 269.035 289.672C268.921 290.445 268.834 291.225 268.76 292.011C268.76 291.648 268.719 291.339 268.713 291.278C268.504 290.015 267.369 287.69 265.944 287.482C265.708 287.452 265.468 287.473 265.24 287.543C265.012 287.613 264.802 287.73 264.622 287.886C264.443 288.043 264.298 288.236 264.198 288.452C264.098 288.668 264.045 288.903 264.042 289.141C263.995 290.149 264.761 291.157 265.494 291.749C266.474 292.356 267.541 292.809 268.659 293.093C268.659 293.388 268.598 293.691 268.578 293.993C268.451 295.438 268.336 296.876 268.175 298.287C268.121 298.785 268.047 299.275 267.973 299.759C267.973 299.436 267.973 299.168 267.973 299.127C267.765 297.864 266.629 295.546 265.205 295.331C264.968 295.301 264.728 295.322 264.501 295.392C264.273 295.462 264.062 295.579 263.883 295.735C263.703 295.892 263.559 296.085 263.459 296.301C263.359 296.517 263.306 296.752 263.303 296.99C263.175 297.958 263.941 298.946 264.674 299.557Z" fill="#263238"/>
<path d="M302.205 287.65C301.069 286.769 298.603 287.549 297.548 288.275C297.454 288.335 296.137 289.478 296.164 289.491C295.774 289.605 295.357 289.74 294.9 289.894C294.067 290.19 293.126 290.526 292.132 290.963C291.05 291.417 289.997 291.937 288.98 292.522C287.834 293.166 286.748 293.91 285.734 294.746L285.701 294.78C285.922 294.423 286.527 293.436 286.561 293.335C287.085 292.166 287.414 289.599 286.346 288.631C286.165 288.476 285.953 288.362 285.725 288.294C285.496 288.227 285.257 288.209 285.021 288.241C284.785 288.272 284.558 288.353 284.356 288.478C284.153 288.604 283.98 288.77 283.846 288.967C283.248 289.78 283.342 291.023 283.611 291.944C283.926 292.979 285.459 294.739 285.586 294.88C284.573 295.753 283.623 296.696 282.744 297.703C282.22 298.287 281.716 298.886 281.218 299.497C281.406 299.188 281.568 298.906 281.588 298.865C282.112 297.696 282.441 295.129 281.373 294.161C281.192 294.007 280.98 293.892 280.752 293.825C280.524 293.758 280.284 293.739 280.048 293.771C279.812 293.803 279.585 293.884 279.383 294.009C279.181 294.134 279.007 294.301 278.873 294.497C278.275 295.311 278.369 296.56 278.645 297.474C279.128 298.518 279.769 299.482 280.546 300.33L279.982 301.002C279.081 302.145 278.188 303.28 277.294 304.362C276.978 304.745 276.622 305.115 276.319 305.478L276.635 304.927C277.159 303.764 277.489 301.197 276.42 300.223C276.239 300.068 276.028 299.954 275.799 299.886C275.571 299.819 275.331 299.801 275.095 299.833C274.859 299.864 274.633 299.945 274.43 300.07C274.228 300.196 274.054 300.362 273.92 300.559C273.322 301.372 273.416 302.615 273.692 303.536C274.141 304.594 274.758 305.572 275.52 306.432L274.848 307.158L275.439 307.514C275.849 307.091 276.245 306.647 276.642 306.17C277.325 307.088 278.146 307.895 279.075 308.562C279.515 308.832 280.009 309.001 280.523 309.059C281.036 309.117 281.555 309.062 282.045 308.898C282.263 308.804 282.459 308.665 282.62 308.489C282.781 308.314 282.904 308.107 282.979 307.881C283.054 307.655 283.081 307.416 283.058 307.179C283.035 306.942 282.962 306.713 282.845 306.506C282.099 305.276 279.485 305.115 278.275 305.411C278.194 305.411 277.327 305.74 276.85 305.921C277.166 305.545 277.489 305.175 277.798 304.786C278.692 303.67 279.565 302.508 280.439 301.352L281.245 300.303C281.366 300.458 282.804 302.319 283.758 302.79C284.198 303.058 284.691 303.226 285.203 303.284C285.715 303.342 286.233 303.288 286.722 303.126C286.94 303.031 287.137 302.892 287.297 302.717C287.458 302.541 287.581 302.334 287.656 302.108C287.732 301.883 287.759 301.643 287.735 301.407C287.712 301.17 287.639 300.94 287.522 300.734C286.782 299.504 284.202 299.336 282.952 299.631C282.858 299.631 281.608 300.109 281.299 300.236C281.89 299.463 282.488 298.704 283.113 297.972C283.945 296.98 284.843 296.046 285.801 295.176C285.855 295.25 287.34 297.192 288.321 297.683C289.168 298.126 290.371 298.455 291.285 298.019C291.504 297.925 291.701 297.786 291.862 297.611C292.024 297.436 292.147 297.229 292.223 297.003C292.299 296.777 292.327 296.538 292.304 296.301C292.281 296.063 292.209 295.834 292.091 295.626C291.345 294.397 288.765 294.235 287.522 294.524C287.421 294.524 286.077 295.035 285.835 295.143L286.003 294.981C286.984 294.135 288.039 293.377 289.155 292.717C289.766 292.34 290.371 292.045 290.969 291.722C291.211 292.105 292.313 293.859 293.16 294.41C294.006 294.961 295.115 295.398 296.069 295.082C296.297 295.012 296.507 294.894 296.686 294.738C296.866 294.581 297.01 294.388 297.11 294.172C297.21 293.956 297.264 293.722 297.267 293.484C297.271 293.246 297.225 293.01 297.131 292.791C296.526 291.487 293.98 291.043 292.709 291.198C292.636 291.198 291.943 291.373 291.439 291.5C291.715 291.366 291.99 291.225 292.252 291.104C293.24 290.647 294.168 290.291 294.994 289.982L296.298 289.531C297.277 290.148 298.344 290.613 299.463 290.909C299.971 291.001 300.493 290.981 300.992 290.85C301.491 290.718 301.956 290.479 302.353 290.15C302.518 289.981 302.647 289.78 302.73 289.559C302.813 289.338 302.848 289.102 302.834 288.867C302.82 288.631 302.757 288.401 302.649 288.191C302.54 287.982 302.389 287.797 302.205 287.65Z" fill="#263238"/>
<path d="M267.94 312.588L268.713 313.065L269.19 312.715L269.372 312.581L267.94 312.588Z" fill="#263238"/>
<path d="M45.2999 268.128C45.1004 268.258 44.9303 268.428 44.8007 268.627C44.6711 268.827 44.5848 269.051 44.5475 269.286C44.5101 269.521 44.5225 269.762 44.5838 269.992C44.6451 270.221 44.754 270.436 44.9034 270.621C45.3838 271.177 46.0553 271.532 46.785 271.616L48.2298 268.316C47.2151 267.859 46.0458 267.644 45.2999 268.128Z" fill="#263238"/>
<path d="M51.9862 263.794C51.5317 264.134 51.2088 264.62 51.0723 265.171L53.6057 263.753C53.3562 263.617 53.075 263.548 52.7905 263.555C52.5061 263.563 52.2286 263.645 51.9862 263.794Z" fill="#263238"/>
<path d="M52.4163 239.776C53.2764 240.502 55.7024 241.161 55.7024 241.161C55.7024 241.161 55.6553 239.427 55.6352 239.319C55.4336 238.056 54.2912 235.731 52.8867 235.509C52.6501 235.478 52.4096 235.497 52.181 235.565C51.9523 235.634 51.7409 235.75 51.5605 235.906C51.3801 236.063 51.2349 236.255 51.1345 236.472C51.0342 236.688 50.9809 236.924 50.9782 237.162C50.9513 238.17 51.7443 239.158 52.4163 239.776Z" fill="#263238"/>
<path d="M34.7225 247.397C34.7225 247.397 33.7212 245.979 33.6473 245.898C32.7871 244.957 30.5561 243.64 29.2524 244.238C29.039 244.344 28.8504 244.494 28.6988 244.678C28.5472 244.861 28.4361 245.075 28.3727 245.305C28.3092 245.534 28.295 245.775 28.3308 246.01C28.3666 246.245 28.4516 246.471 28.5804 246.671C29.0911 247.545 30.2671 247.948 31.2214 248.062C32.3302 248.19 34.7225 247.404 34.7225 247.397Z" fill="#263238"/>
<path d="M33.4593 242.034C33.5265 242.437 33.6005 242.868 33.6878 243.338C33.8625 244.205 34.0641 245.179 34.3598 246.228C34.6592 247.369 35.0272 248.491 35.4619 249.588C35.9417 250.811 36.5286 251.989 37.2158 253.109V253.149C36.9 252.88 35.9793 252.141 35.8718 252.094C34.7899 251.422 32.2901 250.75 31.1678 251.651C30.9898 251.809 30.8474 252.004 30.75 252.222C30.6525 252.44 30.6021 252.675 30.6021 252.914C30.6021 253.152 30.6525 253.388 30.75 253.606C30.8474 253.824 30.9898 254.018 31.1678 254.177C31.8936 254.883 33.1368 254.964 34.0843 254.849C35.1528 254.688 37.1083 253.404 37.2629 253.304C37.9956 254.425 38.7992 255.497 39.6686 256.516C40.1726 257.107 40.6968 257.692 41.2344 258.27L40.6565 257.813C39.5745 257.141 37.0747 256.469 35.9525 257.376C35.7754 257.535 35.6339 257.73 35.537 257.948C35.4401 258.166 35.39 258.401 35.39 258.639C35.39 258.878 35.4401 259.113 35.537 259.331C35.6339 259.548 35.7754 259.743 35.9525 259.903C36.3628 260.215 36.8364 260.434 37.3401 260.544C37.8439 260.655 38.3656 260.653 38.8689 260.541C39.9708 260.206 41.0153 259.705 41.9669 259.056C42.1752 259.271 42.3768 259.493 42.5851 259.728C43.5864 260.776 44.6011 261.818 45.5419 262.873C45.8779 263.243 46.2139 263.619 46.5163 263.995L46.0123 263.605C44.9304 262.933 42.4305 262.261 41.3083 263.162C41.1313 263.321 40.9897 263.516 40.8928 263.734C40.7959 263.951 40.7459 264.187 40.7459 264.425C40.7459 264.664 40.7959 264.899 40.8928 265.117C40.9897 265.334 41.1313 265.529 41.3083 265.689C42.0341 266.394 43.284 266.475 44.2248 266.361C45.2987 266.04 46.3165 265.555 47.2421 264.923C47.5579 265.312 47.8737 265.709 48.1627 266.112C48.3509 266.388 48.5525 266.636 48.7272 266.925V266.965L48.9825 266.388L49.1304 266.3L48.6936 265.709C48.2097 265.07 47.6923 264.445 47.1547 263.834C48.1508 263.282 49.0572 262.582 49.8427 261.757C50.17 261.358 50.4062 260.892 50.5351 260.392C50.6639 259.891 50.6822 259.369 50.5886 258.861C50.5252 258.632 50.4142 258.419 50.2629 258.235C50.1115 258.051 49.9232 257.902 49.7101 257.796C49.4971 257.69 49.2642 257.63 49.0265 257.62C48.7888 257.611 48.5517 257.651 48.3307 257.739C46.9867 258.303 46.4894 260.837 46.6104 262.107C46.6104 262.188 46.8053 263.095 46.9195 263.592C46.5902 263.222 46.2475 262.853 45.9317 262.49C44.9438 261.448 43.9157 260.427 42.8942 259.399L41.9669 258.458C42.1349 258.357 44.1509 257.195 44.7758 256.314C45.1451 255.922 45.42 255.45 45.5796 254.936C45.7391 254.421 45.7791 253.877 45.6965 253.344C45.6329 253.115 45.5219 252.901 45.3706 252.718C45.2194 252.534 45.0313 252.384 44.8184 252.278C44.6056 252.171 44.3728 252.111 44.1351 252.1C43.8974 252.089 43.6601 252.128 43.4385 252.215C42.0945 252.78 41.5973 255.313 41.7182 256.59C41.7182 256.684 41.9937 257.988 42.0811 258.317C41.4091 257.645 40.7371 256.919 40.0651 256.207C39.2014 255.244 38.4022 254.224 37.6728 253.156C37.7534 253.109 39.8635 251.899 40.5019 251.005C40.829 250.607 41.0653 250.142 41.1941 249.643C41.3229 249.144 41.3413 248.623 41.2478 248.116C41.1875 247.883 41.0784 247.665 40.9275 247.477C40.7766 247.289 40.5875 247.135 40.3728 247.026C40.158 246.916 39.9224 246.854 39.6817 246.843C39.4409 246.831 39.2006 246.871 38.9765 246.96C37.6325 247.524 37.1352 250.058 37.2561 251.335C37.2561 251.436 37.5585 252.833 37.6257 253.082L37.4913 252.9C36.7897 251.808 36.1848 250.657 35.6837 249.46C35.4014 248.788 35.1662 248.156 34.9512 247.524C36.0303 247.084 37.0345 246.479 37.9281 245.73C38.2953 245.37 38.5794 244.933 38.7605 244.452C38.9415 243.97 39.0153 243.455 38.9765 242.941C38.9353 242.709 38.846 242.487 38.7143 242.29C38.5826 242.094 38.4113 241.927 38.2115 241.801C38.0116 241.674 37.7875 241.591 37.5536 241.556C37.3197 241.521 37.081 241.535 36.8529 241.597C35.5089 242.014 34.6891 244.474 34.6622 245.757C34.6622 245.824 34.7294 246.537 34.7832 247.054C34.6958 246.765 34.595 246.469 34.5077 246.194C34.1918 245.159 33.9701 244.178 33.7819 243.324C33.6744 242.834 33.587 242.39 33.5131 241.98C34.2621 241.096 34.8697 240.101 35.3141 239.03C35.4773 238.541 35.5313 238.023 35.472 237.511C35.4128 236.998 35.2419 236.506 34.9713 236.067C34.8297 235.875 34.6493 235.716 34.4418 235.599C34.2343 235.482 34.0045 235.41 33.7673 235.387C33.5301 235.365 33.2909 235.393 33.0653 235.47C32.8397 235.546 32.6327 235.67 32.4581 235.832C31.4299 236.833 31.8533 239.38 32.4581 240.536C32.4984 240.576 33.4459 242.054 33.4593 242.034Z" fill="#263238"/>
<path d="M51.2001 247.014C52.1812 247.464 54.5198 247.477 54.708 247.484C54.6934 248.832 54.7698 250.179 54.9364 251.516C55.0305 252.289 55.1515 253.068 55.2792 253.841C55.1649 253.499 55.0641 253.169 55.044 253.169C54.5198 252 52.8129 250.058 51.3883 250.219C51.1523 250.253 50.926 250.335 50.724 250.462C50.522 250.588 50.3489 250.756 50.2158 250.953C50.0828 251.151 49.9928 251.374 49.9516 251.609C49.9105 251.844 49.9192 252.085 49.9771 252.316C50.1921 253.304 51.1867 254.056 52.0603 254.46C53.1627 254.791 54.3097 254.95 55.4606 254.93C55.5144 255.226 55.5614 255.521 55.6152 255.817C55.8705 257.248 56.1326 258.666 56.3476 260.071C56.4216 260.568 56.4753 261.059 56.5358 261.549L56.3342 260.944C55.8033 259.775 54.0964 257.833 52.6718 257.994C52.4389 258.028 52.2155 258.11 52.016 258.235C51.8165 258.36 51.6452 258.525 51.5131 258.719C51.3809 258.914 51.2908 259.134 51.2485 259.366C51.2062 259.597 51.2126 259.835 51.2673 260.064C51.4824 261.052 52.4769 261.804 53.3438 262.208C54.0832 262.468 54.8586 262.61 55.642 262.631L57.2078 261.751L58.4443 261.079L61.8244 257.376C61.7479 257.347 61.6693 257.325 61.5892 257.309C60.178 257.053 58.3435 258.875 57.7387 259.997C57.7387 260.071 57.3624 260.931 57.1809 261.401C57.1137 260.917 57.0465 260.434 56.9592 259.943C56.7172 258.532 56.4216 257.114 56.1393 255.689C56.0452 255.259 55.9646 254.822 55.884 254.386C56.0788 254.386 58.404 254.54 59.4052 254.157C60.299 253.814 61.3473 253.129 61.6228 252.141C61.6922 251.915 61.7133 251.676 61.6847 251.441C61.6561 251.206 61.5786 250.979 61.457 250.776C61.3354 250.573 61.1725 250.397 60.9788 250.261C60.7851 250.124 60.565 250.03 60.3326 249.984C58.9214 249.729 57.0936 251.55 56.4888 252.672C56.4417 252.759 55.9512 254.016 55.8168 254.318C55.6353 253.357 55.4606 252.403 55.3262 251.456C55.1362 250.176 55.0307 248.885 55.0104 247.592C55.1044 247.592 57.5304 247.753 58.5585 247.363C59.0527 247.209 59.5071 246.949 59.8902 246.6C60.2732 246.252 60.5756 245.824 60.7761 245.347C60.8501 245.121 60.8756 244.882 60.8508 244.645C60.826 244.408 60.7516 244.179 60.6324 243.973C60.5132 243.767 60.3519 243.588 60.1589 243.449C59.966 243.309 59.7458 243.212 59.5128 243.163C58.1016 242.901 56.267 244.729 55.6622 245.851C55.6152 245.939 55.091 247.269 54.9902 247.518C54.9902 247.444 54.9902 247.363 54.9902 247.289C55.0102 245.993 55.1406 244.7 55.38 243.425C55.5076 242.72 55.6689 242.081 55.8369 241.409C56.2872 241.483 58.3435 241.806 59.3044 241.55C60.2654 241.295 61.3204 240.744 61.7304 239.81C61.8281 239.593 61.8791 239.358 61.8803 239.12C61.8814 238.882 61.8325 238.646 61.7369 238.429C61.6413 238.211 61.5009 238.015 61.325 237.855C61.1491 237.695 60.9415 237.573 60.7156 237.498C59.3716 237.088 57.3556 238.701 56.5963 239.756C56.556 239.81 56.22 240.428 55.978 240.899C56.0587 240.61 56.1393 240.307 56.22 240.032C56.5358 238.997 56.892 238.063 57.1944 237.236C57.3825 236.773 57.5572 236.356 57.7185 235.966C58.2024 235.805 60.1243 235.16 60.85 234.501C61.5758 233.843 62.2881 232.841 62.194 231.813C62.1811 231.575 62.1182 231.342 62.0094 231.13C61.9007 230.918 61.7486 230.731 61.5629 230.582C61.3772 230.432 61.1621 230.323 60.9317 230.262C60.7012 230.201 60.4605 230.189 60.2251 230.227C58.8139 230.496 57.7656 232.861 57.6043 234.132C57.6043 234.246 57.6043 235.986 57.6043 235.98C57.4363 236.356 57.2616 236.752 57.0734 237.196C56.7441 238.016 56.4014 238.943 56.0385 239.978C55.6674 241.091 55.36 242.224 55.1179 243.372C54.8642 244.665 54.7248 245.978 54.7012 247.296V247.343C54.587 246.94 54.2241 245.818 54.1905 245.737C53.6596 244.568 51.9528 242.626 50.5281 242.787C50.2923 242.82 50.0661 242.903 49.8644 243.029C49.6626 243.156 49.4898 243.323 49.3573 243.521C49.2248 243.719 49.1354 243.943 49.0952 244.178C49.0549 244.412 49.0646 244.653 49.1236 244.884C49.3387 245.858 50.3332 246.624 51.2001 247.014Z" fill="#263238"/>
<path d="M148.66 261.919C148.425 261.952 148.198 262.035 147.997 262.161C147.795 262.288 147.622 262.455 147.49 262.653C147.357 262.851 147.268 263.075 147.227 263.309C147.187 263.544 147.197 263.785 147.256 264.015C147.424 264.503 147.697 264.948 148.056 265.318C148.415 265.688 148.85 265.976 149.332 266.159C149.993 266.397 150.687 266.533 151.389 266.562L151.987 265.85L152.323 264.876C151.792 263.7 150.085 261.757 148.66 261.919Z" fill="#263238"/>
<path d="M141.288 272.073C141.089 272.202 140.919 272.372 140.789 272.572C140.659 272.772 140.573 272.996 140.536 273.231C140.498 273.466 140.511 273.706 140.572 273.936C140.633 274.166 140.742 274.381 140.892 274.566C141.496 275.379 142.72 275.641 143.674 275.641C144.298 275.595 144.912 275.455 145.495 275.224L145.885 273.262L145.844 273.222C144.877 272.382 142.511 271.333 141.288 272.073Z" fill="#263238"/>
<path d="M147.975 267.772C146.879 268.444 146.664 270.608 146.859 271.938L150.078 268.115C149.824 267.819 149.474 267.622 149.089 267.559C148.704 267.496 148.309 267.572 147.975 267.772Z" fill="#263238"/>
<path d="M138.05 262.967C138.258 263.182 138.46 263.404 138.668 263.639C139.669 264.688 140.684 265.729 141.625 266.784C141.961 267.154 142.297 267.53 142.599 267.906L142.095 267.517C141.013 266.845 138.513 266.173 137.391 267.073C137.214 267.233 137.073 267.427 136.976 267.645C136.879 267.863 136.829 268.098 136.829 268.337C136.829 268.575 136.879 268.81 136.976 269.028C137.073 269.246 137.214 269.44 137.391 269.6C138.117 270.305 139.367 270.386 140.308 270.272C141.382 269.951 142.399 269.466 143.325 268.834C143.641 269.23 143.957 269.62 144.246 270.023C144.434 270.299 144.635 270.547 144.81 270.836L145.341 271.67C145.583 272.086 145.832 272.503 146.067 272.913L146.584 272.301C146.383 271.965 146.174 271.629 145.953 271.273L145.401 270.447C145.227 270.171 145.005 269.896 144.803 269.62C144.32 268.948 143.802 268.357 143.265 267.745C144.261 267.193 145.167 266.493 145.953 265.669C146.28 265.269 146.516 264.803 146.645 264.303C146.774 263.803 146.792 263.28 146.698 262.772C146.639 262.544 146.532 262.331 146.385 262.147C146.239 261.962 146.055 261.811 145.846 261.701C145.638 261.592 145.408 261.527 145.173 261.511C144.938 261.496 144.702 261.529 144.481 261.61C143.137 262.174 142.64 264.708 142.761 265.978C142.761 266.058 142.955 266.966 143.07 267.463C142.74 267.093 142.398 266.724 142.082 266.368C141.094 265.326 140.066 264.298 139.044 263.27L138.117 262.329C138.285 262.228 140.301 261.065 140.926 260.185C141.253 259.787 141.49 259.322 141.619 258.823C141.748 258.324 141.766 257.802 141.672 257.296C141.608 257.066 141.497 256.853 141.346 256.669C141.195 256.485 141.007 256.336 140.794 256.229C140.581 256.123 140.348 256.062 140.111 256.051C139.873 256.041 139.636 256.08 139.414 256.167C138.07 256.731 137.573 259.264 137.694 260.541C137.694 260.635 137.969 261.939 138.057 262.268C137.385 261.596 136.713 260.871 136.041 260.158C135.177 259.195 134.378 258.176 133.648 257.107C133.729 257.06 135.839 255.851 136.477 254.957C136.804 254.559 137.041 254.094 137.17 253.595C137.298 253.095 137.317 252.574 137.223 252.067C137.16 251.838 137.049 251.625 136.897 251.441C136.746 251.257 136.558 251.107 136.345 251.001C136.132 250.895 135.9 250.834 135.662 250.823C135.424 250.812 135.187 250.852 134.965 250.938C133.621 251.503 133.124 254.036 133.245 255.313C133.245 255.414 133.547 256.812 133.615 257.06L133.48 256.879C132.779 255.787 132.174 254.636 131.673 253.438C131.39 252.766 131.155 252.135 130.94 251.503C132.018 251.062 133.022 250.459 133.917 249.715C134.555 248.996 135.167 247.914 134.972 246.92C134.931 246.687 134.842 246.465 134.71 246.269C134.578 246.072 134.407 245.905 134.207 245.779C134.007 245.653 133.783 245.569 133.549 245.534C133.315 245.499 133.077 245.513 132.849 245.576C131.505 245.993 130.685 248.459 130.658 249.736C130.658 249.803 130.725 250.515 130.779 251.033C130.691 250.744 130.591 250.448 130.503 250.172C130.187 249.137 129.966 248.156 129.777 247.303C129.67 246.812 129.583 246.369 129.509 245.959C130.258 245.074 130.865 244.079 131.31 243.009C131.473 242.52 131.527 242.001 131.468 241.489C131.408 240.977 131.237 240.484 130.967 240.045C130.825 239.854 130.645 239.694 130.437 239.577C130.23 239.46 130 239.388 129.763 239.366C129.526 239.344 129.286 239.372 129.061 239.448C128.835 239.525 128.628 239.648 128.454 239.81C127.425 240.811 127.849 243.365 128.454 244.514C128.507 244.615 129.455 246.073 129.468 246.053C129.536 246.456 129.609 246.886 129.697 247.357C129.872 248.224 130.073 249.198 130.369 250.246C130.668 251.387 131.036 252.509 131.471 253.606C131.952 254.831 132.539 256.011 133.225 257.134C133.228 257.145 133.228 257.157 133.225 257.168C132.909 256.899 131.988 256.16 131.914 256.113C130.833 255.441 128.333 254.769 127.21 255.676C127.034 255.835 126.892 256.029 126.795 256.246C126.698 256.463 126.648 256.698 126.648 256.936C126.648 257.174 126.698 257.409 126.795 257.626C126.892 257.843 127.034 258.037 127.21 258.196C127.936 258.908 129.179 258.982 130.127 258.868C131.195 258.707 133.151 257.423 133.305 257.322C134.038 258.443 134.842 259.516 135.711 260.535C136.215 261.126 136.739 261.711 137.277 262.289L136.699 261.832C135.617 261.16 133.117 260.488 131.995 261.395C131.817 261.554 131.675 261.748 131.577 261.966C131.48 262.184 131.429 262.42 131.429 262.658C131.429 262.897 131.48 263.133 131.577 263.35C131.675 263.568 131.817 263.763 131.995 263.921C132.714 264.627 133.964 264.708 134.905 264.56C136.029 264.196 137.091 263.658 138.05 262.967Z" fill="#263238"/>
<path d="M148.432 243.755C149.292 244.48 151.718 245.139 151.718 245.139C151.718 245.139 151.671 243.405 151.651 243.298C151.449 242.034 150.307 239.709 148.902 239.487C148.666 239.457 148.426 239.477 148.198 239.546C147.97 239.615 147.759 239.731 147.578 239.887C147.398 240.043 147.253 240.235 147.152 240.451C147.052 240.667 146.998 240.902 146.994 241.14C146.94 242.148 147.7 243.136 148.432 243.755Z" fill="#263238"/>
<path d="M130.711 251.382C130.711 251.382 129.709 249.957 129.636 249.877C128.775 248.936 126.544 247.619 125.241 248.217C125.027 248.323 124.839 248.472 124.687 248.656C124.535 248.84 124.424 249.053 124.361 249.283C124.298 249.512 124.283 249.753 124.319 249.988C124.355 250.224 124.44 250.449 124.569 250.649C125.079 251.523 126.255 251.926 127.21 252.04C128.352 252.168 130.711 251.382 130.711 251.382Z" fill="#263238"/>
<path d="M147.168 250.992C148.15 251.442 150.488 251.462 150.676 251.462C150.663 252.799 150.74 254.135 150.905 255.461C150.999 256.234 151.12 257.013 151.247 257.793C151.133 257.443 151.032 257.121 151.012 257.121C150.488 255.951 148.781 254.009 147.357 254.171C147.121 254.204 146.894 254.286 146.692 254.413C146.49 254.539 146.317 254.707 146.184 254.905C146.051 255.102 145.961 255.326 145.92 255.561C145.879 255.795 145.887 256.036 145.945 256.267C146.16 257.255 147.155 258.008 148.029 258.411C149.131 258.742 150.278 258.901 151.429 258.881C151.483 259.177 151.53 259.473 151.583 259.768C151.839 261.2 152.101 262.624 152.316 264.022C152.316 264.23 152.363 264.439 152.39 264.647L152.813 263.437C152.585 262.187 152.329 260.931 152.081 259.674C151.993 259.244 151.906 258.807 151.825 258.377C152.742 258.432 153.661 258.412 154.574 258.317L155.757 254.896L156.691 254.083C156.567 254.023 156.436 253.98 156.301 253.955C154.89 253.7 153.062 255.521 152.457 256.643C152.41 256.731 151.919 257.987 151.785 258.29C151.604 257.329 151.429 256.375 151.295 255.427C151.104 254.148 150.999 252.857 150.979 251.563C151.073 251.563 153.499 251.724 154.527 251.335C155.021 251.18 155.475 250.92 155.858 250.572C156.241 250.224 156.544 249.796 156.744 249.319C156.818 249.092 156.844 248.853 156.819 248.616C156.794 248.379 156.72 248.151 156.601 247.944C156.481 247.738 156.32 247.56 156.127 247.42C155.934 247.281 155.714 247.183 155.481 247.135C154.07 246.873 152.235 248.7 151.631 249.823C151.583 249.91 151.059 251.241 150.959 251.489C150.959 251.415 150.959 251.341 150.959 251.261C150.979 249.964 151.109 248.671 151.348 247.397C151.476 246.725 151.637 246.053 151.805 245.381C152.255 245.455 154.312 245.777 155.273 245.522C156.234 245.267 157.289 244.715 157.699 243.781C157.796 243.564 157.847 243.329 157.849 243.091C157.85 242.853 157.801 242.618 157.705 242.4C157.61 242.182 157.469 241.987 157.293 241.826C157.117 241.666 156.91 241.545 156.684 241.47C155.34 241.06 153.324 242.673 152.565 243.728C152.524 243.781 152.188 244.4 151.946 244.87C152.027 244.581 152.108 244.279 152.188 244.003C152.504 242.968 152.86 242.034 153.163 241.208C153.351 240.744 153.526 240.327 153.687 239.938C154.171 239.776 156.093 239.131 156.818 238.473C157.544 237.814 158.256 236.813 158.162 235.785C158.149 235.547 158.086 235.314 157.978 235.102C157.869 234.889 157.717 234.703 157.531 234.553C157.345 234.403 157.13 234.295 156.9 234.234C156.669 234.172 156.429 234.161 156.193 234.199C154.782 234.467 153.734 236.833 153.579 238.103C153.579 238.217 153.546 239.958 153.579 239.951C153.411 240.327 153.237 240.724 153.055 241.167C152.719 241.987 152.35 242.915 152.014 243.949C151.642 245.062 151.335 246.195 151.093 247.343C150.82 248.63 150.66 249.939 150.616 251.254V251.328C150.502 250.925 150.139 249.803 150.105 249.722C149.574 248.553 147.867 246.611 146.443 246.772C146.207 246.805 145.981 246.888 145.779 247.014C145.577 247.141 145.404 247.308 145.272 247.506C145.139 247.704 145.05 247.928 145.01 248.162C144.969 248.397 144.979 248.638 145.038 248.868C145.327 249.836 146.322 250.589 147.168 250.992Z" fill="#263238"/>
<path d="M249.07 192.299L246.389 188.973L248.801 187.071L250.421 189.094L249.87 190.378L250.327 191.399L249.379 192.078" fill="white"/>
<path d="M249.07 192.299L246.389 188.973L248.801 187.071L250.421 189.094L249.87 190.378L250.327 191.399L249.379 192.078" stroke="#263238" stroke-linecap="round" stroke-linejoin="round"/>
<path d="M270.815 198.072C270.815 198.072 268.981 196.432 268.295 196.54C267.61 196.647 258.619 198.153 258.619 198.153L250.346 191.399L249.083 192.3L256.999 202.232L265.601 201.694L263.753 211.102L255.924 217.056L268.692 224.683L271.266 216.565L281.433 206.553L277.482 201.6L270.815 198.072Z" fill="black" stroke="#263238" stroke-linecap="round" stroke-linejoin="round"/>
<path d="M273.437 195.901L271.992 198.939L271.461 198.455L270.446 205.84L277.489 201.573L276.783 200.458L276.945 198.153L273.437 195.901Z" fill="white" stroke="#263238" stroke-linecap="round" stroke-linejoin="round"/>
<path d="M270.446 205.84L274.566 203.34L271.125 200.921L270.446 205.84Z" fill="white" stroke="#263238" stroke-linecap="round" stroke-linejoin="round"/>
<path d="M281.567 188.664C281.567 188.664 284.679 185.022 287.844 187.32C291.009 189.618 290.135 191.863 292.393 190.633C294.651 189.403 298.891 186.278 301.445 190.257C303.999 194.235 302.03 198.401 300.424 199.356C298.817 200.31 299.241 198.489 299.274 197.608C299.308 196.728 296.674 195.592 296.089 197.407C295.505 199.221 292.433 202.017 288.536 201.755C284.638 201.493 283.886 196.701 283.973 193.885C283.967 193.04 283.742 192.211 283.319 191.48C282.896 190.748 282.29 190.139 281.561 189.712L281.567 188.664Z" fill="#263238" stroke="#263238" stroke-linecap="round" stroke-linejoin="round"/>
<path d="M274.108 187.911C274.108 187.911 272.16 192.252 272.563 194.813C272.966 197.373 272.751 199.342 274.055 199.839C275.358 200.337 279.679 197.722 280.633 195.995C281.588 194.268 282.952 191.775 282.576 189.383C282.199 186.991 277.616 183.51 274.108 187.911Z" fill="white" stroke="#263238" stroke-linecap="round" stroke-linejoin="round"/>
<path d="M274.848 192.467C274.747 192.803 274.532 193.032 274.364 192.978C274.196 192.924 274.142 192.615 274.243 192.306C274.344 191.997 274.559 191.742 274.727 191.795C274.895 191.849 274.922 192.131 274.848 192.467Z" fill="#263238"/>
<path d="M277.952 193.758C277.852 194.094 277.63 194.329 277.462 194.275C277.294 194.221 277.24 193.912 277.341 193.603C277.442 193.294 277.663 193.039 277.831 193.086C277.999 193.133 278.053 193.422 277.952 193.758Z" fill="#263238"/>
<path d="M275.633 193.025C275.633 193.025 275.835 193.173 275.553 193.697C275.271 194.221 274.592 194.033 274.666 194.484C274.74 194.934 275.593 195.156 275.593 195.156" stroke="#263238" stroke-linecap="round" stroke-linejoin="round"/>
<path d="M274.068 195.935C274.068 195.935 275.15 196.956 276.118 196.708" stroke="#263238" stroke-linecap="round" stroke-linejoin="round"/>
<path d="M278.974 192.683L276.965 192.172" stroke="#263238" stroke-linecap="round" stroke-linejoin="round"/>
<path d="M275.379 191.413L274.418 190.552" stroke="#263238" stroke-linecap="round" stroke-linejoin="round"/>
<path d="M274.108 187.911C274.108 187.911 273.819 188.583 273.483 189.504C274.619 188.913 276.575 188.247 278.362 189.349C280.15 190.451 281.05 192.985 281.413 194.537C282.172 192.998 282.851 191.177 282.576 189.383C282.199 186.991 277.616 183.51 274.108 187.911Z" fill="#263238" stroke="#263238" stroke-linecap="round" stroke-linejoin="round"/>
<path d="M280.949 194.47C280.949 194.47 282.347 193.186 282.293 194.356C282.239 195.525 280.633 196.217 280.277 196.271C279.921 196.325 279.948 195.874 279.948 195.874" fill="white"/>
<path d="M280.949 194.47C280.949 194.47 282.347 193.186 282.293 194.356C282.239 195.525 280.633 196.217 280.277 196.271C279.921 196.325 279.948 195.874 279.948 195.874" stroke="#263238" stroke-linecap="round" stroke-linejoin="round"/>
<path d="M281.426 206.559L279.276 221.888C279.229 222.214 279.068 222.513 278.823 222.733C278.577 222.953 278.262 223.08 277.932 223.091H277.468C277.111 223.104 276.762 222.98 276.493 222.744C276.224 222.507 276.056 222.177 276.024 221.82L275.184 212.601L281.426 206.559Z" fill="black" stroke="#263238" stroke-linecap="round" stroke-linejoin="round"/>
<path d="M277.536 219.784L270.634 213.696L269.089 214.993L275.715 222.66C275.86 222.817 276.039 222.939 276.238 223.016C276.437 223.092 276.651 223.123 276.864 223.104H277.408C277.617 223.095 277.821 223.04 278.006 222.943C278.19 222.845 278.351 222.708 278.476 222.541C278.601 222.373 278.687 222.18 278.728 221.975C278.768 221.771 278.763 221.559 278.712 221.357" fill="black"/>
<path d="M277.536 219.784L270.634 213.696L269.089 214.993L275.715 222.66C275.86 222.817 276.039 222.939 276.238 223.016C276.437 223.092 276.651 223.123 276.864 223.104H277.408C277.617 223.095 277.821 223.04 278.006 222.943C278.19 222.845 278.351 222.708 278.476 222.541C278.601 222.373 278.687 222.18 278.728 221.975C278.768 221.771 278.763 221.559 278.712 221.357V221.357" stroke="#263238" stroke-linecap="round" stroke-linejoin="round"/>
<path d="M270.635 213.689L269.015 211.102L265.373 210.699L265.393 212.87L267.14 214.328L268.249 214.482L269.089 214.986L270.635 213.689Z" fill="white" stroke="#263238" stroke-linecap="round" stroke-linejoin="round"/>
<path d="M251.133 221.76C251.133 221.76 243.526 231.659 243.942 233.298C244.359 234.938 255.474 252.296 255.474 252.296L257.019 251.274L250.911 232.203L263.188 227.317L251.133 221.76Z" fill="white" stroke="#263238" stroke-linecap="round" stroke-linejoin="round"/>
<path d="M257.262 225.429L258.162 229.387L262.228 227.828L257.262 225.429Z" fill="#263238" stroke="#263238" stroke-miterlimit="10"/>
<path d="M255.474 252.262L253.458 255.622C253.458 255.622 251.852 258.028 252.323 258.176C253.351 258.505 256.012 256.758 256.771 256.22C257.531 255.683 258.344 255.326 258.848 254.97C259.352 254.614 260.36 254.406 258.982 253.129C258.518 252.706 257.047 251.241 257.047 251.241L255.474 252.262Z" fill="white" stroke="#263238" stroke-linecap="round" stroke-linejoin="round"/>
<path d="M268.033 218.602C264.609 217.236 261.106 216.076 257.543 215.127C251.381 213.454 246.825 212.157 246.912 213.696C247 215.235 258.209 240.025 258.209 240.025L260.131 239.413L257.201 225.745C257.201 225.745 261.905 229.038 265.379 227.405C268.853 225.772 270.177 221.357 269.935 219.852" fill="#263238"/>
<path d="M268.033 218.602C264.609 217.236 261.106 216.076 257.543 215.127C251.381 213.454 246.825 212.157 246.912 213.696C247 215.235 258.209 240.025 258.209 240.025L260.131 239.413L257.201 225.745C257.201 225.745 261.905 229.038 265.379 227.405C268.853 225.772 270.177 221.357 269.935 219.852" stroke="#263238" stroke-linecap="round" stroke-linejoin="round"/>
<path d="M256.233 214.771C250.75 213.286 246.825 212.265 246.913 213.696C247 215.235 258.209 240.025 258.209 240.025L260.131 239.413L257.201 225.745C258.202 223.306 257.14 218.178 256.233 214.771Z" fill="white" stroke="#263238" stroke-linecap="round" stroke-linejoin="round"/>
<path d="M257.201 225.745L252.369 218.736" stroke="#263238" stroke-linecap="round" stroke-linejoin="round"/>
<path d="M258.209 240.025L256.408 243.419C256.408 243.419 252.772 246.94 253.579 247.121C254.385 247.303 261.219 244.366 261.73 243.667C262.241 242.968 260.131 239.413 260.131 239.413L258.209 240.025Z" fill="white" stroke="#263238" stroke-linecap="round" stroke-linejoin="round"/>
<path d="M249.85 190.66L266.797 210.84" stroke="#263238" stroke-miterlimit="10"/>
<path d="M197.702 128.164L247.437 187.676" stroke="#263238" stroke-miterlimit="10"/>
<path d="M268.249 214.475V312.587" stroke="#263238" stroke-miterlimit="10"/>
<path d="M106.398 187.213C106.398 187.213 109.973 208.132 106.089 214.765C102.205 221.397 92.4609 216.626 92.4609 216.626V311.916" stroke="#263238" stroke-miterlimit="10"/>
<path d="M84.9337 195.041C84.9337 195.041 88.0988 194.678 88.3408 195.411C88.4735 196.011 88.4735 196.632 88.3408 197.232C88.3408 197.232 90.1619 199.181 90.1619 200.518C90.1619 201.855 88.2198 202.467 88.2198 202.467L87.8569 205.625L82.9916 205.867L82.3801 202.097C82.3801 202.097 80.5523 194.92 84.9337 195.041Z" fill="white" stroke="#263238" stroke-linecap="round" stroke-linejoin="round"/>
<path d="M85.9088 200.256L84.5648 198.307C85.016 197.574 85.2663 196.735 85.2905 195.875C85.2905 194.531 85.1696 192.105 82.3741 192.105C79.5786 192.105 77.7507 194.295 77.1459 199.04C76.5411 203.784 79.3299 206.096 83.3485 205.242C87.367 204.389 85.9088 200.256 85.9088 200.256Z" fill="#263238" stroke="#263238" stroke-linecap="round" stroke-linejoin="round"/>
<path d="M85.7879 199.423C85.7879 199.423 83.7181 199.181 83.8391 200.767C83.8711 201.108 84.0056 201.431 84.225 201.694C84.4444 201.957 84.7383 202.147 85.068 202.239C85.3977 202.332 85.7476 202.322 86.0717 202.211C86.3958 202.101 86.6787 201.895 86.8832 201.62" fill="white"/>
<path d="M85.7879 199.423C85.7879 199.423 83.7181 199.181 83.8391 200.767C83.8711 201.108 84.0056 201.431 84.225 201.694C84.4444 201.957 84.7383 202.147 85.068 202.239C85.3977 202.332 85.7476 202.322 86.0717 202.211C86.3958 202.101 86.6787 201.895 86.8832 201.62" stroke="#263238" stroke-linecap="round" stroke-linejoin="round"/>
<path d="M82.9047 207.057L78.4224 208.32C78.4224 208.32 78.073 209.194 77.5488 210.336C76.8432 211.888 74.9012 215.04 74.9012 215.04L65.93 217.6L63.0471 226.894L62.4087 230.738L67.5293 228.171L67.8519 219.207L75.9159 217.963L79.3767 209.227L82.9047 207.057Z" fill="#263238" stroke="#263238" stroke-linecap="round" stroke-linejoin="round"/>
<path d="M90.0481 205.746C90.0481 205.746 86.5201 204.167 83.8455 204.53C81.171 204.893 81.4129 206.237 81.4129 206.237L81.5339 208.058C81.5339 208.058 86.0161 206.721 90.0481 205.746Z" fill="black" stroke="#263238" stroke-linecap="round" stroke-linejoin="round"/>
<path d="M77.999 214.63L80.519 226.283C80.5382 226.422 80.5905 226.556 80.6715 226.671C80.7525 226.787 80.8598 226.881 80.9847 226.947C81.1095 227.013 81.2482 227.047 81.3893 227.049C81.5304 227.05 81.6697 227.018 81.7958 226.955L87.4877 224.112L77.999 214.63Z" fill="black" stroke="#263238" stroke-linecap="round" stroke-linejoin="round"/>
<path d="M84.3295 220.833L82.9922 223.507" stroke="#263238" stroke-linecap="round" stroke-linejoin="round"/>
<path d="M96.123 232.633L103.468 244.783L102.494 261.213L106.022 261.092L109.55 241.497L104.395 227.768L96.123 232.633Z" fill="#263238" stroke="#263238" stroke-linecap="round" stroke-linejoin="round"/>
<path d="M81.527 208.058C81.527 208.058 77.999 214.14 77.999 214.63C77.999 215.121 91.7481 228.373 91.7481 228.373L102.211 221.438L95.639 210.014L105.101 200.727L105.827 188.194L104.126 188.073L101.082 197.199L91.0022 205.142L81.527 208.058Z" fill="black" stroke="#263238" stroke-linecap="round" stroke-linejoin="round"/>
<path d="M104.126 188.073L104.247 185.277L107.284 182.965L107.533 183.57V185.398L107.654 186.856L105.826 188.194L104.126 188.073Z" fill="white" stroke="#263238" stroke-linecap="round" stroke-linejoin="round"/>
<path d="M91.748 228.373C91.748 228.373 94.0597 232.263 95.78 233.48C97.5004 234.696 102.816 230.926 104.16 229.824C105.504 228.722 110.611 222.163 110.611 222.163L115.355 242.377L118.279 241.161C118.279 241.161 116.565 214.281 115.718 213.528C114.872 212.775 101.727 221.31 101.727 221.31L91.748 228.373Z" fill="#263238" stroke="#263238" stroke-linecap="round" stroke-linejoin="round"/>
<path d="M118.272 241.167H122.405C123.137 241.167 124.958 240.072 125.093 240.925C125.227 241.779 121.565 244.084 120.1 244.816C118.693 245.362 117.223 245.73 115.725 245.912L115.355 242.384L118.272 241.167Z" fill="white" stroke="#263238" stroke-linecap="round" stroke-linejoin="round"/>
<path d="M106.021 261.092L108.091 264.862C108.091 264.862 110.645 265.957 110.645 266.448C110.645 266.939 106.512 266.69 106.142 266.69C105.773 266.69 101.646 262.658 101.646 262.658L102.493 261.193L106.021 261.092Z" fill="white" stroke="#263238" stroke-linecap="round" stroke-linejoin="round"/>
<path d="M107.285 182.965L146.994 128.52" stroke="#263238" stroke-miterlimit="10"/>
<path d="M8.06396 312.614H326.592" stroke="#263238" stroke-linecap="round" stroke-linejoin="round"/>
</svg>
