<svg width="243" height="162" viewBox="0 0 243 162" fill="none" xmlns="http://www.w3.org/2000/svg">
<path d="M195.573 99.3514C195.573 99.3514 191.591 97.1384 191.296 102.151C191.001 107.163 190.263 139.767 190.263 139.767" stroke="#263238" stroke-width="2" stroke-linecap="round" stroke-linejoin="round"/>
<path d="M189.216 102.595C189.216 102.595 192.456 109.823 190.988 139.323" stroke="#263238" stroke-width="2" stroke-linecap="round" stroke-linejoin="round"/>
<path d="M192.42 100.359C192.42 100.359 190.894 101.331 190.029 100.22C189.164 99.1084 190.615 97.0542 189.336 96.1794C188.056 95.3046 185.843 96.6395 185.843 96.6395C185.843 96.6395 187.544 97.1384 187.489 98.0683C187.434 98.9982 186.614 99.3643 186.517 98.9431C186.42 98.5219 185.593 96.4905 184.21 97.3426C183.812 97.5784 183.466 97.8923 183.193 98.2653C182.919 98.6384 182.724 99.0629 182.619 99.5134C182.619 99.5134 185.836 99.1699 186.031 100.382C186.225 101.593 184.712 100.171 183.384 100.093C182.055 100.016 180.844 100.21 180.931 101.013C180.96 101.724 180.918 102.436 180.805 103.139C181.531 102.533 182.451 102.209 183.397 102.225C184.858 102.309 184.803 103.239 183.474 103.162C182.146 103.084 181.006 104.347 181.006 104.347C181.006 104.347 182.217 106.418 183.756 107.442C185.295 108.465 185.849 108.09 186.024 107.309C186.199 106.528 185.791 104.496 186.721 104.552C187.651 104.607 185.182 108.06 186.368 108.265C187.554 108.469 188.509 108.122 188.82 107.341L189.144 106.56C189.144 106.56 188.73 104.539 188.911 103.748C189.093 102.957 189.31 103.771 189.52 104.72C189.731 105.669 189.864 107.941 190.269 107.83C190.674 107.72 191.973 106.065 192.278 105.417C192.582 104.769 190.567 102.783 190.589 102.384C190.612 101.985 192.167 102.744 192.41 103.158C192.586 103.474 192.745 103.798 192.887 104.13C192.887 104.13 193.859 103.521 193.833 101.655C193.807 99.7888 192.42 100.359 192.42 100.359Z" fill="white"/>
<path opacity="0.3" d="M192.42 100.359C192.42 100.359 190.894 101.331 190.029 100.22C189.164 99.1084 190.615 97.0542 189.336 96.1794C188.056 95.3046 185.843 96.6395 185.843 96.6395C185.843 96.6395 187.544 97.1384 187.489 98.0683C187.434 98.9982 186.614 99.3643 186.517 98.9431C186.42 98.5219 185.593 96.4905 184.21 97.3426C183.812 97.5784 183.466 97.8923 183.193 98.2653C182.919 98.6384 182.724 99.0629 182.619 99.5134C182.619 99.5134 185.836 99.1699 186.031 100.382C186.225 101.593 184.712 100.171 183.384 100.093C182.055 100.016 180.844 100.21 180.931 101.013C180.96 101.724 180.918 102.436 180.805 103.139C181.531 102.533 182.451 102.209 183.397 102.225C184.858 102.309 184.803 103.239 183.474 103.162C182.146 103.084 181.006 104.347 181.006 104.347C181.006 104.347 182.217 106.418 183.756 107.442C185.295 108.465 185.849 108.09 186.024 107.309C186.199 106.528 185.791 104.496 186.721 104.552C187.651 104.607 185.182 108.06 186.368 108.265C187.554 108.469 188.509 108.122 188.82 107.341L189.144 106.56C189.144 106.56 188.73 104.539 188.911 103.748C189.093 102.957 189.31 103.771 189.52 104.72C189.731 105.669 189.864 107.941 190.269 107.83C190.674 107.72 191.973 106.065 192.278 105.417C192.582 104.769 190.567 102.783 190.589 102.384C190.612 101.985 192.167 102.744 192.41 103.158C192.586 103.474 192.745 103.798 192.887 104.13C192.887 104.13 193.859 103.521 193.833 101.655C193.807 99.7888 192.42 100.359 192.42 100.359Z" fill="#263238"/>
<path d="M184.696 104.736C185.691 103.508 187.152 101.846 188.38 101.052" stroke="#263238" stroke-linecap="round" stroke-linejoin="round"/>
<path d="M183.543 106.233C183.543 106.233 183.799 105.877 184.214 105.345" stroke="#263238" stroke-linecap="round" stroke-linejoin="round"/>
<path d="M189.027 101.357C189.027 101.357 190.505 103.443 190.777 105.592" stroke="#263238" stroke-linecap="round" stroke-linejoin="round"/>
<path d="M187.355 102.591C187.355 102.591 187.77 102.352 187.615 105.005" stroke="#263238" stroke-linecap="round" stroke-linejoin="round"/>
<path d="M188.435 100.116C188.435 100.116 189.277 99.3643 188.833 97.8739" stroke="#263238" stroke-linecap="round" stroke-linejoin="round"/>
<path d="M187.294 101.389L186.691 100.288" stroke="#263238" stroke-linecap="round" stroke-linejoin="round"/>
<path d="M186.027 102.514C186.027 102.514 184.115 101.069 182.92 100.997" stroke="#263238" stroke-linecap="round" stroke-linejoin="round"/>
<path d="M197.85 96.4224C197.85 96.4224 197.788 98.6127 196.078 98.7196C194.367 98.8265 193.311 95.9785 191.561 96.6622C189.812 97.3458 189.643 100.472 189.643 100.472C189.643 100.472 191.302 99.1084 192.196 99.7985C193.09 100.489 192.883 101.548 192.4 101.38C191.918 101.211 189.316 100.631 189.228 102.595C189.192 103.154 189.27 103.715 189.456 104.243C189.643 104.772 189.935 105.257 190.314 105.669C190.314 105.669 192.164 102.216 193.512 102.844C194.86 103.473 192.4 104.02 191.415 105.297C190.43 106.573 189.795 107.918 190.667 108.381C191.399 108.836 192.082 109.364 192.708 109.956C192.708 109.956 192.475 108.148 193.557 106.745C194.639 105.342 195.53 106.029 194.549 107.306C193.567 108.582 194.053 110.584 194.053 110.584C194.053 110.584 196.949 110.785 199.023 109.936C201.097 109.088 201.11 108.287 200.442 107.568C199.775 106.849 197.468 105.886 198.155 104.992C198.842 104.098 200.617 108.926 201.631 107.876C202.645 106.826 202.947 105.637 202.38 104.791L201.809 103.946C201.809 103.946 199.502 102.974 198.835 102.264C198.168 101.555 199.13 101.879 200.222 102.313C201.314 102.747 203.676 104.163 203.844 103.683C204.013 103.204 203.238 100.767 202.798 100.029C202.357 99.2898 198.994 99.9443 198.611 99.6495C198.229 99.3546 200.047 98.3146 200.627 98.3535C201.207 98.3923 201.923 98.5317 201.923 98.5317C201.923 98.5317 201.975 97.1482 200.089 95.8975C198.203 94.6469 197.85 96.4224 197.85 96.4224Z" fill="white"/>
<path opacity="0.2" d="M197.85 96.4224C197.85 96.4224 197.788 98.6127 196.078 98.7196C194.367 98.8265 193.311 95.9785 191.561 96.6622C189.812 97.3458 189.643 100.472 189.643 100.472C189.643 100.472 191.302 99.1084 192.196 99.7985C193.09 100.489 192.883 101.548 192.4 101.38C191.918 101.211 189.316 100.631 189.228 102.595C189.192 103.154 189.27 103.715 189.456 104.243C189.643 104.772 189.935 105.257 190.314 105.669C190.314 105.669 192.164 102.216 193.512 102.844C194.86 103.473 192.4 104.02 191.415 105.297C190.43 106.573 189.795 107.918 190.667 108.381C191.399 108.836 192.082 109.364 192.708 109.956C192.708 109.956 192.475 108.148 193.557 106.745C194.639 105.342 195.53 106.029 194.549 107.306C193.567 108.582 194.053 110.584 194.053 110.584C194.053 110.584 196.949 110.785 199.023 109.936C201.097 109.088 201.11 108.287 200.442 107.568C199.775 106.849 197.468 105.886 198.155 104.992C198.842 104.098 200.617 108.926 201.631 107.876C202.645 106.826 202.947 105.637 202.38 104.791L201.809 103.946C201.809 103.946 199.502 102.974 198.835 102.264C198.168 101.555 199.13 101.879 200.222 102.313C201.314 102.747 203.676 104.163 203.844 103.683C204.013 103.204 203.238 100.767 202.798 100.029C202.357 99.2898 198.994 99.9443 198.611 99.6495C198.229 99.3546 200.047 98.3146 200.627 98.3535C201.207 98.3923 201.923 98.5317 201.923 98.5317C201.923 98.5317 201.975 97.1482 200.089 95.8975C198.203 94.6469 197.85 96.4224 197.85 96.4224Z" fill="#263238"/>
<path d="M196.966 107.14C196.415 105.306 195.748 102.708 195.793 100.939" stroke="#263238" stroke-linecap="round" stroke-linejoin="round"/>
<path d="M197.679 109.311C197.679 109.311 197.498 108.815 197.248 108.038" stroke="#263238" stroke-linecap="round" stroke-linejoin="round"/>
<path d="M196.538 100.498C196.538 100.498 199.632 100.443 201.968 101.632" stroke="#263238" stroke-linecap="round" stroke-linejoin="round"/>
<path d="M196.636 103.013C196.636 103.013 196.675 102.436 199.228 104.403" stroke="#263238" stroke-linecap="round" stroke-linejoin="round"/>
<path d="M194.899 100.252C194.899 100.252 194.724 98.8945 192.926 98.3243" stroke="#263238" stroke-linecap="round" stroke-linejoin="round"/>
<path d="M195.388 102.258L193.875 102.109" stroke="#263238" stroke-linecap="round" stroke-linejoin="round"/>
<path d="M195.65 104.289C195.65 104.289 192.899 105.222 192.015 106.369" stroke="#263238" stroke-linecap="round" stroke-linejoin="round"/>
<path d="M179.496 111.002C179.496 111.002 188.199 116.757 188.05 139.028" stroke="#263238" stroke-width="2" stroke-linecap="round" stroke-linejoin="round"/>
<path d="M190.226 109.483C190.226 109.483 189.948 112.004 187.958 111.968C185.969 111.932 185.023 108.54 182.943 109.165C180.863 109.791 180.367 113.377 180.367 113.377C180.367 113.377 182.411 111.961 183.38 112.839C184.349 113.718 184.006 114.923 183.464 114.683C182.923 114.443 179.978 113.53 179.69 115.788C179.596 116.431 179.634 117.086 179.801 117.713C179.968 118.341 180.261 118.928 180.662 119.439C180.662 119.439 183.124 115.626 184.618 116.478C186.112 117.33 183.225 117.732 181.968 119.112C180.71 120.492 179.858 121.986 180.811 122.602C181.614 123.194 182.354 123.867 183.021 124.61C183.021 124.61 182.92 122.501 184.317 120.985C185.713 119.469 186.662 120.337 185.408 121.724C184.155 123.11 184.527 125.463 184.527 125.463C184.527 125.463 187.855 125.968 190.327 125.19C192.799 124.413 192.886 123.486 192.183 122.598C191.48 121.711 188.911 120.376 189.789 119.41C190.667 118.445 192.258 124.179 193.528 123.065C194.798 121.95 195.258 120.606 194.681 119.575L194.075 118.545C194.075 118.545 191.506 117.213 190.803 116.322C190.1 115.431 191.179 115.908 192.397 116.51C193.615 117.113 196.211 118.973 196.447 118.432C196.684 117.891 196.019 115.02 195.595 114.116C195.171 113.212 191.215 113.662 190.8 113.287C190.385 112.911 192.585 111.88 193.249 111.991C193.744 112.073 194.234 112.181 194.717 112.315C194.717 112.315 194.905 110.721 192.847 109.101C190.79 107.481 190.226 109.483 190.226 109.483Z" fill="white"/>
<path opacity="0.3" d="M190.226 109.483C190.226 109.483 189.948 112.004 187.958 111.968C185.969 111.932 185.023 108.54 182.943 109.165C180.863 109.791 180.367 113.377 180.367 113.377C180.367 113.377 182.411 111.961 183.38 112.839C184.349 113.718 184.006 114.923 183.464 114.683C182.923 114.443 179.978 113.53 179.69 115.788C179.596 116.431 179.634 117.086 179.801 117.713C179.968 118.341 180.261 118.928 180.662 119.439C180.662 119.439 183.124 115.626 184.618 116.478C186.112 117.33 183.225 117.732 181.968 119.112C180.71 120.492 179.858 121.986 180.811 122.602C181.614 123.194 182.354 123.867 183.021 124.61C183.021 124.61 182.92 122.501 184.317 120.985C185.713 119.469 186.662 120.337 185.408 121.724C184.155 123.11 184.527 125.463 184.527 125.463C184.527 125.463 187.855 125.968 190.327 125.19C192.799 124.413 192.886 123.486 192.183 122.598C191.48 121.711 188.911 120.376 189.789 119.41C190.667 118.445 192.258 124.179 193.528 123.065C194.798 121.95 195.258 120.606 194.681 119.575L194.075 118.545C194.075 118.545 191.506 117.213 190.803 116.322C190.1 115.431 191.179 115.908 192.397 116.51C193.615 117.113 196.211 118.973 196.447 118.432C196.684 117.891 196.019 115.02 195.595 114.116C195.171 113.212 191.215 113.662 190.8 113.287C190.385 112.911 192.585 111.88 193.249 111.991C193.744 112.073 194.234 112.181 194.717 112.315C194.717 112.315 194.905 110.721 192.847 109.101C190.79 107.481 190.226 109.483 190.226 109.483Z" fill="#263238"/>
<path d="M188.199 121.766C187.732 119.601 187.211 116.54 187.424 114.502" stroke="#263238" stroke-linecap="round" stroke-linejoin="round"/>
<path d="M188.814 124.338C188.814 124.338 188.652 123.749 188.435 122.828" stroke="#263238" stroke-linecap="round" stroke-linejoin="round"/>
<path d="M188.328 114.048C188.328 114.048 191.892 114.278 194.484 115.872" stroke="#263238" stroke-linecap="round" stroke-linejoin="round"/>
<path d="M188.201 116.964C188.201 116.964 188.302 116.316 191.062 118.811" stroke="#263238" stroke-linecap="round" stroke-linejoin="round"/>
<path d="M186.458 113.624C186.458 113.624 186.384 112.042 184.365 111.213" stroke="#263238" stroke-linecap="round" stroke-linejoin="round"/>
<path d="M186.835 115.982L185.104 115.668" stroke="#263238" stroke-linecap="round" stroke-linejoin="round"/>
<path d="M186.948 118.354C186.948 118.354 183.685 119.167 182.555 120.408" stroke="#263238" stroke-linecap="round" stroke-linejoin="round"/>
<path d="M182.888 128.557C182.888 128.557 188.493 132.834 189.083 139.177L187.919 117.936" stroke="#263238" stroke-width="2" stroke-linecap="round" stroke-linejoin="round"/>
<path d="M196.457 125.459C189.083 124.131 189.083 139.177 189.083 139.177" stroke="#263238" stroke-width="2" stroke-linecap="round" stroke-linejoin="round"/>
<path d="M189.967 139.028C189.967 139.028 185.69 107.905 198.067 107.905" stroke="#263238" stroke-width="2" stroke-linecap="round" stroke-linejoin="round"/>
<path d="M193.648 124.562C192.641 123.431 190.499 123.431 189.242 126.328C187.985 129.224 189.116 128.719 189.116 128.719C189.116 128.719 191.507 127.964 193.004 127.458C194.5 126.953 196.529 125.696 196.655 126.454C196.781 127.212 195.647 127.964 194.261 128.217C192.874 128.469 189.226 129.474 189.602 130.232C189.977 130.99 190.862 133.252 190.862 133.252C191.938 132.339 193.074 131.498 194.261 130.734C195.9 129.726 196.908 130.105 196.026 131.236C195.145 132.367 192.624 133.631 193.13 135.14C193.635 136.65 196.668 138.542 196.668 138.542C196.668 138.542 197.044 135.393 197.928 134.386C198.813 133.378 198.81 134.512 198.557 136.274C198.43 137.025 198.346 137.782 198.304 138.542L201.829 139.8C202.406 138.922 203.037 138.081 203.718 137.282L204.366 136.654C204.366 136.654 201.596 134.259 201.47 132.765C201.343 131.272 203.359 132.765 203.987 133.018C204.616 133.271 205.623 135.03 205.623 135.03C205.623 135.03 206.255 132.137 206.381 131.142L206.508 130.135C206.508 130.135 203.861 129.127 202.853 129.127C201.846 129.127 201.343 129.882 201.343 128.874C201.343 127.867 202.351 127.238 203.485 127.364C204.511 127.534 205.522 127.787 206.508 128.119C206.508 128.119 207.263 127.488 207.01 125.599C206.757 123.71 206.129 123.71 204.619 124.215C203.109 124.721 202.098 125.835 200.964 125.835C199.83 125.835 200.462 124.452 201.217 124.073C201.972 123.693 203.861 122.939 204.24 122.812C204.619 122.686 202.225 120.923 200.964 120.674C199.704 120.424 198.074 121.322 198.194 122.563C198.434 125.194 194.656 125.712 193.648 124.562Z" fill="white"/>
<path d="M201.755 137.528C201.794 137.907 201.82 138.29 201.833 138.669" stroke="#263238" stroke-linecap="round" stroke-linejoin="round"/>
<path d="M199.224 128.489C200.33 130.984 201.127 133.605 201.595 136.294" stroke="#263238" stroke-linecap="round" stroke-linejoin="round"/>
<path d="M198.771 127.478C198.149 126.136 197.679 125.32 197.679 125.32C198.36 124.992 198.925 124.464 199.299 123.807C199.594 123.211 200.026 122.694 200.559 122.297" stroke="#263238" stroke-linecap="round" stroke-linejoin="round"/>
<path d="M193.269 129.6C193.269 129.6 197.805 127.711 197.805 128.09" stroke="#263238" stroke-linecap="round" stroke-linejoin="round"/>
<path d="M200.322 127.209C200.322 127.209 202.338 126.201 204.1 126.201" stroke="#263238" stroke-linecap="round" stroke-linejoin="round"/>
<path d="M199.584 130.248C198.71 130.966 197.908 131.767 197.189 132.639C196.454 133.507 195.859 134.484 195.427 135.536" stroke="#263238" stroke-linecap="round" stroke-linejoin="round"/>
<path d="M200.951 130.734C200.951 130.734 203.598 129.979 204.982 131.236" stroke="#263238" stroke-linecap="round" stroke-linejoin="round"/>
<path d="M205.739 113.724C204.369 112.914 202.853 112.895 202.107 112.039C201.362 111.184 202.823 110.743 203.604 111.067C204.385 111.391 206.196 112.321 206.536 112.525C206.877 112.729 206.643 109.765 206.008 108.637C205.373 107.51 203.633 106.871 202.768 107.782C200.938 109.706 198.08 107.182 198.274 105.679C198.469 104.176 197.066 102.559 194.062 103.508C191.059 104.458 192.174 104.979 192.174 104.979C192.174 104.979 194.312 106.291 195.686 107.105C197.059 107.918 199.327 108.611 198.838 109.201C198.349 109.791 197.037 109.431 195.938 108.553C194.84 107.675 191.688 105.575 191.364 106.356C191.04 107.137 189.906 109.272 189.906 109.272C191.301 109.486 192.681 109.792 194.037 110.189C195.87 110.763 196.246 111.77 194.814 111.848C193.382 111.926 190.777 110.85 189.954 112.221C189.131 113.591 189.698 117.113 189.698 117.113C189.698 117.113 192.323 115.334 193.661 115.341C194.999 115.347 194.143 116.089 192.647 117.055C191.998 117.452 191.372 117.885 190.771 118.351L192.131 121.84C193.172 121.699 194.221 121.624 195.271 121.617L196.159 121.678C196.159 121.678 196.159 118.017 197.208 116.932C198.258 115.846 198.446 118.357 198.67 118.999C198.893 119.64 198.223 121.555 198.223 121.555C198.223 121.555 200.815 120.133 201.663 119.569L202.509 119.002C202.509 119.002 201.537 116.345 200.889 115.584C200.241 114.822 199.331 114.936 200.089 114.288C200.847 113.64 201.987 113.964 202.635 114.913C203.178 115.8 203.649 116.728 204.045 117.69C204.045 117.69 205.017 117.849 206.277 116.42C207.538 114.991 207.113 114.531 205.739 113.724ZM193.823 117.755C192.815 117.252 195.206 116.245 195.206 116.245C196.091 116.112 194.83 118.26 193.826 117.748L193.823 117.755ZM195.517 113.053C195.09 112.839 196.376 112.405 196.376 112.405C198.242 112.752 195.951 113.264 195.52 113.047L195.517 113.053Z" fill="white"/>
<path d="M193.797 120.314C193.536 120.593 193.267 120.862 192.99 121.121" stroke="#263238" stroke-linecap="round" stroke-linejoin="round"/>
<path d="M198.965 112.477C197.808 114.948 196.351 117.268 194.627 119.384" stroke="#263238" stroke-linecap="round" stroke-linejoin="round"/>
<path d="M199.432 111.472C200.038 110.121 200.345 109.23 200.345 109.23C201.041 109.537 201.815 109.623 202.561 109.476C203.205 109.308 203.879 109.295 204.528 109.438" stroke="#263238" stroke-linecap="round" stroke-linejoin="round"/>
<path d="M198.336 111.132C198.621 110.886 194.225 108.699 194.225 108.699" stroke="#263238" stroke-linecap="round" stroke-linejoin="round"/>
<path d="M200.653 112.467C200.653 112.467 202.737 113.329 203.893 114.66" stroke="#263238" stroke-linecap="round" stroke-linejoin="round"/>
<path d="M197.877 113.876C196.761 113.689 195.631 113.61 194.501 113.64C193.364 113.652 192.237 113.844 191.16 114.207" stroke="#263238" stroke-linecap="round" stroke-linejoin="round"/>
<path d="M198.404 115.253C198.404 115.253 200.708 116.757 200.672 118.626" stroke="#263238" stroke-linecap="round" stroke-linejoin="round"/>
<path d="M186.174 131.168C185.072 130.52 183.85 130.501 183.258 129.811C182.665 129.121 183.831 128.774 184.46 129.036C185.088 129.299 186.543 130.044 186.822 130.206C187.1 130.368 186.906 127.987 186.394 127.089C185.882 126.192 184.482 125.667 183.802 126.402C182.328 127.948 180.027 125.919 180.186 124.708C180.345 123.496 179.214 122.197 176.787 122.961C174.36 123.726 175.268 124.147 175.268 124.147C175.268 124.147 176.988 125.203 178.093 125.855C179.198 126.506 181.009 127.066 180.63 127.543C180.251 128.019 179.182 127.727 178.297 127.018C177.413 126.308 174.876 124.62 174.613 125.249C174.351 125.877 173.444 127.611 173.444 127.611C174.567 127.782 175.677 128.028 176.768 128.346C178.242 128.809 178.543 129.623 177.39 129.684C176.236 129.746 174.15 128.881 173.502 129.982C172.854 131.084 173.298 133.919 173.298 133.919C173.298 133.919 175.41 132.49 176.486 132.493C177.562 132.497 176.875 133.096 175.673 133.874C175.149 134.192 174.644 134.539 174.16 134.914L175.255 137.723C176.092 137.609 176.937 137.548 177.782 137.541L178.498 137.593C178.498 137.593 178.498 134.645 179.344 133.773C180.189 132.902 180.338 134.92 180.516 135.435C180.695 135.95 180.157 137.493 180.157 137.493C180.157 137.493 182.25 136.349 182.927 135.892L183.607 135.439C183.607 135.439 182.823 133.3 182.292 132.688C181.761 132.075 181.035 132.166 181.644 131.635C182.253 131.103 183.17 131.385 183.692 132.14C184.129 132.854 184.509 133.602 184.829 134.376C184.829 134.376 185.61 134.502 186.624 133.352C187.638 132.202 187.272 131.819 186.174 131.168ZM176.583 134.408C175.773 134.003 177.698 133.193 177.698 133.193C178.407 133.093 177.393 134.816 176.58 134.411L176.583 134.408ZM177.95 130.624C177.604 130.452 178.64 130.105 178.64 130.105C180.144 130.397 178.294 130.802 177.95 130.627V130.624Z" fill="white"/>
<path d="M176.58 136.475C176.369 136.699 176.152 136.916 175.932 137.123" stroke="#263238" stroke-linecap="round" stroke-linejoin="round"/>
<path d="M180.72 130.17C179.787 132.158 178.614 134.024 177.228 135.727" stroke="#263238" stroke-linecap="round" stroke-linejoin="round"/>
<path d="M181.097 129.36C181.583 128.275 181.832 127.556 181.832 127.556C182.392 127.803 183.014 127.872 183.614 127.753C184.131 127.618 184.673 127.607 185.195 127.721" stroke="#263238" stroke-linecap="round" stroke-linejoin="round"/>
<path d="M176.903 127.138C176.903 127.138 180.445 128.897 180.215 129.082" stroke="#263238" stroke-linecap="round" stroke-linejoin="round"/>
<path d="M182.088 130.161C182.088 130.161 183.763 130.854 184.68 131.923" stroke="#263238" stroke-linecap="round" stroke-linejoin="round"/>
<path d="M179.843 131.295C178.946 131.143 178.037 131.079 177.128 131.103C176.213 131.114 175.305 131.268 174.438 131.56" stroke="#263238" stroke-linecap="round" stroke-linejoin="round"/>
<path d="M180.267 132.403C180.267 132.403 182.123 133.611 182.088 135.118" stroke="#263238" stroke-linecap="round" stroke-linejoin="round"/>
<path d="M181.676 110.374C181.676 110.374 180.29 111.381 179.408 110.374C178.527 109.366 179.787 107.351 178.524 106.596C177.26 105.841 175.251 107.225 175.251 107.225C175.251 107.225 176.888 107.604 176.888 108.485C176.888 109.366 176.133 109.742 176.006 109.366C175.88 108.99 174.999 107.098 173.738 107.979C173.375 108.224 173.065 108.54 172.827 108.908C172.589 109.277 172.429 109.689 172.355 110.121C172.355 110.121 175.374 109.616 175.627 110.75C175.88 111.884 174.367 110.623 173.11 110.623C171.853 110.623 170.715 110.876 170.842 111.631C170.91 112.301 170.91 112.976 170.842 113.646C171.494 113.035 172.343 112.678 173.236 112.639C174.62 112.639 174.62 113.52 173.362 113.52C172.105 113.52 171.094 114.78 171.094 114.78C171.094 114.78 172.355 116.669 173.865 117.55C175.374 118.432 175.88 118.056 176.006 117.298C176.133 116.54 175.627 114.654 176.508 114.654C177.39 114.654 175.251 118.056 176.382 118.179C177.513 118.302 178.397 117.93 178.65 117.171L178.903 116.416C178.903 116.416 178.397 114.528 178.524 113.773C178.65 113.018 178.903 113.773 179.152 114.654C179.402 115.535 179.658 117.677 180.034 117.55C180.409 117.424 181.547 115.788 181.799 115.159C182.052 114.531 180.034 112.765 180.034 112.389C180.034 112.013 181.547 112.639 181.799 113.018C181.982 113.303 182.149 113.597 182.302 113.899C182.302 113.899 183.183 113.27 183.056 111.505C182.93 109.739 181.676 110.374 181.676 110.374Z" fill="white"/>
<path d="M174.636 114.939C175.507 113.724 176.797 112.072 177.915 111.255" stroke="#263238" stroke-linecap="round" stroke-linejoin="round"/>
<path d="M173.615 116.416C173.615 116.416 173.839 116.067 174.198 115.542" stroke="#263238" stroke-linecap="round" stroke-linejoin="round"/>
<path d="M178.523 111.505C178.523 111.505 180.033 113.394 180.412 115.409" stroke="#263238" stroke-linecap="round" stroke-linejoin="round"/>
<path d="M177.018 112.752C177.018 112.752 177.393 112.499 177.393 115.02" stroke="#263238" stroke-linecap="round" stroke-linejoin="round"/>
<path d="M177.898 110.374C177.898 110.374 178.653 109.616 178.148 108.232" stroke="#263238" stroke-linecap="round" stroke-linejoin="round"/>
<path d="M176.891 111.631L176.259 110.623" stroke="#263238" stroke-linecap="round" stroke-linejoin="round"/>
<path d="M175.756 112.752C175.756 112.752 173.867 111.492 172.733 111.492" stroke="#263238" stroke-linecap="round" stroke-linejoin="round"/>
<path d="M194.393 138.585H184.657V152.598H194.393V138.585Z" fill="#263238" stroke="#263238" stroke-width="2" stroke-linecap="round" stroke-linejoin="round"/>
<path d="M106.7 30.9031C106.7 30.9031 106.817 26.7623 106.67 23.2016C106.524 19.6408 106.82 12.0074 106.82 12.0074" stroke="#263238" stroke-miterlimit="10"/>
<path d="M106.752 16.498L105.135 15.2247" stroke="#263238" stroke-miterlimit="10"/>
<path d="M106.731 17.3729L107.308 16.443" stroke="#263238" stroke-miterlimit="10"/>
<path d="M106.603 21.0568L108.038 19.8677" stroke="#263238" stroke-miterlimit="10"/>
<path d="M106.819 13.5723L106.061 12.8822" stroke="#263238" stroke-miterlimit="10"/>
<path d="M106.589 21.7015L105.64 20.6841" stroke="#263238" stroke-miterlimit="10"/>
<path d="M106.67 25.6996L104.697 23.8982" stroke="#263238" stroke-miterlimit="10"/>
<path d="M106.722 27.9191C107.225 27.7241 107.714 27.4957 108.186 27.2354" stroke="#263238" stroke-miterlimit="10"/>
<path d="M105.624 17.1363C104.83 16.524 102.166 16.6309 101.655 17.9042C101.143 19.1775 102.772 21.2544 104.328 21.1086C104.94 21.0502 105.206 21.0081 105.445 20.6647L103.258 18.5263L105.627 20.4314C105.693 20.3074 105.748 20.1772 105.789 20.0426C105.815 19.9486 105.841 19.845 105.86 19.738C106.025 18.9766 106.372 17.7098 105.624 17.1363Z" fill="white"/>
<path d="M110.778 15.6589V15.7042C110.565 16.6536 109.482 17.1914 108.565 17.1104C108.438 17.0996 108.313 17.0768 108.19 17.0424C107.975 17.3816 107.843 17.7659 107.802 18.1651C107.762 18.5643 107.815 18.9674 107.956 19.3428C107.995 19.4501 108.046 19.5523 108.109 19.6473C108.378 19.427 111.255 16.9711 111.255 16.9711L108.267 19.8482C109.168 20.8202 111.281 20.6809 112.016 18.8956C112.752 17.1104 111.815 15.9148 110.778 15.6589Z" fill="white"/>
<path d="M109.314 12.3379C107.765 12.0139 106.378 12.7007 106.398 14.3175C106.406 14.6739 106.488 15.0248 106.637 15.3486C106.786 15.6723 107 15.9621 107.266 16.1999L108.863 14.0227L107.522 16.3976C107.823 16.6026 108.17 16.7275 108.533 16.7605C109.447 16.8382 110.532 16.3004 110.746 15.3511C110.969 14.2916 110.862 12.6781 109.314 12.3379Z" fill="white"/>
<path d="M107.506 6.71649C107.506 6.71649 107.347 6.76509 106.355 7.24785C105.775 7.56791 105.345 8.10475 105.159 8.74103C104.973 9.37731 105.047 10.0613 105.364 10.6434C105.639 11.1872 106.114 11.6031 106.689 11.8033L107.088 7.95093L106.919 11.8551C106.995 11.8629 107.071 11.8629 107.146 11.8551C107.794 11.7903 108.808 11.0192 108.905 9.44133C109.003 7.86345 107.506 6.71649 107.506 6.71649Z" fill="white"/>
<path d="M102.98 10.2189L105.97 12.61C106 12.5047 106.01 12.3949 105.999 12.286C105.86 10.9188 104.496 10.125 103.595 9.83983C102.695 9.55471 102.069 10.0634 102.649 11.3724C103.229 12.6813 104.749 13.3164 105.426 13.1187C105.587 13.0791 105.732 12.9908 105.841 12.866L102.98 10.2189Z" fill="white"/>
<path d="M105.037 13.284C104.579 13.2509 104.134 13.1142 103.736 12.8841C103.338 12.654 102.998 12.3365 102.74 11.9556C102.423 11.9255 102.106 12.0208 101.858 12.2212C101.609 12.4216 101.449 12.7112 101.412 13.028C101.107 14.4536 102.138 15.944 103.625 15.7626C104.092 15.7382 104.535 15.5488 104.875 15.228L102.219 12.8012L105.063 14.9688C105.119 14.8688 105.154 14.7586 105.167 14.6448C105.259 14.1883 105.214 13.7149 105.037 13.284Z" fill="white"/>
<path d="M105.021 21.2123C104.779 21.3157 104.522 21.3771 104.26 21.3937C103.288 21.4844 102.296 20.723 101.804 19.8288C101.514 19.8484 101.24 19.9643 101.025 20.1581C100.809 20.352 100.665 20.6125 100.615 20.898C100.32 22.5666 101.865 24.7666 103.427 24.4166C103.833 24.3376 104.209 24.1469 104.512 23.8658L101.104 20.587L104.71 23.652C104.916 23.3876 105.049 23.0736 105.095 22.7416C105.266 22.2409 105.24 21.6939 105.021 21.2123Z" fill="white"/>
<path d="M111.88 24.624C110.733 23.2956 109.369 24.4847 109.369 24.4847C109.369 24.4847 108.533 24.7601 108.216 25.9459C108.119 26.3057 108.133 26.6866 108.258 27.0378L111.705 25.029L108.342 27.2257C108.666 27.8219 109.34 28.1977 110.286 27.9223C111.796 27.5076 113.024 25.9621 111.88 24.624Z" fill="white"/>
<path d="M109.023 29.6525H104.25V36.7189H109.023V29.6525Z" fill="#263238"/>
<path d="M161.699 36.6606H98.752V153.051H161.699V36.6606Z" fill="white" stroke="#263238" stroke-miterlimit="10"/>
<path d="M152.821 38.1348H100.061V151.279H152.821V38.1348Z" fill="#263238" stroke="#263238" stroke-linecap="round" stroke-linejoin="round"/>
<path d="M152.821 55.6826H100.061V57.3512H152.821V55.6826Z" fill="white" stroke="#263238" stroke-miterlimit="10"/>
<path d="M152.821 74.9736H100.061V76.6422H152.821V74.9736Z" fill="white" stroke="#263238" stroke-miterlimit="10"/>
<path d="M135.817 38.1542H134.696V55.6794H135.817V38.1542Z" fill="white" stroke="#263238" stroke-miterlimit="10"/>
<path d="M117.881 38.1542H116.76V55.6794H117.881V38.1542Z" fill="white" stroke="#263238" stroke-miterlimit="10"/>
<path d="M135.817 76.6616H134.696V94.1868H135.817V76.6616Z" fill="white" stroke="#263238" stroke-miterlimit="10"/>
<path d="M117.881 76.6616H116.76V94.1868H117.881V76.6616Z" fill="white" stroke="#263238" stroke-miterlimit="10"/>
<path d="M126.762 57.4452H125.641V74.9703H126.762V57.4452Z" fill="white" stroke="#263238" stroke-miterlimit="10"/>
<path d="M152.821 94.19H100.061V95.8586H152.821V94.19Z" fill="white" stroke="#263238" stroke-miterlimit="10"/>
<path d="M152.821 113.416H100.061V151.869H152.821V113.416Z" fill="white" stroke="#263238" stroke-miterlimit="10"/>
<path d="M126.762 95.8878H125.641V113.413H126.762V95.8878Z" fill="white" stroke="#263238" stroke-miterlimit="10"/>
<path d="M154.114 36.6509V153.025L161.702 153.051V36.6509H154.114Z" fill="#263238" stroke="#263238" stroke-linecap="round" stroke-linejoin="round"/>
<path d="M139.303 39.515H136.595V55.6405H139.303V39.515Z" fill="white" stroke="#263238" stroke-miterlimit="10"/>
<path d="M139.303 52.1769H136.595V53.4989H139.303V52.1769Z" fill="white" stroke="#263238" stroke-miterlimit="10"/>
<path d="M139.303 41.1512H136.595V42.4732H139.303V41.1512Z" fill="white" stroke="#263238" stroke-miterlimit="10"/>
<path d="M142.074 39.515H139.365V55.6405H142.074V39.515Z" fill="white" stroke="#263238" stroke-miterlimit="10"/>
<path d="M142.074 52.1769H139.365V53.4989H142.074V52.1769Z" fill="white" stroke="#263238" stroke-miterlimit="10"/>
<path d="M142.074 41.1512H139.365V42.4732H142.074V41.1512Z" fill="white" stroke="#263238" stroke-miterlimit="10"/>
<path d="M144.847 39.515H142.139V55.6405H144.847V39.515Z" fill="white" stroke="#263238" stroke-miterlimit="10"/>
<path d="M144.847 52.1769H142.139V53.4989H144.847V52.1769Z" fill="white" stroke="#263238" stroke-miterlimit="10"/>
<path d="M144.847 41.1512H142.139V42.4732H144.847V41.1512Z" fill="white" stroke="#263238" stroke-miterlimit="10"/>
<path d="M147.618 39.515H144.909V55.6405H147.618V39.515Z" fill="white" stroke="#263238" stroke-miterlimit="10"/>
<path d="M152.131 39.515H147.595V55.6405H152.131V39.515Z" fill="white" stroke="#263238" stroke-miterlimit="10"/>
<path d="M147.618 52.1769H144.909V53.4989H147.618V52.1769Z" fill="white" stroke="#263238" stroke-miterlimit="10"/>
<path d="M147.618 41.1512H144.909V42.4732H147.618V41.1512Z" fill="white" stroke="#263238" stroke-miterlimit="10"/>
<path d="M121.182 39.515H118.474V55.6405H121.182V39.515Z" fill="white" stroke="#263238" stroke-miterlimit="10"/>
<path d="M121.182 52.1769H118.474V53.4989H121.182V52.1769Z" fill="white" stroke="#263238" stroke-miterlimit="10"/>
<path d="M121.182 41.1512H118.474V42.4732H121.182V41.1512Z" fill="white" stroke="#263238" stroke-miterlimit="10"/>
<path d="M123.953 39.515H121.244V55.6405H123.953V39.515Z" fill="white" stroke="#263238" stroke-miterlimit="10"/>
<path d="M123.953 52.1769H121.244V53.4989H123.953V52.1769Z" fill="white" stroke="#263238" stroke-miterlimit="10"/>
<path d="M123.953 41.1512H121.244V42.4732H123.953V41.1512Z" fill="white" stroke="#263238" stroke-miterlimit="10"/>
<path d="M126.726 39.515H124.018V55.6405H126.726V39.515Z" fill="white" stroke="#263238" stroke-miterlimit="10"/>
<path d="M126.726 52.1769H124.018V53.4989H126.726V52.1769Z" fill="white" stroke="#263238" stroke-miterlimit="10"/>
<path d="M126.726 41.1512H124.018V42.4732H126.726V41.1512Z" fill="white" stroke="#263238" stroke-miterlimit="10"/>
<path d="M129.497 39.515H126.788V55.6405H129.497V39.515Z" fill="white" stroke="#263238" stroke-miterlimit="10"/>
<path d="M134.01 39.515H129.474V55.6405H134.01V39.515Z" fill="white" stroke="#263238" stroke-miterlimit="10"/>
<path d="M129.497 52.1769H126.788V53.4989H129.497V52.1769Z" fill="white" stroke="#263238" stroke-miterlimit="10"/>
<path d="M129.497 41.1512H126.788V42.4732H129.497V41.1512Z" fill="white" stroke="#263238" stroke-miterlimit="10"/>
<path d="M121.182 78.0807H118.474V94.2062H121.182V78.0807Z" fill="white" stroke="#263238" stroke-miterlimit="10"/>
<path d="M121.182 90.7427H118.474V92.0646H121.182V90.7427Z" fill="white" stroke="#263238" stroke-miterlimit="10"/>
<path d="M121.182 79.7202H118.474V81.0421H121.182V79.7202Z" fill="white" stroke="#263238" stroke-miterlimit="10"/>
<path d="M123.953 78.0807H121.244V94.2062H123.953V78.0807Z" fill="white" stroke="#263238" stroke-miterlimit="10"/>
<path d="M123.953 90.7427H121.244V92.0646H123.953V90.7427Z" fill="white" stroke="#263238" stroke-miterlimit="10"/>
<path d="M123.953 79.7202H121.244V81.0421H123.953V79.7202Z" fill="white" stroke="#263238" stroke-miterlimit="10"/>
<path d="M126.726 78.0807H124.018V94.2062H126.726V78.0807Z" fill="white" stroke="#263238" stroke-miterlimit="10"/>
<path d="M126.726 90.7427H124.018V92.0646H126.726V90.7427Z" fill="white" stroke="#263238" stroke-miterlimit="10"/>
<path d="M126.726 79.7202H124.018V81.0421H126.726V79.7202Z" fill="white" stroke="#263238" stroke-miterlimit="10"/>
<path d="M129.497 78.0807H126.788V94.2062H129.497V78.0807Z" fill="white" stroke="#263238" stroke-miterlimit="10"/>
<path d="M134.01 78.0807H129.474V94.2062H134.01V78.0807Z" fill="white" stroke="#263238" stroke-miterlimit="10"/>
<path d="M129.497 90.7427H126.788V92.0646H129.497V90.7427Z" fill="white" stroke="#263238" stroke-miterlimit="10"/>
<path d="M129.497 79.7202H126.788V81.0421H129.497V79.7202Z" fill="white" stroke="#263238" stroke-miterlimit="10"/>
<path d="M139.071 78.0807H136.362V94.2062H139.071V78.0807Z" fill="white" stroke="#263238" stroke-miterlimit="10"/>
<path d="M139.071 90.7427H136.362V92.0646H139.071V90.7427Z" fill="white" stroke="#263238" stroke-miterlimit="10"/>
<path d="M139.071 79.7202H136.362V81.0421H139.071V79.7202Z" fill="white" stroke="#263238" stroke-miterlimit="10"/>
<path d="M141.844 78.0807H139.136V94.2062H141.844V78.0807Z" fill="white" stroke="#263238" stroke-miterlimit="10"/>
<path d="M141.844 90.7427H139.136V92.0646H141.844V90.7427Z" fill="white" stroke="#263238" stroke-miterlimit="10"/>
<path d="M141.844 79.7202H139.136V81.0421H141.844V79.7202Z" fill="white" stroke="#263238" stroke-miterlimit="10"/>
<path d="M144.614 78.0807H141.905V94.2062H144.614V78.0807Z" fill="white" stroke="#263238" stroke-miterlimit="10"/>
<path d="M144.614 90.7427H141.905V92.0646H144.614V90.7427Z" fill="white" stroke="#263238" stroke-miterlimit="10"/>
<path d="M144.614 79.7202H141.905V81.0421H144.614V79.7202Z" fill="white" stroke="#263238" stroke-miterlimit="10"/>
<path d="M147.387 78.0807H144.679V94.2062H147.387V78.0807Z" fill="white" stroke="#263238" stroke-miterlimit="10"/>
<path d="M151.897 78.0807H147.361V94.2062H151.897V78.0807Z" fill="white" stroke="#263238" stroke-miterlimit="10"/>
<path d="M147.387 90.7427H144.679V92.0646H147.387V90.7427Z" fill="white" stroke="#263238" stroke-miterlimit="10"/>
<path d="M147.387 79.7202H144.679V81.0421H147.387V79.7202Z" fill="white" stroke="#263238" stroke-miterlimit="10"/>
<path d="M103.408 78.0807H100.699V94.2062H103.408V78.0807Z" fill="white" stroke="#263238" stroke-miterlimit="10"/>
<path d="M103.408 90.7427H100.699V92.0646H103.408V90.7427Z" fill="white" stroke="#263238" stroke-miterlimit="10"/>
<path d="M103.408 79.7202H100.699V81.0421H103.408V79.7202Z" fill="white" stroke="#263238" stroke-miterlimit="10"/>
<path d="M106.181 78.0807H103.473V94.2062H106.181V78.0807Z" fill="white" stroke="#263238" stroke-miterlimit="10"/>
<path d="M106.181 90.7427H103.473V92.0646H106.181V90.7427Z" fill="white" stroke="#263238" stroke-miterlimit="10"/>
<path d="M106.181 79.7202H103.473V81.0421H106.181V79.7202Z" fill="white" stroke="#263238" stroke-miterlimit="10"/>
<path d="M108.952 78.0807H106.243V94.2062H108.952V78.0807Z" fill="white" stroke="#263238" stroke-miterlimit="10"/>
<path d="M108.952 90.7427H106.243V92.0646H108.952V90.7427Z" fill="white" stroke="#263238" stroke-miterlimit="10"/>
<path d="M108.952 79.7202H106.243V81.0421H108.952V79.7202Z" fill="white" stroke="#263238" stroke-miterlimit="10"/>
<path d="M111.725 78.0807H109.017V94.2062H111.725V78.0807Z" fill="white" stroke="#263238" stroke-miterlimit="10"/>
<path d="M116.235 78.0807H111.699V94.2062H116.235V78.0807Z" fill="white" stroke="#263238" stroke-miterlimit="10"/>
<path d="M111.725 90.7427H109.017V92.0646H111.725V90.7427Z" fill="white" stroke="#263238" stroke-miterlimit="10"/>
<path d="M111.725 79.7202H109.017V81.0421H111.725V79.7202Z" fill="white" stroke="#263238" stroke-miterlimit="10"/>
<path d="M103.061 39.515H100.353V55.6405H103.061V39.515Z" fill="white" stroke="#263238" stroke-miterlimit="10"/>
<path d="M103.061 52.1769H100.353V53.4989H103.061V52.1769Z" fill="white" stroke="#263238" stroke-miterlimit="10"/>
<path d="M103.061 41.1512H100.353V42.4732H103.061V41.1512Z" fill="white" stroke="#263238" stroke-miterlimit="10"/>
<path d="M105.832 39.515H103.123V55.6405H105.832V39.515Z" fill="white" stroke="#263238" stroke-miterlimit="10"/>
<path d="M105.832 52.1769H103.123V53.4989H105.832V52.1769Z" fill="white" stroke="#263238" stroke-miterlimit="10"/>
<path d="M105.832 41.1512H103.123V42.4732H105.832V41.1512Z" fill="white" stroke="#263238" stroke-miterlimit="10"/>
<path d="M108.605 39.515H105.896V55.6405H108.605V39.515Z" fill="white" stroke="#263238" stroke-miterlimit="10"/>
<path d="M108.605 52.1769H105.896V53.4989H108.605V52.1769Z" fill="white" stroke="#263238" stroke-miterlimit="10"/>
<path d="M108.605 41.1512H105.896V42.4732H108.605V41.1512Z" fill="white" stroke="#263238" stroke-miterlimit="10"/>
<path d="M111.375 39.515H108.666V55.6405H111.375V39.515Z" fill="white" stroke="#263238" stroke-miterlimit="10"/>
<path d="M115.889 39.515H111.353V55.6405H115.889V39.515Z" fill="white" stroke="#263238" stroke-miterlimit="10"/>
<path d="M111.375 52.1769H108.666V53.4989H111.375V52.1769Z" fill="white" stroke="#263238" stroke-miterlimit="10"/>
<path d="M111.375 41.1512H108.666V42.4732H111.375V41.1512Z" fill="white" stroke="#263238" stroke-miterlimit="10"/>
<path d="M111.077 58.7315H108.368V74.857H111.077V58.7315Z" fill="white" stroke="#263238" stroke-miterlimit="10"/>
<path d="M111.077 71.3934H108.368V72.7153H111.077V71.3934Z" fill="white" stroke="#263238" stroke-miterlimit="10"/>
<path d="M111.077 60.3709H108.368V61.6928H111.077V60.3709Z" fill="white" stroke="#263238" stroke-miterlimit="10"/>
<path d="M108.404 58.7315H105.695V74.857H108.404V58.7315Z" fill="white" stroke="#263238" stroke-miterlimit="10"/>
<path d="M108.404 71.3934H105.695V72.7153H108.404V71.3934Z" fill="white" stroke="#263238" stroke-miterlimit="10"/>
<path d="M108.404 60.3709H105.695V61.6928H108.404V60.3709Z" fill="white" stroke="#263238" stroke-miterlimit="10"/>
<path d="M105.731 58.7315H103.022V74.857H105.731V58.7315Z" fill="white" stroke="#263238" stroke-miterlimit="10"/>
<path d="M105.731 71.3934H103.022V72.7153H105.731V71.3934Z" fill="white" stroke="#263238" stroke-miterlimit="10"/>
<path d="M105.731 60.3709H103.022V61.6928H105.731V60.3709Z" fill="white" stroke="#263238" stroke-miterlimit="10"/>
<path d="M103.061 58.7315H100.353V74.857H103.061V58.7315Z" fill="white" stroke="#263238" stroke-miterlimit="10"/>
<path d="M103.061 71.3934H100.353V72.7153H103.061V71.3934Z" fill="white" stroke="#263238" stroke-miterlimit="10"/>
<path d="M103.061 60.3709H100.353V61.6928H103.061V60.3709Z" fill="white" stroke="#263238" stroke-miterlimit="10"/>
<path d="M113.847 58.7315H111.139V74.857H113.847V58.7315Z" fill="white" stroke="#263238" stroke-miterlimit="10"/>
<path d="M113.847 71.3934H111.139V72.7153H113.847V71.3934Z" fill="white" stroke="#263238" stroke-miterlimit="10"/>
<path d="M113.847 60.3709H111.139V61.6928H113.847V60.3709Z" fill="white" stroke="#263238" stroke-miterlimit="10"/>
<path d="M116.617 58.7315H113.908V74.857H116.617V58.7315Z" fill="white" stroke="#263238" stroke-miterlimit="10"/>
<path d="M116.617 71.3934H113.908V72.7153H116.617V71.3934Z" fill="white" stroke="#263238" stroke-miterlimit="10"/>
<path d="M116.617 60.3709H113.908V61.6928H116.617V60.3709Z" fill="white" stroke="#263238" stroke-miterlimit="10"/>
<path d="M119.39 58.7315H116.682V74.857H119.39V58.7315Z" fill="white" stroke="#263238" stroke-miterlimit="10"/>
<path d="M123.904 58.7315H119.368V74.857H123.904V58.7315Z" fill="white" stroke="#263238" stroke-miterlimit="10"/>
<path d="M119.39 71.3934H116.682V72.7153H119.39V71.3934Z" fill="white" stroke="#263238" stroke-miterlimit="10"/>
<path d="M119.39 60.3709H116.682V61.6928H119.39V60.3709Z" fill="white" stroke="#263238" stroke-miterlimit="10"/>
<path d="M130.336 58.7315H127.627V74.857H130.336V58.7315Z" fill="white" stroke="#263238" stroke-miterlimit="10"/>
<path d="M130.336 71.3934H127.627V72.7153H130.336V71.3934Z" fill="white" stroke="#263238" stroke-miterlimit="10"/>
<path d="M130.336 60.3709H127.627V61.6928H130.336V60.3709Z" fill="white" stroke="#263238" stroke-miterlimit="10"/>
<path d="M133.109 58.7315H130.4V74.857H133.109V58.7315Z" fill="white" stroke="#263238" stroke-miterlimit="10"/>
<path d="M133.109 71.3934H130.4V72.7153H133.109V71.3934Z" fill="white" stroke="#263238" stroke-miterlimit="10"/>
<path d="M133.109 60.3709H130.4V61.6928H133.109V60.3709Z" fill="white" stroke="#263238" stroke-miterlimit="10"/>
<path d="M138.654 58.7275L136.129 59.7937L142.479 74.8344L145.004 73.7682L138.654 58.7275Z" fill="white" stroke="#263238" stroke-miterlimit="10"/>
<path d="M143.641 70.5363L141.116 71.6025L141.637 72.8352L144.162 71.7691L143.641 70.5363Z" fill="white" stroke="#263238" stroke-miterlimit="10"/>
<path d="M139.301 60.256L136.775 61.3222L137.296 62.555L139.821 61.4888L139.301 60.256Z" fill="white" stroke="#263238" stroke-miterlimit="10"/>
<path d="M142.482 74.8278H148.136L150.68 73.7683L145.006 73.7618L142.482 74.8278Z" fill="white" stroke="#263238" stroke-miterlimit="10"/>
<path d="M138.656 58.7217H143.967L150.68 73.7683L145.007 73.7618L138.656 58.7217Z" fill="white" stroke="#263238" stroke-miterlimit="10"/>
<path d="M135.782 58.7315H133.073V74.857H135.782V58.7315Z" fill="white" stroke="#263238" stroke-miterlimit="10"/>
<path d="M135.782 71.3934H133.073V72.7153H135.782V71.3934Z" fill="white" stroke="#263238" stroke-miterlimit="10"/>
<path d="M135.782 60.3709H133.073V61.6928H135.782V60.3709Z" fill="white" stroke="#263238" stroke-miterlimit="10"/>
<path d="M135.782 58.7315H138.656L136.129 59.7877L142.483 74.8278H135.782V58.7315Z" fill="white" stroke="#263238" stroke-miterlimit="10"/>
<path d="M111.077 97.2292H108.368V113.355H111.077V97.2292Z" fill="white" stroke="#263238" stroke-miterlimit="10"/>
<path d="M111.077 109.891H108.368V111.213H111.077V109.891Z" fill="white" stroke="#263238" stroke-miterlimit="10"/>
<path d="M111.077 98.8654H108.368V100.187H111.077V98.8654Z" fill="white" stroke="#263238" stroke-miterlimit="10"/>
<path d="M108.404 97.2292H105.695V113.355H108.404V97.2292Z" fill="white" stroke="#263238" stroke-miterlimit="10"/>
<path d="M108.404 109.891H105.695V111.213H108.404V109.891Z" fill="white" stroke="#263238" stroke-miterlimit="10"/>
<path d="M108.404 98.8654H105.695V100.187H108.404V98.8654Z" fill="white" stroke="#263238" stroke-miterlimit="10"/>
<path d="M105.731 97.2292H103.022V113.355H105.731V97.2292Z" fill="white" stroke="#263238" stroke-miterlimit="10"/>
<path d="M105.731 109.891H103.022V111.213H105.731V109.891Z" fill="white" stroke="#263238" stroke-miterlimit="10"/>
<path d="M105.731 98.8654H103.022V100.187H105.731V98.8654Z" fill="white" stroke="#263238" stroke-miterlimit="10"/>
<path d="M103.061 97.2292H100.353V113.355H103.061V97.2292Z" fill="white" stroke="#263238" stroke-miterlimit="10"/>
<path d="M103.061 109.891H100.353V111.213H103.061V109.891Z" fill="white" stroke="#263238" stroke-miterlimit="10"/>
<path d="M103.061 98.8654H100.353V100.187H103.061V98.8654Z" fill="white" stroke="#263238" stroke-miterlimit="10"/>
<path d="M113.847 97.2292H111.139V113.355H113.847V97.2292Z" fill="white" stroke="#263238" stroke-miterlimit="10"/>
<path d="M113.847 109.891H111.139V111.213H113.847V109.891Z" fill="white" stroke="#263238" stroke-miterlimit="10"/>
<path d="M113.847 98.8654H111.139V100.187H113.847V98.8654Z" fill="white" stroke="#263238" stroke-miterlimit="10"/>
<path d="M116.617 97.2292H113.908V113.355H116.617V97.2292Z" fill="white" stroke="#263238" stroke-miterlimit="10"/>
<path d="M116.617 109.891H113.908V111.213H116.617V109.891Z" fill="white" stroke="#263238" stroke-miterlimit="10"/>
<path d="M116.617 98.8654H113.908V100.187H116.617V98.8654Z" fill="white" stroke="#263238" stroke-miterlimit="10"/>
<path d="M119.39 97.2292H116.682V113.355H119.39V97.2292Z" fill="white" stroke="#263238" stroke-miterlimit="10"/>
<path d="M123.904 97.2292H119.368V113.355H123.904V97.2292Z" fill="white" stroke="#263238" stroke-miterlimit="10"/>
<path d="M119.39 109.891H116.682V111.213H119.39V109.891Z" fill="white" stroke="#263238" stroke-miterlimit="10"/>
<path d="M119.39 98.8654H116.682V100.187H119.39V98.8654Z" fill="white" stroke="#263238" stroke-miterlimit="10"/>
<path d="M130.336 97.2292H127.627V113.355H130.336V97.2292Z" fill="white" stroke="#263238" stroke-miterlimit="10"/>
<path d="M130.336 109.891H127.627V111.213H130.336V109.891Z" fill="white" stroke="#263238" stroke-miterlimit="10"/>
<path d="M130.336 98.8654H127.627V100.187H130.336V98.8654Z" fill="white" stroke="#263238" stroke-miterlimit="10"/>
<path d="M133.109 97.2292H130.4V113.355H133.109V97.2292Z" fill="white" stroke="#263238" stroke-miterlimit="10"/>
<path d="M133.109 109.891H130.4V111.213H133.109V109.891Z" fill="white" stroke="#263238" stroke-miterlimit="10"/>
<path d="M133.109 98.8654H130.4V100.187H133.109V98.8654Z" fill="white" stroke="#263238" stroke-miterlimit="10"/>
<path d="M138.652 97.2233L136.127 98.2894L142.477 113.33L145.003 112.264L138.652 97.2233Z" fill="white" stroke="#263238" stroke-miterlimit="10"/>
<path d="M143.575 108.746L141.054 109.815L141.576 111.046L144.097 109.977L143.575 108.746Z" fill="white" stroke="#263238" stroke-width="0.99925" stroke-miterlimit="10"/>
<path d="M139.299 98.7518L136.773 99.818L137.294 101.051L139.819 99.9846L139.299 98.7518Z" fill="white" stroke="#263238" stroke-miterlimit="10"/>
<path d="M142.482 113.325H148.136L150.68 112.266L145.006 112.256L142.482 113.325Z" fill="white" stroke="#263238" stroke-miterlimit="10"/>
<path d="M138.656 97.2162H143.967L150.68 112.266L145.007 112.256L138.656 97.2162Z" fill="white" stroke="#263238" stroke-miterlimit="10"/>
<path d="M135.782 97.2292H133.073V113.355H135.782V97.2292Z" fill="white" stroke="#263238" stroke-miterlimit="10"/>
<path d="M135.782 109.891H133.073V111.213H135.782V109.891Z" fill="white" stroke="#263238" stroke-miterlimit="10"/>
<path d="M135.782 98.8654H133.073V100.187H135.782V98.8654Z" fill="white" stroke="#263238" stroke-miterlimit="10"/>
<path d="M135.782 97.2291H138.656L136.129 98.2821L142.483 113.325H135.782V97.2291Z" fill="white" stroke="#263238" stroke-miterlimit="10"/>
<path d="M125.641 113.413V151.224" stroke="#263238" stroke-miterlimit="10"/>
<path d="M100.488 118.095H152.808" stroke="#263238" stroke-miterlimit="10"/>
<path d="M111.226 121.293V128.148" stroke="#263238" stroke-width="2" stroke-miterlimit="10"/>
<path d="M113.51 121.293V128.148" stroke="#263238" stroke-width="2" stroke-miterlimit="10"/>
<path d="M137.502 121.293V128.148" stroke="#263238" stroke-width="2" stroke-miterlimit="10"/>
<path d="M139.786 121.293V128.148" stroke="#263238" stroke-width="2" stroke-miterlimit="10"/>
<path d="M167.392 37.2632V25.6381H184.298" stroke="#263238" stroke-miterlimit="10"/>
<path d="M185.542 25.6381H192.664V54.4741H167.392V39.0258" stroke="#263238" stroke-miterlimit="10"/>
<path d="M183.469 50.5861H170.797V29.5261H189.255V50.5861H184.92" stroke="#263238" stroke-miterlimit="10"/>
<path d="M183.575 36.0061H176.477V44.1061H183.575V36.0061Z" stroke="#263238" stroke-miterlimit="10"/>
<path d="M194.909 50.7028V43.4517H205.455" stroke="#263238" stroke-miterlimit="10"/>
<path d="M206.23 43.4517H210.672V61.4369H194.909V51.8011" stroke="#263238" stroke-miterlimit="10"/>
<path d="M204.937 59.0134H197.034V45.8752H208.546V59.0134H205.84" stroke="#263238" stroke-miterlimit="10"/>
<path d="M205.005 49.9187H200.576V54.9699H205.005V49.9187Z" stroke="#263238" stroke-miterlimit="10"/>
<path d="M27.7993 153.051H210.535" stroke="#263238" stroke-linecap="round" stroke-linejoin="round"/>
<path d="M40.7598 107.691C40.7598 107.691 38.8158 81.7711 39.7878 78.8551C40.7598 75.9391 46.7538 76.1011 47.8878 76.1011C49.0218 76.1011 72.6738 76.1011 76.0758 77.7211C79.4778 79.3411 79.9638 119.193 79.9638 119.193H42.3798L40.7598 107.691Z" fill="#263238" stroke="#263238" stroke-miterlimit="10"/>
<path d="M81.2566 105.585C81.2566 105.585 77.3686 105.585 76.591 109.473C75.8134 113.361 78.8752 129.399 79.102 133.935C79.3288 138.471 80.1259 144.789 80.1259 144.789H93.8958L96.9738 105.585H81.2566Z" fill="#263238" stroke="#263238" stroke-miterlimit="10"/>
<path d="M96.9733 105.585C96.9733 105.585 93.0853 105.585 92.1133 109.473C91.1413 113.361 93.4093 129.399 93.4093 133.935C93.4093 138.471 93.8953 144.789 93.8953 144.789H98.7553C98.7553 144.789 99.2413 133.125 99.2413 131.505C99.2413 129.885 101.185 113.037 100.213 109.635C99.2413 106.233 98.4313 105.909 96.9733 105.585Z" fill="#636363" stroke="#263238" stroke-miterlimit="10"/>
<path d="M55.9063 77.8021C55.9063 77.8021 43.0273 83.0671 43.0273 83.6341C43.0273 84.2011 47.4013 99.4291 49.0213 101.778C50.6413 104.127 51.7753 106.719 52.2613 107.691C52.7473 108.663 54.8533 111.093 56.5543 111.093C58.2553 111.093 60.2803 109.068 65.7073 108.258C71.1343 107.448 75.9943 107.529 76.9663 106.8C77.9383 106.071 76.7233 104.127 76.5613 103.722C76.3993 103.317 75.7513 101.859 75.7513 101.859C75.7513 101.859 81.0163 106.233 83.1223 106.395C85.2283 106.557 86.7673 105.504 87.0913 104.127C87.4153 102.75 86.2003 99.4291 85.3903 97.6471C84.5803 95.8651 80.7733 93.0301 79.0723 90.8431C77.3713 88.6561 75.1843 86.0641 73.6453 84.2821C72.3042 82.7134 70.6484 81.444 68.7853 80.5561C67.3273 79.9081 63.6013 78.2881 61.2523 78.0451C58.9033 77.8021 55.9063 77.8021 55.9063 77.8021Z" fill="white" stroke="#263238" stroke-miterlimit="10"/>
<path d="M81.1497 96.782C81.1497 96.782 79.3158 101.859 79.9638 103.155C80.6118 104.451 82.3388 104.882 82.3388 104.882" stroke="#263238" stroke-miterlimit="10"/>
<path d="M53.9629 79.5031L64.6549 89.8711L66.2749 82.0951" stroke="#263238" stroke-miterlimit="10"/>
<path d="M81.6648 97.4041C81.6648 97.4041 84.2568 99.2671 85.1478 98.6191C86.0388 97.9711 85.7958 96.7561 85.2288 95.4601C84.6618 94.1641 82.7988 93.4351 82.0698 94.0021C81.3408 94.5691 81.0978 96.8371 81.6648 97.4041Z" fill="white" stroke="#263238" stroke-miterlimit="10"/>
<path d="M55.0967 74.4001L55.5017 79.2601L64.0877 87.6841L65.3837 81.6901L65.9507 79.1791C65.9507 79.1791 60.3617 78.2071 58.5797 76.9921C56.7977 75.7771 55.0967 74.4001 55.0967 74.4001Z" fill="white" stroke="#263238" stroke-miterlimit="10"/>
<path d="M65.9507 79.1791C65.9507 79.1791 60.3617 78.2071 58.5797 76.9921C56.7977 75.7771 55.0967 74.4001 55.0967 74.4001L55.5017 79.2601L57.6725 81.3888C59.3605 81.865 61.0421 82.0951 62.1858 81.6544C63.4549 81.193 64.6678 80.5898 65.8016 79.8562L65.9507 79.1791Z" fill="#263238" stroke="#263238" stroke-miterlimit="10"/>
<path d="M52.5307 70.6482C52.5307 70.6482 51.0176 63.734 51.0176 62.5482C51.0176 61.3623 55.1227 55.31 60.7376 56.282C66.3525 57.254 69.4856 60.494 69.7027 61.466C69.9197 62.438 69.0547 64.382 69.0547 64.382C69.2256 64.9452 69.3342 65.5253 69.3787 66.1122C69.3787 66.7602 68.4067 69.566 68.4067 69.566L68.0827 66.65C68.0827 66.65 65.3837 67.4082 63.8707 67.4082C62.3576 67.4082 59.7656 66.4362 59.7656 66.4362C59.7656 66.4362 60.3067 68.1631 59.7656 69.0282C59.2245 69.8933 57.6077 70.6482 57.6077 70.6482C57.6077 70.6482 57.3907 72.3751 56.7427 72.3751C55.9433 72.3346 55.1488 72.2262 54.3677 72.0511C53.9336 71.9442 52.5307 70.6482 52.5307 70.6482Z" fill="#263238" stroke="#263238" stroke-miterlimit="10"/>
<path d="M55.0158 71.4031C55.0158 71.4031 54.7988 68.8111 52.6377 69.4591C50.4766 70.1071 51.8828 72.482 53.0718 73.6711C54.2609 74.8602 54.5817 73.9951 54.5817 73.9951C54.5817 73.9951 54.9057 76.4802 56.5257 77.8831C58.1457 79.286 60.6308 81.878 63.2228 81.554C65.8148 81.23 67.6518 77.99 67.9758 75.6151C68.2998 73.2402 68.5137 67.6221 68.5137 66.9741C68.4356 66.2432 68.2914 65.521 68.0828 64.8162C68.0828 64.8162 65.8148 66.4362 63.7638 66.0021C61.7129 65.5679 59.5518 64.7061 58.5798 64.7061C57.6078 64.7061 57.8217 66.1122 58.1457 66.5431C58.4697 66.9741 59.3348 67.8391 58.3628 68.3802C57.3908 68.9213 56.0948 69.4591 56.0948 69.4591V71.7271L55.0158 71.4031Z" fill="white" stroke="#263238" stroke-miterlimit="10"/>
<path d="M65.3477 70.2238L64.8163 76.0784L62.1562 75.3073" stroke="#263238" stroke-miterlimit="10"/>
<path d="M63.1022 75.7803C63.1022 75.7803 61.8062 75.7803 61.0934 75.8419C60.6652 75.9127 60.2302 75.9323 59.7974 75.9002C59.5026 75.8419 59.1494 75.6054 59.7391 76.1951C60.3288 76.7847 62.1043 77.4911 63.0504 77.6142C63.9964 77.7373 64.6477 77.436 65.354 76.9662C66.0603 76.4964 66.65 76.0201 66.3001 75.9035C65.8125 75.8167 65.3178 75.7766 64.8226 75.7836V76.0817L63.1022 75.7803Z" fill="#263238" stroke="#263238" stroke-miterlimit="10"/>
<path d="M61.24 72.2326C61.453 72.2326 61.6256 71.8757 61.6256 71.4355C61.6256 70.9953 61.453 70.6385 61.24 70.6385C61.0271 70.6385 60.8545 70.9953 60.8545 71.4355C60.8545 71.8757 61.0271 72.2326 61.24 72.2326Z" fill="#263238"/>
<path d="M67.0032 71.3189C67.0032 71.7595 66.8315 72.1159 66.6209 72.1159C66.4103 72.1159 66.2354 71.7595 66.2354 71.3189C66.2354 70.8783 66.4071 70.5186 66.6209 70.5186C66.8347 70.5186 67.0032 70.8783 67.0032 71.3189Z" fill="#263238"/>
<path d="M59.791 70.2237C59.791 70.2237 61.3883 69.0994 62.6876 69.5757" stroke="#263238" stroke-miterlimit="10"/>
<path d="M65.6455 69.6341C65.6455 69.6341 67.3011 68.8629 68.0107 69.5725" stroke="#263238" stroke-miterlimit="10"/>
<path d="M62.2763 72.9C62.2763 72.9 61.9199 73.3147 60.7373 73.6678" stroke="#263238" stroke-miterlimit="10"/>
<path d="M65.5264 72.6473C65.8762 72.8889 66.2537 73.0879 66.6506 73.2402" stroke="#263238" stroke-miterlimit="10"/>
<path d="M70.5674 88.0081L71.1344 86.5501C71.1344 86.5501 71.8634 87.2791 73.8074 87.2791C75.7514 87.2791 78.9104 88.6561 78.9104 88.6561L79.1534 89.0611C79.1534 89.0611 79.7204 87.3601 80.7734 87.0361C81.8264 86.7121 83.5274 85.5781 83.7704 85.2541L84.0134 84.9301L85.1474 85.9021L80.1254 92.5441L70.7294 88.8991L70.5674 88.0081Z" fill="white" stroke="#263238" stroke-miterlimit="10"/>
<path d="M70.6487 87.4411L68.2188 100.32L76.6427 102.264L79.7207 89.7901L70.6487 87.4411Z" fill="white" stroke="#263238" stroke-miterlimit="10"/>
<path d="M79.7206 89.7901L85.1476 85.9021L81.9076 98.3761L76.6426 102.264L79.7206 89.7901Z" fill="white" stroke="#263238" stroke-miterlimit="10"/>
<path d="M60.1992 97.9711L63.8701 96.458C63.8701 96.458 67.1101 93.0042 67.4341 92.6802C67.7581 92.3562 70.9981 92.0322 70.9981 92.0322L74.5621 94.4071C74.5621 94.4071 75.2101 94.9482 74.5621 95.162C73.9141 95.3758 72.5112 94.7311 72.5112 94.7311L71.1051 93.866L70.2432 94.3002L72.0771 95.81C72.0771 95.81 72.6181 97.2162 72.6181 97.9711C72.6082 98.4561 72.4979 98.9338 72.2941 99.374L71.2152 100.887L67.9752 99.2671C67.9752 99.2671 66.0312 100.67 65.5971 100.887C65.1629 101.104 61.0611 100.78 61.0611 100.78L60.1992 97.9711Z" fill="white" stroke="#263238" stroke-miterlimit="10"/>
<path d="M67.9463 94.1868L69.0932 93.9697L70.0782 94.2419" stroke="#263238" stroke-miterlimit="10"/>
<path d="M66.8545 96.3187C66.8545 96.3187 69.4206 95.6059 69.5858 95.6059C69.7511 95.6059 71.6627 97.5726 71.6627 97.5726L71.8797 99.7045" stroke="#263238" stroke-miterlimit="10"/>
<path d="M66.9648 97.6827L69.0384 97.7378L70.95 98.9949C71.144 99.6063 71.2338 100.246 71.2157 100.887" stroke="#263238" stroke-miterlimit="10"/>
<path d="M45.2953 82.0951C45.2953 82.0951 42.9172 82.4191 42.5932 84.47C42.2692 86.5209 40.1113 103.803 40.7593 105.747C41.4073 107.691 53.3953 104.344 53.8263 104.127C54.2572 103.91 61.0612 101.859 61.1713 101.428C61.2815 100.997 61.4953 97.43 60.5233 97.2162C59.5513 97.0023 50.2623 97.3231 50.2623 97.3231L48.9663 86.09" fill="white"/>
<path d="M45.2953 82.0951C45.2953 82.0951 42.9172 82.4191 42.5932 84.47C42.2692 86.5209 40.1113 103.803 40.7593 105.747C41.4073 107.691 53.3953 104.344 53.8263 104.127C54.2572 103.91 61.0612 101.859 61.1713 101.428C61.2815 100.997 61.4953 97.43 60.5233 97.2162C59.5513 97.0023 50.2623 97.3231 50.2623 97.3231L48.9663 86.09" stroke="#263238" stroke-miterlimit="10"/>
<path d="M50.2622 97.3231L44.5371 98.2951" stroke="#263238" stroke-miterlimit="10"/>
<path d="M43.458 96.9991L48.4249 97.6471" stroke="#263238" stroke-miterlimit="10"/>
<path d="M83.6893 91.2481C83.6893 91.2481 81.5022 93.5161 81.5833 94.0831C81.6643 94.6501 82.7983 93.7591 83.0413 93.5161C83.2843 93.2731 84.4183 92.6251 84.4183 91.9771C84.4183 91.3291 84.1753 90.6001 83.6893 91.2481Z" fill="white" stroke="#263238" stroke-miterlimit="10"/>
<path d="M83.9327 92.6251C83.9327 92.6251 84.5807 93.2731 84.5807 93.8401C84.5807 94.4071 83.2037 96.2701 82.5557 96.2701C81.9077 96.2701 82.3937 94.9741 82.7177 94.4071C83.0417 93.8401 83.9327 92.6251 83.9327 92.6251Z" fill="white" stroke="#263238" stroke-miterlimit="10"/>
<path d="M84.5801 93.8401C84.5801 93.8401 85.3901 94.0831 85.3901 94.8121C85.3901 95.5411 83.8511 96.7561 83.4461 96.8371C83.0411 96.9181 83.1221 96.1891 83.4461 95.6221C83.7701 95.0551 84.5801 93.8401 84.5801 93.8401Z" fill="white" stroke="#263238" stroke-miterlimit="10"/>
<path d="M85.3903 94.8121C85.5562 95.2227 85.612 95.6694 85.5523 96.1081C85.4713 96.9181 84.2563 97.4041 83.8513 97.4041C83.4463 97.4041 83.4463 96.8371 83.4463 96.8371C84.1318 96.1992 84.7808 95.5231 85.3903 94.8121Z" fill="white" stroke="#263238" stroke-miterlimit="10"/>
<path d="M59.9143 153.051H58.3753L57.6074 142.845H60.6854L59.9143 153.051Z" fill="white" stroke="#263238" stroke-miterlimit="10"/>
<path d="M45.8205 153.051H44.2815L43.5137 142.845H46.5917L45.8205 153.051Z" fill="white" stroke="#263238" stroke-miterlimit="10"/>
<path d="M96.6887 153.051H95.1497L94.3818 142.845H97.4598L96.6887 153.051Z" fill="white" stroke="#263238" stroke-miterlimit="10"/>
<path d="M82.594 153.051H81.055L80.2871 142.845H83.3651L82.594 153.051Z" fill="white" stroke="#263238" stroke-miterlimit="10"/>
<path d="M94.5435 123.318H57.7695V144.702H94.5435V123.318Z" fill="#263238" stroke="#263238" stroke-miterlimit="10"/>
<path d="M121.218 119.896C121.218 119.896 125.106 118.276 125.971 117.628C126.836 116.98 128.022 118.383 127.481 119.896C126.94 121.409 125.537 124.108 123.379 125.404C121.221 126.7 119.491 127.779 119.057 128.21C118.623 128.641 118.733 130.264 116.899 130.912C115.065 131.56 112.794 130.264 111.498 128.21C110.202 126.156 109.337 124.756 109.337 124.756C109.337 124.756 109.447 123.243 111.605 122.488C113.763 121.733 117.437 121.406 117.437 121.406L121.218 119.896Z" fill="white" stroke="#263238" stroke-miterlimit="10"/>
<path d="M76.9663 106.8C76.9663 106.8 79.5291 106.178 80.1771 106.502C80.8251 106.826 82.9862 108.88 82.9862 108.88C82.9862 108.88 96.0531 109.094 97.0251 109.528C97.9971 109.962 108.041 117.628 110.202 118.707C112.363 119.786 114.197 120.758 114.197 120.758L112.577 127.886V128.534L112.687 129.616C112.687 129.616 107.069 127.886 105.666 127.562C104.263 127.238 98.4313 124.215 97.8902 124.215C97.3491 124.215 92.9233 122.919 92.9233 122.919C92.9233 122.919 92.2753 122.488 85.2542 121.84C78.2331 121.192 70.3502 120.434 67.5411 120.327C64.732 120.22 61.0611 120.003 59.6582 119.462C58.2553 118.921 55.7702 115.143 55.3393 112.875C54.9083 110.607 59.4411 108.663 61.3851 107.798C63.3291 106.933 70.5673 105.854 71.8633 105.854C73.1593 105.854 76.9663 106.8 76.9663 106.8Z" fill="white" stroke="#263238" stroke-miterlimit="10"/>
<path d="M79.4228 109.959L77.2617 113.092L80.1777 111.148" fill="white"/>
<path d="M79.4228 109.959L77.2617 113.092L80.1777 111.148" stroke="#263238" stroke-miterlimit="10"/>
<path d="M112.577 119.355C112.577 119.355 115.71 116.87 116.358 116.115C117.006 115.36 119.167 111.255 119.598 109.959C120.029 108.663 121.111 108.015 121.866 108.987C122.621 109.959 123.162 111.903 123.593 112.768C124.024 113.633 123.379 117.842 122.083 119.248C120.787 120.654 118.996 124.06 118.626 124.756C117.654 126.59 116.141 126.807 115.169 126.914C114.197 127.021 111.822 124.432 111.822 124.432L112.577 119.355Z" fill="white" stroke="#263238" stroke-miterlimit="10"/>
<path d="M64.5185 112.12C64.5185 112.12 67.7585 111.472 70.6745 111.796C73.5905 112.12 79.5294 113.954 82.0145 114.602C84.4995 115.25 88.9254 115.574 90.9795 116.332C93.0337 117.09 98.4315 118.059 102.533 118.059C106.635 118.059 112.901 118.6 112.901 118.6C112.901 118.6 112.04 124.863 112.253 126.052C112.466 127.009 112.756 127.947 113.118 128.858C113.118 128.858 104.801 129.506 102.426 129.83C100.052 130.154 90.4385 128.644 88.8185 128.21C87.1985 127.776 84.8235 127.131 83.3105 127.131C81.7974 127.131 78.8814 127.779 74.6694 128.21C70.4574 128.641 64.5185 126.807 63.7635 126.7C63.0086 126.593 60.3065 125.618 59.6585 125.187C59.0105 124.756 55.2294 118.059 56.5254 115.25C57.8214 112.441 59.4414 112.01 59.4414 112.01" fill="white"/>
<path d="M64.5185 112.12C64.5185 112.12 67.7585 111.472 70.6745 111.796C73.5905 112.12 79.5294 113.954 82.0145 114.602C84.4995 115.25 88.9254 115.574 90.9795 116.332C93.0337 117.09 98.4315 118.059 102.533 118.059C106.635 118.059 112.901 118.6 112.901 118.6C112.901 118.6 112.04 124.863 112.253 126.052C112.466 127.009 112.756 127.947 113.118 128.858C113.118 128.858 104.801 129.506 102.426 129.83C100.052 130.154 90.4385 128.644 88.8185 128.21C87.1985 127.776 84.8235 127.131 83.3105 127.131C81.7974 127.131 78.8814 127.779 74.6694 128.21C70.4574 128.641 64.5185 126.807 63.7635 126.7C63.0086 126.593 60.3065 125.618 59.6585 125.187C59.0105 124.756 55.2294 118.059 56.5254 115.25C57.8214 112.441 59.4414 112.01 59.4414 112.01" stroke="#263238" stroke-miterlimit="10"/>
<path d="M84.3857 123.016C86.4691 123.431 88.6755 124.695 91.6595 125.864C95.6415 127.423 103.612 127.28 104.639 127.423C105.666 127.565 108.274 127.423 108.274 127.423" fill="white"/>
<path d="M84.3857 123.016C86.4691 123.431 88.6755 124.695 91.6595 125.864C95.6415 127.423 103.612 127.28 104.639 127.423C105.666 127.565 108.274 127.423 108.274 127.423" stroke="#263238" stroke-miterlimit="10"/>
<path d="M68.3223 124.481L69.5113 124.653C72.9717 125.171 79.5553 123.269 82.3158 122.922" fill="white"/>
<path d="M68.3223 124.481L69.5113 124.653C72.9717 125.171 79.5553 123.269 82.3158 122.922" stroke="#263238" stroke-miterlimit="10"/>
<path d="M64.8389 124.134C64.8389 124.134 65.4609 124.134 67.0842 124.325L64.8389 124.134Z" fill="white"/>
<path d="M64.8389 124.134C64.8389 124.134 65.4609 124.134 67.0842 124.325" stroke="#263238" stroke-miterlimit="10"/>
<path d="M43.8343 105.585C43.8343 105.585 39.9463 105.585 39.1687 109.473C38.3911 113.361 41.4367 129.399 41.6797 133.935C41.9227 138.471 42.7035 144.789 42.7035 144.789H56.4735L59.5515 105.585H43.8343Z" fill="#263238" stroke="#263238" stroke-miterlimit="10"/>
<path d="M59.5514 105.585C59.5514 105.585 55.6634 105.585 54.6914 109.473C53.7194 113.361 55.9874 129.399 55.9874 133.935C55.9874 138.471 56.4734 144.789 56.4734 144.789H61.3334C61.3334 144.789 61.8194 133.125 61.8194 131.505C61.8194 129.885 63.7634 113.037 62.7914 109.635C61.8194 106.233 61.0094 105.909 59.5514 105.585Z" fill="#636363" stroke="#263238" stroke-miterlimit="10"/>
<path d="M91.1809 153.051H89.6419L88.874 142.845H91.952L91.1809 153.051Z" fill="white" stroke="#263238" stroke-miterlimit="10"/>
<path d="M104.302 153.051H102.763L101.995 142.845H105.073L104.302 153.051Z" fill="white" stroke="#263238" stroke-miterlimit="10"/>
<path d="M110.458 153.051H108.919L108.151 142.845H111.229L110.458 153.051Z" fill="white" stroke="#263238" stroke-miterlimit="10"/>
<path d="M123.418 153.051H121.879L121.111 142.845H124.189L123.418 153.051Z" fill="white" stroke="#263238" stroke-miterlimit="10"/>
<path d="M89.2783 129.561H123.12C123.743 129.561 124.341 129.809 124.781 130.249C125.222 130.69 125.469 131.287 125.469 131.91V148.515H86.9131V131.91C86.9131 131.6 86.9744 131.293 87.0934 131.007C87.2125 130.721 87.387 130.462 87.6068 130.243C87.8267 130.025 88.0875 129.852 88.3744 129.735C88.6613 129.618 88.9684 129.559 89.2783 129.561Z" fill="#263238" stroke="#263238" stroke-miterlimit="10"/>
<path d="M123.137 129.561H110.825C110.202 129.561 109.604 129.809 109.164 130.249C108.723 130.69 108.476 131.287 108.476 131.91V148.515H125.486V131.91C125.485 131.287 125.237 130.69 124.797 130.25C124.356 129.81 123.759 129.562 123.137 129.561Z" fill="#636363" stroke="#263238" stroke-miterlimit="10"/>
</svg>
