<svg width="254" height="169" viewBox="0 0 254 169" fill="none" xmlns="http://www.w3.org/2000/svg">
<path d="M136.144 73.035C133.04 70.9567 129.321 69.993 125.597 70.302C121.872 70.6111 118.363 72.1744 115.646 74.7356C112.929 77.2968 111.165 80.7037 110.644 84.3973C110.122 88.0908 110.874 91.8516 112.776 95.0625" stroke="#263238" stroke-width="0.969642" stroke-linecap="round" stroke-linejoin="round"/>
<path d="M142.002 80.0114C141.682 79.2911 141.31 78.5943 140.892 77.9259" stroke="#263238" stroke-width="0.969642" stroke-linecap="round" stroke-linejoin="round"/>
<path d="M140.598 95.8635C141.826 94.0394 142.677 91.9886 143.1 89.8318C143.524 87.6749 143.511 85.4554 143.063 83.3035" stroke="#263238" stroke-width="0.969642" stroke-linecap="round" stroke-linejoin="round"/>
<path d="M110.578 70.3445C109.458 71.4666 108.454 72.6986 107.581 74.0219" stroke="#263238" stroke-width="0.969642" stroke-linecap="round" stroke-linejoin="round"/>
<path d="M145.227 100.802C148.543 96.5242 150.249 91.2206 150.048 85.8161C149.847 80.4116 147.751 75.2491 144.126 71.229C140.501 67.2089 135.577 64.5863 130.213 63.8187C124.849 63.0511 119.385 64.1872 114.774 67.0288" stroke="#263238" stroke-width="0.969642" stroke-linecap="round" stroke-linejoin="round"/>
<path d="M108.603 100.802C106.316 97.8469 104.778 94.3836 104.123 90.7074C103.467 87.0313 103.712 83.2513 104.837 79.6902" stroke="#263238" stroke-width="0.969642" stroke-linecap="round" stroke-linejoin="round"/>
<path d="M101.353 106.639C102.792 108.474 104.425 110.148 106.223 111.635" stroke="#263238" stroke-width="0.969642" stroke-linecap="round" stroke-linejoin="round"/>
<path d="M145.308 59.9375C139.511 55.975 132.582 53.9954 125.561 54.2956C118.541 54.5958 111.807 57.1597 106.37 61.6027C100.933 66.0457 97.0862 72.1282 95.4061 78.9379C93.726 85.7477 94.3035 92.9175 97.0519 99.3719" stroke="#263238" stroke-width="0.969642" stroke-linecap="round" stroke-linejoin="round"/>
<path d="M157.229 74.9616C156.357 72.7159 155.235 70.5743 153.887 68.5768" stroke="#263238" stroke-width="0.969642" stroke-linecap="round" stroke-linejoin="round"/>
<path d="M149.386 110.09C152.56 107.068 155.085 103.434 156.809 99.4076C158.533 95.3816 159.419 91.0481 159.414 86.6699" stroke="#263238" stroke-width="0.969642" stroke-linecap="round" stroke-linejoin="round"/>
<path d="M81.5508 86.6699C81.5508 97.4257 85.3668 107.834 92.3223 116.05C99.2778 124.265 108.923 129.758 119.549 131.553" stroke="#263238" stroke-width="0.969642" stroke-linecap="round" stroke-linejoin="round"/>
<path d="M163.576 113.754C169.132 106.251 172.244 97.2259 172.492 87.8997C172.74 78.5735 170.111 69.3964 164.962 61.6101C159.812 53.8238 152.39 47.8042 143.701 44.3657C135.011 40.9272 125.472 40.2359 116.376 42.3852" stroke="#263238" stroke-width="0.969642" stroke-linecap="round" stroke-linejoin="round"/>
<path d="M81.5508 86.6699C81.5512 76.4666 84.9857 66.5591 91.3033 58.5371C97.621 50.5151 106.455 44.8436 116.389 42.4325" stroke="#263238" stroke-width="0.969642" stroke-linecap="round" stroke-linejoin="round"/>
<path d="M153.887 123.37C155.045 122.521 156.159 121.619 157.229 120.666" stroke="#263238" stroke-width="0.969642" stroke-linecap="round" stroke-linejoin="round"/>
<path d="M134.521 131.553C139.708 130.686 144.703 128.925 149.284 126.348" stroke="#263238" stroke-width="0.969642" stroke-linecap="round" stroke-linejoin="round"/>
<path d="M126.936 127.477C122.317 127.471 117.889 125.638 114.623 122.378C111.357 119.119 109.52 114.7 109.515 110.09V104.236C109.515 103.985 109.615 103.744 109.792 103.567C109.97 103.389 110.211 103.289 110.463 103.289H112.834C113.085 103.289 113.326 103.389 113.504 103.567C113.682 103.744 113.782 103.985 113.782 104.236C113.782 104.487 113.682 104.728 113.504 104.905C113.326 105.083 113.085 105.182 112.834 105.182H111.421V110.09C111.421 114.199 113.057 118.14 115.968 121.046C118.88 123.952 122.828 125.584 126.946 125.584C131.063 125.584 135.012 123.952 137.923 121.046C140.835 118.14 142.47 114.199 142.47 110.09V105.182H141.048C140.796 105.182 140.555 105.083 140.377 104.905C140.2 104.728 140.1 104.487 140.1 104.236C140.1 103.985 140.2 103.744 140.377 103.567C140.555 103.389 140.796 103.289 141.048 103.289H143.419C143.67 103.289 143.911 103.389 144.089 103.567C144.267 103.744 144.367 103.985 144.367 104.236V110.09C144.361 114.701 142.523 119.122 139.255 122.382C135.987 125.642 131.556 127.474 126.936 127.477Z" fill="#263238"/>
<path d="M145.305 142.024V140.131C145.305 139.883 145.257 139.636 145.162 139.407C145.066 139.177 144.927 138.968 144.75 138.792C144.574 138.616 144.365 138.477 144.135 138.382C143.904 138.287 143.658 138.238 143.408 138.239H110.463C110.214 138.238 109.967 138.287 109.737 138.382C109.506 138.477 109.297 138.616 109.121 138.792C108.945 138.968 108.805 139.177 108.71 139.407C108.615 139.636 108.566 139.883 108.566 140.131V142.024H145.305Z" fill="#263238"/>
<path d="M128.785 140.544C128.816 140.409 128.832 140.27 128.832 140.131V126.53H125.039V140.131C125.039 140.27 125.055 140.409 125.086 140.544H128.785Z" fill="#263238"/>
<path d="M138.667 86.6699C138.694 85.1154 138.41 83.5712 137.832 82.1273C137.254 80.6835 136.394 79.3689 135.302 78.2602C134.21 77.1515 132.907 76.271 131.471 75.6699C130.034 75.0688 128.492 74.7593 126.934 74.7593C125.376 74.7593 123.834 75.0688 122.397 75.6699C120.961 76.271 119.658 77.1515 118.566 78.2602C117.474 79.3689 116.614 80.6835 116.036 82.1273C115.458 83.5712 115.174 85.1154 115.201 86.6699V110.09C115.253 113.161 116.512 116.089 118.707 118.242C120.902 120.396 123.856 121.603 126.934 121.603C130.012 121.603 132.966 120.396 135.161 118.242C137.356 116.089 138.615 113.161 138.667 110.09V86.6699Z" stroke="#263238" stroke-width="0.969642" stroke-linecap="round" stroke-linejoin="round"/>
<path d="M138.667 86.6699C138.694 85.1154 138.41 83.5712 137.832 82.1273C137.254 80.6835 136.394 79.3689 135.302 78.2602C134.21 77.1515 132.907 76.271 131.471 75.6699C130.034 75.0688 128.492 74.7593 126.934 74.7593C125.376 74.7593 123.834 75.0688 122.397 75.6699C120.961 76.271 119.658 77.1515 118.566 78.2602C117.474 79.3689 116.614 80.6835 116.036 82.1273C115.458 83.5712 115.174 85.1154 115.201 86.6699V110.09C115.253 113.161 116.512 116.089 118.707 118.242C120.902 120.396 123.856 121.603 126.934 121.603C130.012 121.603 132.966 120.396 135.161 118.242C137.356 116.089 138.615 113.161 138.667 110.09V86.6699Z" fill="#E8E8E8"/>
<path d="M122.076 87.9037H115.201V90.7429H122.076C122.453 90.7429 122.815 90.5933 123.082 90.3271C123.349 90.0609 123.499 89.6998 123.499 89.3233C123.499 88.9468 123.349 88.5857 123.082 88.3195C122.815 88.0532 122.453 87.9037 122.076 87.9037Z" fill="white"/>
<path d="M138.668 87.9037H131.796C131.419 87.9037 131.057 88.0532 130.791 88.3195C130.524 88.5857 130.374 88.9468 130.374 89.3233C130.374 89.6998 130.524 90.0609 130.791 90.3271C131.057 90.5933 131.419 90.7429 131.796 90.7429H138.668V87.9037Z" fill="white"/>
<path d="M126.936 87.9037C126.655 87.9037 126.38 87.9869 126.146 88.1429C125.912 88.2989 125.73 88.5206 125.622 88.78C125.514 89.0394 125.486 89.3249 125.541 89.6002C125.596 89.8756 125.731 90.1285 125.93 90.3271C126.129 90.5256 126.383 90.6608 126.659 90.7156C126.934 90.7704 127.22 90.7423 127.48 90.6348C127.74 90.5274 127.962 90.3454 128.119 90.112C128.275 89.8785 128.358 89.604 128.358 89.3233C128.358 88.9468 128.209 88.5857 127.942 88.3195C127.675 88.0532 127.313 87.9037 126.936 87.9037Z" fill="white"/>
<path d="M126.936 93.6429C126.655 93.6429 126.38 93.7262 126.146 93.8822C125.912 94.0382 125.73 94.2599 125.622 94.5193C125.514 94.7787 125.486 95.0641 125.541 95.3395C125.596 95.6149 125.731 95.8678 125.93 96.0664C126.129 96.2649 126.383 96.4001 126.659 96.4549C126.934 96.5096 127.22 96.4815 127.48 96.3741C127.74 96.2666 127.962 96.0847 128.119 95.8512C128.275 95.6178 128.358 95.3433 128.358 95.0625C128.358 94.686 128.209 94.325 127.942 94.0587C127.675 93.7925 127.313 93.6429 126.936 93.6429Z" fill="white"/>
<path d="M126.936 99.3721C126.655 99.3721 126.38 99.4553 126.146 99.6113C125.912 99.7673 125.73 99.989 125.622 100.248C125.514 100.508 125.486 100.793 125.541 101.069C125.596 101.344 125.731 101.597 125.93 101.795C126.129 101.994 126.383 102.129 126.659 102.184C126.934 102.239 127.22 102.211 127.48 102.103C127.74 101.996 127.962 101.814 128.119 101.58C128.275 101.347 128.358 101.072 128.358 100.792C128.358 100.415 128.209 100.054 127.942 99.7879C127.675 99.5216 127.313 99.3721 126.936 99.3721Z" fill="white"/>
<path d="M122.076 93.6429H115.201V96.4821H122.076C122.453 96.4821 122.815 96.3326 123.082 96.0664C123.349 95.8001 123.499 95.439 123.499 95.0625C123.499 94.686 123.349 94.325 123.082 94.0587C122.815 93.7925 122.453 93.6429 122.076 93.6429Z" fill="white"/>
<path d="M138.668 93.6429H131.796C131.419 93.6429 131.057 93.7925 130.791 94.0587C130.524 94.325 130.374 94.686 130.374 95.0625C130.374 95.439 130.524 95.8001 130.791 96.0663C131.057 96.3326 131.419 96.4821 131.796 96.4821H138.668V93.6429Z" fill="white"/>
<path d="M122.076 99.3721H115.201V102.211H122.076C122.453 102.211 122.815 102.062 123.082 101.795C123.349 101.529 123.499 101.168 123.499 100.792C123.499 100.415 123.349 100.054 123.082 99.7879C122.815 99.5216 122.453 99.3721 122.076 99.3721Z" fill="white"/>
<path d="M138.668 99.3721H131.796C131.419 99.3721 131.057 99.5216 130.791 99.7879C130.524 100.054 130.374 100.415 130.374 100.792C130.374 101.168 130.524 101.529 130.791 101.795C131.057 102.062 131.419 102.211 131.796 102.211H138.668V99.3721Z" fill="white"/>
<path d="M138.667 86.6699C138.694 85.1154 138.41 83.5712 137.832 82.1273C137.254 80.6835 136.394 79.3689 135.302 78.2602C134.21 77.1515 132.907 76.271 131.471 75.6699C130.034 75.0688 128.492 74.7593 126.934 74.7593C125.376 74.7593 123.834 75.0688 122.397 75.6699C120.961 76.271 119.658 77.1515 118.566 78.2602C117.474 79.3689 116.614 80.6835 116.036 82.1273C115.458 83.5712 115.174 85.1154 115.201 86.6699V110.09C115.253 113.161 116.512 116.089 118.707 118.242C120.902 120.396 123.856 121.603 126.934 121.603C130.012 121.603 132.966 120.396 135.161 118.242C137.356 116.089 138.615 113.161 138.667 110.09V86.6699Z" stroke="#263238" stroke-width="0.969642" stroke-miterlimit="10"/>
<path d="M115.201 110.09C115.253 113.161 116.513 116.089 118.707 118.242C120.902 120.396 123.857 121.603 126.934 121.603C130.012 121.603 132.967 120.396 135.161 118.242C137.356 116.089 138.615 113.161 138.667 110.09H115.201Z" fill="#263238" stroke="#263238" stroke-width="0.969642" stroke-miterlimit="10"/>
<path d="M226.46 104.191C241.111 89.5685 241.111 65.8605 226.46 51.2378C211.808 36.6152 188.053 36.6152 173.402 51.2378C158.75 65.8605 158.75 89.5685 173.402 104.191C188.053 118.814 211.808 118.814 226.46 104.191Z" fill="#E8E8E8"/>
<path d="M194.551 62.2224H168.341C167.021 62.2224 165.95 63.2908 165.95 64.6087V90.7665C165.95 92.0844 167.021 93.1528 168.341 93.1528H194.551C195.871 93.1528 196.942 92.0844 196.942 90.7665V64.6087C196.942 63.2908 195.871 62.2224 194.551 62.2224Z" fill="white"/>
<g opacity="0.1">
<path opacity="0.1" d="M168.874 93.1562H179.217L185.807 62.2224H175.044L168.464 93.1224C168.599 93.1438 168.736 93.1551 168.874 93.1562Z" fill="black"/>
<path opacity="0.1" d="M190.189 62.2224H187.602L181.015 93.1562H183.602L190.189 62.2224Z" fill="black"/>
</g>
<path d="M194.019 93.9268H168.873C167.894 93.9251 166.957 93.5369 166.264 92.8472C165.572 92.1575 165.181 91.2223 165.178 90.246V65.1394C165.18 64.1619 165.569 63.225 166.262 62.5338C166.954 61.8427 167.893 61.4536 168.873 61.4518H194.019C194.999 61.4527 195.938 61.8414 196.632 62.5326C197.325 63.2239 197.715 64.1613 197.717 65.1394V90.246C197.713 91.2229 197.322 92.1586 196.629 92.8484C195.936 93.5382 194.997 93.926 194.019 93.9268ZM168.873 62.9964C168.303 62.9964 167.756 63.2221 167.353 63.6239C166.95 64.0257 166.723 64.5707 166.722 65.1394V90.246C166.722 90.8156 166.949 91.3618 167.352 91.7649C167.755 92.1679 168.302 92.3948 168.873 92.3957H194.019C194.301 92.3957 194.581 92.3401 194.842 92.232C195.104 92.1239 195.341 91.9655 195.54 91.7659C195.74 91.5662 195.899 91.3292 196.006 91.0684C196.114 90.8076 196.17 90.5282 196.169 90.246V65.1394C196.169 64.8577 196.114 64.5787 196.005 64.3185C195.897 64.0583 195.739 63.8219 195.539 63.6229C195.339 63.4239 195.102 63.2661 194.841 63.1586C194.58 63.0511 194.301 62.996 194.019 62.9964H168.873Z" fill="white" stroke="#263238" stroke-width="0.932567" stroke-miterlimit="10"/>
<path d="M231.002 62.2224H204.792C203.472 62.2224 202.401 63.2908 202.401 64.6087V90.7665C202.401 92.0844 203.472 93.1528 204.792 93.1528H231.002C232.322 93.1528 233.393 92.0844 233.393 90.7665V64.6087C233.393 63.2908 232.322 62.2224 231.002 62.2224Z" fill="white"/>
<g opacity="0.1">
<path opacity="0.1" d="M208.029 93.1562H218.372L224.959 62.2224H214.2L207.603 93.1224C207.744 93.1445 207.886 93.1558 208.029 93.1562Z" fill="black"/>
<path opacity="0.1" d="M229.345 62.2224H226.757L220.167 93.1562H222.758L229.345 62.2224Z" fill="black"/>
</g>
<path d="M230.47 93.9268H205.324C204.346 93.9251 203.408 93.5369 202.715 92.8472C202.023 92.1575 201.632 91.2223 201.629 90.246V65.1394C201.631 64.1619 202.021 63.225 202.713 62.5338C203.406 61.8427 204.344 61.4536 205.324 61.4518H230.47C231.45 61.4527 232.389 61.8414 233.083 62.5326C233.776 63.2239 234.166 64.1613 234.168 65.1394V90.246C234.164 91.2229 233.773 92.1586 233.08 92.8484C232.387 93.5382 231.449 93.926 230.47 93.9268ZM205.324 62.9964C204.754 62.9964 204.208 63.2221 203.804 63.6239C203.401 64.0257 203.174 64.5707 203.173 65.1394V90.246C203.173 90.8156 203.4 91.3618 203.803 91.7649C204.206 92.1679 204.753 92.3948 205.324 92.3957H230.47C230.752 92.3957 231.032 92.3401 231.294 92.232C231.555 92.1239 231.792 91.9655 231.992 91.7659C232.191 91.5662 232.35 91.3292 232.458 91.0684C232.565 90.8076 232.621 90.5282 232.62 90.246V65.1394C232.62 64.8577 232.565 64.5787 232.457 64.3185C232.348 64.0583 232.19 63.8219 231.99 63.6229C231.79 63.4239 231.553 63.2661 231.293 63.1586C231.032 63.0511 230.752 62.996 230.47 62.9964H205.324Z" fill="white" stroke="#263238" stroke-width="0.932567" stroke-miterlimit="10"/>
<path d="M200.945 149.893C210.265 149.893 217.821 148.784 217.821 147.415C217.821 146.047 210.265 144.938 200.945 144.938C191.625 144.938 184.069 146.047 184.069 147.415C184.069 148.784 191.625 149.893 200.945 149.893Z" fill="#E8E8E8"/>
<path d="M208.403 132.983C208.403 132.983 208.359 139.922 207.624 141.064C206.747 142.416 206.124 144.306 208.447 144.82C210.77 145.333 212.152 147.892 214.919 148.061C217.686 148.23 217.967 147.047 216.761 146.097C215.555 145.147 212.494 142.514 212.091 141.233C211.688 139.952 212.47 132.983 212.47 132.983H208.403Z" fill="white"/>
<path opacity="0.1" d="M212.1 137.012C212.249 134.967 212.47 132.983 212.47 132.983H208.406C208.406 132.983 208.406 134.757 208.287 136.66C209.546 136.883 210.822 137 212.1 137.012Z" fill="black"/>
<path d="M208.403 132.983C208.403 132.983 208.359 139.922 207.624 141.064C206.747 142.416 206.124 144.306 208.447 144.82C210.77 145.333 212.152 147.892 214.919 148.061C217.686 148.23 217.967 147.047 216.761 146.097C215.555 145.147 212.494 142.514 212.091 141.233C211.688 139.952 212.47 132.983 212.47 132.983H208.403Z" stroke="#263238" stroke-width="0.932567" stroke-linecap="round" stroke-linejoin="round"/>
<path d="M216.747 146.097C215.618 145.204 214.546 144.241 213.537 143.214C212.572 143.944 209.744 143.255 208.911 142.599C207.895 141.801 208.108 141.392 207.627 141.034L207.61 141.064C206.733 142.416 206.11 144.306 208.433 144.82C210.756 145.333 212.138 147.892 214.905 148.061C217.672 148.23 217.96 147.03 216.747 146.097Z" fill="#BFBFBF" stroke="#263238" stroke-width="0.932567" stroke-miterlimit="10"/>
<path d="M192.78 130.468C192.78 130.468 189.732 136.816 188.58 137.59C187.188 138.516 185.807 140.006 187.713 141.335C189.62 142.663 189.789 145.523 192.252 146.702C194.714 147.882 195.482 146.885 194.788 145.583C194.094 144.282 192.417 140.72 192.604 139.395C192.79 138.07 196.539 131.82 196.539 131.82L192.78 130.468Z" fill="white"/>
<path opacity="0.1" d="M192.78 130.468C192.78 130.468 191.689 132.746 190.568 134.737C191.473 135.632 192.516 136.378 193.657 136.944C194.825 134.686 196.539 131.83 196.539 131.83L192.78 130.468Z" fill="black"/>
<path d="M192.78 130.468C192.78 130.468 189.732 136.816 188.58 137.59C187.188 138.516 185.807 140.006 187.713 141.335C189.62 142.663 189.789 145.523 192.252 146.702C194.714 147.882 195.482 146.885 194.788 145.583C194.094 144.282 192.417 140.72 192.604 139.395C192.79 138.07 196.539 131.82 196.539 131.82L192.78 130.468Z" stroke="#263238" stroke-width="0.932567" stroke-linecap="round" stroke-linejoin="round"/>
<path d="M194.788 145.566C194.139 144.328 193.574 143.047 193.095 141.734C191.893 142.048 189.393 140.442 189.119 139.462C188.587 137.573 188.902 138.059 188.614 137.552L188.587 137.573C187.195 138.499 185.814 139.989 187.72 141.318C189.627 142.646 189.796 145.506 192.258 146.685C194.72 147.865 195.482 146.868 194.788 145.566Z" fill="#BFBFBF" stroke="#263238" stroke-width="0.932567" stroke-miterlimit="10"/>
<path d="M208.894 85.5511C208.894 85.5511 213.557 107.859 213.869 115.136C214.18 122.413 212.968 135.393 212.968 135.393L207.79 135.055C207.79 135.055 207.756 131.218 207.238 125.878C206.93 122.704 205.961 119 206.069 115.255C206.069 115.255 201.149 100.69 201.328 94.2986C201.508 87.907 201.328 86.0683 201.328 86.0683L208.894 85.5511Z" fill="#263238" stroke="#263238" stroke-width="0.932567" stroke-linecap="round" stroke-linejoin="round"/>
<path d="M196.427 85.5513C196.427 85.5513 191.591 89.5397 194.395 97.5807C195.499 100.771 199.759 115.366 199.759 115.366C198.589 116.702 197.598 118.185 196.813 119.777C194.869 123.61 193.453 129.579 191.056 133.003L194.605 135.393C194.605 135.393 206.065 121.055 206.797 116.502C207.528 111.949 204.088 93.7444 204.088 93.7444L202.987 86.3456L196.427 85.5513Z" fill="#263238" stroke="#263238" stroke-width="0.932567" stroke-linecap="round" stroke-linejoin="round"/>
<path d="M217.875 70.4325C217.811 69.6769 217.556 68.95 217.133 68.32C217.488 67.8537 217.796 67.3532 218.051 66.826C218.308 66.2075 217.966 65.332 217.252 66.3798C216.537 67.4276 215.752 68.1915 216.036 69.4996C216.186 70.3441 216.032 71.2141 215.603 71.9569L217.252 73.2446L220.54 70.642L217.875 70.4325Z" fill="white" stroke="#263238" stroke-width="0.932567" stroke-linecap="round" stroke-linejoin="round"/>
<path d="M219.424 63.7465L216.659 64.4967C216.405 64.5657 216.254 64.8276 216.324 65.0816L217.899 70.8644C217.968 71.1184 218.23 71.2683 218.485 71.1993L221.25 70.4491C221.504 70.38 221.654 70.1181 221.585 69.8641L220.01 64.0813C219.941 63.8273 219.678 63.6774 219.424 63.7465Z" fill="#263238" stroke="#263238" stroke-width="0.932567" stroke-linecap="round" stroke-linejoin="round"/>
<path d="M220.03 64.1532L216.344 65.1534L217.881 70.796L221.567 69.7957L220.03 64.1532Z" fill="#E8E8E8" stroke="#263238" stroke-width="0.932567" stroke-linecap="round" stroke-linejoin="round"/>
<path d="M219.291 66.1061C219.246 65.9321 219.133 65.7832 218.978 65.6919C218.823 65.6006 218.638 65.5745 218.464 65.6193C218.29 65.6642 218.141 65.7762 218.049 65.9309C217.958 66.0856 217.932 66.2701 217.977 66.4441C218.021 66.6131 218.241 67.4073 218.315 67.6879L219.629 67.333C219.555 67.0727 219.331 66.248 219.291 66.1061Z" fill="#263238"/>
<path d="M219.168 68.249C219.331 68.2051 219.472 68.1021 219.563 67.9602C219.653 67.8183 219.688 67.6476 219.659 67.4817L218.355 67.8197C218.412 67.9802 218.527 68.1135 218.678 68.1931C218.828 68.2727 219.004 68.2926 219.168 68.249Z" fill="#263238"/>
<path d="M220.394 68.952L219.541 69.1852L219.365 68.543C219.608 68.4486 219.807 68.2681 219.924 68.036C220.042 67.8039 220.069 67.5367 220.001 67.2856L219.907 66.9476C219.905 66.9404 219.902 66.9336 219.898 66.9276C219.893 66.9216 219.888 66.9165 219.882 66.9127C219.875 66.9089 219.868 66.9065 219.861 66.9055C219.853 66.9045 219.846 66.9051 219.839 66.9071L219.697 66.9443C219.689 66.9462 219.682 66.9496 219.677 66.9543C219.671 66.9589 219.666 66.9648 219.662 66.9715C219.659 66.9782 219.657 66.9855 219.656 66.9931C219.656 67.0006 219.657 67.0082 219.659 67.0152C219.661 67.0225 219.664 67.0293 219.668 67.0353C219.673 67.0413 219.678 67.0463 219.684 67.0501C219.691 67.0539 219.698 67.0564 219.705 67.0574C219.713 67.0584 219.72 67.0578 219.727 67.0558L219.812 67.0321L219.89 67.3194C219.922 67.4386 219.931 67.563 219.915 67.6855C219.899 67.808 219.86 67.9262 219.798 68.0334C219.737 68.1406 219.655 68.2347 219.557 68.3102C219.459 68.3857 219.347 68.4413 219.228 68.4737C219.108 68.5061 218.984 68.5147 218.861 68.499C218.738 68.4834 218.62 68.4437 218.512 68.3824C218.405 68.321 218.311 68.2391 218.235 68.1414C218.159 68.0437 218.103 67.9321 218.071 67.8129L217.99 67.5256L218.074 67.5053C218.089 67.5007 218.101 67.4908 218.108 67.4777C218.116 67.4646 218.118 67.4491 218.115 67.4344C218.113 67.427 218.11 67.4201 218.105 67.4141C218.1 67.4081 218.095 67.403 218.088 67.3993C218.081 67.3955 218.074 67.3931 218.066 67.3921C218.059 67.3912 218.051 67.3918 218.044 67.3938L217.905 67.431C217.898 67.4329 217.891 67.4363 217.885 67.441C217.879 67.4456 217.874 67.4514 217.87 67.458C217.866 67.4646 217.864 67.4719 217.863 67.4794C217.862 67.487 217.862 67.4946 217.864 67.502L217.959 67.84C218.028 68.0907 218.187 68.3073 218.405 68.4483C218.624 68.5893 218.887 68.6447 219.145 68.6038L219.317 69.246L218.464 69.4759C218.449 69.4798 218.435 69.4866 218.423 69.4959C218.411 69.5051 218.401 69.5167 218.394 69.5299C218.386 69.5431 218.381 69.5577 218.379 69.5728C218.377 69.5879 218.379 69.6032 218.383 69.6178L218.413 69.7294L220.567 69.1446L220.537 69.0331C220.533 69.0184 220.526 69.0046 220.517 68.9926C220.507 68.9805 220.496 68.9704 220.482 68.9629C220.469 68.9553 220.455 68.9505 220.439 68.9486C220.424 68.9467 220.409 68.9479 220.394 68.952Z" fill="#263238"/>
<path d="M220.743 65.4706C220.404 65.5078 220.123 66.0385 220.228 66.7855C220.333 67.5324 221.021 66.7212 221.061 66.4846C221.102 66.248 221.39 65.4064 220.743 65.4706Z" fill="white" stroke="#263238" stroke-width="0.932567" stroke-linecap="round" stroke-linejoin="round"/>
<path d="M221.488 66.586C221.398 66.5846 221.308 66.6035 221.226 66.6413C221.144 66.679 221.072 66.7347 221.014 66.8041C220.957 66.8735 220.916 66.955 220.894 67.0424C220.872 67.1299 220.87 67.2211 220.888 67.3093C220.953 68.036 221.095 67.867 221.095 67.867C221.098 68.1665 221.159 68.4625 221.275 68.7391C221.444 69.0602 221.891 68.5734 221.891 68.2828C221.891 67.9921 221.843 66.4643 221.488 66.586Z" fill="white" stroke="#263238" stroke-width="0.932567" stroke-linecap="round" stroke-linejoin="round"/>
<path d="M221.099 67.8535C221.099 67.8535 221.685 67.6811 221.823 67.2552L221.099 67.8535Z" fill="white"/>
<path d="M221.099 67.8535C221.099 67.8535 221.685 67.6811 221.823 67.2552" stroke="#263238" stroke-width="0.932567" stroke-linecap="round" stroke-linejoin="round"/>
<path d="M216.008 70.9259C216.122 70.4582 216.131 69.9712 216.035 69.4995C215.751 68.1915 216.533 67.4242 217.251 66.3798C217.969 65.3354 218.308 66.2074 218.051 66.826C217.795 67.3532 217.488 67.8536 217.133 68.3199C217.591 68.9319 217.849 69.6691 217.874 70.4324C217.874 70.6792 217.874 71.416 217.874 71.416" fill="white"/>
<path d="M216.008 70.9259C216.122 70.4582 216.131 69.9712 216.035 69.4995C215.751 68.1915 216.533 67.4242 217.251 66.3798C217.969 65.3354 218.308 66.2074 218.051 66.826C217.795 67.3532 217.488 67.8536 217.133 68.3199C217.591 68.9319 217.849 69.6691 217.874 70.4324C217.874 70.6792 217.874 71.416 217.874 71.416" stroke="#263238" stroke-width="0.932567" stroke-linecap="round" stroke-linejoin="round"/>
<path d="M206.926 62.7565C208.105 62.5098 208.467 62.209 208.467 62.209C207.583 58.6566 210.753 46.7083 200.762 46.1573C190.772 45.6064 196.36 62.5368 196.36 62.5368L197.447 62.6754L196.888 59.2717L198.188 62.7599C202.036 63.1756 204.501 63.0979 206.052 62.9019C205.842 61.3667 205.82 59.8116 205.988 58.2712C206.183 59.7884 206.497 61.288 206.926 62.7565Z" fill="#263238"/>
<path d="M200.758 46.3702C200.37 45.9857 199.864 45.7431 199.32 45.6817C198.777 45.6204 198.229 45.7439 197.765 46.0322" stroke="#263238" stroke-width="0.932567" stroke-linecap="round" stroke-linejoin="round"/>
<path d="M208.368 64.9226V64.8149C208.348 64.862 208.328 64.8957 208.368 64.9226Z" fill="white" stroke="#263238" stroke-width="0.932567" stroke-linecap="round" stroke-linejoin="round"/>
<path d="M215.602 71.9569L210.861 76.3509L210.949 69.7667C210.965 68.7723 210.728 67.7901 210.262 66.9113C209.795 66.0326 209.114 65.2859 208.28 64.7406L208.46 82.0699C213.116 82.3639 217.265 73.2447 217.265 73.2447C217.096 72.924 216.86 72.6432 216.573 72.4211C216.287 72.1989 215.955 72.0407 215.602 71.9569Z" fill="white"/>
<path opacity="0.1" d="M210.133 79.9438C209.428 80.008 209.269 78.6628 209.279 77.3547C209.082 77.8469 208.951 78.3629 208.89 78.8893C208.829 80.3798 208.829 81.8569 208.853 83.121C214.156 80.7212 214.22 78.5817 215.582 76.3982C214.715 77.4967 211.491 79.8188 210.133 79.9438Z" fill="black"/>
<path d="M215.602 71.9569L210.861 76.3509L210.949 69.7667C210.965 68.7723 210.728 67.7901 210.262 66.9113C209.795 66.0326 209.114 65.2859 208.28 64.7406L208.46 82.0699C213.116 82.3639 217.265 73.2447 217.265 73.2447C217.096 72.924 216.86 72.6432 216.573 72.4211C216.287 72.1989 215.955 72.0407 215.602 71.9569V71.9569Z" stroke="#263238" stroke-width="0.932567" stroke-linecap="round" stroke-linejoin="round"/>
<path d="M214.597 72.5246L215.636 71.541L217.916 73.1026L217.252 74.2045L214.597 72.5246Z" fill="#E8E8E8" stroke="#263238" stroke-width="0.932567" stroke-linecap="round" stroke-linejoin="round"/>
<path d="M210.153 73.008C208.243 81.458 209.191 87.0114 209.191 87.0114C209.191 87.0114 204.582 90.2731 194.893 87.5082C194.893 87.5082 196.654 83.1379 196.179 79.8052C195.892 77.7536 193.961 70.3784 193.961 70.3784C193.961 70.3784 193.047 67.1539 193.467 64.5513C194.276 64.0274 196.01 63.3953 199.075 63.1722C199.126 63.0012 199.161 62.8258 199.18 62.6483C199.277 61.7889 199.299 60.9225 199.244 60.0592C199.2 59.0452 199.116 58.2374 199.116 58.2374H202.814C202.814 58.2374 202.861 59.1703 202.98 60.2654C203.044 60.911 203.136 61.6174 203.251 62.2258C203.308 62.5304 203.381 62.8316 203.471 63.1283C207.162 63.6826 208.551 64.6425 208.819 65.4774C210.075 69.2427 210.559 71.2031 210.153 73.008Z" fill="white" stroke="#263238" stroke-width="0.932567" stroke-linecap="round" stroke-linejoin="round"/>
<path d="M202.99 60.8603C202.689 61.5363 202.313 62.0704 201.009 62.0636C200.04 62.0636 199.167 61.2085 199.068 60.8806C199.173 60.1404 199.068 59.8666 199.024 59.0284C200.27 58.9933 201.517 59.0657 202.75 59.2447C202.802 59.787 202.883 60.3262 202.99 60.8603Z" fill="#263238"/>
<path d="M205.449 53.6237C205.449 53.1235 205.449 52.8159 205.449 52.8159C205.175 51.5045 203.549 51.4369 202.801 51.4403C202.011 51.4657 201.225 51.3288 200.491 51.038C200.732 51.6119 201.13 52.1063 201.639 52.4644C198.855 51.8459 198.639 50.3789 198.744 49.588C197.755 53.039 196.471 53.1843 196.471 53.1843C196.471 53.1843 196.471 53.4919 196.529 53.9888C196.196 54.0649 195.902 54.2583 195.701 54.5335C195.5 54.8086 195.406 55.1469 195.435 55.4861C195.431 55.8515 195.571 56.2039 195.824 56.4679C196.077 56.7319 196.424 56.8866 196.789 56.8989C196.863 56.8957 196.935 56.8855 197.006 56.8685C197.596 59.1534 198.805 61.6377 201.28 61.5397C203.756 61.4417 204.765 58.8661 205.165 56.5407C205.238 56.5474 205.312 56.5474 205.385 56.5407C205.752 56.5039 206.089 56.3236 206.324 56.0392C206.558 55.7549 206.67 55.3895 206.635 55.023C206.636 54.6873 206.517 54.362 206.3 54.1056C206.083 53.8492 205.781 53.6783 205.449 53.6237Z" fill="white" stroke="#263238" stroke-width="0.932567" stroke-linecap="round" stroke-linejoin="round"/>
<path d="M200.491 57.4938L200.918 57.8013C200.972 57.8414 201.037 57.863 201.104 57.863C201.171 57.863 201.237 57.8414 201.29 57.8013L201.683 57.5005" stroke="#263238" stroke-width="0.932567" stroke-linecap="round" stroke-linejoin="round"/>
<path d="M202.117 55.5707C202.117 55.5707 202.645 54.8744 203.699 55.3645" stroke="#263238" stroke-width="0.932567" stroke-linecap="round" stroke-linejoin="round"/>
<path d="M199.814 55.5707C199.814 55.5707 199.289 54.8744 198.232 55.3645" stroke="#263238" stroke-width="0.932567" stroke-linecap="round" stroke-linejoin="round"/>
<path d="M202.136 58.7208C201.843 58.9529 201.483 59.0861 201.109 59.1012C200.735 59.1164 200.365 59.0128 200.054 58.8053" stroke="#263238" stroke-width="0.932567" stroke-linecap="round" stroke-linejoin="round"/>
<path d="M206.611 117.242C206.491 117.613 206.35 117.977 206.191 118.334" stroke="white" stroke-width="0.932567" stroke-linecap="round" stroke-linejoin="round"/>
<path d="M201.666 92.6121L202.77 93.599C203.755 94.4793 204.403 95.6743 204.602 96.979C205.547 102.979 207.064 109.147 206.878 115.664" stroke="white" stroke-width="0.932567" stroke-linecap="round" stroke-linejoin="round"/>
<path d="M205.846 92.7877L204.095 95.2856L204.315 94.978" stroke="white" stroke-width="0.932567" stroke-linecap="round" stroke-linejoin="round"/>
<path d="M198.927 82.7661L199.428 83.2799" stroke="#263238" stroke-width="0.932567" stroke-linecap="round" stroke-linejoin="round"/>
<path d="M195.3 75.6851C195.827 77.8412 196.765 79.8758 198.063 81.6778" stroke="#263238" stroke-width="0.932567" stroke-linecap="round" stroke-linejoin="round"/>
<path d="M195.397 52.8282L195.021 52.8433L195.075 54.1773L195.451 54.1622L195.397 52.8282Z" fill="white" stroke="#263238" stroke-width="0.932567" stroke-linecap="round" stroke-linejoin="round"/>
<path d="M206.861 52.3467L206.485 52.3618L206.539 53.6958L206.915 53.6807L206.861 52.3467Z" fill="white" stroke="#263238" stroke-width="0.932567" stroke-linecap="round" stroke-linejoin="round"/>
<path d="M200.704 46.7725C199.109 46.8372 197.601 47.5163 196.497 48.6672C195.393 49.8181 194.779 51.3512 194.784 52.9444C194.785 52.9743 194.791 53.0037 194.803 53.0311C194.815 53.0585 194.833 53.0831 194.854 53.1036C194.876 53.1241 194.902 53.14 194.93 53.1504C194.958 53.1608 194.988 53.1654 195.018 53.1641H195.414C195.472 53.1614 195.527 53.1363 195.567 53.094C195.607 53.0518 195.628 52.9956 195.627 52.9376C195.637 51.5708 196.173 50.2601 197.126 49.2777C198.078 48.2953 199.373 47.7166 200.741 47.6618C202.109 47.607 203.446 48.0803 204.474 48.9834C205.502 49.8865 206.142 51.1501 206.262 52.5117C206.265 52.5694 206.291 52.6234 206.334 52.662C206.377 52.7006 206.434 52.7207 206.492 52.7179H206.888C206.918 52.7171 206.947 52.7102 206.974 52.6977C207.001 52.6852 207.026 52.6674 207.046 52.6453C207.066 52.6231 207.081 52.5972 207.09 52.569C207.1 52.5408 207.104 52.511 207.102 52.4813C206.988 50.8866 206.256 49.3989 205.062 48.3332C203.868 47.2676 202.305 46.7078 200.704 46.7725Z" fill="#E8E8E8" stroke="#263238" stroke-width="0.932567" stroke-linecap="round" stroke-linejoin="round"/>
<path d="M196.089 53.644H196.001C195.745 53.6545 195.495 53.715 195.263 53.8221C195.031 53.9293 194.823 54.0809 194.649 54.2685C194.3 54.6472 194.115 55.149 194.136 55.6636C194.158 56.1781 194.383 56.6632 194.762 57.0122C195.142 57.3611 195.644 57.5453 196.16 57.5243H196.245L196.089 53.644Z" fill="#E8E8E8" stroke="#263238" stroke-width="0.932567" stroke-linecap="round" stroke-linejoin="round"/>
<path d="M196.614 55.5604C196.671 57.0003 196.773 57.9264 196.275 57.9568C195.777 57.9873 195.567 57.0476 195.51 55.5908C195.452 54.1341 195.584 53.2248 196.082 53.191C196.58 53.1572 196.556 54.1205 196.614 55.5604Z" fill="white" stroke="#263238" stroke-width="0.932567" stroke-linecap="round" stroke-linejoin="round"/>
<path d="M205.876 53.2519H205.964C206.219 53.2417 206.474 53.2818 206.714 53.3699C206.954 53.4579 207.174 53.5923 207.361 53.7652C207.549 53.9381 207.701 54.1463 207.808 54.3778C207.915 54.6092 207.976 54.8595 207.986 55.1143C207.996 55.3691 207.956 55.6234 207.868 55.8627C207.779 56.102 207.645 56.3216 207.472 56.5089C207.298 56.6963 207.09 56.8478 206.858 56.9547C206.626 57.0617 206.375 57.122 206.12 57.1322H206.032L205.876 53.2519Z" fill="#E8E8E8" stroke="#263238" stroke-width="0.932567" stroke-linecap="round" stroke-linejoin="round"/>
<path d="M205.49 55.2056C205.547 56.6455 205.524 57.5716 206.022 57.5716C206.519 57.5716 206.651 56.6083 206.594 55.1684C206.536 53.7285 206.326 52.8024 205.832 52.8193C205.337 52.8362 205.432 53.7657 205.49 55.2056Z" fill="white" stroke="#263238" stroke-width="0.932567" stroke-linecap="round" stroke-linejoin="round"/>
<path d="M197.501 54.2929C197.501 54.2929 198.791 53.2283 200.014 54.1915" stroke="#263238" stroke-width="0.932567" stroke-linecap="round" stroke-linejoin="round"/>
<path d="M204.582 54.0801C204.582 54.0801 203.228 53.1235 202.069 54.1815" stroke="#263238" stroke-width="0.932567" stroke-linecap="round" stroke-linejoin="round"/>
<path d="M198.588 62.7024C198.588 62.7024 199.36 64.6358 202.225 65.0684C202.225 65.0684 201.081 67.4344 199.516 66.5049C197.643 65.3963 197.284 63.0945 197.284 63.0945L198.588 62.7024Z" fill="#E8E8E8" stroke="#263238" stroke-width="0.932567" stroke-linecap="round" stroke-linejoin="round"/>
<path d="M203.837 62.9424C203.848 63.4571 203.676 63.959 203.353 64.3602C203.03 64.7613 202.575 65.036 202.069 65.136C202.069 65.136 203.461 67.4141 204.603 66.15C205.744 64.8859 204.857 63.1655 204.857 63.1655L203.837 62.9424Z" fill="#E8E8E8" stroke="#263238" stroke-width="0.932567" stroke-linecap="round" stroke-linejoin="round"/>
<path d="M203.201 69.6517C203.201 69.7186 203.181 69.7839 203.144 69.8395C203.106 69.8951 203.054 69.9384 202.992 69.964C202.93 69.9896 202.862 69.9963 202.796 69.9832C202.73 69.9702 202.67 69.938 202.623 69.8907C202.575 69.8434 202.543 69.7832 202.53 69.7177C202.517 69.6521 202.524 69.5841 202.549 69.5224C202.575 69.4606 202.618 69.4078 202.674 69.3707C202.73 69.3335 202.795 69.3137 202.862 69.3137C202.952 69.3137 203.038 69.3493 203.102 69.4127C203.165 69.4761 203.201 69.5621 203.201 69.6517Z" fill="#E8E8E8" stroke="#263238" stroke-width="0.932567" stroke-linecap="round" stroke-linejoin="round"/>
<path d="M203.661 76.3069C203.661 76.3737 203.641 76.4391 203.604 76.4947C203.566 76.5502 203.514 76.5936 203.452 76.6191C203.39 76.6447 203.322 76.6514 203.256 76.6384C203.19 76.6253 203.13 76.5931 203.083 76.5459C203.035 76.4986 203.003 76.4384 202.99 76.3728C202.977 76.3073 202.984 76.2393 203.009 76.1775C203.035 76.1158 203.078 76.063 203.134 76.0258C203.19 75.9887 203.255 75.9689 203.322 75.9689C203.412 75.9689 203.498 76.0045 203.562 76.0679C203.625 76.1313 203.661 76.2172 203.661 76.3069Z" fill="#E8E8E8" stroke="#263238" stroke-width="0.932567" stroke-linecap="round" stroke-linejoin="round"/>
<path d="M204.094 83.121C204.094 83.1878 204.074 83.2532 204.037 83.3088C204 83.3643 203.947 83.4077 203.885 83.4332C203.823 83.4588 203.755 83.4655 203.69 83.4525C203.624 83.4394 203.564 83.4072 203.516 83.36C203.469 83.3127 203.437 83.2525 203.424 83.1869C203.41 83.1213 203.417 83.0534 203.443 82.9916C203.468 82.9299 203.512 82.8771 203.567 82.8399C203.623 82.8028 203.689 82.783 203.756 82.783C203.845 82.783 203.932 82.8186 203.995 82.882C204.059 82.9453 204.094 83.0313 204.094 83.121Z" fill="#E8E8E8" stroke="#263238" stroke-width="0.932567" stroke-linecap="round" stroke-linejoin="round"/>
<path d="M233.938 37.8053H165.317C164.999 37.8053 164.741 38.0626 164.741 38.3799V39.6136C164.741 39.9309 164.999 40.1882 165.317 40.1882H233.938C234.256 40.1882 234.513 39.9309 234.513 39.6136V38.3799C234.513 38.0626 234.256 37.8053 233.938 37.8053Z" fill="white"/>
<path d="M233.823 40.1882H165.433" stroke="#263238" stroke-width="0.932567" stroke-linecap="round" stroke-linejoin="round"/>
<path d="M165.433 37.8053H233.823" stroke="#263238" stroke-width="0.932567" stroke-linecap="round" stroke-linejoin="round"/>
<path d="M186.721 53.84C186.721 53.84 183.893 53.4446 183.741 54.2017C183.588 54.9588 183.673 56.1723 184.161 56.5677C185.082 57.3181 184.912 58.7208 184.912 58.7208L187.283 58.4909L187.344 57.3079C187.466 56.922 187.684 56.5731 187.977 56.2939C188.831 55.4929 188.492 54.6039 188.346 53.5325C188.201 52.461 187.493 52.9376 187.435 53.4919C187.418 53.9862 187.459 54.4808 187.557 54.9656L186.721 53.84Z" fill="white" stroke="#263238" stroke-width="0.932567" stroke-linecap="round" stroke-linejoin="round"/>
<path d="M187.384 54.8811C187.384 54.8811 186.707 55.0197 186.172 55.9762L187.384 54.8811Z" fill="white"/>
<path d="M187.384 54.8811C187.384 54.8811 186.707 55.0197 186.172 55.9762" stroke="#263238" stroke-width="0.932567" stroke-linecap="round" stroke-linejoin="round"/>
<path d="M187.385 55.1312H183.957C183.72 55.1384 183.484 55.0888 183.269 54.9865C183.055 54.8842 182.868 54.7321 182.724 54.5431C182.602 54.3714 182.536 54.1658 182.536 53.955C182.536 53.7442 182.602 53.5386 182.724 53.3669L184.438 50.8555C184.586 50.669 184.775 50.5184 184.989 50.4148C185.204 50.3112 185.439 50.2574 185.678 50.2574C185.916 50.2574 186.151 50.3112 186.366 50.4148C186.581 50.5184 186.769 50.669 186.917 50.8555L188.634 53.3669C188.757 53.5386 188.823 53.7442 188.823 53.955C188.823 54.1658 188.757 54.3714 188.634 54.5431C188.489 54.735 188.3 54.8888 188.082 54.9912C187.864 55.0937 187.625 55.1417 187.385 55.1312ZM183.321 53.644C183.256 53.7337 183.221 53.8412 183.221 53.9516C183.221 54.0619 183.256 54.1695 183.321 54.2592C183.395 54.357 183.492 54.4356 183.604 54.4885C183.715 54.5414 183.837 54.5671 183.961 54.5634H187.385C187.508 54.5674 187.63 54.5418 187.742 54.4889C187.853 54.436 187.95 54.3572 188.025 54.2592C188.09 54.1697 188.125 54.0621 188.125 53.9516C188.125 53.8411 188.09 53.7335 188.025 53.644L186.311 51.1361C186.236 51.0358 186.139 50.9551 186.026 50.901C185.913 50.8468 185.789 50.8208 185.664 50.8251C185.54 50.8204 185.416 50.8464 185.304 50.9006C185.191 50.9548 185.094 51.0356 185.021 51.1361L183.304 53.6474L183.321 53.644Z" fill="#263238"/>
<path d="M184.645 53.8738C184.821 54.7661 184.713 55.0838 184.306 55.0365C183.9 54.9892 183.49 53.8941 184.052 53.6439C184.614 53.3938 185.068 53.2012 185.068 53.2012C185.248 53.104 185.449 53.0501 185.653 53.0436C185.858 53.0372 186.061 53.0784 186.247 53.164C187.053 52.8834 187.195 53.4682 187.195 53.4682C187.195 53.4682 187.778 55.1582 187.293 55.2156C186.809 55.2731 186.409 53.8062 186.409 53.8062C186.409 53.8062 187.016 55.4151 186.46 55.4421C185.905 55.4691 185.583 53.8805 185.583 53.8805C185.583 53.8805 185.945 55.2765 185.42 55.3238C184.896 55.3711 184.645 53.8738 184.645 53.8738Z" fill="white" stroke="#263238" stroke-width="0.932567" stroke-linecap="round" stroke-linejoin="round"/>
<path d="M185.925 39.5494H185.369V50.646H185.925V39.5494Z" fill="white" stroke="#263238" stroke-width="0.932567" stroke-linecap="round" stroke-linejoin="round"/>
<path d="M186.233 50.4735L185.87 51.0042C185.847 51.0344 185.816 51.0589 185.782 51.0757C185.747 51.0925 185.709 51.1012 185.671 51.1012C185.632 51.1012 185.594 51.0925 185.56 51.0757C185.525 51.0589 185.495 51.0344 185.471 51.0042L185.112 50.4735C185.024 50.3485 185.136 50.193 185.308 50.193H186.033C186.209 50.193 186.318 50.362 186.233 50.4735Z" fill="white" stroke="#263238" stroke-width="0.932567" stroke-linecap="round" stroke-linejoin="round"/>
<path d="M185.969 46.7488H185.377C185.214 46.7488 185.082 46.8804 185.082 47.0428V49.5035C185.082 49.6659 185.214 49.7975 185.377 49.7975H185.969C186.132 49.7975 186.264 49.6659 186.264 49.5035V47.0428C186.264 46.8804 186.132 46.7488 185.969 46.7488Z" fill="white" stroke="#263238" stroke-width="0.932567" stroke-linecap="round" stroke-linejoin="round"/>
<path d="M185.969 37.4233H185.377C185.214 37.4233 185.082 37.555 185.082 37.7174V40.178C185.082 40.3404 185.214 40.4721 185.377 40.4721H185.969C186.132 40.4721 186.264 40.3404 186.264 40.178V37.7174C186.264 37.555 186.132 37.4233 185.969 37.4233Z" fill="white" stroke="#263238" stroke-width="0.932567" stroke-linecap="round" stroke-linejoin="round"/>
<path d="M179.328 55.1312H175.901C175.663 55.1384 175.427 55.0887 175.213 54.9864C174.998 54.8841 174.811 54.7321 174.668 54.543C174.545 54.3713 174.479 54.1657 174.479 53.9549C174.479 53.7441 174.545 53.5385 174.668 53.3668L176.381 50.8555C176.53 50.6689 176.719 50.5183 176.934 50.4147C177.148 50.3111 177.384 50.2573 177.623 50.2573C177.861 50.2573 178.097 50.3111 178.312 50.4147C178.527 50.5183 178.716 50.6689 178.864 50.8555L180.578 53.3668C180.7 53.5385 180.766 53.7441 180.766 53.9549C180.766 54.1657 180.7 54.3713 180.578 54.543C180.433 54.7349 180.243 54.8887 180.026 54.9912C179.808 55.0936 179.568 55.1417 179.328 55.1312ZM175.264 53.644C175.199 53.7336 175.165 53.8412 175.165 53.9515C175.165 54.0619 175.199 54.1695 175.264 54.2591C175.339 54.3569 175.436 54.4356 175.547 54.4885C175.658 54.5414 175.781 54.567 175.904 54.5633H179.331C179.455 54.567 179.578 54.5414 179.69 54.4885C179.802 54.4356 179.899 54.357 179.975 54.2591C180.039 54.1695 180.074 54.0619 180.074 53.9515C180.074 53.8412 180.039 53.7336 179.975 53.644L178.261 51.136C178.187 51.0358 178.089 50.9551 177.976 50.9009C177.863 50.8468 177.739 50.8207 177.614 50.825C177.49 50.8204 177.366 50.8463 177.254 50.9005C177.142 50.9547 177.044 51.0356 176.971 51.136L175.254 53.6473L175.264 53.644Z" fill="#263238"/>
<path d="M177.868 39.5494H177.312V50.646H177.868V39.5494Z" fill="white" stroke="#263238" stroke-width="0.932567" stroke-linecap="round" stroke-linejoin="round"/>
<path d="M178.176 50.4735L177.8 51.0042C177.776 51.0344 177.746 51.0589 177.711 51.0757C177.677 51.0925 177.639 51.1012 177.6 51.1012C177.562 51.1012 177.524 51.0925 177.489 51.0757C177.455 51.0589 177.424 51.0344 177.401 51.0042L177.042 50.4735C176.953 50.3485 177.065 50.193 177.238 50.193H177.963C178.139 50.193 178.261 50.362 178.176 50.4735Z" fill="white" stroke="#263238" stroke-width="0.932567" stroke-linecap="round" stroke-linejoin="round"/>
<path d="M177.913 46.7488H177.32C177.157 46.7488 177.025 46.8804 177.025 47.0428V49.5035C177.025 49.6659 177.157 49.7975 177.32 49.7975H177.913C178.075 49.7975 178.207 49.6659 178.207 49.5035V47.0428C178.207 46.8804 178.075 46.7488 177.913 46.7488Z" fill="white" stroke="#263238" stroke-width="0.932567" stroke-linecap="round" stroke-linejoin="round"/>
<path d="M177.913 37.4233H177.32C177.157 37.4233 177.025 37.555 177.025 37.7174V40.178C177.025 40.3404 177.157 40.4721 177.32 40.4721H177.913C178.075 40.4721 178.207 40.3404 178.207 40.178V37.7174C178.207 37.555 178.075 37.4233 177.913 37.4233Z" fill="white" stroke="#263238" stroke-width="0.932567" stroke-linecap="round" stroke-linejoin="round"/>
<path d="M214.244 55.1312H210.817C210.579 55.139 210.343 55.0896 210.128 54.9872C209.914 54.8849 209.727 54.7326 209.584 54.5431C209.461 54.3714 209.396 54.1658 209.396 53.955C209.396 53.7442 209.461 53.5386 209.584 53.3669L211.298 50.8555C211.446 50.669 211.634 50.5184 211.849 50.4148C212.063 50.3112 212.299 50.2574 212.537 50.2574C212.775 50.2574 213.011 50.3112 213.225 50.4148C213.44 50.5184 213.628 50.669 213.777 50.8555L215.49 53.3669C215.613 53.5386 215.679 53.7442 215.679 53.955C215.679 54.1658 215.613 54.3714 215.49 54.5431C215.346 54.7345 215.157 54.888 214.94 54.9904C214.723 55.0929 214.484 55.1412 214.244 55.1312ZM210.18 53.644C210.115 53.7335 210.08 53.8411 210.08 53.9516C210.08 54.0621 210.115 54.1697 210.18 54.2592C210.255 54.3572 210.352 54.436 210.463 54.4889C210.574 54.5418 210.697 54.5674 210.82 54.5634H214.247C214.371 54.5674 214.493 54.5418 214.604 54.4889C214.716 54.436 214.813 54.3572 214.887 54.2592C214.952 54.1697 214.987 54.0621 214.987 53.9516C214.987 53.8411 214.952 53.7335 214.887 53.644L213.174 51.1361C213.096 51.0389 212.998 50.9604 212.886 50.9065C212.774 50.8526 212.651 50.8246 212.527 50.8246C212.403 50.8246 212.28 50.8526 212.168 50.9065C212.056 50.9604 211.957 51.0389 211.88 51.1361L210.166 53.6474L210.18 53.644Z" fill="#263238"/>
<path d="M212.781 39.5494H212.226V50.646H212.781V39.5494Z" fill="white" stroke="#263238" stroke-width="0.932567" stroke-linecap="round" stroke-linejoin="round"/>
<path d="M213.09 50.4735L212.731 51.0042C212.707 51.0344 212.677 51.0589 212.642 51.0757C212.607 51.0925 212.569 51.1012 212.531 51.1012C212.492 51.1012 212.455 51.0925 212.42 51.0757C212.385 51.0589 212.355 51.0344 212.331 51.0042L211.972 50.4735C211.884 50.3485 211.996 50.193 212.169 50.193H212.893C213.066 50.193 213.178 50.362 213.09 50.4735Z" fill="white" stroke="#263238" stroke-width="0.932567" stroke-linecap="round" stroke-linejoin="round"/>
<path d="M212.829 46.7488H212.236C212.073 46.7488 211.941 46.8804 211.941 47.0428V49.5035C211.941 49.6659 212.073 49.7975 212.236 49.7975H212.829C212.991 49.7975 213.123 49.6659 213.123 49.5035V47.0428C213.123 46.8804 212.991 46.7488 212.829 46.7488Z" fill="white" stroke="#263238" stroke-width="0.932567" stroke-linecap="round" stroke-linejoin="round"/>
<path d="M212.829 37.4233H212.236C212.073 37.4233 211.941 37.555 211.941 37.7174V40.178C211.941 40.3404 212.073 40.4721 212.236 40.4721H212.829C212.991 40.4721 213.123 40.3404 213.123 40.178V37.7174C213.123 37.555 212.991 37.4233 212.829 37.4233Z" fill="white" stroke="#263238" stroke-width="0.932567" stroke-linecap="round" stroke-linejoin="round"/>
<path d="M221.922 55.1312H218.494C218.257 55.1384 218.021 55.0887 217.806 54.9864C217.592 54.8841 217.405 54.7321 217.262 54.543C217.139 54.3713 217.073 54.1657 217.073 53.9549C217.073 53.7441 217.139 53.5385 217.262 53.3668L218.975 50.8555C219.124 50.6689 219.312 50.5183 219.527 50.4147C219.742 50.3111 219.978 50.2573 220.216 50.2573C220.455 50.2573 220.691 50.3111 220.906 50.4147C221.121 50.5183 221.309 50.6689 221.458 50.8555L223.171 53.3668C223.294 53.5385 223.36 53.7441 223.36 53.9549C223.36 54.1657 223.294 54.3713 223.171 54.543C223.026 54.7349 222.837 54.8887 222.619 54.9912C222.402 55.0936 222.162 55.1417 221.922 55.1312ZM217.858 53.644C217.793 53.7336 217.758 53.8412 217.758 53.9515C217.758 54.0619 217.793 54.1695 217.858 54.2591C217.932 54.357 218.03 54.4356 218.141 54.4885C218.252 54.5414 218.374 54.567 218.498 54.5633H221.925C222.049 54.567 222.172 54.5414 222.283 54.4885C222.395 54.4356 222.493 54.357 222.569 54.2591C222.633 54.1695 222.668 54.0619 222.668 53.9515C222.668 53.8412 222.633 53.7336 222.569 53.644L220.855 51.136C220.78 51.0358 220.683 50.9551 220.57 50.9009C220.457 50.8468 220.333 50.8207 220.208 50.825C220.083 50.8204 219.96 50.8463 219.847 50.9005C219.735 50.9547 219.638 51.0356 219.565 51.136L217.847 53.6473L217.858 53.644Z" fill="#263238"/>
<path d="M220.463 39.5493H219.907V50.6459H220.463V39.5493Z" fill="white" stroke="#263238" stroke-width="0.932567" stroke-linecap="round" stroke-linejoin="round"/>
<path d="M220.771 50.4735L220.409 51.0042C220.385 51.0344 220.354 51.0589 220.32 51.0757C220.285 51.0925 220.247 51.1012 220.209 51.1012C220.17 51.1012 220.132 51.0925 220.098 51.0757C220.063 51.0589 220.033 51.0344 220.009 51.0042L219.65 50.4735C219.562 50.3485 219.674 50.193 219.846 50.193H220.571C220.747 50.193 220.856 50.362 220.771 50.4735Z" fill="white" stroke="#263238" stroke-width="0.932567" stroke-linecap="round" stroke-linejoin="round"/>
<path d="M220.506 46.7488H219.914C219.751 46.7488 219.619 46.8804 219.619 47.0428V49.5035C219.619 49.6659 219.751 49.7975 219.914 49.7975H220.506C220.669 49.7975 220.801 49.6659 220.801 49.5035V47.0428C220.801 46.8804 220.669 46.7488 220.506 46.7488Z" fill="white" stroke="#263238" stroke-width="0.932567" stroke-linecap="round" stroke-linejoin="round"/>
<path d="M220.506 37.4233H219.914C219.751 37.4233 219.619 37.555 219.619 37.7174V40.178C219.619 40.3404 219.751 40.4721 219.914 40.4721H220.506C220.669 40.4721 220.801 40.3404 220.801 40.178V37.7174C220.801 37.555 220.669 37.4233 220.506 37.4233Z" fill="white" stroke="#263238" stroke-width="0.932567" stroke-linecap="round" stroke-linejoin="round"/>
<path d="M187.649 57.9569L187.828 59.4002L184.144 59.5725L184.452 58.1259L187.649 57.9569Z" fill="#E8E8E8" stroke="#263238" stroke-width="0.932567" stroke-linecap="round" stroke-linejoin="round"/>
<path d="M193.898 70.0877C193.898 70.0877 187.5 75.9588 186.024 76.05C185.661 76.0737 185.346 76.3002 185.041 76.094C184.364 75.6343 183.385 74.6609 183.528 70.7063C183.602 68.5431 184.913 59.5286 184.913 59.5286L187.283 59.4238L187.859 69.5638C189.891 67.4615 193.423 64.5479 193.427 64.5479C194.531 68.0699 193.898 70.0877 193.898 70.0877Z" fill="white" stroke="#263238" stroke-width="0.932567" stroke-linecap="round" stroke-linejoin="round"/>
<path d="M210.031 78.2504C210.191 77.5493 210.494 76.8887 210.922 76.3103L210.031 78.2504Z" fill="white"/>
<path d="M210.031 78.2504C210.191 77.5493 210.494 76.8887 210.922 76.3103" stroke="#263238" stroke-width="0.932567" stroke-linecap="round" stroke-linejoin="round"/>
<path d="M187.134 71.9501C187.381 71.8385 187.97 70.74 187.848 68.8641" stroke="#263238" stroke-width="0.932567" stroke-linecap="round" stroke-linejoin="round"/>
<path d="M189.406 47.8709V43.8318C189.407 43.6367 189.485 43.4498 189.623 43.3118C189.762 43.1738 189.949 43.0959 190.145 43.095H196.498C196.693 43.0959 196.881 43.1738 197.019 43.3118C197.157 43.4498 197.235 43.6367 197.236 43.8318V47.8709C197.236 48.0663 197.158 48.2538 197.02 48.3919C196.881 48.5301 196.694 48.6078 196.498 48.6078H194.286L194.463 50.1457H193.321V51.5991L191.967 49.2331H193.074L192.959 48.6111H190.141C190.044 48.6107 189.948 48.5912 189.859 48.5538C189.769 48.5163 189.688 48.4617 189.62 48.3929C189.552 48.3242 189.498 48.2427 189.461 48.1531C189.424 48.0636 189.406 47.9677 189.406 47.8709Z" fill="white" stroke="#263238" stroke-width="0.932567" stroke-linecap="round" stroke-linejoin="round"/>
<path d="M194.913 44.4774H190.619" stroke="#263238" stroke-width="0.932567" stroke-linecap="round" stroke-linejoin="round"/>
<path d="M196.024 45.6233H190.619" stroke="#263238" stroke-width="0.932567" stroke-linecap="round" stroke-linejoin="round"/>
<path d="M195.191 46.7657H190.619" stroke="#263238" stroke-width="0.932567" stroke-linecap="round" stroke-linejoin="round"/>
<path d="M48.1043 147.841C56.8372 147.841 63.9167 146.802 63.9167 145.519C63.9167 144.237 56.8372 143.197 48.1043 143.197C39.3714 143.197 32.292 144.237 32.292 145.519C32.292 146.802 39.3714 147.841 48.1043 147.841Z" fill="#E8E8E8"/>
<path d="M46.7186 108.515C61.9269 108.515 74.2556 96.2104 74.2556 81.0321C74.2556 65.8538 61.9269 53.5493 46.7186 53.5493C31.5104 53.5493 19.1816 65.8538 19.1816 81.0321C19.1816 96.2104 31.5104 108.515 46.7186 108.515Z" fill="#E8E8E8"/>
<path d="M34.0188 99.0037C34.0188 99.0037 34.7198 103.06 32.3525 107.619H61.9554C61.9554 107.619 60.6007 105.493 59.1817 99.0037H34.0188Z" fill="white" stroke="#263238" stroke-width="0.87381" stroke-linecap="round" stroke-linejoin="round"/>
<path d="M40.7685 99.9399C39.1481 100.069 37.595 100.643 36.2804 101.597C34.9657 102.551 33.9405 103.849 33.3178 105.348C32.9995 106.119 32.6676 106.899 32.3526 107.629C30.5509 111.79 32.2544 117.844 36.8603 117.844H57.9795C62.1553 117.844 63.2966 112.568 62.2975 108.593C61.654 106.037 60.357 103.472 58.1421 101.674C55.1821 99.2571 46.5326 99.4802 40.7685 99.9399Z" fill="#263238" stroke="#263238" stroke-width="0.87381" stroke-linecap="round" stroke-linejoin="round"/>
<path d="M20.604 95.4749C20.604 95.4749 16.8177 97.7598 16.6924 99.0036H21.3355L23.1812 97.682L22.5581 99.0104H23.9703C23.9703 99.0104 25.4706 97.8476 25.5519 96.5599L25.3995 95.4749L22.6902 94.2716L20.604 95.4749Z" fill="white" stroke="#263238" stroke-width="0.87381" stroke-linecap="round" stroke-linejoin="round"/>
<path d="M64.9561 87.0824C64.9561 87.0824 64.3499 83.1042 63.0189 77.3751C61.6879 71.646 59.087 71.1964 59.087 71.1964H59.0633C55.6766 69.743 46.8713 68.9589 46.8713 68.9589H46.4649C46.4649 68.9589 37.6392 69.743 34.2729 71.1964H34.2492C34.2492 71.1964 31.6245 71.6561 30.2935 77.3751C28.9626 83.094 28.353 87.0824 28.353 87.0824C28.353 87.0824 25.9485 87.7314 21.6203 93.1664C20.9408 94.0283 20.3624 94.965 19.8965 95.9583C19.8965 95.9583 23.2222 94.8666 25.5522 96.5397C25.5522 96.5397 33.1858 93.3084 33.5685 89.9013C33.5685 89.7797 33.5989 89.6445 33.6159 89.4991C33.8326 94.6705 34.0189 98.9902 34.0189 98.9902H59.2902C59.2902 98.9902 59.4798 94.6705 59.6966 89.4991C59.6966 89.6445 59.7271 89.7797 59.7406 89.9013C60.1267 93.3084 68.5764 97.1278 68.5764 97.1278C70.8929 93.572 74.2559 95.5358 74.2559 95.5358L64.9561 87.0824Z" fill="white"/>
<path opacity="0.3" d="M33.569 89.908C33.569 89.8066 33.5961 89.6917 33.6096 89.57L33.0576 77.6014C33.0576 77.6014 31.5336 77.9124 31.9705 81.5865C32.4074 85.2605 33.3251 84.6285 32.8137 86.0447C32.3024 87.4609 30.3178 85.8385 29.6608 87.0587C29.0037 88.2789 33.3319 88.0186 31.5437 91.162C29.7556 94.3054 25.5527 96.57 25.5527 96.57C25.5527 96.57 33.1897 93.3218 33.569 89.908Z" fill="black"/>
<g opacity="0.3">
<path opacity="0.3" d="M59.8594 89.908C59.8594 89.8066 60.8551 89.9823 59.8594 89.908L60.1608 79.6632C60.1608 79.6632 60.0863 84.6183 60.618 86.0446C61.1497 87.471 63.114 85.8385 63.7676 87.0586C64.4212 88.2788 60.0964 88.0186 61.888 91.162C63.6795 94.3054 67.8756 96.57 67.8756 96.57C67.8756 96.57 60.2455 93.3218 59.8594 89.908Z" fill="black"/>
</g>
<path opacity="0.3" d="M59.4733 92.2402C59.3074 96.1171 59.1821 99.0002 59.1821 99.0002H36.4609C51.7009 99.0002 59.4903 92.2402 59.4903 92.2402H59.4733Z" fill="black"/>
<path d="M64.9561 87.0824C64.9561 87.0824 64.3499 83.1042 63.0189 77.3751C61.6879 71.646 59.087 71.1964 59.087 71.1964H59.0633C55.6766 69.743 46.8713 68.9589 46.8713 68.9589H46.4649C46.4649 68.9589 37.6392 69.743 34.2729 71.1964H34.2492C34.2492 71.1964 31.6245 71.6561 30.2935 77.3751C28.9626 83.094 28.353 87.0824 28.353 87.0824C28.353 87.0824 25.9485 87.7314 21.6203 93.1664C20.9408 94.0283 20.3624 94.965 19.8965 95.9583V95.9583C19.8965 95.9583 23.2222 94.8666 25.5522 96.5397C25.5522 96.5397 33.1858 93.3084 33.5685 89.9013C33.5685 89.7797 33.5989 89.6445 33.6159 89.4991C33.8326 94.6705 34.0189 98.9902 34.0189 98.9902H59.2902C59.2902 98.9902 59.4798 94.6705 59.6966 89.4991C59.6966 89.6445 59.7271 89.7797 59.7406 89.9013C60.1267 93.3084 68.5764 97.1278 68.5764 97.1278C70.8929 93.572 74.2559 95.5358 74.2559 95.5358L64.9561 87.0824Z" stroke="#263238" stroke-width="0.87381" stroke-linecap="round" stroke-linejoin="round"/>
<path d="M29.1621 87.0587C30.3808 86.9977 31.5752 87.4136 32.4912 88.2181" stroke="#263238" stroke-width="0.87381" stroke-linecap="round" stroke-linejoin="round"/>
<path d="M31.543 77.9598C31.543 77.9598 33.1076 78.2978 33.4666 85.8893L32.9958 75.925" stroke="#263238" stroke-width="0.87381" stroke-linecap="round" stroke-linejoin="round"/>
<path d="M33.4873 86.9438L33.5586 88.4817" stroke="#263238" stroke-width="0.87381" stroke-linecap="round" stroke-linejoin="round"/>
<path d="M64.1504 87.0587C62.9341 86.993 61.7399 87.4028 60.8213 88.2012" stroke="#263238" stroke-width="0.87381" stroke-linecap="round" stroke-linejoin="round"/>
<path d="M60.2217 77.9598C60.2511 77.2838 60.2828 76.6078 60.3168 75.9318" stroke="#263238" stroke-width="0.87381" stroke-linecap="round" stroke-linejoin="round"/>
<path d="M51.3988 69.5063C50.9891 71.5546 49.0045 72.2948 46.6135 72.2948C44.2225 72.2948 42.2447 71.558 41.8281 69.5164H41.923C42.1706 69.4828 42.4022 69.3749 42.5873 69.2072C42.7723 69.0394 42.902 68.8196 42.9593 68.5768C42.9925 68.4799 43.0096 68.3783 43.0101 68.276V65.8728H50.3253V68.276C50.3244 68.4262 50.352 68.5753 50.4066 68.7154C50.4854 68.9241 50.6192 69.1077 50.7938 69.2469C50.9685 69.3861 51.1775 69.4757 51.3988 69.5063Z" fill="white"/>
<path d="M50.2648 67.6711C49.0524 68.8609 47.7011 69.6011 46.3972 69.6586C45.0425 69.7194 43.4711 68.6108 42.8311 67.5224C42.8575 67.4278 42.8701 67.3299 42.8683 67.2317V66.4949L50.1835 66.5726V67.2317C50.1835 67.3872 50.3698 67.5697 50.2648 67.6711Z" fill="#263238"/>
<path d="M51.3988 69.5063C50.9891 71.5546 49.0045 72.2948 46.6135 72.2948C44.2225 72.2948 42.2447 71.558 41.8281 69.5164H41.923C42.1706 69.4828 42.4022 69.3749 42.5873 69.2072C42.7723 69.0394 42.902 68.8196 42.9593 68.5768C42.9925 68.4799 43.0096 68.3783 43.0101 68.276V65.8728H50.3253V68.276C50.3244 68.4262 50.352 68.5753 50.4065 68.7154C50.4854 68.9241 50.6192 69.1077 50.7938 69.2469C50.9685 69.3861 51.1775 69.4757 51.3988 69.5063V69.5063Z" stroke="#263238" stroke-width="0.87381" stroke-linecap="round" stroke-linejoin="round"/>
<path d="M41.2698 60.7116C41.2698 60.7116 38.7332 57.8488 39.0651 53.9043C39.397 49.9598 42.6414 49.9598 42.6414 49.9598C42.6414 49.9598 46.553 46.5156 50.9184 48.6721C55.2838 50.8285 54.9824 58.3051 51.7516 60.1641L41.2698 60.7116Z" fill="#263238"/>
<path d="M52.4529 58.785C52.4867 58.1293 52.4833 57.7237 52.4833 57.7237C52.1921 55.9796 50.0551 55.8039 49.073 55.7734C44.9582 55.6349 43.8744 53.1168 43.8744 53.1168C41.3785 52.3698 40.6706 57.7237 40.6706 57.7237C40.6706 57.7237 40.6706 58.1293 40.7045 58.785C40.2636 58.869 39.8677 59.1085 39.5892 59.4598C39.3106 59.811 39.1679 60.2506 39.1873 60.6981C39.1873 61.7662 39.9594 62.6281 40.9145 62.6281C41.0111 62.6276 41.1074 62.6186 41.2024 62.6011L41.6494 65.1158C41.7341 65.6802 42.2658 67.0153 42.7433 67.333C43.7593 68.009 45.368 68.9723 46.577 68.9723C47.6201 68.9723 49.0831 68.1138 50.1635 67.5291C50.7663 67.1911 51.4301 65.8965 51.4877 65.2172L51.7688 62.6754C51.9275 62.6678 52.0858 62.652 52.2429 62.6281C53.1945 62.6281 53.9701 61.7662 53.9701 60.6981C53.9894 60.2506 53.8468 59.811 53.5682 59.4598C53.2896 59.1085 52.8938 58.869 52.4529 58.785Z" fill="white" stroke="#263238" stroke-width="0.87381" stroke-linecap="round" stroke-linejoin="round"/>
<path d="M39.8504 57.1626H39.4033V58.7512H39.8504V57.1626Z" fill="white" stroke="#263238" stroke-width="0.87381" stroke-linecap="round" stroke-linejoin="round"/>
<path d="M53.5095 57.1626H53.0625V58.7512H53.5095V57.1626Z" fill="white" stroke="#263238" stroke-width="0.87381" stroke-linecap="round" stroke-linejoin="round"/>
<path d="M46.4543 50.2235C44.5531 50.2231 42.7259 50.9588 41.3571 52.2757C39.9883 53.5926 39.1847 55.3881 39.1154 57.2843C39.1141 57.3196 39.1199 57.3549 39.1326 57.3878C39.1453 57.4208 39.1646 57.4509 39.1893 57.4762C39.214 57.5015 39.2436 57.5215 39.2763 57.535C39.3091 57.5485 39.3442 57.5552 39.3796 57.5547H39.8537C39.9226 57.5548 39.9888 57.5279 40.0382 57.4799C40.0875 57.4319 40.1161 57.3666 40.1179 57.2978C40.1933 55.6712 40.8938 54.1361 42.0738 53.0116C43.2539 51.8871 44.8227 51.2596 46.4543 51.2596C48.0859 51.2596 49.6548 51.8871 50.8348 53.0116C52.0149 54.1361 52.7154 55.6712 52.7908 57.2978C52.7934 57.3669 52.8228 57.4322 52.8727 57.4801C52.9226 57.528 52.9891 57.5548 53.0583 57.5547H53.5291C53.5646 57.5552 53.5999 57.5485 53.6328 57.535C53.6657 57.5216 53.6955 57.5016 53.7205 57.4764C53.7455 57.4511 53.7651 57.4211 53.7782 57.3881C53.7913 57.3551 53.7976 57.3198 53.7966 57.2843C53.7265 55.3878 52.9222 53.5923 51.5529 52.2755C50.1835 50.9587 48.3559 50.2231 46.4543 50.2235Z" fill="white" stroke="#263238" stroke-width="0.87381" stroke-linecap="round" stroke-linejoin="round"/>
<path d="M40.6131 58.1801H40.5115C39.912 58.2029 39.3447 58.4567 38.9287 58.8881C38.5127 59.3195 38.2803 59.8949 38.2803 60.4937C38.2803 61.0924 38.5127 61.6679 38.9287 62.0993C39.3447 62.5306 39.912 62.7844 40.5115 62.8073H40.6131V58.1801Z" fill="#263238" stroke="#263238" stroke-width="0.87381" stroke-miterlimit="10"/>
<path d="M41.1646 60.5021C41.1646 62.2158 41.2391 63.3312 40.6465 63.3312C40.0538 63.3312 39.8506 62.2158 39.8506 60.5021C39.8506 58.7885 40.0538 57.6697 40.6465 57.6697C41.2391 57.6697 41.1646 58.7716 41.1646 60.5021Z" fill="white" stroke="#263238" stroke-width="0.87381" stroke-linecap="round" stroke-linejoin="round"/>
<path d="M52.2998 58.1801H52.4014C53.0009 58.2029 53.5682 58.4567 53.9842 58.8881C54.4002 59.3195 54.6327 59.8949 54.6327 60.4937C54.6327 61.0924 54.4002 61.6679 53.9842 62.0993C53.5682 62.5306 53.0009 62.7844 52.4014 62.8073H52.2998V58.1801Z" fill="#263238" stroke="#263238" stroke-width="0.87381" stroke-miterlimit="10"/>
<path d="M51.7449 60.5021C51.7449 62.2158 51.6737 63.3312 52.2664 63.3312C52.8591 63.3312 53.0623 62.2158 53.0623 60.5021C53.0623 58.7885 52.8591 57.6697 52.2664 57.6697C51.6737 57.6697 51.7449 58.7716 51.7449 60.5021Z" fill="white" stroke="#263238" stroke-width="0.87381" stroke-linecap="round" stroke-linejoin="round"/>
<path d="M42.4922 60.9178C42.4922 60.9178 43.4574 62.1042 45.2659 61.168" stroke="#263238" stroke-width="0.87381" stroke-linecap="round" stroke-linejoin="round"/>
<path d="M45.2656 65.5315C45.6648 65.8209 46.1455 65.9767 46.6389 65.9767C47.1323 65.9767 47.613 65.8209 48.0122 65.5315" stroke="#263238" stroke-width="0.75" stroke-linecap="round" stroke-linejoin="round"/>
<path d="M42.2246 59.3259C42.2246 59.3259 43.9755 57.9942 45.5334 59.3259" stroke="#263238" stroke-width="0.87381" stroke-linecap="round" stroke-linejoin="round"/>
<path d="M50.8234 59.3698C50.8234 59.3698 49.0725 58.0178 47.5146 59.3698" stroke="#263238" stroke-width="0.87381" stroke-linecap="round" stroke-linejoin="round"/>
<path d="M47.911 63.6658C47.911 63.6658 48.0668 64.531 46.4784 64.5108C46.0889 64.5108 45.3811 64.2336 45.3574 63.6658" stroke="#263238" stroke-width="0.75" stroke-linecap="round" stroke-linejoin="round"/>
<path d="M42.8721 61.2321C43.0177 61.5194 43.3462 61.8506 44.0811 61.8675C44.816 61.8844 44.9447 61.5937 44.9583 61.3098C44.6308 61.4684 44.2692 61.5443 43.9054 61.5307C43.5417 61.5172 43.1868 61.4146 42.8721 61.2321Z" fill="#263238"/>
<path d="M50.5696 60.9178C50.5696 60.9178 49.6044 62.1042 47.7959 61.168" stroke="#263238" stroke-width="0.87381" stroke-linecap="round" stroke-linejoin="round"/>
<path d="M50.1907 61.2321C50.0451 61.5194 49.7165 61.8506 48.9816 61.8675C48.2467 61.8844 48.118 61.5937 48.1045 61.3098C48.4319 61.4687 48.7935 61.5447 49.1573 61.5312C49.5211 61.5176 49.876 61.4149 50.1907 61.2321Z" fill="#263238"/>
<path d="M43.4743 48.3137C43.4743 48.3137 42.5836 48.8106 42.6819 50.2234C42.6819 50.2234 42.3703 49.2703 41.2256 49.686" stroke="#263238" stroke-width="0.87381" stroke-linecap="round" stroke-linejoin="round"/>
<path d="M46.6544 73.3461C47.8217 73.3458 48.9604 72.9856 49.9146 72.3146C50.8688 71.6436 51.5919 70.6946 51.985 69.5977C51.6768 69.5504 51.372 69.5098 51.0774 69.4692C50.6133 70.2235 49.9631 70.8465 49.1891 71.2787C48.4151 71.7108 47.543 71.9377 46.6561 71.9377C45.7692 71.9377 44.8971 71.7108 44.123 71.2787C43.349 70.8465 42.6989 70.2235 42.2348 69.4692C41.9401 69.5098 41.6353 69.5504 41.3271 69.5977C41.72 70.6941 42.4426 71.6426 43.3962 72.3136C44.3497 72.9845 45.4877 73.3451 46.6544 73.3461Z" fill="#263238" stroke="#263238" stroke-width="0.87381" stroke-linecap="round" stroke-linejoin="round"/>
<path d="M59.6963 89.5126C59.8453 86.2182 59.9954 82.9227 60.1467 79.6261" stroke="#263238" stroke-width="0.87381" stroke-linecap="round" stroke-linejoin="round"/>
<path d="M59.8077 55.841V52.2008C59.8077 52.0215 59.7364 51.8496 59.6094 51.7228C59.4823 51.596 59.3101 51.5248 59.1304 51.5248H53.4205C53.2409 51.5248 53.0686 51.596 52.9415 51.7228C52.8145 51.8496 52.7432 52.0215 52.7432 52.2008V55.841C52.7432 56.0203 52.8145 56.1923 52.9415 56.319C53.0686 56.4458 53.2409 56.517 53.4205 56.517H55.4119L55.2527 57.9028H56.2687V59.2109L57.4845 57.0781H56.4854L56.5904 56.517H59.127C59.2163 56.5175 59.3047 56.5003 59.3873 56.4666C59.4698 56.4328 59.5449 56.3831 59.6082 56.3202C59.6714 56.2574 59.7216 56.1828 59.7559 56.1005C59.7901 56.0183 59.8077 55.9301 59.8077 55.841Z" fill="white" stroke="#263238" stroke-width="0.87381" stroke-linecap="round" stroke-linejoin="round"/>
<path d="M53.8477 52.7855H57.7186" stroke="#263238" stroke-width="0.87381" stroke-linecap="round" stroke-linejoin="round"/>
<path d="M53.8477 53.8164H58.7143" stroke="#263238" stroke-width="0.87381" stroke-linecap="round" stroke-linejoin="round"/>
<path d="M53.8477 54.8473H57.9659" stroke="#263238" stroke-width="0.87381" stroke-linecap="round" stroke-linejoin="round"/>
<path d="M77.3512 97.2426C77.3512 98.3175 75.6578 98.9901 73.5784 98.9901C71.499 98.9901 69.8057 98.3141 69.8057 97.2426C69.8057 96.1712 71.499 95.2924 73.5784 95.2924C75.6578 95.2924 77.3512 96.1644 77.3512 97.2426Z" fill="white" stroke="#263238" stroke-width="0.87381" stroke-linecap="round" stroke-linejoin="round"/>
<path d="M71.1367 98.6014C71.2383 98.5777 71.3196 98.0099 70.4018 97.5874C69.7651 97.2967 69.7482 96.9891 70.1139 96.6105C70.4797 96.232 71.1029 95.9143 71.5838 96.0528C72.3661 96.2759 72.8842 97.9017 73.2331 97.5502C73.758 97.415 73.1247 95.9244 72.1866 95.4343C73.8799 95.8534 73.9612 97.8003 74.7401 97.6448C75.3362 97.5299 74.3066 95.5965 73.4159 95.0253C73.9868 95.2908 74.486 95.6882 74.8722 96.1847C75.4378 97.006 75.5021 97.2832 75.8882 97.1649C76.3894 97.006 75.1939 95.2011 75.0449 95.005C75.7968 95.3025 75.939 95.9312 76.1693 96.1847C76.3996 96.4382 76.508 96.8607 76.8263 96.695C77.1447 96.5294 76.85 95.9413 76.6367 95.5965C75.6207 93.9572 73.9273 93.6835 72.3153 93.8863C71.0419 94.0485 69.5789 94.5825 68.8033 95.5965C68.606 95.8492 68.49 96.1557 68.4707 96.4755C68.4513 96.7953 68.5295 97.1134 68.6949 97.3879C68.9659 97.9592 69.9345 98.8718 71.1367 98.6014Z" fill="white" stroke="#263238" stroke-width="0.87381" stroke-linecap="round" stroke-linejoin="round"/>
<path d="M78.3398 99.0037H16.015C15.8298 99.0037 15.6797 99.1535 15.6797 99.3383V99.8757C15.6797 100.06 15.8298 100.21 16.015 100.21H78.3398C78.525 100.21 78.6751 100.06 78.6751 99.8757V99.3383C78.6751 99.1535 78.525 99.0037 78.3398 99.0037Z" fill="#BFBFBF" stroke="#263238" stroke-width="0.87381" stroke-miterlimit="10"/>
<path d="M17.8442 99.0036L13.2586 85.0949C13.2413 85.0408 13.2368 84.9833 13.2455 84.9272C13.2542 84.871 13.2757 84.8175 13.3085 84.7711C13.3413 84.7246 13.3845 84.6863 13.4346 84.6592C13.4847 84.6321 13.5403 84.617 13.5973 84.615H28.082L33.2399 99.0036H17.8442Z" fill="#263238"/>
<path d="M28.4779 84.615L33.2192 98.1958H45.9192V98.6724C45.9192 98.7621 45.8836 98.848 45.8201 98.9114C45.7565 98.9748 45.6704 99.0104 45.5806 99.0104H32.4064L27.8446 85.1761C27.8244 85.1139 27.8191 85.0479 27.8292 84.9834C27.8393 84.9188 27.8645 84.8576 27.9028 84.8046C27.9411 84.7516 27.9913 84.7083 28.0494 84.6783C28.1076 84.6483 28.172 84.6324 28.2375 84.6319L28.4779 84.615Z" fill="white" stroke="#263238" stroke-width="0.87381" stroke-linecap="round" stroke-linejoin="round"/>
<path d="M21.7519 91.8109C21.7072 91.5747 21.5969 91.3557 21.4336 91.1789C21.5045 91.0953 21.5934 91.0287 21.6937 90.9843C21.794 90.9398 21.903 90.9185 22.0127 90.922C22.2687 90.9329 22.5141 91.0269 22.7116 91.1898C22.9091 91.3527 23.0478 91.5756 23.1066 91.8245C23.1379 91.9322 23.1431 92.0459 23.1216 92.1561C23.1001 92.2662 23.0527 92.3697 22.9831 92.4579C22.9136 92.5461 22.8241 92.6165 22.7219 92.6633C22.6196 92.7101 22.5077 92.7319 22.3954 92.7269C22.1357 92.7209 21.8863 92.624 21.691 92.4531C21.7887 92.2535 21.8103 92.0253 21.7519 91.8109Z" fill="white"/>
<path d="M51.0975 99.0037H55.7271C56.3438 98.553 56.8436 97.9617 57.1847 97.2791C57.5258 96.5964 57.6984 95.8422 57.688 95.0795V92.9061C57.688 92.8236 57.6717 92.7418 57.64 92.6656C57.6084 92.5893 57.562 92.52 57.5035 92.4616C57.445 92.4032 57.3755 92.3569 57.2991 92.3253C57.2227 92.2937 57.1408 92.2775 57.0581 92.2775H49.7835C49.7009 92.2775 49.6192 92.2937 49.5429 92.3254C49.4667 92.357 49.3975 92.4034 49.3393 92.4618C49.281 92.5202 49.235 92.5896 49.2037 92.6658C49.1724 92.7421 49.1565 92.8237 49.1569 92.9061V95.0795C49.1439 95.8405 49.3132 96.5937 49.6508 97.2763C49.9883 97.9588 50.4843 98.5511 51.0975 99.0037Z" fill="white" stroke="#263238" stroke-width="0.87381" stroke-linecap="round" stroke-linejoin="round"/>
<path d="M59.0026 93.2036C58.8075 93.081 58.584 93.011 58.3537 93.0003C58.1234 92.9897 57.8942 93.0387 57.6886 93.1428V93.9269C57.8892 93.8934 58.0952 93.9342 58.2677 94.0418C58.9214 94.4204 58.7825 95.1944 58.3253 95.9819C58.1162 96.4283 57.7566 96.7872 57.3093 96.9959C57.1757 97.3211 57.0064 97.6306 56.8047 97.9187C57.6751 98.108 58.4709 97.3711 59.0941 96.2963C59.8256 95.0322 60.0457 93.8052 59.0026 93.2036Z" fill="white" stroke="#263238" stroke-width="0.87381" stroke-linecap="round" stroke-linejoin="round"/>
<path d="M53.5093 88.8534C53.6776 88.306 53.7609 87.7361 53.7565 87.1634C53.7565 83.9862 50.7627 83.6111 50.7627 80.0012" stroke="#263238" stroke-width="0.87381" stroke-linecap="round" stroke-linejoin="round"/>
<path d="M51.3857 91.6555C51.928 91.3185 52.3968 90.8759 52.7641 90.3542" stroke="#263238" stroke-width="0.87381" stroke-linecap="round" stroke-linejoin="round"/>
<path d="M53.2492 83.0298C53.0814 82.7195 53.0116 82.3661 53.0488 82.0157" stroke="#263238" stroke-width="0.87381" stroke-linecap="round" stroke-linejoin="round"/>
<path d="M55.5813 87.4913C55.4289 86.4976 54.8566 85.5647 54.291 84.7163" stroke="#263238" stroke-width="0.87381" stroke-linecap="round" stroke-linejoin="round"/>
<path d="M53.8477 91.6927C53.8477 91.6927 54.8366 91.277 55.3784 89.4011" stroke="#263238" stroke-width="0.87381" stroke-linecap="round" stroke-linejoin="round"/>
<path d="M59.8967 117.834H34.5374C32.6857 117.834 31.1846 119.332 31.1846 121.18V137.911C31.1846 139.759 32.6857 141.257 34.5374 141.257H59.8967C61.7484 141.257 63.2495 139.759 63.2495 137.911V121.18C63.2495 119.332 61.7484 117.834 59.8967 117.834Z" fill="white" stroke="#263238" stroke-width="0.87381" stroke-miterlimit="10"/>
<path d="M39.2002 133.949L39.5829 140.632L39.6269 140.689C39.93 141.095 40.3249 141.424 40.7794 141.648C41.234 141.873 41.7353 141.987 42.2425 141.982C42.7497 141.976 43.2484 141.851 43.6979 141.616C44.1473 141.382 44.5349 141.044 44.8288 140.632L44.9711 133.949H39.2002Z" fill="white" stroke="#263238" stroke-width="0.87381" stroke-linecap="round" stroke-linejoin="round"/>
<path d="M46.2383 147.162C43.6693 147.611 41.0416 147.611 38.4727 147.162C38.2329 146.925 38.0266 146.657 37.8597 146.364C37.6 145.903 37.4533 145.387 37.4315 144.858C37.4098 144.33 37.5135 143.803 37.7344 143.322L39.2821 140.568L45.4153 140.635L46.7971 143.15C47.1287 143.747 47.2715 144.43 47.2069 145.109C47.1422 145.788 46.873 146.432 46.4347 146.956C46.3729 147.028 46.3073 147.097 46.2383 147.162Z" fill="#BFBFBF" stroke="#263238" stroke-width="0.87381" stroke-miterlimit="10"/>
<path d="M44.7305 143.694C45.1099 143.861 45.4718 144.065 45.8108 144.302L44.7305 143.694Z" fill="#BFBFBF"/>
<path d="M44.7305 143.694C45.1099 143.861 45.4718 144.065 45.8108 144.302" stroke="#263238" stroke-width="0.87381" stroke-miterlimit="10"/>
<path d="M38.9463 144.302C39.6195 143.842 40.3774 143.52 41.1762 143.355C41.9749 143.19 42.7987 143.184 43.5996 143.339" fill="#BFBFBF"/>
<path d="M38.9463 144.302C39.6195 143.842 40.3774 143.52 41.1762 143.355C41.9749 143.19 42.7987 143.184 43.5996 143.339" stroke="#263238" stroke-width="0.87381" stroke-miterlimit="10"/>
<path d="M35.8981 106.372L38.6074 137.36H45.6144C45.6144 137.36 46.3087 118.432 46.7489 106.142C46.7777 105.413 46.6584 104.686 46.3982 104.004C46.1379 103.322 45.7421 102.7 45.2346 102.175C44.7271 101.65 44.1184 101.233 43.4451 100.948C42.7718 100.664 42.0478 100.519 41.3167 100.521C40.5662 100.519 39.8234 100.672 39.1353 100.971C38.4472 101.27 37.8288 101.708 37.3194 102.258C36.8099 102.808 36.4205 103.458 36.1759 104.166C35.9312 104.874 35.8366 105.626 35.8981 106.372Z" fill="#263238"/>
<path d="M42.8712 100.741C42.361 100.591 41.8316 100.517 41.2998 100.521V100.521C40.5507 100.521 39.8097 100.676 39.1236 100.976C38.4375 101.276 37.8212 101.715 37.3136 102.265C36.806 102.814 36.4182 103.463 36.1745 104.17C35.9309 104.877 35.8367 105.627 35.8981 106.372L36.8599 117.834" stroke="white" stroke-width="0.87381" stroke-linecap="round" stroke-linejoin="round"/>
<path d="M45.7979 102.853C45.5203 102.46 45.1937 102.103 44.8259 101.792C44.8259 101.792 44.4025 101.454 44.2129 101.346" stroke="white" stroke-width="0.87381" stroke-linecap="round" stroke-linejoin="round"/>
<path d="M46.2852 117.834C46.424 113.997 46.6408 109.509 46.7593 106.142C46.7917 105.306 46.6294 104.475 46.2852 103.712" stroke="white" stroke-width="0.87381" stroke-linecap="round" stroke-linejoin="round"/>
<path d="M50.5996 133.949L50.9823 140.632L51.0263 140.689C51.3294 141.095 51.7243 141.424 52.1788 141.648C52.6334 141.873 53.1347 141.987 53.6419 141.982C54.1491 141.976 54.6478 141.851 55.0973 141.616C55.5467 141.382 55.9343 141.044 56.2282 140.632L56.3705 133.949H50.5996Z" fill="white" stroke="#263238" stroke-width="0.87381" stroke-linecap="round" stroke-linejoin="round"/>
<path d="M57.6374 147.162C55.0685 147.611 52.4408 147.611 49.8718 147.162C49.6325 146.925 49.4274 146.657 49.2622 146.364C49.0012 145.903 48.8535 145.387 48.8311 144.859C48.8087 144.33 48.9124 143.803 49.1335 143.322L50.6846 140.568L56.8145 140.635L58.1962 143.15C58.5278 143.747 58.6707 144.43 58.606 145.109C58.5413 145.788 58.2721 146.432 57.8339 146.956C57.772 147.028 57.7065 147.097 57.6374 147.162Z" fill="#BFBFBF" stroke="#263238" stroke-width="0.87381" stroke-miterlimit="10"/>
<path d="M56.1299 143.694C56.5097 143.86 56.8716 144.064 57.2102 144.302L56.1299 143.694Z" fill="#BFBFBF"/>
<path d="M56.1299 143.694C56.5097 143.86 56.8716 144.064 57.2102 144.302" stroke="#263238" stroke-width="0.87381" stroke-miterlimit="10"/>
<path d="M50.3525 144.302C51.0258 143.843 51.7837 143.521 52.5825 143.355C53.3812 143.19 54.2049 143.185 55.0058 143.339" fill="#BFBFBF"/>
<path d="M50.3525 144.302C51.0258 143.843 51.7837 143.521 52.5825 143.355C53.3812 143.19 54.2049 143.185 55.0058 143.339" stroke="#263238" stroke-width="0.87381" stroke-miterlimit="10"/>
<path d="M47.3082 106.372L50.0176 137.36H57.0246C57.0246 137.36 57.7189 118.432 58.1625 106.142C58.189 105.412 58.0672 104.683 57.8044 104C57.5416 103.318 57.1433 102.695 56.6334 102.17C56.1235 101.645 55.5124 101.229 54.837 100.945C54.1617 100.662 53.4358 100.518 52.7032 100.521C51.9547 100.522 51.2144 100.678 50.5291 100.978C49.8438 101.279 49.2284 101.717 48.7215 102.267C48.2146 102.817 47.8274 103.465 47.5841 104.172C47.3409 104.878 47.2469 105.628 47.3082 106.372Z" fill="#263238"/>
<path d="M54.9384 100.988C54.235 100.676 53.473 100.517 52.7032 100.521C51.9547 100.522 51.2144 100.678 50.5291 100.978C49.8438 101.279 49.2284 101.718 48.7215 102.267C48.2146 102.817 47.8274 103.465 47.5841 104.172C47.3409 104.878 47.2469 105.628 47.3082 106.372L48.3242 117.834" stroke="white" stroke-width="0.87381" stroke-linecap="round" stroke-linejoin="round"/>
<path d="M57.1975 102.853C56.9218 102.458 56.595 102.102 56.2256 101.792" stroke="white" stroke-width="0.87381" stroke-linecap="round" stroke-linejoin="round"/>
<path d="M57.9798 117.834C58.1186 113.997 58.0407 109.509 58.1626 106.142C58.1901 105.403 58.0656 104.665 57.7969 103.976" stroke="white" stroke-width="0.87381" stroke-linecap="round" stroke-linejoin="round"/>
<path d="M140.97 53.6305V39.208C140.97 38.5106 140.693 37.8417 140.199 37.3486C139.704 36.8554 139.034 36.5784 138.335 36.5784H115.665C114.966 36.5784 114.296 36.8554 113.802 37.3486C113.308 37.8417 113.03 38.5106 113.03 39.208V53.6305C113.03 54.3279 113.308 54.9967 113.802 55.4899C114.296 55.9831 114.966 56.2601 115.665 56.2601H123.559L122.936 61.7492H127V66.924L131.823 58.474H127.867L128.284 56.2567H138.335C139.034 56.2567 139.703 55.9801 140.197 55.4877C140.691 54.9953 140.969 54.3273 140.97 53.6305Z" fill="white" stroke="#263238" stroke-width="1.02547" stroke-linecap="round" stroke-linejoin="round"/>
<path d="M117.358 41.5132H132.686" stroke="#263238" stroke-width="1.02547" stroke-linecap="round" stroke-linejoin="round"/>
<path d="M117.358 45.5996H136.642" stroke="#263238" stroke-width="1.02547" stroke-linecap="round" stroke-linejoin="round"/>
<path d="M117.358 49.6859H133.675" stroke="#263238" stroke-width="1.02547" stroke-linecap="round" stroke-linejoin="round"/>
<path d="M158.286 115.386L171.982 119.943L168.585 123.336L174.925 129.663L161.229 125.107L164.626 121.714L158.286 115.386Z" fill="#E8E8E8" stroke="#263238" stroke-width="1.02547" stroke-linecap="round" stroke-linejoin="round"/>
<path d="M95.7139 115.386L82.0182 119.943L85.415 123.336L79.0752 129.663L92.7709 125.107L89.374 121.714L95.7139 115.386Z" fill="#E8E8E8" stroke="#263238" stroke-width="1.02547" stroke-linecap="round" stroke-linejoin="round"/>
<path d="M126.618 10.8633L120.159 23.7546H124.968V32.7048L131.423 19.8135H126.618V10.8633Z" fill="#E8E8E8" stroke="#263238" stroke-width="1.02547" stroke-linecap="round" stroke-linejoin="round"/>
</svg>
