<svg width="260" height="260" viewBox="0 0 260 260" fill="none" xmlns="http://www.w3.org/2000/svg">
<path d="M227.931 87.022H181.485V192.384H227.931V87.022Z" stroke="#263238" stroke-width="0.75" stroke-linecap="round" stroke-linejoin="round"/>
<path d="M223.855 91.0988H185.562V188.308H223.855V91.0988Z" stroke="#263238" stroke-width="0.75" stroke-linecap="round" stroke-linejoin="round"/>
<path d="M189.914 134.02L188.869 135.834" stroke="#263238" stroke-width="0.75" stroke-linecap="round" stroke-linejoin="round"/>
<path d="M200.907 114.988L191.121 131.94" stroke="#263238" stroke-width="0.75" stroke-linecap="round" stroke-linejoin="round"/>
<path d="M209.887 99.4292L202.472 112.273" stroke="#263238" stroke-width="0.75" stroke-linecap="round" stroke-linejoin="round"/>
<path d="M211.458 96.7148L210.667 98.0772" stroke="#263238" stroke-width="0.75" stroke-linecap="round" stroke-linejoin="round"/>
<path d="M193.029 180.222L192.14 181.761" stroke="#263238" stroke-width="0.75" stroke-linecap="round" stroke-linejoin="round"/>
<path d="M195.088 176.654L194.147 178.292" stroke="#263238" stroke-width="0.75" stroke-linecap="round" stroke-linejoin="round"/>
<path d="M207.646 154.903L197.106 173.165" stroke="#263238" stroke-width="0.75" stroke-linecap="round" stroke-linejoin="round"/>
<path d="M216.98 138.736L208.728 153.036" stroke="#263238" stroke-width="0.75" stroke-linecap="round" stroke-linejoin="round"/>
<path d="M219.024 135.2L218.208 136.614" stroke="#263238" stroke-width="0.75" stroke-linecap="round" stroke-linejoin="round"/>
<path d="M204.708 168.589L197.106 181.761" stroke="#263238" stroke-width="0.75" stroke-linecap="round" stroke-linejoin="round"/>
<path d="M214.432 151.746L205.816 166.67" stroke="#263238" stroke-width="0.75" stroke-linecap="round" stroke-linejoin="round"/>
<path d="M216.455 148.247L215.436 150.01" stroke="#263238" stroke-width="0.75" stroke-linecap="round" stroke-linejoin="round"/>
<path d="M188.869 147.654L187.715 149.656" stroke="#263238" stroke-width="0.75" stroke-linecap="round" stroke-linejoin="round"/>
<path d="M198.973 130.156L189.795 146.052" stroke="#263238" stroke-width="0.75" stroke-linecap="round" stroke-linejoin="round"/>
<path d="M211.583 108.316L200.054 128.279" stroke="#263238" stroke-width="0.75" stroke-linecap="round" stroke-linejoin="round"/>
<path d="M219.159 95.1912L212.472 106.777" stroke="#263238" stroke-width="0.75" stroke-linecap="round" stroke-linejoin="round"/>
<path d="M78.5148 87.022H32.0684V192.384H78.5148V87.022Z" stroke="#263238" stroke-width="0.75" stroke-linecap="round" stroke-linejoin="round"/>
<path d="M74.4378 91.0988H36.145V188.308H74.4378V91.0988Z" stroke="#263238" stroke-width="0.75" stroke-linecap="round" stroke-linejoin="round"/>
<path d="M40.4978 134.02L39.4526 135.834" stroke="#263238" stroke-width="0.75" stroke-linecap="round" stroke-linejoin="round"/>
<path d="M51.4851 114.988L41.6987 131.94" stroke="#263238" stroke-width="0.75" stroke-linecap="round" stroke-linejoin="round"/>
<path d="M60.4709 99.4292L53.0557 112.273" stroke="#263238" stroke-width="0.75" stroke-linecap="round" stroke-linejoin="round"/>
<path d="M62.0357 96.7148L61.2505 98.0772" stroke="#263238" stroke-width="0.75" stroke-linecap="round" stroke-linejoin="round"/>
<path d="M43.6123 180.222L42.7231 181.761" stroke="#263238" stroke-width="0.75" stroke-linecap="round" stroke-linejoin="round"/>
<path d="M45.6715 176.654L44.7251 178.292" stroke="#263238" stroke-width="0.75" stroke-linecap="round" stroke-linejoin="round"/>
<path d="M58.2297 154.903L47.6841 173.165" stroke="#263238" stroke-width="0.75" stroke-linecap="round" stroke-linejoin="round"/>
<path d="M67.5637 138.736L59.3062 153.036" stroke="#263238" stroke-width="0.75" stroke-linecap="round" stroke-linejoin="round"/>
<path d="M69.6073 135.2L68.7856 136.614" stroke="#263238" stroke-width="0.75" stroke-linecap="round" stroke-linejoin="round"/>
<path d="M55.2917 168.589L47.6841 181.761" stroke="#263238" stroke-width="0.75" stroke-linecap="round" stroke-linejoin="round"/>
<path d="M65.0153 151.746L56.3989 166.67" stroke="#263238" stroke-width="0.75" stroke-linecap="round" stroke-linejoin="round"/>
<path d="M67.033 148.247L66.019 150.01" stroke="#263238" stroke-width="0.75" stroke-linecap="round" stroke-linejoin="round"/>
<path d="M39.4521 147.654L38.2925 149.656" stroke="#263238" stroke-width="0.75" stroke-linecap="round" stroke-linejoin="round"/>
<path d="M49.5506 130.156L40.3726 146.052" stroke="#263238" stroke-width="0.75" stroke-linecap="round" stroke-linejoin="round"/>
<path d="M62.1609 108.316L50.6377 128.279" stroke="#263238" stroke-width="0.75" stroke-linecap="round" stroke-linejoin="round"/>
<path d="M69.737 95.1912L63.0498 106.777" stroke="#263238" stroke-width="0.75" stroke-linecap="round" stroke-linejoin="round"/>
<path d="M15.3398 236.304H244.66" stroke="#263238" stroke-linecap="round" stroke-linejoin="round"/>
<path d="M94.9985 195.109H91.0205V208.634H94.9985V195.109Z" fill="white"/>
<path opacity="0.2" d="M94.9985 195.109H91.0205V208.634H94.9985V195.109Z" fill="black"/>
<path d="M98.9819 196.596H95.0039V208.634H98.9819V196.596Z" fill="white"/>
<path d="M103.948 196.596H101.14V208.634H103.948V196.596Z" fill="white"/>
<path opacity="0.9" d="M103.948 196.596H101.14V208.634H103.948V196.596Z" fill="white"/>
<path d="M101.145 195.328H98.5967V208.64H101.145V195.328Z" fill="white"/>
<path opacity="0.1" d="M101.145 195.328H98.5967V208.64H101.145V195.328Z" fill="black"/>
<path d="M107.931 195.109H103.953V208.634H107.931V195.109Z" fill="white"/>
<path d="M111.909 196.596H107.931V208.634H111.909V196.596Z" fill="white"/>
<path opacity="0.2" d="M111.909 196.596H107.931V208.634H111.909V196.596Z" fill="#263238"/>
<path d="M116.88 196.596H114.072V208.634H116.88V196.596Z" fill="white"/>
<path opacity="0.8" d="M116.88 196.596H114.072V208.634H116.88V196.596Z" fill="white"/>
<path d="M114.072 195.328H111.524V208.64H114.072V195.328Z" fill="white"/>
<path opacity="0.1" d="M114.072 195.328H111.524V208.64H114.072V195.328Z" fill="black"/>
<path d="M135.86 208.64H139.838V195.114H135.86V208.64Z" fill="white"/>
<path opacity="0.2" d="M135.86 208.64H139.838V195.114H135.86V208.64Z" fill="black"/>
<path d="M131.877 208.64H135.855V196.602H131.877V208.64Z" fill="white"/>
<path d="M126.911 208.64H129.719V196.602H126.911V208.64Z" fill="white"/>
<path opacity="0.9" d="M126.911 208.64H129.719V196.602H126.911V208.64Z" fill="white"/>
<path d="M129.714 208.634H132.262V195.322H129.714V208.634Z" fill="white"/>
<path opacity="0.1" d="M129.714 208.634H132.262V195.322H129.714V208.634Z" fill="black"/>
<path d="M122.928 208.64H126.906V195.114H122.928V208.64Z" fill="white"/>
<path d="M118.95 208.64H122.928V196.602H118.95V208.64Z" fill="white"/>
<path opacity="0.2" d="M118.95 208.64H122.928V196.602H118.95V208.64Z" fill="#263238"/>
<path d="M116.786 208.634H119.334V195.322H116.786V208.634Z" fill="white"/>
<path opacity="0.1" d="M116.786 208.634H119.334V195.322H116.786V208.634Z" fill="black"/>
<path d="M158.792 208.64H162.77V195.114H158.792V208.64Z" fill="white"/>
<path opacity="0.2" d="M158.792 208.64H162.77V195.114H158.792V208.64Z" fill="black"/>
<path d="M154.809 208.64H158.787V196.602H154.809V208.64Z" fill="white"/>
<path d="M149.843 208.64H152.651V196.602H149.843V208.64Z" fill="white"/>
<path opacity="0.9" d="M149.843 208.64H152.651V196.602H149.843V208.64Z" fill="white"/>
<path d="M152.646 208.634H155.194V195.322H152.646V208.634Z" fill="white"/>
<path opacity="0.1" d="M152.646 208.634H155.194V195.322H152.646V208.634Z" fill="black"/>
<path d="M145.86 208.64H149.838V195.114H145.86V208.64Z" fill="white"/>
<path d="M165.36 208.162L167.973 207.461L164.456 194.342L161.843 195.042L165.36 208.162Z" fill="white"/>
<path d="M141.882 208.64H145.86V196.602H141.882V208.64Z" fill="white"/>
<path opacity="0.2" d="M141.882 208.64H145.86V196.602H141.882V208.64Z" fill="#263238"/>
<path d="M139.719 208.634H142.267V195.322H139.719V208.634Z" fill="white"/>
<path opacity="0.1" d="M139.719 208.634H142.267V195.322H139.719V208.634Z" fill="black"/>
<path d="M166.692 226.209L169.364 225.493L165.863 212.428L163.191 213.144L166.692 226.209Z" fill="white"/>
<path opacity="0.2" d="M166.692 226.209L169.364 225.493L165.863 212.428L163.191 213.144L166.692 226.209Z" fill="black"/>
<path d="M159.827 226.075H163.805V214.037H159.827V226.075Z" fill="white"/>
<path d="M154.85 226.075H157.658V214.037H154.85V226.075Z" fill="white"/>
<path opacity="0.9" d="M154.85 226.075H157.658V214.037H154.85V226.075Z" fill="white"/>
<path d="M157.659 226.08H160.207V212.768H157.659V226.08Z" fill="white"/>
<path opacity="0.1" d="M157.659 226.08H160.207V212.768H157.659V226.08Z" fill="black"/>
<path d="M150.877 226.08H154.855V212.555H150.877V226.08Z" fill="white"/>
<path d="M146.895 226.075H150.873V214.037H146.895V226.075Z" fill="white"/>
<path opacity="0.2" d="M146.895 226.075H150.873V214.037H146.895V226.075Z" fill="#263238"/>
<path d="M141.928 226.075H144.736V214.037H141.928V226.075Z" fill="white"/>
<path opacity="0.8" d="M141.928 226.075H144.736V214.037H141.928V226.075Z" fill="white"/>
<path d="M144.731 226.08H147.279V212.768H144.731V226.08Z" fill="white"/>
<path opacity="0.1" d="M144.731 226.08H147.279V212.768H144.731V226.08Z" fill="black"/>
<path d="M122.949 212.555H118.971V226.08H122.949V212.555Z" fill="white"/>
<path opacity="0.2" d="M122.949 212.555H118.971V226.08H122.949V212.555Z" fill="black"/>
<path d="M126.926 214.042H122.948V226.08H126.926V214.042Z" fill="white"/>
<path d="M131.898 214.042H129.09V226.08H131.898V214.042Z" fill="white"/>
<path opacity="0.9" d="M131.898 214.042H129.09V226.08H131.898V214.042Z" fill="white"/>
<path d="M129.09 212.768H126.542V226.08H129.09V212.768Z" fill="white"/>
<path opacity="0.1" d="M129.09 212.768H126.542V226.08H129.09V212.768Z" fill="black"/>
<path d="M135.875 212.555H131.897V226.08H135.875V212.555Z" fill="white"/>
<path d="M139.854 214.042H135.876V226.08H139.854V214.042Z" fill="white"/>
<path opacity="0.2" d="M139.854 214.042H135.876V226.08H139.854V214.042Z" fill="#263238"/>
<path d="M142.017 212.768H139.469V226.08H142.017V212.768Z" fill="white"/>
<path opacity="0.1" d="M142.017 212.768H139.469V226.08H142.017V212.768Z" fill="black"/>
<path d="M100.017 212.555H96.0386V226.08H100.017V212.555Z" fill="white"/>
<path opacity="0.2" d="M100.017 212.555H96.0386V226.08H100.017V212.555Z" fill="black"/>
<path d="M103.995 214.042H100.017V226.08H103.995V214.042Z" fill="white"/>
<path d="M108.966 214.042H106.158V226.08H108.966V214.042Z" fill="white"/>
<path opacity="0.9" d="M108.966 214.042H106.158V226.08H108.966V214.042Z" fill="white"/>
<path d="M106.158 212.768H103.61V226.08H106.158V212.768Z" fill="white"/>
<path opacity="0.1" d="M106.158 212.768H103.61V226.08H106.158V212.768Z" fill="black"/>
<path d="M112.944 212.555H108.966V226.08H112.944V212.555Z" fill="white"/>
<path d="M96.0305 213.133L93.4287 212.436L89.9281 225.5L92.5299 226.198L96.0305 213.133Z" fill="white"/>
<path d="M116.922 214.042H112.944V226.08H116.922V214.042Z" fill="white"/>
<path opacity="0.2" d="M116.922 214.042H112.944V226.08H116.922V214.042Z" fill="#263238"/>
<path d="M119.085 212.768H116.537V226.08H119.085V212.768Z" fill="white"/>
<path opacity="0.1" d="M119.085 212.768H116.537V226.08H119.085V212.768Z" fill="black"/>
<path d="M94.0782 236.304H90.1002L89.5542 228.608H94.6242L94.0782 236.304Z" fill="#263238"/>
<path d="M169.899 236.304H165.921L165.375 228.608H170.445L169.899 236.304Z" fill="#263238"/>
<path d="M174.283 190.003H85.7165C85.2104 190.003 84.725 190.204 84.3671 190.562C84.0092 190.92 83.8081 191.405 83.8081 191.911V228.093C83.8081 228.599 84.0092 229.084 84.3671 229.442C84.725 229.8 85.2104 230.001 85.7165 230.001H174.283C174.789 230.001 175.274 229.8 175.632 229.442C175.99 229.084 176.191 228.599 176.191 228.093V191.911C176.191 191.405 175.99 190.92 175.632 190.562C175.274 190.204 174.789 190.003 174.283 190.003ZM172.369 193.825V208.64H87.6093V193.825H172.369ZM87.6301 226.2V211.37H172.39V226.2H87.6301Z" fill="white" stroke="#263238" stroke-width="0.75" stroke-linecap="round" stroke-linejoin="round"/>
<path d="M161.189 114.005H99.907C97.9369 114.005 96.3398 115.602 96.3398 117.572V130.728C96.3398 132.698 97.9369 134.295 99.907 134.295H161.189C163.159 134.295 164.756 132.698 164.756 130.728V117.572C164.756 115.602 163.159 114.005 161.189 114.005Z" fill="#263238" stroke="#263238" stroke-linecap="round" stroke-linejoin="round"/>
<path d="M160.097 112.913H98.8152C96.8451 112.913 95.248 114.51 95.248 116.48V129.636C95.248 131.606 96.8451 133.203 98.8152 133.203H160.097C162.067 133.203 163.664 131.606 163.664 129.636V116.48C163.664 114.51 162.067 112.913 160.097 112.913Z" fill="white" stroke="#263238" stroke-linecap="round" stroke-linejoin="round"/>
<path d="M160.097 112.913H98.8152C96.8451 112.913 95.248 114.51 95.248 116.48V129.636C95.248 131.606 96.8451 133.203 98.8152 133.203H160.097C162.067 133.203 163.664 131.606 163.664 129.636V116.48C163.664 114.51 162.067 112.913 160.097 112.913Z" stroke="#263238" stroke-linecap="round" stroke-linejoin="round"/>
<path d="M110.396 129.049H101.384V117.65H107.39L110.396 120.656V129.049Z" fill="white"/>
<path opacity="0.5" d="M110.396 129.049H101.384V117.65H107.39L110.396 120.656V129.049Z" fill="white"/>
<path d="M110.396 129.048H101.384V117.65H107.39L110.396 120.656V129.048Z" stroke="#263238" stroke-linecap="round" stroke-linejoin="round"/>
<path d="M107.39 120.656H110.396L107.39 117.65V120.656Z" fill="white" stroke="#263238" stroke-linecap="round" stroke-linejoin="round"/>
<path d="M103.386 123.698C103.245 123.684 103.113 123.618 103.017 123.513C102.922 123.408 102.869 123.271 102.869 123.128C102.869 122.986 102.922 122.849 103.017 122.744C103.113 122.638 103.245 122.572 103.386 122.559H108.394C108.535 122.572 108.667 122.638 108.763 122.744C108.858 122.849 108.911 122.986 108.911 123.128C108.911 123.271 108.858 123.408 108.763 123.513C108.667 123.618 108.535 123.684 108.394 123.698H103.386Z" fill="#858585" stroke="#263238" stroke-width="0.75" stroke-linecap="round" stroke-linejoin="round"/>
<path d="M103.386 126.095C103.245 126.081 103.113 126.015 103.017 125.91C102.922 125.805 102.869 125.668 102.869 125.525C102.869 125.383 102.922 125.246 103.017 125.141C103.113 125.035 103.245 124.97 103.386 124.956H107.302C107.443 124.97 107.575 125.035 107.671 125.141C107.766 125.246 107.819 125.383 107.819 125.525C107.819 125.668 107.766 125.805 107.671 125.91C107.575 126.015 107.443 126.081 107.302 126.095H103.386Z" fill="#858585" stroke="#263238" stroke-width="0.75" stroke-linecap="round" stroke-linejoin="round"/>
<path d="M133.177 124.353H116.407C116.108 124.373 115.828 124.505 115.623 124.724C115.419 124.943 115.305 125.231 115.305 125.531C115.305 125.83 115.419 126.118 115.623 126.337C115.828 126.556 116.108 126.689 116.407 126.708H133.177V124.353Z" fill="white"/>
<path d="M116.407 126.708C116.108 126.689 115.828 126.556 115.623 126.337C115.419 126.118 115.305 125.83 115.305 125.531C115.305 125.231 115.419 124.943 115.623 124.724C115.828 124.505 116.108 124.373 116.407 124.353H156.343C156.504 124.342 156.666 124.365 156.818 124.419C156.97 124.473 157.11 124.558 157.228 124.669C157.346 124.779 157.44 124.913 157.504 125.061C157.568 125.209 157.601 125.369 157.601 125.531C157.601 125.692 157.568 125.852 157.504 126C157.44 126.149 157.346 126.282 157.228 126.393C157.11 126.503 156.97 126.588 156.818 126.642C156.666 126.697 156.504 126.719 156.343 126.708H116.407Z" stroke="#263238" stroke-linecap="round" stroke-linejoin="round"/>
<path d="M133.557 121.16H132.293V120.562L133.494 117.718H134.217V120.562H134.529V121.16H134.217V121.924H133.557V121.16ZM133.557 120.562V118.924L132.907 120.567L133.557 120.562Z" fill="#263238"/>
<path d="M134.836 120.931V120.604H135.46V120.978C135.46 121.28 135.59 121.389 135.803 121.389C136.016 121.389 136.146 121.28 136.146 120.978V120.037C136.146 119.735 136.011 119.621 135.803 119.621C135.595 119.621 135.46 119.735 135.46 120.037V120.073H134.836L134.956 117.723H136.698V118.326H135.543L135.491 119.33C135.549 119.231 135.633 119.15 135.734 119.096C135.835 119.042 135.949 119.017 136.063 119.023C136.547 119.023 136.796 119.366 136.796 119.985V120.931C136.796 121.607 136.458 121.971 135.808 121.971C135.158 121.971 134.836 121.607 134.836 120.931Z" fill="#263238"/>
<path d="M137.217 119.387V118.347C137.209 118.258 137.22 118.169 137.248 118.085C137.277 118.001 137.322 117.923 137.382 117.858C137.442 117.792 137.515 117.74 137.596 117.704C137.678 117.668 137.766 117.65 137.854 117.65C137.943 117.65 138.031 117.668 138.112 117.704C138.194 117.74 138.267 117.792 138.327 117.858C138.387 117.923 138.432 118.001 138.461 118.085C138.489 118.169 138.499 118.258 138.491 118.347V119.387C138.499 119.475 138.489 119.565 138.461 119.649C138.432 119.733 138.387 119.81 138.327 119.876C138.267 119.941 138.194 119.994 138.112 120.03C138.031 120.066 137.943 120.084 137.854 120.084C137.766 120.084 137.678 120.066 137.596 120.03C137.515 119.994 137.442 119.941 137.382 119.876C137.322 119.81 137.277 119.733 137.248 119.649C137.22 119.565 137.209 119.475 137.217 119.387ZM138.07 119.418V118.305C138.07 118.123 137.987 118.045 137.857 118.045C137.727 118.045 137.639 118.123 137.639 118.305V119.418C137.639 119.605 137.717 119.683 137.857 119.683C137.997 119.683 138.07 119.6 138.07 119.418ZM139.381 117.723H139.802L138.174 121.93H137.753L139.381 117.723ZM139.063 121.316V120.276C139.055 120.188 139.066 120.098 139.094 120.014C139.123 119.93 139.168 119.853 139.228 119.787C139.288 119.721 139.361 119.669 139.442 119.633C139.524 119.597 139.612 119.579 139.7 119.579C139.789 119.579 139.877 119.597 139.958 119.633C140.04 119.669 140.113 119.721 140.173 119.787C140.233 119.853 140.278 119.93 140.307 120.014C140.335 120.098 140.345 120.188 140.337 120.276V121.316C140.345 121.405 140.335 121.494 140.307 121.578C140.278 121.662 140.233 121.74 140.173 121.805C140.113 121.871 140.04 121.923 139.958 121.959C139.877 121.995 139.789 122.013 139.7 122.013C139.612 122.013 139.524 121.995 139.442 121.959C139.361 121.923 139.288 121.871 139.228 121.805C139.168 121.74 139.123 121.662 139.094 121.578C139.066 121.494 139.055 121.405 139.063 121.316ZM139.916 121.347V120.234C139.916 120.047 139.833 119.969 139.698 119.969C139.563 119.969 139.485 120.047 139.485 120.234V121.347C139.485 121.534 139.563 121.612 139.698 121.612C139.833 121.612 139.916 121.534 139.916 121.347Z" fill="#263238"/>
<path d="M161.189 137.55H99.907C97.9369 137.55 96.3398 139.148 96.3398 141.118V154.274C96.3398 156.244 97.9369 157.841 99.907 157.841H161.189C163.159 157.841 164.756 156.244 164.756 154.274V141.118C164.756 139.148 163.159 137.55 161.189 137.55Z" fill="#263238" stroke="#263238" stroke-linecap="round" stroke-linejoin="round"/>
<path d="M160.097 136.458H98.8152C96.8451 136.458 95.248 138.056 95.248 140.026V153.182C95.248 155.152 96.8451 156.749 98.8152 156.749H160.097C162.067 156.749 163.664 155.152 163.664 153.182V140.026C163.664 138.056 162.067 136.458 160.097 136.458Z" fill="white" stroke="#263238" stroke-linecap="round" stroke-linejoin="round"/>
<path d="M146.406 147.753H116.407C116.108 147.773 115.828 147.905 115.623 148.124C115.419 148.343 115.305 148.631 115.305 148.931C115.305 149.23 115.419 149.518 115.623 149.737C115.828 149.956 116.108 150.089 116.407 150.108H146.406V147.753Z" fill="white"/>
<path d="M116.407 150.108C116.108 150.089 115.828 149.956 115.623 149.737C115.419 149.518 115.305 149.23 115.305 148.931C115.305 148.631 115.419 148.343 115.623 148.124C115.828 147.905 116.108 147.773 116.407 147.753H156.343C156.504 147.742 156.666 147.765 156.818 147.819C156.97 147.873 157.11 147.958 157.228 148.069C157.346 148.179 157.44 148.313 157.504 148.461C157.568 148.609 157.601 148.769 157.601 148.931C157.601 149.092 157.568 149.252 157.504 149.4C157.44 149.549 157.346 149.682 157.228 149.793C157.11 149.903 156.97 149.988 156.818 150.042C156.666 150.097 156.504 150.119 156.343 150.108H116.407Z" stroke="#263238" stroke-linecap="round" stroke-linejoin="round"/>
<path d="M132.371 144.352V143.978C132.35 143.808 132.38 143.636 132.457 143.484C132.534 143.331 132.654 143.204 132.802 143.12C132.661 143.037 132.547 142.915 132.475 142.767C132.403 142.62 132.375 142.455 132.397 142.293V142.121C132.397 141.854 132.503 141.597 132.692 141.408C132.881 141.219 133.138 141.112 133.406 141.112C133.673 141.112 133.93 141.219 134.119 141.408C134.308 141.597 134.414 141.854 134.414 142.121V142.293C134.433 142.456 134.404 142.62 134.331 142.767C134.258 142.914 134.145 143.036 134.004 143.12C134.153 143.204 134.274 143.33 134.352 143.483C134.429 143.635 134.46 143.807 134.44 143.978V144.352C134.44 144.628 134.331 144.892 134.136 145.087C133.941 145.282 133.676 145.392 133.4 145.392C133.125 145.392 132.86 145.282 132.665 145.087C132.47 144.892 132.36 144.628 132.36 144.352H132.371ZM133.78 144.316V143.91C133.78 143.593 133.65 143.437 133.406 143.437C133.161 143.437 133.031 143.593 133.031 143.91V144.316C133.031 144.633 133.161 144.789 133.406 144.789C133.65 144.789 133.78 144.633 133.78 144.316ZM133.78 142.418V142.085C133.78 141.809 133.66 141.664 133.432 141.664C133.203 141.664 133.083 141.809 133.083 142.085V142.418C133.083 142.693 133.203 142.839 133.432 142.839C133.66 142.839 133.754 142.693 133.754 142.418H133.78Z" fill="#263238"/>
<path d="M134.836 144.331V144.004H135.46V144.378C135.46 144.68 135.59 144.789 135.803 144.789C136.016 144.789 136.146 144.68 136.146 144.378V143.437C136.146 143.135 136.011 143.021 135.803 143.021C135.595 143.021 135.46 143.135 135.46 143.437V143.473H134.836L134.955 141.123H136.697V141.726H135.543L135.491 142.73C135.549 142.631 135.633 142.55 135.734 142.496C135.835 142.442 135.949 142.417 136.063 142.423C136.547 142.423 136.796 142.766 136.796 143.385V144.331C136.806 144.467 136.788 144.603 136.743 144.731C136.698 144.859 136.627 144.976 136.534 145.076C136.442 145.175 136.33 145.254 136.205 145.309C136.081 145.363 135.947 145.391 135.811 145.391C135.675 145.391 135.541 145.363 135.416 145.309C135.292 145.254 135.18 145.175 135.087 145.076C134.995 144.976 134.924 144.859 134.879 144.731C134.834 144.603 134.816 144.467 134.825 144.331H134.836Z" fill="#263238"/>
<path d="M137.217 142.787V141.747C137.209 141.658 137.22 141.569 137.248 141.485C137.277 141.401 137.322 141.323 137.382 141.258C137.442 141.192 137.515 141.14 137.596 141.104C137.678 141.068 137.766 141.05 137.854 141.05C137.943 141.05 138.031 141.068 138.112 141.104C138.194 141.14 138.267 141.192 138.327 141.258C138.387 141.323 138.432 141.401 138.461 141.485C138.489 141.569 138.499 141.658 138.491 141.747V142.787C138.499 142.875 138.489 142.964 138.461 143.049C138.432 143.133 138.387 143.21 138.327 143.276C138.267 143.341 138.194 143.394 138.112 143.43C138.031 143.466 137.943 143.484 137.854 143.484C137.766 143.484 137.678 143.466 137.596 143.43C137.515 143.394 137.442 143.341 137.382 143.276C137.322 143.21 137.277 143.133 137.248 143.049C137.22 142.964 137.209 142.875 137.217 142.787ZM138.07 142.818V141.705C138.07 141.523 137.987 141.44 137.857 141.44C137.727 141.44 137.639 141.523 137.639 141.705V142.818C137.639 143.005 137.717 143.083 137.857 143.083C137.997 143.083 138.07 143 138.07 142.818ZM139.381 141.123H139.802L138.174 145.33H137.753L139.381 141.123ZM139.063 144.716V143.676C139.055 143.588 139.066 143.498 139.094 143.414C139.123 143.33 139.168 143.253 139.228 143.187C139.288 143.121 139.361 143.069 139.442 143.033C139.524 142.997 139.612 142.979 139.7 142.979C139.789 142.979 139.877 142.997 139.958 143.033C140.04 143.069 140.113 143.121 140.173 143.187C140.233 143.253 140.278 143.33 140.307 143.414C140.335 143.498 140.345 143.588 140.337 143.676V144.716C140.345 144.804 140.335 144.894 140.307 144.978C140.278 145.062 140.233 145.139 140.173 145.205C140.113 145.271 140.04 145.323 139.958 145.359C139.877 145.395 139.789 145.413 139.7 145.413C139.612 145.413 139.524 145.395 139.442 145.359C139.361 145.323 139.288 145.271 139.228 145.205C139.168 145.139 139.123 145.062 139.094 144.978C139.066 144.894 139.055 144.804 139.063 144.716ZM139.916 144.747V143.634C139.916 143.447 139.833 143.369 139.698 143.369C139.563 143.369 139.485 143.447 139.485 143.634V144.747C139.485 144.934 139.563 145.012 139.698 145.012C139.833 145.012 139.916 144.934 139.916 144.747Z" fill="#263238"/>
<path d="M110.396 152.448H101.384V141.05H107.39L110.396 144.056V152.448Z" fill="white"/>
<path opacity="0.5" d="M110.396 152.448H101.384V141.05H107.39L110.396 144.056V152.448Z" fill="white" stroke="#263238" stroke-linecap="round" stroke-linejoin="round"/>
<path d="M110.396 152.448H101.384V141.05H107.39L110.396 144.056V152.448Z" stroke="#263238" stroke-linecap="round" stroke-linejoin="round"/>
<path d="M103.386 147.098C103.245 147.084 103.113 147.018 103.017 146.913C102.922 146.808 102.869 146.671 102.869 146.528C102.869 146.386 102.922 146.249 103.017 146.144C103.113 146.038 103.245 145.972 103.386 145.959H108.394C108.535 145.972 108.667 146.038 108.763 146.144C108.858 146.249 108.911 146.386 108.911 146.528C108.911 146.671 108.858 146.808 108.763 146.913C108.667 147.018 108.535 147.084 108.394 147.098H103.386Z" fill="#858585" stroke="#263238" stroke-width="0.75" stroke-linecap="round" stroke-linejoin="round"/>
<path d="M103.386 149.495C103.245 149.481 103.113 149.415 103.017 149.31C102.922 149.205 102.869 149.068 102.869 148.925C102.869 148.783 102.922 148.646 103.017 148.541C103.113 148.435 103.245 148.37 103.386 148.356H107.302C107.443 148.37 107.575 148.435 107.671 148.541C107.766 148.646 107.819 148.783 107.819 148.925C107.819 149.068 107.766 149.205 107.671 149.31C107.575 149.415 107.443 149.481 107.302 149.495H103.386Z" fill="#858585" stroke="#263238" stroke-width="0.75" stroke-linecap="round" stroke-linejoin="round"/>
<path d="M107.39 144.056H110.396L107.39 141.05V144.056Z" fill="white" stroke="#263238" stroke-linecap="round" stroke-linejoin="round"/>
<path d="M169.567 82.5657H91.5252C89.5551 82.5657 87.958 84.1628 87.958 86.1329V104.265C87.958 106.235 89.5551 107.832 91.5252 107.832H169.567C171.537 107.832 173.134 106.235 173.134 104.265V86.1329C173.134 84.1628 171.537 82.5657 169.567 82.5657Z" fill="#263238" stroke="#263238" stroke-linecap="round" stroke-linejoin="round"/>
<path d="M168.475 81.4736H90.4329C88.4628 81.4736 86.8657 83.0707 86.8657 85.0408V103.173C86.8657 105.143 88.4628 106.74 90.4329 106.74H168.475C170.445 106.74 172.042 105.143 172.042 103.173V85.0408C172.042 83.0707 170.445 81.4736 168.475 81.4736Z" fill="white" stroke="#263238" stroke-linecap="round" stroke-linejoin="round"/>
<path d="M116.594 104.66H99.9072V83.5536H111.03L116.594 89.1124V104.66Z" fill="white"/>
<path opacity="0.7" d="M116.594 104.66H99.9072V83.5536H111.03L116.594 89.1124V104.66Z" fill="white"/>
<path d="M116.594 104.66H99.9072V83.5536H111.03L116.594 89.1124V104.66Z" stroke="#263238" stroke-linecap="round" stroke-linejoin="round"/>
<path d="M111.03 89.1124H116.594L111.03 83.5536V89.1124Z" fill="white" stroke="#263238" stroke-linecap="round" stroke-linejoin="round"/>
<path d="M104.832 91.7124H101.556V94.9884H104.832V91.7124Z" stroke="white" stroke-width="0.75" stroke-linecap="round" stroke-linejoin="round"/>
<path d="M108.201 91.7125H104.925V94.9885H108.201V91.7125Z" stroke="white" stroke-width="0.75" stroke-linecap="round" stroke-linejoin="round"/>
<path d="M111.576 91.7124H108.3V94.9884H111.576V91.7124Z" stroke="white" stroke-width="0.75" stroke-linecap="round" stroke-linejoin="round"/>
<path d="M114.946 91.7125H111.67V94.9885H114.946V91.7125Z" stroke="white" stroke-width="0.75" stroke-linecap="round" stroke-linejoin="round"/>
<path d="M104.832 94.9885H101.556V98.2645H104.832V94.9885Z" stroke="white" stroke-width="0.75" stroke-linecap="round" stroke-linejoin="round"/>
<path d="M108.201 94.9885H104.925V98.2645H108.201V94.9885Z" stroke="white" stroke-width="0.75" stroke-linecap="round" stroke-linejoin="round"/>
<path d="M111.576 94.9885H108.3V98.2645H111.576V94.9885Z" stroke="white" stroke-width="0.75" stroke-linecap="round" stroke-linejoin="round"/>
<path d="M114.946 94.9885H111.67V98.2645H114.946V94.9885Z" stroke="white" stroke-width="0.75" stroke-linecap="round" stroke-linejoin="round"/>
<path d="M104.832 98.2645H101.556V101.54H104.832V98.2645Z" stroke="white" stroke-width="0.75" stroke-linecap="round" stroke-linejoin="round"/>
<path d="M108.201 98.2645H104.925V101.54H108.201V98.2645Z" stroke="white" stroke-width="0.75" stroke-linecap="round" stroke-linejoin="round"/>
<path d="M111.576 98.2645H108.3V101.54H111.576V98.2645Z" stroke="white" stroke-width="0.75" stroke-linecap="round" stroke-linejoin="round"/>
<path d="M114.946 98.2645H111.67V101.54H114.946V98.2645Z" stroke="white" stroke-width="0.75" stroke-linecap="round" stroke-linejoin="round"/>
<path d="M101.618 101.223L104.925 98.1864L106.563 98.2644L108.352 95.0352L109.938 96.6264L111.717 94.7596L113.308 91.7124" stroke="white" stroke-width="2" stroke-linecap="round" stroke-linejoin="round"/>
<path d="M111.431 92.6641L113.308 91.7125L113.687 93.7613" stroke="white" stroke-width="2" stroke-linecap="round" stroke-linejoin="round"/>
<path d="M123.157 93.4336H122.2V92.7992C122.959 92.7992 123.24 92.6328 123.437 92.0764H124.04V97.7964H123.141L123.157 93.4336Z" fill="#263238"/>
<path d="M125.106 96.4497V93.4337C125.106 93.071 125.251 92.7231 125.507 92.4667C125.763 92.2102 126.111 92.0661 126.474 92.0661C126.837 92.0661 127.185 92.2102 127.441 92.4667C127.698 92.7231 127.842 93.071 127.842 93.4337V96.4497C127.842 96.8124 127.698 97.1603 127.441 97.4167C127.185 97.6732 126.837 97.8173 126.474 97.8173C126.111 97.8173 125.763 97.6732 125.507 97.4167C125.251 97.1603 125.106 96.8124 125.106 96.4497ZM126.942 96.5069V93.3869C126.942 92.9813 126.76 92.8253 126.474 92.8253C126.188 92.8253 126.006 92.9813 126.006 93.3869V96.5069C126.006 96.9177 126.188 97.0737 126.474 97.0737C126.76 97.0737 126.942 96.9177 126.942 96.5069Z" fill="#263238"/>
<path d="M128.383 96.4497V93.4337C128.383 93.071 128.527 92.7231 128.783 92.4667C129.04 92.2102 129.388 92.0661 129.75 92.0661C130.113 92.0661 130.461 92.2102 130.717 92.4667C130.974 92.7231 131.118 93.071 131.118 93.4337V96.4497C131.118 96.8124 130.974 97.1603 130.717 97.4167C130.461 97.6732 130.113 97.8173 129.75 97.8173C129.388 97.8173 129.04 97.6732 128.783 97.4167C128.527 97.1603 128.383 96.8124 128.383 96.4497ZM130.218 96.5069V93.3869C130.218 92.9813 130.036 92.8253 129.75 92.8253C129.464 92.8253 129.282 92.9813 129.282 93.3869V96.5069C129.282 96.9177 129.464 97.0737 129.75 97.0737C130.036 97.0737 130.218 96.9177 130.218 96.5069Z" fill="#263238"/>
<path d="M131.674 94.3436V92.9136C131.674 92.6833 131.765 92.4624 131.928 92.2996C132.091 92.1367 132.312 92.0452 132.542 92.0452C132.773 92.0452 132.993 92.1367 133.156 92.2996C133.319 92.4624 133.411 92.6833 133.411 92.9136V94.3436C133.411 94.5739 133.319 94.7948 133.156 94.9577C132.993 95.1205 132.773 95.212 132.542 95.212C132.312 95.212 132.091 95.1205 131.928 94.9577C131.765 94.7948 131.674 94.5739 131.674 94.3436ZM132.839 94.3852V92.872C132.839 92.6172 132.724 92.508 132.542 92.508C132.36 92.508 132.246 92.6172 132.246 92.872V94.3852C132.246 94.64 132.355 94.744 132.542 94.744C132.729 94.744 132.839 94.64 132.839 94.3852ZM134.622 92.0764H135.199L132.979 97.7964H132.407L134.622 92.0764ZM134.185 96.9748V95.5396C134.185 95.4256 134.208 95.3127 134.252 95.2073C134.295 95.1019 134.359 95.0062 134.44 94.9256C134.52 94.8449 134.616 94.781 134.721 94.7373C134.827 94.6937 134.94 94.6712 135.054 94.6712C135.168 94.6712 135.281 94.6937 135.386 94.7373C135.491 94.781 135.587 94.8449 135.668 94.9256C135.748 95.0062 135.812 95.1019 135.856 95.2073C135.9 95.3127 135.922 95.4256 135.922 95.5396V96.9748C135.922 97.0889 135.9 97.2018 135.856 97.3071C135.812 97.4125 135.748 97.5082 135.668 97.5889C135.587 97.6695 135.491 97.7335 135.386 97.7771C135.281 97.8208 135.168 97.8432 135.054 97.8432C134.94 97.8432 134.827 97.8208 134.721 97.7771C134.616 97.7335 134.52 97.6695 134.44 97.5889C134.359 97.5082 134.295 97.4125 134.252 97.3071C134.208 97.2018 134.185 97.0889 134.185 96.9748ZM135.35 97.0164V95.498C135.35 95.2432 135.236 95.1392 135.054 95.1392C134.872 95.1392 134.763 95.2432 134.763 95.498V97.0164C134.763 97.266 134.867 97.3752 135.054 97.3752C135.241 97.3752 135.35 97.266 135.35 97.0164Z" fill="#263238"/>
<path d="M137.378 96.018V93.756C137.378 93.4981 137.481 93.2508 137.663 93.0684C137.846 92.8861 138.093 92.7836 138.351 92.7836C138.609 92.7836 138.856 92.8861 139.038 93.0684C139.221 93.2508 139.323 93.4981 139.323 93.756V94.2032H138.699V93.7144C138.699 93.4388 138.564 93.3244 138.366 93.3244C138.169 93.3244 138.039 93.4388 138.039 93.7144V96.0648C138.039 96.3404 138.169 96.4496 138.366 96.4496C138.564 96.4496 138.699 96.3404 138.699 96.0648V95.42H139.323V96.018C139.323 96.2759 139.221 96.5233 139.038 96.7056C138.856 96.888 138.609 96.9904 138.351 96.9904C138.093 96.9904 137.846 96.888 137.663 96.7056C137.481 96.5233 137.378 96.2759 137.378 96.018Z" fill="#263238"/>
<path d="M139.682 95.992V93.782C139.682 93.5159 139.788 93.2606 139.976 93.0724C140.164 92.8842 140.42 92.7784 140.686 92.7784C140.952 92.7784 141.207 92.8842 141.395 93.0724C141.584 93.2606 141.689 93.5159 141.689 93.782V95.992C141.689 96.2582 141.584 96.5135 141.395 96.7017C141.207 96.8899 140.952 96.9956 140.686 96.9956C140.42 96.9956 140.164 96.8899 139.976 96.7017C139.788 96.5135 139.682 96.2582 139.682 95.992ZM141.029 96.0336V93.7404C141.029 93.4388 140.899 93.3244 140.686 93.3244C140.473 93.3244 140.343 93.4388 140.343 93.7404V96.0336C140.343 96.3352 140.478 96.4496 140.686 96.4496C140.894 96.4496 141.029 96.3352 141.029 96.0336Z" fill="#263238"/>
<path d="M142.131 92.7836H143.078L143.499 95.7944L143.92 92.7836H144.861V96.9904H144.237V93.808L143.754 96.9904H143.203L142.724 93.808V96.9904H142.147L142.131 92.7836Z" fill="#263238"/>
<path d="M145.366 92.7836H146.338C146.999 92.7836 147.321 93.1528 147.321 93.8236V94.2396C147.321 94.9104 146.999 95.2796 146.338 95.2796H146.026V96.9904H145.366V92.7836ZM146.338 94.6764C146.546 94.6764 146.661 94.5828 146.661 94.2812V93.7612C146.661 93.4596 146.546 93.366 146.338 93.366H146.026V94.6556L146.338 94.6764Z" fill="#263238"/>
<path d="M147.68 92.7836H148.34V96.3872H149.427V96.9904H147.68V92.7836Z" fill="#263238"/>
<path d="M149.76 92.7836H151.559V93.3868H150.42V94.4944H151.32V95.0976H150.415V96.3872H151.554V96.9904H149.76V92.7836Z" fill="#263238"/>
<path d="M152.443 93.3868H151.757V92.7836H153.795V93.3868H153.104V96.9904H152.443V93.3868Z" fill="#263238"/>
<path d="M154.117 92.7836H155.916V93.3868H154.778V94.4944H155.682V95.0976H154.778V96.3872H155.916V96.9904H154.117V92.7836Z" fill="#263238"/>
<path d="M156.296 92.7836H157.305C157.965 92.7836 158.287 93.1528 158.287 93.8236V95.9504C158.287 96.6212 157.965 96.9904 157.305 96.9904H156.296V92.7836ZM157.289 96.3872C157.502 96.3872 157.627 96.278 157.627 95.9816V93.7924C157.627 93.496 157.502 93.3868 157.289 93.3868H156.956V96.3872H157.289Z" fill="#263238"/>
<path d="M161.189 161.101H99.907C97.9369 161.101 96.3398 162.698 96.3398 164.668V177.824C96.3398 179.795 97.9369 181.392 99.907 181.392H161.189C163.159 181.392 164.756 179.795 164.756 177.824V164.668C164.756 162.698 163.159 161.101 161.189 161.101Z" fill="#263238" stroke="#263238" stroke-linecap="round" stroke-linejoin="round"/>
<path d="M160.097 160.009H98.8152C96.8451 160.009 95.248 161.606 95.248 163.576V176.732C95.248 178.703 96.8451 180.3 98.8152 180.3H160.097C162.067 180.3 163.664 178.703 163.664 176.732V163.576C163.664 161.606 162.067 160.009 160.097 160.009Z" fill="white" stroke="#263238" stroke-linecap="round" stroke-linejoin="round"/>
<path d="M144.289 171.158H116.407C116.095 171.158 115.796 171.282 115.576 171.502C115.355 171.723 115.231 172.022 115.231 172.333C115.231 172.645 115.355 172.944 115.576 173.164C115.796 173.385 116.095 173.508 116.407 173.508H144.289V171.158Z" fill="white"/>
<path d="M116.407 173.508C116.095 173.508 115.796 173.385 115.576 173.164C115.355 172.944 115.231 172.645 115.231 172.333C115.231 172.022 115.355 171.723 115.576 171.502C115.796 171.282 116.095 171.158 116.407 171.158H156.343C156.497 171.158 156.65 171.188 156.792 171.247C156.935 171.307 157.064 171.393 157.174 171.502C157.283 171.611 157.369 171.741 157.428 171.883C157.487 172.026 157.518 172.179 157.518 172.333C157.518 172.488 157.487 172.64 157.428 172.783C157.369 172.926 157.283 173.055 157.174 173.164C157.064 173.273 156.935 173.36 156.792 173.419C156.65 173.478 156.497 173.508 156.343 173.508H116.407Z" stroke="#263238" stroke-linecap="round" stroke-linejoin="round"/>
<path d="M110.396 175.854H101.384V164.455H107.39L110.396 167.456V175.854Z" fill="white"/>
<path opacity="0.5" d="M110.396 175.854H101.384V164.455H107.39L110.396 167.456V175.854Z" fill="white"/>
<path d="M110.396 175.854H101.384V164.455H107.39L110.396 167.456V175.854Z" stroke="#263238" stroke-linecap="round" stroke-linejoin="round"/>
<path d="M103.386 170.503C103.245 170.489 103.113 170.423 103.017 170.318C102.922 170.213 102.869 170.076 102.869 169.933C102.869 169.791 102.922 169.654 103.017 169.549C103.113 169.443 103.245 169.378 103.386 169.364H108.394C108.535 169.378 108.667 169.443 108.763 169.549C108.858 169.654 108.911 169.791 108.911 169.933C108.911 170.076 108.858 170.213 108.763 170.318C108.667 170.423 108.535 170.489 108.394 170.503H103.386Z" fill="#858585" stroke="#263238" stroke-width="0.75" stroke-linecap="round" stroke-linejoin="round"/>
<path d="M103.386 172.895C103.236 172.895 103.092 172.835 102.985 172.729C102.879 172.623 102.819 172.478 102.819 172.328C102.819 172.178 102.879 172.034 102.985 171.927C103.092 171.821 103.236 171.761 103.386 171.761H107.302C107.452 171.761 107.596 171.821 107.703 171.927C107.809 172.034 107.869 172.178 107.869 172.328C107.869 172.478 107.809 172.623 107.703 172.729C107.596 172.835 107.452 172.895 107.302 172.895H103.386Z" fill="#858585" stroke="#263238" stroke-width="0.75" stroke-linecap="round" stroke-linejoin="round"/>
<path d="M107.39 167.456H110.396L107.39 164.455V167.456Z" fill="white" stroke="#263238" stroke-linecap="round" stroke-linejoin="round"/>
<path d="M133.744 165.126H132.407V164.528H134.388V165.105L133.348 168.745H132.672L133.744 165.126Z" fill="#263238"/>
<path d="M134.805 167.736V165.526C134.805 165.26 134.91 165.005 135.099 164.817C135.287 164.629 135.542 164.523 135.808 164.523C136.074 164.523 136.33 164.629 136.518 164.817C136.706 165.005 136.812 165.26 136.812 165.526V167.736C136.812 168.003 136.706 168.258 136.518 168.446C136.33 168.634 136.074 168.74 135.808 168.74C135.542 168.74 135.287 168.634 135.099 168.446C134.91 168.258 134.805 168.003 134.805 167.736ZM136.151 167.778V165.485C136.151 165.183 136.016 165.069 135.808 165.069C135.6 165.069 135.465 165.183 135.465 165.485V167.778C135.465 168.08 135.6 168.189 135.808 168.189C136.016 168.189 136.151 168.08 136.151 167.778Z" fill="#263238"/>
<path d="M137.217 166.192V165.152C137.209 165.064 137.22 164.974 137.248 164.89C137.277 164.806 137.322 164.729 137.382 164.663C137.442 164.597 137.515 164.545 137.596 164.509C137.678 164.473 137.766 164.455 137.854 164.455C137.943 164.455 138.031 164.473 138.112 164.509C138.194 164.545 138.267 164.597 138.327 164.663C138.387 164.729 138.432 164.806 138.461 164.89C138.489 164.974 138.499 165.064 138.491 165.152V166.192C138.499 166.281 138.489 166.37 138.461 166.454C138.432 166.538 138.387 166.615 138.327 166.681C138.267 166.747 138.194 166.799 138.112 166.835C138.031 166.871 137.943 166.889 137.854 166.889C137.766 166.889 137.678 166.871 137.596 166.835C137.515 166.799 137.442 166.747 137.382 166.681C137.322 166.615 137.277 166.538 137.248 166.454C137.22 166.37 137.209 166.281 137.217 166.192ZM138.07 166.223V165.11C138.07 164.923 137.987 164.845 137.857 164.845C137.727 164.845 137.639 164.923 137.639 165.11V166.223C137.639 166.405 137.717 166.483 137.857 166.483C137.997 166.483 138.07 166.4 138.07 166.223ZM139.36 164.528H139.781L138.153 168.73H137.732L139.36 164.528ZM139.043 168.121V167.081C139.035 166.993 139.045 166.904 139.074 166.819C139.102 166.735 139.148 166.658 139.207 166.592C139.267 166.527 139.34 166.474 139.422 166.438C139.503 166.403 139.591 166.384 139.68 166.384C139.768 166.384 139.856 166.403 139.938 166.438C140.019 166.474 140.092 166.527 140.152 166.592C140.212 166.658 140.257 166.735 140.286 166.819C140.314 166.904 140.325 166.993 140.317 167.081V168.121C140.325 168.21 140.314 168.299 140.286 168.383C140.257 168.467 140.212 168.545 140.152 168.61C140.092 168.676 140.019 168.728 139.938 168.764C139.856 168.8 139.768 168.818 139.68 168.818C139.591 168.818 139.503 168.8 139.422 168.764C139.34 168.728 139.267 168.676 139.207 168.61C139.148 168.545 139.102 168.467 139.074 168.383C139.045 168.299 139.035 168.21 139.043 168.121ZM139.895 168.147V167.04C139.895 166.852 139.812 166.774 139.677 166.774C139.542 166.774 139.464 166.852 139.464 167.04V168.147C139.464 168.334 139.542 168.412 139.677 168.412C139.812 168.412 139.916 168.334 139.916 168.147H139.895Z" fill="#263238"/>
<path d="M61.5889 57.304L75.3117 46.696L89.0345 57.304H61.5889Z" fill="#263238" stroke="#263238" stroke-linecap="round" stroke-linejoin="round"/>
<path d="M78.8996 45.864H71.7236V52H78.8996V45.864Z" fill="#263238" stroke="#263238" stroke-linecap="round" stroke-linejoin="round"/>
<path d="M75.3115 30.6176V52" stroke="#263238" stroke-width="0.75" stroke-linecap="round" stroke-linejoin="round"/>
<path d="M170.96 57.304L184.688 46.696L198.411 57.304H170.96Z" fill="#263238" stroke="#263238" stroke-linecap="round" stroke-linejoin="round"/>
<path d="M188.277 45.864H181.101V52H188.277V45.864Z" fill="#263238" stroke="#263238" stroke-linecap="round" stroke-linejoin="round"/>
<path d="M184.688 29.5776V52" stroke="#263238" stroke-width="0.75" stroke-linecap="round" stroke-linejoin="round"/>
<path d="M190.045 222.867L189.753 231.447L194.194 231.66L195.811 222.867H190.045Z" fill="white" stroke="#263238" stroke-linecap="round" stroke-linejoin="round"/>
<path d="M181.355 234.078C182.852 233.558 185.442 232.674 186.414 232.066C187.194 231.577 188.281 229.986 189.087 229.538C189.256 229.465 189.439 229.427 189.623 229.427C189.807 229.427 189.989 229.465 190.158 229.538C190.289 229.684 190.374 229.865 190.403 230.058C190.425 230.142 190.472 230.218 190.537 230.276C190.602 230.333 190.682 230.37 190.768 230.383C190.854 230.395 190.942 230.381 191.02 230.344C191.098 230.307 191.164 230.247 191.209 230.173C191.333 229.929 191.511 229.715 191.729 229.549C192.415 229.164 194.272 229.055 194.88 229.549C195.889 230.376 196.253 233.225 196.44 234.51C196.487 234.79 196.44 236.35 196.44 236.35H180.237V235.638C180.235 235.293 180.342 234.957 180.542 234.676C180.743 234.396 181.028 234.187 181.355 234.078Z" fill="white" stroke="#263238" stroke-linecap="round" stroke-linejoin="round"/>
<path d="M196.45 236.34H180.237V235.628C180.237 235.451 180.266 235.275 180.325 235.108H196.471C196.471 235.654 196.45 236.34 196.45 236.34Z" fill="#858585" stroke="#263238" stroke-linecap="round" stroke-linejoin="round"/>
<path d="M192.847 156.348L189.441 226.132L195.681 227.172C195.681 227.172 199.612 206.976 200.091 200.361C200.205 198.801 200.091 194.095 200.091 194.095L204.505 172.364C204.505 172.364 207.412 169.681 207.75 156.905L192.847 156.348Z" fill="#263238" stroke="#263238" stroke-linecap="round" stroke-linejoin="round"/>
<path opacity="0.7" d="M202.083 183.357C202.322 182.348 202.603 181.355 202.941 180.367C202.993 180.227 203.055 180.097 203.117 179.967C203.272 178.49 203.51 177.023 203.83 175.573C203.94 175.031 204.232 174.543 204.657 174.19C204.778 173.915 204.959 173.672 205.187 173.477C205.414 173.281 205.683 173.139 205.972 173.061C205.781 171.719 205.489 170.392 205.099 169.094C204.703 167.731 204.059 166.426 203.866 165.017C203.814 164.653 203.606 164.273 203.674 164.232C203.227 164.057 202.789 163.86 202.363 163.639L202.285 163.576C201.887 170.162 201.819 176.764 202.083 183.357Z" fill="black"/>
<path d="M192.551 196.264C193.655 196.008 194.669 195.456 195.484 194.667" stroke="#7F7F7F" stroke-width="0.75" stroke-linecap="round" stroke-linejoin="round"/>
<path d="M188.62 227.458L196.165 228.077L196.726 225.633L188.62 224.999V227.458Z" fill="white" stroke="#263238" stroke-linecap="round" stroke-linejoin="round"/>
<path d="M210.408 221.811L212.015 231.842L216.123 231.52L215.987 221.25L210.408 221.811Z" fill="white" stroke="#263238" stroke-linecap="round" stroke-linejoin="round"/>
<path d="M203.528 234.078C205.031 233.558 207.62 232.674 208.587 232.066C209.367 231.577 210.459 229.986 211.26 229.538C211.43 229.465 211.613 229.427 211.798 229.427C211.984 229.427 212.167 229.465 212.337 229.538C212.431 229.635 212.497 229.756 212.529 229.887C212.557 229.986 212.614 230.075 212.693 230.142C212.771 230.209 212.868 230.251 212.971 230.263C213.073 230.275 213.177 230.256 213.269 230.208C213.361 230.16 213.436 230.087 213.486 229.996C213.592 229.817 213.733 229.661 213.902 229.538C214.588 229.154 216.445 229.044 217.053 229.538C218.062 230.365 218.426 233.215 218.613 234.499C218.655 234.78 218.613 236.34 218.613 236.34H202.415V235.628C202.415 235.285 202.522 234.951 202.722 234.673C202.921 234.395 203.203 234.187 203.528 234.078Z" fill="white" stroke="#263238" stroke-linecap="round" stroke-linejoin="round"/>
<path d="M218.629 236.34H202.415V235.628C202.413 235.451 202.441 235.275 202.498 235.108H218.644C218.644 235.654 218.629 236.34 218.629 236.34Z" fill="#858585" stroke="#263238" stroke-linecap="round" stroke-linejoin="round"/>
<path d="M201.531 158.454C201.531 158.454 203.091 167.487 204.526 175.063C205.504 180.201 205.566 195.38 205.566 195.38L210.548 226.72L216.689 225.893C216.689 225.893 216.762 206.601 216.07 200.413C215.914 199.035 215.66 194.943 215.66 194.943C215.66 194.943 215.894 178.573 217.157 173.103C218.062 169.203 219.861 165.105 217.677 157.113L201.531 158.454Z" fill="#263238" stroke="#263238" stroke-linecap="round" stroke-linejoin="round"/>
<path d="M206.913 196.264C207.538 197.128 208.467 197.724 209.513 197.933" stroke="#7F7F7F" stroke-width="0.75" stroke-linecap="round" stroke-linejoin="round"/>
<path d="M209.518 225.311L209.872 227.609L217.484 226.793L217.432 224.318L209.518 225.311Z" fill="white" stroke="#263238" stroke-linecap="round" stroke-linejoin="round"/>
<path d="M172.552 116.672L170.872 113.849C170.872 113.849 170.466 109.236 169.53 108.337C168.594 107.437 166.514 104.79 166.218 105.31C165.75 106.142 167.482 107.624 167.482 107.624L167.799 109.34C167.799 109.34 164.996 107.323 164.206 107.323C164.206 107.323 161.97 104.676 161.179 104.671C160.389 104.666 161.502 106.501 161.502 106.501C161.502 106.501 160.748 105.924 160.602 106.283C160.456 106.642 161.574 107.869 161.574 107.869C161.574 107.869 161.143 108.337 161.793 109.34C161.703 109.665 161.704 110.007 161.796 110.331C161.887 110.655 162.066 110.947 162.313 111.176C163.176 111.862 167.814 114.488 167.814 114.488L169.374 118.16L172.552 116.672Z" fill="#858585" stroke="#263238" stroke-linecap="round" stroke-linejoin="round"/>
<path d="M162.188 107.942C162.188 107.942 162.802 108.191 162.547 109.091C162.792 109.439 162.929 109.851 162.942 110.276C163.004 111.067 167.008 110.677 168.09 112.356" stroke="#263238" stroke-width="0.75" stroke-linecap="round" stroke-linejoin="round"/>
<path d="M162.188 106.969L163.821 108.696" stroke="#263238" stroke-width="0.75" stroke-linecap="round" stroke-linejoin="round"/>
<path d="M189.888 115.96L179.171 124.311L171.829 114.306L168.09 116.178C168.09 116.178 173.966 132.413 178.412 132.413C183.139 132.413 192.124 124.821 192.124 124.821C192.124 124.821 192.691 123.37 189.888 115.96Z" fill="white" stroke="#263238" stroke-linecap="round" stroke-linejoin="round"/>
<path d="M179.577 125.107C179.827 125.639 180.014 126.2 180.133 126.776" stroke="#263238" stroke-width="0.75" stroke-linecap="round" stroke-linejoin="round"/>
<path d="M189.888 115.96L192.171 146.177V158.73C192.171 158.73 205.322 160.29 218.296 158.397L217.849 145.475L219.164 116.672C219.164 116.672 213.143 112.32 203.897 112.32C194.651 112.32 189.888 115.96 189.888 115.96Z" fill="white" stroke="#263238" stroke-linecap="round" stroke-linejoin="round"/>
<path opacity="0.2" d="M218.296 158.397L217.88 146.817C217.657 152.396 211.5 150.301 210.106 150.041C208.614 149.76 206.898 154.679 206.898 154.679C206.898 154.679 201.178 155.662 196.701 155.314C192.223 154.965 192.156 150.878 192.156 150.878V158.73C192.156 158.73 205.322 160.311 218.296 158.397Z" fill="black"/>
<path d="M198.333 145.886C203.848 145.293 209.14 143.387 213.767 140.327L198.333 145.886Z" fill="white"/>
<path d="M198.333 145.886C203.848 145.293 209.14 143.387 213.767 140.327" stroke="#263238" stroke-width="0.75" stroke-linecap="round" stroke-linejoin="round"/>
<path d="M196.04 146.042C196.04 146.042 196.482 146.042 197.262 145.985L196.04 146.042Z" fill="white"/>
<path d="M196.04 146.042C196.04 146.042 196.482 146.042 197.262 145.985" stroke="#263238" stroke-width="0.75" stroke-linecap="round" stroke-linejoin="round"/>
<path d="M200.491 117.416L198.214 116.589L196.04 118.69L197.631 112.19L199.55 110.682L200.528 111.301L204.896 111.134L208.291 111.41L209.908 110.911L211.635 112.637L207.792 119.985L206.18 117.203L202.623 117.645L200.491 117.416Z" fill="white"/>
<path opacity="0.5" d="M200.491 117.416L198.214 116.589L196.04 118.69L197.631 112.19L199.55 110.682L200.528 111.301L204.896 111.134L208.291 111.41L209.908 110.911L211.635 112.637L207.792 119.985L206.18 117.203L202.623 117.645L200.491 117.416Z" fill="white"/>
<path d="M200.491 117.416L198.214 116.589L196.04 118.69L197.631 112.19L199.55 110.682L200.528 111.301L204.896 111.134L208.291 111.41L209.908 110.911L211.635 112.637L207.792 119.985L206.18 117.203L202.623 117.645L200.491 117.416Z" stroke="#263238" stroke-linecap="round" stroke-linejoin="round"/>
<path d="M208.057 112.616L207.537 104.671L202.514 105.56L201.474 109.294L200.434 112.528L199.94 112.58L201.308 120.006L208.556 112.726L208.057 112.616Z" fill="#858585"/>
<path d="M195.707 105.222C195.707 107.24 196.019 111.753 198.791 112.278C201.661 112.824 204.953 109.559 206.133 108.254C206.429 107.929 206.66 107.552 206.814 107.141L207.443 105.472C207.854 105.503 208.266 105.416 208.629 105.222H195.707Z" fill="#263238" stroke="#263238" stroke-width="0.5" stroke-linecap="round" stroke-linejoin="round"/>
<path d="M208.057 112.616L207.537 104.671L202.514 105.56L201.474 109.294L200.434 112.528L199.94 112.58L201.308 120.006L208.556 112.726L208.057 112.616Z" stroke="#263238" stroke-linecap="round" stroke-linejoin="round"/>
<path d="M199.056 95.0196C199.056 95.0196 196.679 93.21 197.844 91.7852C198.453 91.0468 199.243 92.0192 199.243 92.0192C199.243 92.0192 198.822 89.752 200.512 89.4192C202.072 89.128 202.009 90.9168 202.009 90.9168C202.009 90.9168 202.815 89.3828 204.225 89.726C205.348 89.9964 204.916 91.5876 204.916 91.5876C204.916 91.5876 206.414 89.726 207.963 90.5476C209.3 91.2496 208.197 92.9344 208.197 92.9344C208.197 92.9344 209.789 92.3728 210.678 93.2672C211.567 94.1616 210.678 95.3472 210.678 95.3472C210.678 95.3472 212.43 95.3472 212.508 96.6576C212.586 97.968 211.151 98.2176 211.151 98.2176C211.151 98.2176 213.179 98.8728 213.195 100.464C213.21 102.055 211.853 101.546 211.853 101.546C211.853 101.546 212.695 103.043 211.993 103.839C211.915 103.945 211.812 104.032 211.694 104.091C211.575 104.151 211.445 104.182 211.312 104.182C211.18 104.182 211.049 104.151 210.931 104.091C210.813 104.032 210.71 103.945 210.631 103.839C210.631 103.839 211.51 105.726 210.397 106.278C209.601 106.668 209.133 105.711 209.133 105.711C209.133 105.711 208.463 107.344 207.651 106.345C206.84 105.347 202.815 97.656 202.815 97.656L199.056 95.0196Z" fill="#263238" stroke="#263238" stroke-width="0.75" stroke-linecap="round" stroke-linejoin="round"/>
<path d="M198.37 95.0924L196.872 98.2124C196.719 98.5376 196.639 98.8927 196.638 99.2524V100.23L195.811 102.31C195.769 102.418 195.734 102.53 195.707 102.643C195.442 103.75 194.179 109.699 197.267 110.911C199.992 111.982 203.83 109.398 205.239 108.337C205.59 108.072 205.887 107.742 206.113 107.364L207.049 105.846C207.446 105.965 207.871 105.955 208.262 105.817C208.653 105.68 208.991 105.423 209.227 105.082C210.065 103.88 211.032 103.23 209.883 102.149C208.733 101.067 207.673 102.799 207.673 102.799L207.829 99.7464L206.497 97.4064L206.43 95.9348C206.43 95.9348 202.072 95.4512 199.15 93.8548L198.37 95.0924Z" fill="white" stroke="#263238" stroke-width="0.75" stroke-linecap="round" stroke-linejoin="round"/>
<path d="M198.37 95.0924L196.872 98.2124C196.719 98.5376 196.639 98.8927 196.638 99.2524V100.23L195.811 102.31C195.769 102.418 195.734 102.53 195.707 102.643C195.442 103.75 194.179 109.699 197.267 110.911C199.992 111.982 203.83 109.398 205.239 108.337C205.59 108.072 205.887 107.742 206.113 107.364L207.049 105.846C207.446 105.965 207.871 105.955 208.262 105.817C208.653 105.68 208.991 105.423 209.227 105.082C210.065 103.88 211.032 103.23 209.883 102.149C208.733 101.067 207.673 102.799 207.673 102.799L207.829 99.7464L206.497 97.4064L206.43 95.9348C206.43 95.9348 202.072 95.4512 199.15 93.8548L198.37 95.0924Z" fill="#858585" stroke="#263238" stroke-linecap="round" stroke-linejoin="round"/>
<path d="M201.021 105.747C200.179 107.375 199.035 107.104 198.317 106.699" stroke="#263238" stroke-width="0.75" stroke-linecap="round" stroke-linejoin="round"/>
<path d="M201.037 102.05C200.923 102.419 200.689 102.674 200.517 102.622C200.346 102.57 200.288 102.222 200.403 101.852C200.517 101.483 200.751 101.223 200.923 101.28C201.094 101.338 201.152 101.681 201.037 102.05Z" fill="#263238"/>
<path d="M197.564 100.974C197.449 101.348 197.215 101.603 197.044 101.546C196.872 101.488 196.815 101.145 196.929 100.776C197.044 100.407 197.283 100.152 197.449 100.209C197.616 100.266 197.678 100.604 197.564 100.974Z" fill="#263238"/>
<path d="M197.314 98.5712C197.452 98.5326 197.596 98.5229 197.738 98.5425C197.879 98.5622 198.015 98.6109 198.137 98.6856C198.259 98.7603 198.365 98.8593 198.447 98.9765C198.529 99.0937 198.586 99.2266 198.614 99.3668" stroke="#263238" stroke-width="0.75" stroke-linecap="round" stroke-linejoin="round"/>
<path d="M200.304 99.9908C200.304 99.9908 201.516 98.7168 202.332 100.069" stroke="#263238" stroke-width="0.75" stroke-linecap="round" stroke-linejoin="round"/>
<path d="M198.64 101.301C198.531 101.798 198.297 102.259 197.96 102.64C197.624 103.021 197.195 103.31 196.716 103.48L197.662 104.983" stroke="#263238" stroke-width="0.75" stroke-linecap="round" stroke-linejoin="round"/>
<path d="M204.677 160.919L204.412 162.526C204.374 162.791 204.44 163.061 204.596 163.279C204.752 163.497 204.986 163.646 205.249 163.696L221.926 166.431C222.191 166.469 222.461 166.404 222.679 166.248C222.897 166.092 223.046 165.857 223.096 165.594L223.356 163.987L204.677 160.919Z" fill="white" stroke="#263238" stroke-width="0.75" stroke-linecap="round" stroke-linejoin="round"/>
<path d="M224.103 153.862L207.236 151.094C206.734 151.012 206.261 151.352 206.179 151.853L204.507 162.039C204.425 162.541 204.765 163.014 205.266 163.096L222.133 165.864C222.635 165.947 223.108 165.607 223.19 165.105L224.862 154.92C224.944 154.418 224.604 153.945 224.103 153.862Z" fill="white"/>
<path opacity="0.5" d="M224.103 153.862L207.236 151.094C206.734 151.012 206.261 151.352 206.179 151.853L204.507 162.039C204.425 162.541 204.765 163.014 205.266 163.096L222.133 165.864C222.635 165.947 223.108 165.607 223.19 165.105L224.862 154.92C224.944 154.418 224.604 153.945 224.103 153.862Z" fill="white"/>
<path d="M224.103 153.862L207.236 151.094C206.734 151.012 206.261 151.352 206.179 151.853L204.507 162.039C204.425 162.541 204.765 163.014 205.266 163.096L222.133 165.864C222.635 165.947 223.108 165.607 223.19 165.105L224.862 154.92C224.944 154.418 224.604 153.945 224.103 153.862Z" stroke="#263238" stroke-linecap="round" stroke-linejoin="round"/>
<path d="M217.594 155.761L216.674 158.881L213.554 161.112C213.112 162.477 212.591 163.816 211.994 165.121C211.954 165.194 211.933 165.275 211.934 165.358C211.934 165.441 211.956 165.522 211.996 165.595C212.037 165.667 212.095 165.728 212.165 165.771C212.236 165.815 212.316 165.84 212.399 165.844C212.831 165.844 213.335 165.641 213.611 164.804C213.611 164.804 213.73 166.447 214.744 165.443C214.744 165.443 215.363 167.034 216.33 165.781C216.33 165.781 218.572 166.114 218.93 164.497C219.289 162.88 219.82 160.03 219.82 160.03L221.244 156.686L217.594 155.761Z" fill="#858585" stroke="#263238" stroke-linecap="round" stroke-linejoin="round"/>
<path d="M213.59 164.164L213.943 161.756" stroke="#263238" stroke-width="0.75" stroke-linecap="round" stroke-linejoin="round"/>
<path d="M214.146 164.32C214.146 164.32 214.391 165.116 214.942 164.986C215.493 164.856 216.278 165.469 217.994 164.746" stroke="#263238" stroke-width="0.75" stroke-linecap="round" stroke-linejoin="round"/>
<path d="M219.164 116.672C219.164 116.672 226.964 138.346 226.819 141.513C226.673 144.68 221.125 158.454 221.125 158.454L216.84 157.092L219.7 140.936L217.136 129.709C217.136 129.709 216.554 121.477 219.164 116.672Z" fill="white" stroke="#263238" stroke-linecap="round" stroke-linejoin="round"/>
<path d="M220.662 140.577C220.949 140.357 221.283 140.203 221.637 140.129C221.992 140.054 222.358 140.06 222.71 140.145" stroke="#263238" stroke-width="0.75" stroke-linecap="round" stroke-linejoin="round"/>
<path d="M215.592 157.435C215.437 157.229 215.321 156.997 215.249 156.749C214.949 156.743 214.658 156.851 214.435 157.051C214.212 157.251 214.072 157.529 214.045 157.827C214.018 158.126 214.105 158.424 214.289 158.661C214.473 158.898 214.74 159.056 215.036 159.104C215.347 159.155 215.665 159.081 215.922 158.898C216.178 158.715 216.351 158.437 216.403 158.127C216.069 157.985 215.786 157.743 215.592 157.435Z" fill="white"/>
<path d="M63.4088 111.691L64.3552 116.355L53.8408 116.797L55.666 103.87L62.7484 104.692L63.4088 111.691Z" fill="white"/>
<path d="M68.1203 104.614L59.3271 107.214C59.4369 108.221 59.6459 109.216 59.9512 110.183C60.4712 111.68 63.6379 114.343 65.6711 114.312C67.7043 114.28 67.9331 107.801 67.9331 107.801L69.1603 107.12C69.2306 107.08 69.2916 107.026 69.3393 106.96C69.3869 106.895 69.4202 106.82 69.4369 106.741C69.4536 106.662 69.4534 106.58 69.4362 106.501C69.419 106.422 69.3852 106.348 69.3371 106.283L68.1203 104.614Z" fill="#263238" stroke="#263238" stroke-width="0.75" stroke-linecap="round" stroke-linejoin="round"/>
<path d="M63.4088 111.691L64.3552 116.355L53.8408 116.797L55.666 103.87L62.7484 104.692L63.4088 111.691Z" stroke="#263238" stroke-linecap="round" stroke-linejoin="round"/>
<path d="M63.8926 95.2588C63.8926 95.2588 66.4458 95.7788 66.1858 93.0072C65.9258 90.2356 61.1678 91.9308 58.6874 92.2428C56.207 92.5548 48.199 95.5448 51.033 100.266C51.033 100.266 49.3638 102.929 55.375 107.396C55.375 107.396 58.2298 106.054 59.795 108.014L61.017 105.633L64.137 100.152L63.8926 95.2588Z" fill="#263238" stroke="#263238" stroke-linecap="round" stroke-linejoin="round"/>
<path d="M63.7051 94.8428C63.7051 94.8428 66.1491 96.2052 67.5531 94.4996C67.5531 94.4996 67.7091 98.1396 63.7051 94.8428Z" fill="#263238" stroke="#263238" stroke-linecap="round" stroke-linejoin="round"/>
<path d="M63.9601 94.4632C63.9601 94.4632 67.6001 98.2956 67.4753 100.922V103.319L69.3993 105.482C69.4531 105.537 69.4939 105.604 69.5187 105.677C69.5435 105.75 69.5517 105.828 69.5428 105.905C69.5338 105.981 69.5079 106.055 69.4669 106.12C69.4259 106.186 69.3708 106.241 69.3057 106.283L68.1877 107.058C68.1877 107.058 68.5153 113.194 66.5913 113.412C64.6673 113.63 61.4641 111.332 60.8245 109.98C60.3428 108.74 59.9942 107.451 59.7845 106.137C59.2245 105.986 58.7227 105.67 58.3437 105.23C57.9647 104.791 57.7258 104.249 57.6577 103.672C57.4341 101.655 59.4673 101.712 59.9925 103.033L60.4189 104.109L61.7397 104.062C61.7397 104.062 60.9857 102.159 61.4329 101.598C61.8801 101.036 63.6377 99.6684 62.8317 98.3632C62.0257 97.058 62.2961 94.8376 63.9601 94.4632Z" fill="white" stroke="#263238" stroke-linecap="round" stroke-linejoin="round"/>
<path d="M66.04 108.259C66.1915 108.528 66.4236 108.742 66.7035 108.872C66.9834 109.001 67.2971 109.04 67.6 108.982" stroke="#263238" stroke-width="0.75" stroke-linecap="round" stroke-linejoin="round"/>
<path d="M65.083 100.937C65.083 100.937 65.9098 99.788 66.695 100.838" stroke="#263238" stroke-linecap="round" stroke-linejoin="round"/>
<path d="M66.3886 103.334C66.3886 103.693 66.2482 103.99 66.0558 103.995C65.8633 104 65.6969 103.714 65.6865 103.355C65.6761 102.996 65.8269 102.7 66.0193 102.695C66.2118 102.69 66.3782 102.96 66.3886 103.334Z" fill="#263238"/>
<path d="M49.7118 218.525L48.1934 231.592L52.7122 232.289L55.203 219.372L49.7118 218.525Z" fill="white" stroke="#263238" stroke-linecap="round" stroke-linejoin="round"/>
<path d="M47.585 160.784C47.585 160.784 47.767 168.355 50.4398 173.68L51.0482 193.773L47.9646 226.148L54.8234 226.803L61.0634 192.941L63.1434 162.261L47.585 160.784Z" fill="white" stroke="#263238" stroke-linecap="round" stroke-linejoin="round"/>
<path opacity="0.2" d="M62.1764 177.013L61.6044 173.41L59.0044 162.068L58.526 161.824L47.606 160.784C47.606 160.784 47.606 162.027 47.8504 163.862L53.2428 166.92C53.3699 168.84 53.8036 170.727 54.5272 172.51C54.592 172.666 54.6156 172.835 54.5959 173.003C54.5761 173.17 54.5136 173.33 54.4144 173.466C54.3152 173.602 54.1825 173.711 54.0293 173.781C53.876 173.851 53.7072 173.881 53.5392 173.867C52.9828 173.826 52.4992 173.867 52.4992 174.231C52.4992 175.074 56.5656 177.793 56.5656 177.793C56.5656 177.793 60.6684 191.053 60.5228 195.952L61.0792 192.936L62.1764 177.013Z" fill="black"/>
<path d="M63.5024 219.383L63.9964 232.528H68.5672L69.056 219.383H63.5024Z" fill="white" stroke="#263238" stroke-linecap="round" stroke-linejoin="round"/>
<path d="M75.8471 234.38C74.3383 233.92 72.8703 233.336 71.4583 232.632C70.7823 232.211 69.8359 230.833 69.1391 230.443C68.9929 230.38 68.8355 230.348 68.6763 230.348C68.5172 230.348 68.3597 230.38 68.2135 230.443C67.8807 230.714 67.8651 232.123 67.8651 232.123C67.8651 232.123 67.2775 230.688 66.8511 230.443C66.2583 230.11 64.6463 230.012 64.1211 230.443C63.2475 231.156 62.9303 233.631 62.7587 234.744C62.7171 234.988 62.7587 236.34 62.7587 236.34H76.7987V235.721C76.7998 235.426 76.7086 235.138 76.538 234.898C76.3673 234.657 76.1258 234.476 75.8471 234.38Z" fill="#263238" stroke="#263238" stroke-linecap="round" stroke-linejoin="round"/>
<path d="M73.0652 161.408L71.942 191.781L70.0648 226.46H62.92C62.92 226.46 61.4224 199.841 61.7968 192.14L58.0476 174.33C58.0476 174.33 54.1112 169.078 55.0472 162.708L73.0652 161.408Z" fill="white" stroke="#263238" stroke-linecap="round" stroke-linejoin="round"/>
<path d="M62.2856 223.881L62.5196 228.051H70.3456L70.954 223.881H62.2856Z" fill="white" stroke="#263238" stroke-linecap="round" stroke-linejoin="round"/>
<path d="M47.3926 223.522L47.2314 227.692L55.021 228.436L56.0246 224.344L47.3926 223.522Z" fill="white" stroke="#263238" stroke-linecap="round" stroke-linejoin="round"/>
<path d="M84.9109 141.414L74.1001 134.54L85.4933 123.146L96.3093 130.021L84.9109 141.414Z" fill="white" stroke="#263238" stroke-linecap="round" stroke-linejoin="round"/>
<path d="M85.5294 139.064L76.835 133.536L85.9974 124.374L94.6918 129.901L85.5294 139.064Z" fill="white" stroke="#263238" stroke-width="0.75" stroke-linecap="round" stroke-linejoin="round"/>
<path d="M86.1639 129.574L87.6823 128.055L85.7323 126.818L84.2139 128.331L86.1639 129.574Z" stroke="#263238" stroke-width="0.75" stroke-linecap="round" stroke-linejoin="round"/>
<path d="M83.8084 131.934L85.3268 130.416L83.3716 129.173L81.8584 130.692L83.8084 131.934Z" stroke="#263238" stroke-width="0.75" stroke-linecap="round" stroke-linejoin="round"/>
<path d="M81.3697 134.373L82.8829 132.855L80.9329 131.612L79.4146 133.13L81.3697 134.373Z" stroke="#263238" stroke-width="0.75" stroke-linecap="round" stroke-linejoin="round"/>
<path d="M89.882 124.92L88.4468 126.36C88.3789 126.428 88.327 126.51 88.2951 126.6C88.2632 126.691 88.2521 126.787 88.2626 126.883C88.2731 126.978 88.3049 127.07 88.3557 127.151C88.4065 127.233 88.475 127.302 88.556 127.353L90.636 128.69C90.8653 128.836 91.1376 128.899 91.4079 128.87C91.6783 128.841 91.9306 128.72 92.1232 128.528L93.4492 127.197L89.882 124.92Z" fill="#858585" stroke="#263238" stroke-linecap="round" stroke-linejoin="round"/>
<path d="M51.4126 116.043L53.2898 111.92C53.2898 111.92 64.163 110.703 67.0646 119.792L51.4126 116.043Z" fill="#858585" stroke="#263238" stroke-linecap="round" stroke-linejoin="round"/>
<path d="M45.2401 119.558C45.2401 119.558 42.5569 140.114 43.2693 147.399C43.8309 153.161 47.6269 158.038 47.6269 158.038L53.2533 155.834L50.3933 147.399C50.3933 147.399 51.2825 132.215 52.1249 128.679L45.2401 119.558Z" fill="#858585" stroke="#263238" stroke-linecap="round" stroke-linejoin="round"/>
<path d="M45.999 157.03L47.585 158.928L54.085 156.395L53.2426 153.863L45.999 157.03Z" fill="#858585" stroke="#263238" stroke-linecap="round" stroke-linejoin="round"/>
<path d="M45.2399 119.558C45.2399 119.558 44.3923 131.368 46.7999 139.667C49.2075 147.966 46.7999 161.595 46.7999 161.595C46.7999 161.595 57.8811 168.766 74.8799 163.28C74.8799 163.28 72.7739 122.928 69.9607 120.682C67.1475 118.435 51.2719 109.86 45.2399 119.558Z" fill="#858585" stroke="#263238" stroke-linecap="round" stroke-linejoin="round"/>
<path opacity="0.2" d="M74.88 163.28C74.88 163.28 74.1572 149.448 72.9976 137.53C70.538 131.56 66.5184 123.609 66.3052 134.774C65.9932 150.92 75.9304 149.968 68.0576 152.781C66.2973 153.448 64.4115 153.718 62.5348 153.573C60.658 153.427 58.8365 152.869 57.2 151.939C57.0692 151.872 56.9193 151.852 56.7754 151.881C56.6314 151.911 56.5019 151.989 56.4085 152.103C56.315 152.216 56.2631 152.358 56.2614 152.505C56.2598 152.652 56.3084 152.796 56.3992 152.911C58.3752 155.423 61.3756 156.988 63.6792 157.888C63.8873 157.967 64.0631 158.113 64.1794 158.303C64.2957 158.493 64.3459 158.716 64.3222 158.938C64.2984 159.159 64.2021 159.366 64.0482 159.527C63.8942 159.688 63.6914 159.794 63.4712 159.827C56.056 160.924 50.2424 156.983 47.5748 154.69C47.2628 158.662 46.748 161.595 46.748 161.595C46.748 161.595 57.8812 168.766 74.88 163.28Z" fill="black"/>
<path d="M69.9713 120.687C70.985 121.152 71.8646 121.866 72.5282 122.762C73.1919 123.659 73.6181 124.709 73.7673 125.814C74.3289 129.683 77.9273 141.565 77.9273 141.565L79.1233 140.79C80.1218 141.238 80.9443 142.004 81.4633 142.968C81.9823 143.931 82.1687 145.039 81.9937 146.12C81.9937 146.12 79.0713 151.84 75.8785 150.764C72.5973 149.651 70.7617 146.968 69.1185 142.579C68.2501 140.239 65.7437 133.188 65.7437 133.188" fill="#858585"/>
<path d="M69.9713 120.687C70.985 121.152 71.8646 121.866 72.5282 122.762C73.1919 123.659 73.6181 124.709 73.7673 125.814C74.3289 129.683 77.9273 141.565 77.9273 141.565L79.1233 140.79C80.1218 141.238 80.9443 142.004 81.4633 142.968C81.9823 143.931 82.1687 145.039 81.9936 146.12C81.9936 146.12 79.0713 151.84 75.8785 150.764C72.5973 149.651 70.7617 146.968 69.1185 142.579C68.2501 140.239 65.7437 133.188 65.7437 133.188" stroke="#263238" stroke-linecap="round" stroke-linejoin="round"/>
<path d="M79.3624 145.007C79.3812 145.313 79.3672 145.62 79.3208 145.922" stroke="#263238" stroke-width="0.75" stroke-linecap="round" stroke-linejoin="round"/>
<path d="M77.2148 147.399C77.2148 147.399 78.1976 145.839 78.0572 142.475C78.5298 142.833 78.8905 143.318 79.0972 143.874" stroke="#263238" stroke-width="0.75" stroke-linecap="round" stroke-linejoin="round"/>
<path d="M79.9082 140.462L83.6574 137.79C83.8448 136.959 84.2528 136.193 84.8385 135.575C85.4242 134.956 86.1659 134.507 86.9854 134.274C86.9854 134.274 88.717 131.414 89.6998 131.747C90.6826 132.08 88.5298 133.245 88.3426 134.742L89.1382 135.808C89.1382 135.808 91.7382 135.351 92.3726 134.508C92.3726 134.508 92.2322 136.292 91.2026 136.588C91.2026 136.588 91.2026 137.946 90.5006 137.899L85.3422 139.355L82.3418 144.955L79.9082 140.462Z" fill="white" stroke="#263238" stroke-linecap="round" stroke-linejoin="round"/>
<path d="M64.5581 153.462C65.1509 153.408 65.7386 153.307 66.3157 153.161" stroke="#263238" stroke-width="0.75" stroke-linecap="round" stroke-linejoin="round"/>
<path d="M49.8213 144.94C49.8213 144.94 55.3489 153.395 63.3413 153.509" stroke="#263238" stroke-width="0.75" stroke-linecap="round" stroke-linejoin="round"/>
<path d="M78.291 140.556C78.291 140.556 82.2014 143.51 81.827 147.072L83.2362 144.373C83.2362 144.373 83.1894 142.1 79.955 139.693L78.291 140.556Z" fill="#858585" stroke="#263238" stroke-linecap="round" stroke-linejoin="round"/>
<path d="M62.7591 236.34H76.7991V235.721C76.799 235.569 76.7744 235.418 76.7263 235.274H62.7383C62.7383 235.747 62.7591 236.34 62.7591 236.34Z" fill="white" stroke="#263238" stroke-width="0.75" stroke-linecap="round" stroke-linejoin="round"/>
<path d="M59.8002 234.38C58.2914 233.92 56.8234 233.336 55.4114 232.632C54.7354 232.211 53.789 230.833 53.0974 230.443C52.9504 230.38 52.7921 230.348 52.632 230.348C52.472 230.348 52.3137 230.38 52.1666 230.443C51.8338 230.714 51.8182 232.123 51.8182 232.123C51.8182 232.123 51.2358 230.688 50.8042 230.443C50.2114 230.11 48.5994 230.012 48.0742 230.443C47.2006 231.156 46.8834 233.631 46.7118 234.744C46.6702 234.988 46.7118 236.34 46.7118 236.34H60.7518V235.721C60.7529 235.426 60.6617 235.138 60.4911 234.898C60.3205 234.657 60.0789 234.476 59.8002 234.38Z" fill="#263238" stroke="#263238" stroke-linecap="round" stroke-linejoin="round"/>
<path d="M46.7015 236.34H60.7415V235.721C60.7414 235.569 60.7168 235.418 60.6687 235.274H46.6807C46.6807 235.747 46.7015 236.34 46.7015 236.34Z" fill="white" stroke="#263238" stroke-width="0.75" stroke-linecap="round" stroke-linejoin="round"/>
<path d="M67.4128 192.343C67.4128 192.343 65.9204 194.917 63.5024 193.934" stroke="#263238" stroke-width="0.75" stroke-linecap="round" stroke-linejoin="round"/>
<path d="M57.0075 193.248C57.0075 193.248 54.3295 195.536 52.1143 193.934" stroke="#263238" stroke-width="0.75" stroke-linecap="round" stroke-linejoin="round"/>
<path d="M84.9521 126.636L85.3265 128.497H88.6441L85.9453 127.868L86.0753 126.599L84.9521 126.636Z" fill="white"/>
</svg>
