<svg width="205" height="205" viewBox="0 0 205 205" fill="none" xmlns="http://www.w3.org/2000/svg">
<path d="M175.045 132.721L174.726 135.591L180.306 129.068C180.973 129.138 181.644 129.173 182.315 129.175" stroke="#263238" stroke-linecap="round" stroke-linejoin="round"/>
<path d="M168.055 112.926C167.322 114.033 166.862 115.297 166.714 116.616C166.185 121.385 169.925 125.895 175.574 127.981L175.287 130.544" stroke="#263238" stroke-linecap="round" stroke-linejoin="round"/>
<path d="M170.224 110.552C169.86 110.847 169.515 111.163 169.19 111.499" stroke="#263238" stroke-linecap="round" stroke-linejoin="round"/>
<path d="M191.15 110.552C188.603 108.807 185.658 107.73 182.585 107.42C179.338 107.022 176.044 107.506 173.049 108.822" stroke="#263238" stroke-linecap="round" stroke-linejoin="round"/>
<path d="M186.197 128.789C191.527 127.686 195.566 124.279 196.037 119.859C196.382 116.768 194.934 113.787 192.347 111.5" stroke="#263238" stroke-linecap="round" stroke-linejoin="round"/>
<path d="M173.053 113.722C173.504 113.806 173.967 113.8 174.416 113.704C174.865 113.608 175.291 113.425 175.669 113.164L177.661 114.71C177.522 114.755 177.534 114.46 177.682 114.451C177.829 114.443 177.94 114.579 178.042 114.685C178.51 115.181 179.297 115.198 179.965 115.054C180.634 114.911 181.286 114.644 181.966 114.669C182.371 114.711 182.769 114.803 183.151 114.943C185.89 115.792 188.739 116.219 191.577 116.637" stroke="#263238" stroke-linecap="round" stroke-linejoin="round"/>
<path d="M170.699 116.637C171.109 116.612 173.393 116.637 173.721 116.362L174.279 117.334L174.894 116.739C175 117.149 175.107 117.559 175.209 117.945C175.673 118.055 175.619 117.162 176.029 116.895C176.155 116.833 176.3 116.821 176.435 116.862C176.569 116.902 176.684 116.991 176.755 117.112C176.889 117.364 176.954 117.647 176.944 117.932L179.748 118.162L180.293 118.207C180.488 117.91 180.777 117.686 181.113 117.572C181.011 118.219 181.827 118.588 182.474 118.72C185.664 119.37 188.87 119.932 192.093 120.405" stroke="#263238" stroke-linecap="round" stroke-linejoin="round"/>
<path d="M171.946 121.089C172.204 121.27 172.52 120.934 172.835 120.893C173.151 120.852 173.41 121.089 173.688 121.233C173.967 121.376 174.426 121.315 174.443 121.003C174.508 121.413 175.017 121.561 175.431 121.618L186.197 123.131" stroke="#263238" stroke-linecap="round" stroke-linejoin="round"/>
<path d="M27.8799 107.084L32.1931 112.889L31.328 105.292C32.3592 104.791 33.3455 104.203 34.2759 103.533C38.6957 100.335 40.4751 95.1897 38.8556 91.0446C37.7199 88.15 35.059 86.182 31.697 85.3661" stroke="#263238" stroke-linecap="round" stroke-linejoin="round"/>
<path d="M10.8445 97.9244C10.7101 99.2392 10.89 100.567 11.3693 101.799C13.1159 106.268 18.5197 108.523 24.4893 107.744" stroke="#263238" stroke-linecap="round" stroke-linejoin="round"/>
<path d="M11.6605 94.8125C11.4773 95.2429 11.3199 95.6837 11.189 96.1327" stroke="#263238" stroke-linecap="round" stroke-linejoin="round"/>
<path d="M30.1925 85.0873C27.1249 84.7206 24.0144 85.1323 21.1479 86.2845C18.0884 87.4414 15.3974 89.4016 13.3579 91.9589" stroke="#263238" stroke-linecap="round" stroke-linejoin="round"/>
<path d="M15.6372 96.3008C16.5192 96.0257 17.2563 95.4125 17.6872 94.5952L20.1472 95.038C20.0406 95.1405 19.9176 94.874 20.0447 94.7961C20.1718 94.7182 20.3317 94.7961 20.4547 94.8371C21.1025 95.0585 21.8036 94.71 22.3284 94.2713C22.8532 93.8326 23.3042 93.2873 23.9233 93.0003C24.3015 92.8492 24.6966 92.7446 25.1 92.6887C27.9208 92.1721 30.6391 91.2209 33.3492 90.2738" stroke="#263238" stroke-linecap="round" stroke-linejoin="round"/>
<path d="M14.9077 99.9785C15.2726 99.7612 17.2939 98.7239 17.4579 98.3385L18.405 98.9412C18.4952 98.6706 18.5854 98.3959 18.6715 98.1212L19.512 99.0437C19.9753 98.9289 19.512 98.1622 19.7334 97.744C19.8159 97.6305 19.9384 97.5525 20.0762 97.5259C20.2139 97.4992 20.3567 97.5259 20.4755 97.6005C20.7097 97.7576 20.8979 97.9741 21.0208 98.2278L23.6079 97.129L24.1163 96.9158C24.1454 96.5637 24.2895 96.2309 24.5263 95.9687C24.7395 96.596 25.6333 96.5386 26.2647 96.3541C29.3944 95.4521 32.4953 94.4599 35.5676 93.3775" stroke="#263238" stroke-linecap="round" stroke-linejoin="round"/>
<path d="M18.0811 103.34C18.3968 103.381 18.5198 102.93 18.7781 102.75C19.0364 102.57 19.3808 102.664 19.6924 102.656C20.004 102.648 20.3853 102.389 20.2541 102.106C20.5042 102.438 21.0249 102.332 21.4144 102.192L31.6644 98.5229" stroke="#263238" stroke-linecap="round" stroke-linejoin="round"/>
<path d="M152.901 36.7442H50.6718C48.6814 36.7442 47.0679 38.3577 47.0679 40.3481V132.442C47.0679 134.433 48.6814 136.046 50.6718 136.046H152.901C154.892 136.046 156.505 134.433 156.505 132.442V40.3481C156.505 38.3577 154.892 36.7442 152.901 36.7442Z" fill="white"/>
<path opacity="0.2" d="M156.505 91.1389V132.549C156.505 133.476 156.137 134.365 155.482 135.02C154.827 135.676 153.939 136.045 153.012 136.046H50.5652C49.6376 136.046 48.7481 135.678 48.0922 135.022C47.4363 134.366 47.0679 133.476 47.0679 132.549V124.349H47.2852V129.876C47.2852 130.401 47.3887 130.921 47.5899 131.406C47.791 131.892 48.0858 132.333 48.4575 132.704C48.8291 133.075 49.2703 133.369 49.7557 133.57C50.2412 133.771 50.7615 133.874 51.2868 133.873H150.257C150.782 133.874 151.302 133.771 151.788 133.57C152.273 133.369 152.714 133.075 153.086 132.704C153.458 132.333 153.752 131.892 153.954 131.406C154.155 130.921 154.258 130.401 154.258 129.876V97.2807C154.258 96.5423 153.965 95.8342 153.443 95.3121C152.921 94.7901 152.213 94.4968 151.474 94.4968H47.0679V91.1389H156.505Z" fill="black"/>
<path d="M152.901 36.7442H50.6718C48.6814 36.7442 47.0679 38.3577 47.0679 40.3481V132.442C47.0679 134.433 48.6814 136.046 50.6718 136.046H152.901C154.892 136.046 156.505 134.433 156.505 132.442V40.3481C156.505 38.3577 154.892 36.7442 152.901 36.7442Z" stroke="#263238" stroke-linecap="round" stroke-linejoin="round"/>
<path d="M146.977 102.93V98.1868C146.977 97.9562 146.932 97.7277 146.844 97.5146C146.756 97.3014 146.627 97.1078 146.464 96.9447C146.301 96.7817 146.107 96.6524 145.894 96.5644C145.681 96.4764 145.452 96.4314 145.222 96.432H58.351C57.8856 96.432 57.4393 96.6168 57.1102 96.9459C56.7811 97.275 56.5962 97.7213 56.5962 98.1868V102.93C56.5962 103.396 56.4113 103.842 56.0823 104.171C55.7532 104.5 55.3068 104.685 54.8414 104.685C54.3749 104.685 53.9275 104.871 53.5977 105.2C53.2678 105.53 53.0825 105.978 53.0825 106.444V115.804C53.0825 117.963 53.94 120.033 55.4662 121.559C56.9925 123.086 59.0626 123.943 61.221 123.943C61.5679 123.943 61.9006 124.081 62.1458 124.326C62.3911 124.571 62.5289 124.904 62.5289 125.251V128.055C62.5289 129.09 62.9401 130.083 63.6721 130.815C64.4041 131.547 65.3969 131.958 66.4321 131.958H137.141C138.176 131.958 139.169 131.547 139.901 130.815C140.633 130.083 141.044 129.09 141.044 128.055V125.251C141.044 124.904 141.182 124.571 141.427 124.326C141.672 124.081 142.005 123.943 142.352 123.943C143.421 123.943 144.479 123.732 145.466 123.323C146.454 122.914 147.351 122.315 148.107 121.559C148.862 120.804 149.462 119.906 149.871 118.919C150.28 117.932 150.49 116.873 150.49 115.804V106.444C150.49 105.978 150.306 105.532 149.977 105.202C149.648 104.872 149.201 104.686 148.736 104.685C148.27 104.685 147.823 104.501 147.493 104.172C147.163 103.843 146.978 103.396 146.977 102.93Z" fill="#263238"/>
<path d="M63.2508 99.1175H60.2127C59.8409 99.1175 59.4842 99.2652 59.2212 99.5282C58.9583 99.7911 58.8105 100.148 58.8105 100.52V101.299C58.8105 102.914 60.1184 104.964 61.7338 104.964C63.3492 104.964 64.6571 102.914 64.6571 101.299V100.52C64.6561 100.147 64.5074 99.7908 64.2438 99.5279C63.9802 99.2651 63.6231 99.1175 63.2508 99.1175Z" fill="white" stroke="#263238" stroke-linecap="round" stroke-linejoin="round"/>
<path d="M70.5201 99.1175H67.482C67.1097 99.1175 66.7526 99.2651 66.489 99.5279C66.2254 99.7908 66.0768 100.147 66.0757 100.52V101.299C66.0757 102.914 67.3836 104.964 68.999 104.964C70.6144 104.964 71.9223 102.914 71.9223 101.299V100.52C71.9223 100.148 71.7746 99.7911 71.5116 99.5282C71.2486 99.2652 70.892 99.1175 70.5201 99.1175Z" fill="white" stroke="#263238" stroke-linecap="round" stroke-linejoin="round"/>
<path d="M77.8182 99.1175H74.7801C74.4082 99.1175 74.0516 99.2652 73.7886 99.5282C73.5257 99.7911 73.3779 100.148 73.3779 100.52V101.299C73.3779 102.914 74.6858 104.964 76.2971 104.964C77.9084 104.964 79.2204 102.914 79.2204 101.299V100.52C79.2204 100.148 79.0727 99.7911 78.8097 99.5282C78.5468 99.2652 78.1901 99.1175 77.8182 99.1175Z" fill="white" stroke="#263238" stroke-linecap="round" stroke-linejoin="round"/>
<path d="M85.0995 99.1175H82.0614C81.6895 99.1175 81.3328 99.2652 81.0699 99.5282C80.8069 99.7911 80.6592 100.148 80.6592 100.52V101.299C80.6592 102.914 81.9671 104.964 83.5825 104.964C85.1979 104.964 86.5017 102.914 86.5017 101.299V100.52C86.5017 100.336 86.4654 100.153 86.3949 99.9831C86.3245 99.813 86.2212 99.6584 86.091 99.5282C85.9608 99.398 85.8062 99.2947 85.6361 99.2242C85.4659 99.1538 85.2836 99.1175 85.0995 99.1175Z" fill="white" stroke="#263238" stroke-linecap="round" stroke-linejoin="round"/>
<path d="M92.3812 99.1175H89.3431C88.9712 99.1175 88.6146 99.2652 88.3516 99.5282C88.0886 99.7911 87.9409 100.148 87.9409 100.52V101.299C87.9409 102.914 89.2488 104.964 90.8642 104.964C92.4796 104.964 93.7875 102.914 93.7875 101.299V100.52C93.7864 100.147 93.6378 99.7908 93.3742 99.5279C93.1106 99.2651 92.7535 99.1175 92.3812 99.1175Z" fill="white" stroke="#263238" stroke-linecap="round" stroke-linejoin="round"/>
<path d="M99.6671 99.1175H96.629C96.2567 99.1175 95.8996 99.2651 95.636 99.5279C95.3724 99.7908 95.2237 100.147 95.2227 100.52V101.299C95.2227 102.914 96.5306 104.964 98.146 104.964C99.7614 104.964 101.069 102.914 101.069 101.299V100.52C101.069 100.148 100.922 99.7911 100.659 99.5282C100.396 99.2652 100.039 99.1175 99.6671 99.1175Z" fill="white" stroke="#263238" stroke-linecap="round" stroke-linejoin="round"/>
<path d="M106.949 99.1175H103.911C103.539 99.1175 103.182 99.2652 102.919 99.5282C102.656 99.7911 102.508 100.148 102.508 100.52V101.299C102.508 102.914 103.816 104.964 105.428 104.964C107.039 104.964 108.351 102.914 108.351 101.299V100.52C108.351 100.148 108.203 99.7911 107.94 99.5282C107.677 99.2652 107.32 99.1175 106.949 99.1175Z" fill="white" stroke="#263238" stroke-linecap="round" stroke-linejoin="round"/>
<path d="M114.23 99.1175H111.192C110.82 99.1175 110.464 99.2652 110.201 99.5282C109.938 99.7911 109.79 100.148 109.79 100.52V101.299C109.79 102.914 111.098 104.964 112.713 104.964C114.329 104.964 115.633 102.914 115.633 101.299V100.52C115.633 100.148 115.485 99.7911 115.222 99.5282C114.959 99.2652 114.602 99.1175 114.23 99.1175Z" fill="white" stroke="#263238" stroke-linecap="round" stroke-linejoin="round"/>
<path d="M121.512 99.1175H118.49C118.306 99.1175 118.124 99.1537 117.953 99.2242C117.783 99.2947 117.629 99.398 117.499 99.5282C117.368 99.6584 117.265 99.8129 117.195 99.9831C117.124 100.153 117.088 100.336 117.088 100.52V101.299C117.088 102.914 118.396 104.964 120.011 104.964C121.627 104.964 122.934 102.914 122.934 101.299V100.52C122.934 100.334 122.897 100.15 122.825 99.9789C122.753 99.8077 122.648 99.6524 122.515 99.5221C122.383 99.3917 122.226 99.2888 122.054 99.2194C121.882 99.1499 121.698 99.1153 121.512 99.1175Z" fill="white" stroke="#263238" stroke-linecap="round" stroke-linejoin="round"/>
<path d="M128.797 99.1175H125.759C125.387 99.1175 125.03 99.2651 124.766 99.5279C124.503 99.7908 124.354 100.147 124.353 100.52V101.299C124.353 102.914 125.661 104.964 127.276 104.964C128.892 104.964 130.2 102.914 130.2 101.299V100.52C130.2 100.148 130.052 99.7911 129.789 99.5282C129.526 99.2652 129.169 99.1175 128.797 99.1175Z" fill="white" stroke="#263238" stroke-linecap="round" stroke-linejoin="round"/>
<path d="M136.079 99.1175H133.041C132.669 99.1175 132.312 99.2652 132.049 99.5282C131.786 99.7911 131.639 100.148 131.639 100.52V101.299C131.639 102.914 132.947 104.964 134.558 104.964C136.169 104.964 137.481 102.914 137.481 101.299V100.52C137.481 100.148 137.333 99.7911 137.07 99.5282C136.807 99.2652 136.451 99.1175 136.079 99.1175Z" fill="white" stroke="#263238" stroke-linecap="round" stroke-linejoin="round"/>
<path d="M143.361 99.1175H140.323C139.951 99.1175 139.594 99.2652 139.331 99.5282C139.068 99.7911 138.92 100.148 138.92 100.52V101.299C138.92 102.91 140.22 104.96 141.86 104.96C143.5 104.96 144.779 102.91 144.779 101.295V100.516C144.779 100.33 144.742 100.147 144.67 99.9764C144.598 99.8057 144.493 99.6509 144.361 99.5209C144.229 99.3909 144.073 99.2883 143.901 99.2191C143.73 99.1498 143.546 99.1153 143.361 99.1175Z" fill="white" stroke="#263238" stroke-linecap="round" stroke-linejoin="round"/>
<path d="M63.2508 114.55H60.2127C59.8409 114.55 59.4842 114.698 59.2212 114.961C58.9583 115.224 58.8105 115.58 58.8105 115.952V116.731C58.8105 118.346 60.1184 120.396 61.7338 120.396C63.3492 120.396 64.6571 118.346 64.6571 116.731V115.952C64.6561 115.58 64.5074 115.223 64.2438 114.96C63.9802 114.697 63.6231 114.55 63.2508 114.55Z" fill="white" stroke="#263238" stroke-linecap="round" stroke-linejoin="round"/>
<path d="M70.5201 114.55H67.482C67.1097 114.55 66.7526 114.697 66.489 114.96C66.2254 115.223 66.0768 115.58 66.0757 115.952V116.731C66.0757 118.346 67.3836 120.396 68.999 120.396C70.6144 120.396 71.9223 118.346 71.9223 116.731V115.952C71.9223 115.58 71.7746 115.224 71.5116 114.961C71.2486 114.698 70.892 114.55 70.5201 114.55Z" fill="white" stroke="#263238" stroke-linecap="round" stroke-linejoin="round"/>
<path d="M77.8182 114.55H74.7801C74.4082 114.55 74.0516 114.698 73.7886 114.961C73.5257 115.224 73.3779 115.58 73.3779 115.952V116.731C73.3779 118.346 74.6858 120.396 76.2971 120.396C77.9084 120.396 79.2204 118.346 79.2204 116.731V115.952C79.2204 115.58 79.0727 115.224 78.8097 114.961C78.5468 114.698 78.1901 114.55 77.8182 114.55Z" fill="white" stroke="#263238" stroke-linecap="round" stroke-linejoin="round"/>
<path d="M85.0995 114.55H82.0614C81.6895 114.55 81.3328 114.698 81.0699 114.961C80.8069 115.224 80.6592 115.58 80.6592 115.952V116.731C80.6592 118.346 81.9671 120.396 83.5825 120.396C85.1979 120.396 86.5017 118.346 86.5017 116.731V115.952C86.5017 115.768 86.4654 115.586 86.3949 115.415C86.3245 115.245 86.2212 115.091 86.091 114.961C85.9608 114.83 85.8062 114.727 85.6361 114.657C85.4659 114.586 85.2836 114.55 85.0995 114.55Z" fill="white" stroke="#263238" stroke-linecap="round" stroke-linejoin="round"/>
<path d="M92.3812 114.55H89.3431C88.9712 114.55 88.6146 114.698 88.3516 114.961C88.0886 115.224 87.9409 115.58 87.9409 115.952V116.731C87.9409 118.346 89.2488 120.396 90.8642 120.396C92.4796 120.396 93.7875 118.346 93.7875 116.731V115.952C93.7864 115.58 93.6378 115.223 93.3742 114.96C93.1106 114.697 92.7535 114.55 92.3812 114.55Z" fill="white" stroke="#263238" stroke-linecap="round" stroke-linejoin="round"/>
<path d="M99.6671 114.55H96.629C96.2567 114.55 95.8996 114.697 95.636 114.96C95.3724 115.223 95.2237 115.58 95.2227 115.952V116.731C95.2227 118.346 96.5306 120.396 98.146 120.396C99.7614 120.396 101.069 118.346 101.069 116.731V115.952C101.069 115.58 100.922 115.224 100.659 114.961C100.396 114.698 100.039 114.55 99.6671 114.55Z" fill="white" stroke="#263238" stroke-linecap="round" stroke-linejoin="round"/>
<path d="M106.949 114.55H103.911C103.539 114.55 103.182 114.698 102.919 114.961C102.656 115.224 102.508 115.58 102.508 115.952V116.731C102.508 118.346 103.816 120.396 105.428 120.396C107.039 120.396 108.351 118.346 108.351 116.731V115.952C108.351 115.58 108.203 115.224 107.94 114.961C107.677 114.698 107.32 114.55 106.949 114.55Z" fill="white" stroke="#263238" stroke-linecap="round" stroke-linejoin="round"/>
<path d="M114.23 114.55H111.192C110.82 114.55 110.464 114.698 110.201 114.961C109.938 115.224 109.79 115.58 109.79 115.952V116.731C109.79 118.346 111.098 120.396 112.713 120.396C114.329 120.396 115.633 118.346 115.633 116.731V115.952C115.633 115.58 115.485 115.224 115.222 114.961C114.959 114.698 114.602 114.55 114.23 114.55Z" fill="white" stroke="#263238" stroke-linecap="round" stroke-linejoin="round"/>
<path d="M121.512 114.55H118.49C118.306 114.55 118.124 114.586 117.953 114.657C117.783 114.727 117.629 114.83 117.499 114.961C117.368 115.091 117.265 115.245 117.195 115.415C117.124 115.586 117.088 115.768 117.088 115.952V116.731C117.088 118.346 118.396 120.396 120.011 120.396C121.627 120.396 122.934 118.346 122.934 116.731V115.952C122.934 115.766 122.897 115.583 122.825 115.411C122.753 115.24 122.648 115.085 122.515 114.955C122.383 114.824 122.226 114.721 122.054 114.652C121.882 114.582 121.698 114.548 121.512 114.55Z" fill="white" stroke="#263238" stroke-linecap="round" stroke-linejoin="round"/>
<path d="M128.797 114.55H125.759C125.387 114.55 125.03 114.697 124.766 114.96C124.503 115.223 124.354 115.58 124.353 115.952V116.731C124.353 118.346 125.661 120.396 127.276 120.396C128.892 120.396 130.2 118.346 130.2 116.731V115.952C130.2 115.58 130.052 115.224 129.789 114.961C129.526 114.698 129.169 114.55 128.797 114.55Z" fill="white" stroke="#263238" stroke-linecap="round" stroke-linejoin="round"/>
<path d="M136.079 114.55H133.041C132.669 114.55 132.312 114.698 132.049 114.961C131.786 115.224 131.639 115.58 131.639 115.952V116.731C131.639 118.346 132.947 120.396 134.558 120.396C136.169 120.396 137.481 118.346 137.481 116.731V115.952C137.481 115.58 137.333 115.224 137.07 114.961C136.807 114.698 136.451 114.55 136.079 114.55Z" fill="white" stroke="#263238" stroke-linecap="round" stroke-linejoin="round"/>
<path d="M143.361 114.55H140.323C139.951 114.55 139.594 114.698 139.331 114.961C139.068 115.224 138.92 115.58 138.92 115.952V116.731C138.92 118.346 140.228 120.396 141.844 120.396C143.459 120.396 144.763 118.346 144.763 116.731V115.952C144.763 115.58 144.615 115.224 144.352 114.961C144.089 114.698 143.733 114.55 143.361 114.55Z" fill="white" stroke="#263238" stroke-linecap="round" stroke-linejoin="round"/>
<path d="M59.6098 107.084H56.5799C56.208 107.084 55.8514 107.232 55.5884 107.494C55.3255 107.757 55.1777 108.114 55.1777 108.486V109.265C55.1777 110.876 56.4856 112.93 58.101 112.93C59.7164 112.93 61.0202 110.88 61.0202 109.265V108.486C61.0202 108.301 60.9837 108.118 60.9127 107.947C60.8417 107.777 60.7377 107.622 60.6066 107.492C60.4756 107.361 60.32 107.258 60.149 107.188C59.9779 107.118 59.7947 107.083 59.6098 107.084Z" fill="white" stroke="#263238" stroke-linecap="round" stroke-linejoin="round"/>
<path d="M66.8915 107.084H63.8534C63.4815 107.084 63.1248 107.231 62.8619 107.494C62.5989 107.757 62.4512 108.114 62.4512 108.486V109.265C62.4512 110.876 63.7591 112.93 65.3745 112.93C66.9899 112.93 68.2978 110.88 68.2978 109.265V108.486C68.2967 108.114 68.148 107.757 67.8844 107.494C67.6208 107.231 67.2637 107.084 66.8915 107.084Z" fill="white" stroke="#263238" stroke-linecap="round" stroke-linejoin="round"/>
<path d="M74.1773 107.084H71.1392C70.7669 107.084 70.4099 107.231 70.1463 107.494C69.8826 107.757 69.734 108.114 69.7329 108.486V109.265C69.7329 110.876 71.0449 112.93 72.6562 112.93C74.2675 112.93 75.5795 110.88 75.5795 109.265V108.486C75.5795 108.114 75.4318 107.757 75.1688 107.494C74.9059 107.231 74.5492 107.084 74.1773 107.084Z" fill="white" stroke="#263238" stroke-linecap="round" stroke-linejoin="round"/>
<path d="M81.4588 107.084H78.4208C78.0489 107.084 77.6922 107.231 77.4292 107.494C77.1663 107.757 77.0186 108.114 77.0186 108.486V109.265C77.0186 110.876 78.3265 112.93 79.9377 112.93C81.549 112.93 82.861 110.88 82.861 109.265V108.486C82.861 108.302 82.8248 108.119 82.7543 107.949C82.6838 107.779 82.5806 107.625 82.4504 107.494C82.3201 107.364 82.1656 107.261 81.9954 107.19C81.8253 107.12 81.643 107.084 81.4588 107.084Z" fill="white" stroke="#263238" stroke-linecap="round" stroke-linejoin="round"/>
<path d="M88.7402 107.084H85.6898C85.3179 107.084 84.9613 107.231 84.6983 107.494C84.4353 107.757 84.2876 108.114 84.2876 108.486V109.265C84.2876 110.876 85.5955 112.93 87.2109 112.93C88.8263 112.93 90.1301 110.88 90.1301 109.265V108.486C90.1301 108.116 89.9841 107.761 89.7238 107.499C89.4634 107.236 89.1099 107.087 88.7402 107.084Z" fill="white" stroke="#263238" stroke-linecap="round" stroke-linejoin="round"/>
<path d="M96.0218 107.084H92.9837C92.6119 107.084 92.2552 107.231 91.9922 107.494C91.7293 107.757 91.5815 108.114 91.5815 108.486V109.265C91.5815 110.876 92.8894 112.93 94.5048 112.93C96.1202 112.93 97.4281 110.88 97.4281 109.265V108.486C97.4271 108.114 97.2784 107.757 97.0148 107.494C96.7512 107.231 96.3941 107.084 96.0218 107.084Z" fill="white" stroke="#263238" stroke-linecap="round" stroke-linejoin="round"/>
<path d="M103.32 107.084H100.282C99.9095 107.084 99.5524 107.231 99.2888 107.494C99.0252 107.757 98.8766 108.114 98.8755 108.486V109.265C98.8755 110.876 100.187 112.93 101.799 112.93C103.41 112.93 104.722 110.88 104.722 109.265V108.486C104.722 108.114 104.574 107.757 104.311 107.494C104.048 107.231 103.692 107.084 103.32 107.084Z" fill="white" stroke="#263238" stroke-linecap="round" stroke-linejoin="round"/>
<path d="M110.589 107.084H107.551C107.179 107.084 106.823 107.231 106.56 107.494C106.297 107.757 106.149 108.114 106.149 108.486V109.265C106.149 110.876 107.457 112.93 109.068 112.93C110.679 112.93 111.991 110.88 111.991 109.265V108.486C111.991 108.114 111.844 107.757 111.581 107.494C111.318 107.231 110.961 107.084 110.589 107.084Z" fill="white" stroke="#263238" stroke-linecap="round" stroke-linejoin="round"/>
<path d="M117.871 107.084H114.833C114.461 107.084 114.104 107.231 113.841 107.494C113.578 107.757 113.431 108.114 113.431 108.486V109.265C113.431 110.876 114.739 112.93 116.354 112.93C117.969 112.93 119.273 110.88 119.273 109.265V108.486C119.273 108.114 119.125 107.757 118.862 107.494C118.6 107.231 118.243 107.084 117.871 107.084Z" fill="white" stroke="#263238" stroke-linecap="round" stroke-linejoin="round"/>
<path d="M125.153 107.084H122.115C121.743 107.084 121.386 107.231 121.123 107.494C120.86 107.757 120.712 108.114 120.712 108.486V109.265C120.712 110.876 122.02 112.93 123.636 112.93C125.251 112.93 126.559 110.88 126.559 109.265V108.486C126.558 108.114 126.409 107.757 126.146 107.494C125.882 107.231 125.525 107.084 125.153 107.084Z" fill="white" stroke="#263238" stroke-linecap="round" stroke-linejoin="round"/>
<path d="M132.43 107.084H129.392C129.02 107.084 128.663 107.231 128.399 107.494C128.136 107.757 127.987 108.114 127.986 108.486V109.265C127.986 110.876 129.298 112.93 130.909 112.93C132.52 112.93 133.832 110.88 133.832 109.265V108.486C133.832 108.114 133.685 107.757 133.422 107.494C133.159 107.231 132.802 107.084 132.43 107.084Z" fill="white" stroke="#263238" stroke-linecap="round" stroke-linejoin="round"/>
<path d="M139.72 107.084H136.681C136.313 107.089 135.962 107.239 135.703 107.502C135.445 107.764 135.3 108.118 135.3 108.486V109.265C135.3 110.876 136.608 112.93 138.219 112.93C139.83 112.93 141.142 110.88 141.142 109.265V108.486C141.142 108.3 141.105 108.116 141.034 107.945C140.962 107.773 140.857 107.618 140.724 107.487C140.592 107.357 140.435 107.254 140.262 107.185C140.09 107.115 139.905 107.081 139.72 107.084Z" fill="white" stroke="#263238" stroke-linecap="round" stroke-linejoin="round"/>
<path d="M147.001 107.084H143.963C143.591 107.084 143.235 107.231 142.972 107.494C142.709 107.757 142.561 108.114 142.561 108.486V109.265C142.561 110.876 143.869 112.93 145.484 112.93C147.1 112.93 148.404 110.88 148.404 109.265V108.486C148.404 108.114 148.256 107.757 147.993 107.494C147.73 107.231 147.373 107.084 147.001 107.084Z" fill="white" stroke="#263238" stroke-linecap="round" stroke-linejoin="round"/>
<path d="M129.601 122.323H73.9723C73.2455 122.323 72.6562 122.913 72.6562 123.64V127.633C72.6562 128.36 73.2455 128.949 73.9723 128.949H129.601C130.328 128.949 130.917 128.36 130.917 127.633V123.64C130.917 122.913 130.328 122.323 129.601 122.323Z" fill="white" stroke="#263238" stroke-linecap="round" stroke-linejoin="round"/>
<path d="M137.051 122.713H134.013C133.641 122.713 133.284 122.861 133.021 123.124C132.758 123.387 132.61 123.743 132.61 124.115V124.894C132.61 126.51 133.918 128.56 135.534 128.56C137.149 128.56 138.453 126.51 138.453 124.894V124.115C138.453 123.743 138.305 123.387 138.042 123.124C137.779 122.861 137.423 122.713 137.051 122.713Z" fill="white" stroke="#263238" stroke-linecap="round" stroke-linejoin="round"/>
<path d="M69.5604 122.713H66.5223C66.1504 122.713 65.7938 122.861 65.5308 123.124C65.2678 123.387 65.1201 123.743 65.1201 124.115V124.894C65.1201 126.51 66.428 128.56 68.0434 128.56C69.6588 128.56 70.9667 126.51 70.9667 124.894V124.115C70.9656 123.743 70.817 123.386 70.5534 123.123C70.2898 122.861 69.9327 122.713 69.5604 122.713Z" fill="white" stroke="#263238" stroke-linecap="round" stroke-linejoin="round"/>
<path opacity="0.2" d="M63.4187 101.344C63.5658 101.344 63.7126 101.358 63.8574 101.385C63.8574 101.356 63.8574 101.327 63.8574 101.299V100.52C63.8563 100.358 63.7914 100.204 63.677 100.09C63.5625 99.9767 63.4078 99.9129 63.2465 99.9129H60.2084C60.0478 99.914 59.894 99.9782 59.7805 100.092C59.6669 100.205 59.6026 100.359 59.6016 100.52V101.299C59.6016 102.418 60.4216 103.828 61.3892 104.111C61.0899 102.869 61.7623 101.344 63.4187 101.344Z" fill="black"/>
<path opacity="0.2" d="M70.8642 101.135C70.957 101.128 71.0502 101.128 71.143 101.135V100.503C71.1419 100.343 71.0777 100.189 70.9641 100.075C70.8505 99.9618 70.6968 99.8976 70.5362 99.8965H67.4981C67.3368 99.8965 67.182 99.9603 67.0676 100.074C66.9531 100.188 66.8883 100.342 66.8872 100.503V101.282C66.8872 102.512 67.8589 104.05 68.9372 104.152C68.4411 102.881 69.093 101.135 70.8642 101.135Z" fill="black"/>
<path opacity="0.2" d="M78.3633 101.028H78.4248V100.516C78.4248 100.355 78.3608 100.2 78.247 100.086C78.1332 99.9727 77.9789 99.9088 77.818 99.9088H74.7798C74.6185 99.9087 74.4638 99.9726 74.3493 100.086C74.2349 100.2 74.17 100.354 74.1689 100.516V101.295C74.1689 102.545 75.2021 104.165 76.2968 104.165C76.3501 104.169 76.4035 104.169 76.4567 104.165C75.9073 102.869 76.5429 101.028 78.3633 101.028Z" fill="black"/>
<path opacity="0.2" d="M85.1818 100.819C85.3522 100.814 85.5227 100.828 85.6902 100.86V100.503C85.6902 100.342 85.6262 100.188 85.5124 100.074C85.3986 99.9604 85.2443 99.8965 85.0834 99.8965H82.0453C81.8843 99.8965 81.73 99.9604 81.6162 100.074C81.5024 100.188 81.4385 100.342 81.4385 100.503V101.282C81.4385 102.455 82.3405 103.947 83.3573 104.152C82.6603 102.865 83.263 100.819 85.1818 100.819Z" fill="black"/>
<path opacity="0.2" d="M92.8363 100.819H92.9921V100.511C92.991 100.35 92.9262 100.196 92.8117 100.082C92.6973 99.9685 92.5425 99.9047 92.3812 99.9047H89.3431C89.1825 99.9057 89.0288 99.97 88.9152 100.084C88.8017 100.197 88.7374 100.351 88.7363 100.511V101.29C88.7363 102.541 89.7695 104.16 90.8642 104.16C90.9202 104.164 90.9764 104.164 91.0323 104.16C90.3148 102.869 90.9175 100.819 92.8363 100.819Z" fill="black"/>
<path opacity="0.2" d="M100.18 100.86H100.274V100.503C100.273 100.343 100.209 100.189 100.095 100.075C99.9814 99.9618 99.8277 99.8976 99.6671 99.8965H96.629C96.4676 99.8965 96.3129 99.9603 96.1984 100.074C96.084 100.188 96.0191 100.342 96.0181 100.503V101.282C96.0181 102.533 97.0513 104.152 98.146 104.152C98.2128 104.158 98.28 104.158 98.3469 104.152C97.6745 102.861 98.2854 100.86 100.18 100.86Z" fill="black"/>
<path opacity="0.2" d="M107.207 100.819C107.323 100.821 107.44 100.829 107.555 100.844V100.52C107.555 100.359 107.491 100.204 107.378 100.091C107.264 99.9768 107.11 99.9129 106.949 99.9129H103.911C103.75 99.9129 103.595 99.9768 103.481 100.091C103.368 100.204 103.304 100.359 103.304 100.52V101.299C103.304 102.529 104.321 104.144 105.407 104.169C104.681 102.881 105.28 100.819 107.207 100.819Z" fill="black"/>
<path opacity="0.2" d="M114.837 100.926V100.516C114.837 100.355 114.773 100.2 114.659 100.086C114.545 99.9727 114.391 99.9088 114.23 99.9088H111.192C111.031 99.9088 110.876 99.9727 110.763 100.086C110.649 100.2 110.585 100.355 110.585 100.516V101.295C110.585 102.545 111.614 104.165 112.713 104.165C112.823 104.163 112.932 104.145 113.037 104.111C112.446 102.848 113.049 100.983 114.837 100.926Z" fill="black"/>
<path opacity="0.2" d="M121.524 100.766C121.726 100.765 121.927 100.791 122.123 100.844V100.52C122.122 100.358 122.057 100.204 121.942 100.09C121.828 99.9767 121.673 99.9129 121.512 99.9129H118.49C118.33 99.914 118.176 99.9782 118.062 100.092C117.949 100.205 117.884 100.359 117.883 100.52V101.299C117.883 102.455 118.761 103.915 119.757 104.136C118.99 102.853 119.585 100.766 121.524 100.766Z" fill="black"/>
<path opacity="0.2" d="M128.97 100.766C129.115 100.766 129.261 100.78 129.404 100.807V100.52C129.403 100.359 129.339 100.205 129.225 100.092C129.112 99.9782 128.958 99.914 128.797 99.9129H125.759C125.598 99.9129 125.443 99.9767 125.329 100.09C125.214 100.204 125.15 100.358 125.148 100.52V101.299C125.148 102.529 126.132 104.091 127.198 104.169C126.428 102.881 127.018 100.766 128.97 100.766Z" fill="black"/>
<path opacity="0.2" d="M136.366 100.975C136.473 100.977 136.58 100.985 136.686 100.999V100.52C136.686 100.359 136.622 100.204 136.508 100.091C136.394 99.9768 136.24 99.9129 136.079 99.9129H133.041C132.961 99.9129 132.882 99.9286 132.809 99.9591C132.735 99.9896 132.668 100.034 132.612 100.091C132.555 100.147 132.511 100.214 132.48 100.287C132.45 100.361 132.434 100.44 132.434 100.52V101.299C132.434 102.529 133.418 104.087 134.484 104.169C133.89 102.873 134.517 100.975 136.366 100.975Z" fill="black"/>
<path opacity="0.2" d="M143.968 100.881V100.52C143.968 100.359 143.904 100.204 143.79 100.091C143.676 99.9768 143.522 99.9129 143.361 99.9129H140.323C140.162 99.9129 140.007 99.9768 139.894 100.091C139.78 100.204 139.716 100.359 139.716 100.52V101.299C139.716 102.549 140.745 104.169 141.844 104.169C142.002 104.166 142.158 104.133 142.303 104.07C141.721 102.832 142.27 101.02 143.968 100.881Z" fill="black"/>
<path opacity="0.2" d="M63.6281 116.03C63.7059 116.026 63.7839 116.026 63.8618 116.03V115.944C63.8607 115.783 63.7958 115.628 63.6814 115.515C63.5669 115.401 63.4122 115.337 63.2509 115.337H60.2128C60.0522 115.338 59.8984 115.402 59.7849 115.516C59.6713 115.63 59.607 115.783 59.606 115.944V116.723C59.606 117.973 60.6392 119.593 61.7339 119.593C61.8096 119.591 61.885 119.583 61.9594 119.568C61.041 118.322 61.5986 116.03 63.6281 116.03Z" fill="black"/>
<path opacity="0.2" d="M70.7617 116.03C70.8895 116.03 71.017 116.041 71.143 116.063V115.956C71.1419 115.796 71.0777 115.642 70.9641 115.528C70.8505 115.415 70.6968 115.35 70.5362 115.349H67.4981C67.3368 115.349 67.182 115.413 67.0676 115.527C66.9531 115.641 66.8883 115.795 66.8872 115.956V116.735C66.8872 117.986 67.9204 119.605 69.0151 119.605H69.1053C68.1664 118.342 68.7199 116.03 70.7617 116.03Z" fill="black"/>
<path opacity="0.2" d="M77.9986 116.132C78.1361 116.133 78.2733 116.145 78.4086 116.169V115.952C78.4086 115.872 78.3929 115.793 78.3624 115.72C78.3319 115.646 78.2873 115.579 78.2309 115.523C78.1746 115.467 78.1077 115.422 78.034 115.391C77.9604 115.361 77.8815 115.345 77.8018 115.345H74.7637C74.6024 115.345 74.4477 115.409 74.3332 115.523C74.2188 115.636 74.1539 115.791 74.1528 115.952V116.731C74.1528 117.961 75.1696 119.572 76.2561 119.601C75.4402 118.326 76.0101 116.132 77.9986 116.132Z" fill="black"/>
<path opacity="0.2" d="M85.3906 116.186C85.4962 116.186 85.6016 116.193 85.7063 116.206V115.952C85.7063 115.872 85.6906 115.793 85.6601 115.72C85.6296 115.646 85.5849 115.579 85.5286 115.523C85.4722 115.467 85.4053 115.422 85.3317 115.391C85.2581 115.361 85.1792 115.345 85.0995 115.345H82.0614C81.9817 115.345 81.9028 115.361 81.8292 115.391C81.7556 115.422 81.6887 115.467 81.6323 115.523C81.576 115.579 81.5313 115.646 81.5008 115.72C81.4703 115.793 81.4546 115.872 81.4546 115.952V116.731C81.4546 117.982 82.4837 119.601 83.5825 119.601H83.6317C82.8445 118.318 83.4308 116.186 85.3906 116.186Z" fill="black"/>
<path opacity="0.2" d="M92.5247 116.03C92.6816 116.03 92.8381 116.045 92.9921 116.075V115.956C92.991 115.795 92.9262 115.641 92.8117 115.527C92.6973 115.413 92.5425 115.349 92.3812 115.349H89.3431C89.1825 115.35 89.0288 115.415 88.9152 115.528C88.8017 115.642 88.7374 115.796 88.7363 115.956V116.735C88.7363 117.986 89.7695 119.605 90.8642 119.605C89.9294 118.351 90.4788 116.03 92.5247 116.03Z" fill="black"/>
<path opacity="0.2" d="M99.9172 116.079C100.037 116.08 100.156 116.09 100.274 116.108V115.952C100.273 115.791 100.209 115.638 100.095 115.524C99.9814 115.411 99.8277 115.346 99.6671 115.345H96.629C96.4676 115.345 96.3129 115.409 96.1984 115.523C96.084 115.636 96.0191 115.791 96.0181 115.952V116.731C96.0181 117.982 97.0513 119.601 98.146 119.601H98.2239C97.3383 118.33 97.9041 116.079 99.9172 116.079Z" fill="black"/>
<path opacity="0.2" d="M107.469 116.235H107.555V115.948C107.555 115.787 107.491 115.633 107.378 115.519C107.264 115.405 107.11 115.341 106.949 115.341H103.911C103.75 115.341 103.595 115.405 103.481 115.519C103.368 115.633 103.304 115.787 103.304 115.948V116.727C103.304 117.977 104.333 119.597 105.428 119.597C105.508 119.596 105.587 119.586 105.665 119.568C104.96 118.289 105.546 116.235 107.469 116.235Z" fill="black"/>
<path opacity="0.2" d="M114.8 116.079H114.824V115.952C114.824 115.872 114.809 115.793 114.778 115.72C114.748 115.646 114.703 115.579 114.647 115.523C114.59 115.467 114.523 115.422 114.45 115.391C114.376 115.361 114.297 115.345 114.218 115.345H111.192C111.112 115.345 111.033 115.361 110.96 115.391C110.886 115.422 110.819 115.467 110.763 115.523C110.706 115.579 110.662 115.646 110.631 115.72C110.601 115.793 110.585 115.872 110.585 115.952V116.731C110.585 117.982 111.614 119.601 112.713 119.601C112.839 119.599 112.963 119.577 113.082 119.535C112.25 118.264 112.828 116.079 114.8 116.079Z" fill="black"/>
<path opacity="0.2" d="M121.889 115.923H122.119C122.112 115.766 122.046 115.618 121.933 115.509C121.82 115.399 121.669 115.338 121.512 115.337H118.49C118.33 115.338 118.176 115.402 118.062 115.516C117.949 115.63 117.884 115.783 117.883 115.944V116.723C117.883 117.973 118.917 119.593 120.011 119.593C120.111 119.59 120.21 119.575 120.306 119.548C119.277 118.326 119.81 115.923 121.889 115.923Z" fill="black"/>
<path opacity="0.2" d="M129.392 116.03V115.956C129.391 115.796 129.327 115.642 129.213 115.528C129.1 115.415 128.946 115.35 128.785 115.349H125.747C125.586 115.349 125.431 115.413 125.317 115.527C125.202 115.641 125.137 115.795 125.136 115.956V116.735C125.136 117.986 126.169 119.605 127.264 119.605C127.404 119.603 127.542 119.578 127.674 119.531C126.817 118.26 127.383 116.03 129.392 116.03Z" fill="black"/>
<path opacity="0.2" d="M136.53 116.03H136.694V115.948C136.694 115.868 136.678 115.789 136.648 115.716C136.617 115.642 136.573 115.575 136.516 115.519C136.46 115.463 136.393 115.418 136.319 115.387C136.246 115.357 136.167 115.341 136.087 115.341H133.049C132.888 115.341 132.734 115.405 132.62 115.519C132.506 115.633 132.442 115.787 132.442 115.948V116.727C132.442 117.977 133.471 119.597 134.566 119.597C134.663 119.596 134.76 119.582 134.853 119.556C133.939 118.301 134.501 116.03 136.53 116.03Z" fill="black"/>
<path opacity="0.2" d="M143.705 116.342C143.795 116.342 143.886 116.342 143.968 116.342V115.932C143.968 115.771 143.904 115.616 143.79 115.502C143.676 115.389 143.522 115.325 143.361 115.325H140.323C140.162 115.325 140.007 115.389 139.894 115.502C139.78 115.616 139.716 115.771 139.716 115.932V116.711C139.716 117.961 140.745 119.581 141.844 119.581C141.208 118.31 141.823 116.342 143.705 116.342Z" fill="black"/>
<path opacity="0.2" d="M60.1674 108.687H60.2207V108.486C60.2197 108.325 60.1548 108.17 60.0404 108.057C59.9259 107.943 59.7712 107.879 59.6098 107.879H56.5799C56.419 107.879 56.2647 107.943 56.1509 108.057C56.0371 108.171 55.9731 108.325 55.9731 108.486V109.265C55.9731 110.516 57.0022 112.135 58.101 112.135C58.2066 112.132 58.3114 112.116 58.4126 112.086C57.6254 110.807 58.2199 108.687 60.1674 108.687Z" fill="black"/>
<path opacity="0.2" d="M67.2974 108.687H67.5024V108.478C67.5013 108.316 67.4365 108.162 67.322 108.048C67.2076 107.935 67.0528 107.871 66.8915 107.871H63.8534C63.6928 107.872 63.5391 107.936 63.4255 108.05C63.3119 108.163 63.2477 108.317 63.2466 108.478V109.257C63.2466 110.507 64.2798 112.127 65.3745 112.127C65.4345 112.131 65.4948 112.131 65.5549 112.127C64.7472 110.843 65.3294 108.687 67.2974 108.687Z" fill="black"/>
<path opacity="0.2" d="M74.7471 108.687H74.784V108.486C74.7829 108.325 74.7187 108.172 74.6051 108.058C74.4915 107.945 74.3378 107.88 74.1772 107.879H71.1391C71.0585 107.878 70.9786 107.893 70.9038 107.923C70.829 107.953 70.7608 107.997 70.7033 108.054C70.6457 108.11 70.5999 108.177 70.5685 108.252C70.537 108.326 70.5206 108.405 70.52 108.486V109.265C70.52 110.515 71.5532 112.135 72.6479 112.135C72.7579 112.134 72.8671 112.116 72.9718 112.082C72.2051 110.807 72.7914 108.687 74.7471 108.687Z" fill="black"/>
<path opacity="0.2" d="M81.8771 108.65H82.0657V108.494C82.0657 108.333 82.0017 108.179 81.8879 108.065C81.7741 107.951 81.6198 107.887 81.4589 107.887H78.4208C78.2598 107.887 78.1055 107.951 77.9917 108.065C77.8779 108.179 77.814 108.333 77.814 108.494V109.273C77.814 110.524 78.8431 112.143 79.9378 112.143C80.0121 112.142 80.0862 112.133 80.1592 112.119C79.3105 110.843 79.8845 108.65 81.8771 108.65Z" fill="black"/>
<path opacity="0.2" d="M88.9698 108.687C89.1003 108.687 89.2306 108.698 89.3593 108.72V108.486C89.3593 108.325 89.2954 108.171 89.1816 108.057C89.0678 107.943 88.9134 107.879 88.7525 107.879H85.6898C85.5289 107.879 85.3745 107.943 85.2607 108.057C85.1469 108.171 85.083 108.325 85.083 108.486V109.265C85.083 110.516 86.1121 112.135 87.2109 112.135C86.3991 110.86 86.9772 108.687 88.9698 108.687Z" fill="black"/>
<path opacity="0.2" d="M96.3007 108.425C96.4103 108.425 96.5198 108.432 96.6286 108.445C96.6173 108.292 96.5485 108.148 96.436 108.043C96.3235 107.938 96.1756 107.88 96.0218 107.879H92.9838C92.8231 107.88 92.6694 107.945 92.5559 108.058C92.4423 108.172 92.378 108.325 92.377 108.486V109.265C92.377 110.516 93.4102 112.135 94.5049 112.135C94.5835 112.134 94.6619 112.124 94.7386 112.106C93.6726 110.889 94.1933 108.425 96.3007 108.425Z" fill="black"/>
<path opacity="0.2" d="M103.64 108.736C103.734 108.736 103.828 108.736 103.914 108.736V108.47C103.913 108.309 103.849 108.155 103.736 108.042C103.622 107.928 103.468 107.864 103.308 107.863H100.27C100.108 107.863 99.9535 107.927 99.8391 108.04C99.7246 108.154 99.6598 108.308 99.6587 108.47V109.249C99.6587 110.499 100.692 112.119 101.787 112.119H101.869C101.102 110.848 101.68 108.736 103.64 108.736Z" fill="black"/>
<path opacity="0.2" d="M111.196 108.486C111.196 108.325 111.132 108.171 111.018 108.057C110.905 107.943 110.75 107.879 110.589 107.879H107.551C107.471 107.879 107.393 107.895 107.319 107.925C107.245 107.956 107.178 108.001 107.122 108.057C107.066 108.113 107.021 108.18 106.991 108.254C106.96 108.327 106.944 108.406 106.944 108.486V109.265C106.944 110.516 107.973 112.135 109.068 112.135C109.287 112.13 109.501 112.07 109.691 111.963C108.863 110.741 109.363 108.65 111.196 108.486Z" fill="black"/>
<path opacity="0.2" d="M118.49 108.65V108.494C118.49 108.333 118.426 108.179 118.312 108.065C118.198 107.951 118.044 107.887 117.883 107.887H114.845C114.684 107.887 114.53 107.951 114.416 108.065C114.302 108.179 114.238 108.333 114.238 108.494V109.273C114.238 110.524 115.267 112.143 116.366 112.143C116.542 112.14 116.716 112.1 116.875 112.024C116.124 110.774 116.661 108.752 118.49 108.65Z" fill="black"/>
<path opacity="0.2" d="M125.509 108.527C125.596 108.527 125.682 108.527 125.764 108.527V108.474C125.763 108.312 125.698 108.158 125.583 108.044C125.469 107.931 125.314 107.867 125.153 107.867H122.115C121.954 107.868 121.8 107.932 121.687 108.046C121.573 108.159 121.509 108.313 121.508 108.474V109.253C121.508 110.503 122.541 112.123 123.636 112.123C123.713 112.122 123.79 112.112 123.865 112.094C122.914 110.86 123.459 108.527 125.509 108.527Z" fill="black"/>
<path opacity="0.2" d="M133.045 108.794V108.486C133.044 108.325 132.98 108.172 132.866 108.058C132.752 107.945 132.599 107.88 132.438 107.879H129.4C129.239 107.879 129.084 107.943 128.969 108.057C128.855 108.17 128.79 108.325 128.789 108.486V109.265C128.789 110.516 129.822 112.135 130.917 112.135C131.041 112.133 131.164 112.112 131.282 112.074C130.614 110.803 131.2 108.843 133.045 108.794Z" fill="black"/>
<path opacity="0.2" d="M139.982 108.58C140.098 108.582 140.213 108.59 140.327 108.605V108.486C140.327 108.325 140.263 108.171 140.149 108.057C140.035 107.943 139.881 107.879 139.72 107.879H136.682C136.602 107.879 136.523 107.895 136.45 107.925C136.376 107.956 136.309 108.001 136.253 108.057C136.197 108.113 136.152 108.18 136.121 108.254C136.091 108.327 136.075 108.406 136.075 108.486V109.265C136.075 110.515 137.104 112.135 138.199 112.135C138.237 112.137 138.276 112.137 138.314 112.135C137.395 110.868 137.953 108.58 139.982 108.58Z" fill="black"/>
<path opacity="0.2" d="M147.325 108.896C147.419 108.89 147.514 108.89 147.608 108.896V108.486C147.608 108.325 147.544 108.171 147.43 108.057C147.317 107.943 147.162 107.879 147.001 107.879H143.963C143.802 107.879 143.648 107.943 143.534 108.057C143.42 108.171 143.356 108.325 143.356 108.486V109.265C143.356 110.495 144.377 112.135 145.472 112.135C144.832 110.844 145.452 108.896 147.325 108.896Z" fill="black"/>
<path opacity="0.2" d="M130.122 127.658V123.615C130.122 123.341 129.899 123.119 129.625 123.119H73.9475C73.6735 123.119 73.4514 123.341 73.4514 123.615V127.658C73.4514 127.932 73.6735 128.154 73.9475 128.154H129.625C129.899 128.154 130.122 127.932 130.122 127.658Z" fill="black"/>
<path opacity="0.2" d="M137.657 124.521V124.111C137.657 124.031 137.642 123.952 137.611 123.879C137.581 123.805 137.536 123.738 137.48 123.682C137.423 123.626 137.356 123.581 137.283 123.55C137.209 123.52 137.13 123.504 137.051 123.504H134.013C133.933 123.504 133.854 123.52 133.78 123.55C133.707 123.581 133.64 123.626 133.583 123.682C133.527 123.738 133.482 123.805 133.452 123.879C133.421 123.952 133.406 124.031 133.406 124.111V124.89C133.406 126.141 134.435 127.76 135.534 127.76C135.625 127.758 135.716 127.745 135.804 127.723C135.197 126.444 135.817 124.533 137.657 124.521Z" fill="black"/>
<path opacity="0.2" d="M69.8146 124.259C69.9341 124.26 70.0533 124.269 70.1713 124.287V124.115C70.1702 123.954 70.1054 123.8 69.991 123.686C69.8765 123.572 69.7217 123.508 69.5604 123.508H66.5223C66.3617 123.509 66.208 123.574 66.0944 123.687C65.9809 123.801 65.9166 123.955 65.9155 124.115V124.894C65.9155 126.145 66.9487 127.764 68.0434 127.764H68.1131C67.2398 126.493 67.8138 124.259 69.8146 124.259Z" fill="black"/>
<path opacity="0.2" d="M51.5371 38.745H152.036C152.727 38.745 153.389 39.0193 153.877 39.5075C154.365 39.9958 154.64 40.658 154.64 41.3485V64.3085H48.9336V41.3485C48.9336 40.658 49.2079 39.9958 49.6961 39.5075C50.1844 39.0193 50.8466 38.745 51.5371 38.745Z" fill="black"/>
<path d="M143.82 43.0746H59.7696C59.0687 37.254 57.8335 31.5102 56.0796 25.9161H147.526C145.744 31.5038 144.503 37.2497 143.82 43.0746Z" fill="white"/>
<path opacity="0.2" d="M144.648 37.5437C144.037 40.8811 143.828 43.0746 143.828 43.0746H59.778C59.778 43.0746 59.5648 40.9221 58.9375 37.5437H144.648Z" fill="black"/>
<path d="M143.82 43.0746H59.7696C59.0687 37.254 57.8335 31.5102 56.0796 25.9161H147.526C145.744 31.5038 144.503 37.2497 143.82 43.0746V43.0746Z" stroke="#263238" stroke-linecap="round" stroke-linejoin="round"/>
<path d="M142.676 57.5229H60.2207V91.4464H142.676V57.5229Z" fill="#263238"/>
<g opacity="0.4">
<path opacity="0.4" d="M99.3926 88.4452L99.8272 88.4657C100.374 80.0061 100.92 71.5327 101.467 63.0457C100.77 71.5355 100.079 80.002 99.3926 88.4452Z" fill="white"/>
<path opacity="0.4" d="M97.9902 88.3386L98.4248 88.3755C99.3733 79.9705 100.32 71.5286 101.266 63.0498C100.176 71.5341 99.0836 79.9637 97.9902 88.3386Z" fill="white"/>
<path opacity="0.4" d="M96.625 88.1828C96.7685 88.1828 96.9161 88.2156 97.0596 88.232C98.4044 79.9172 99.7574 71.5218 101.119 63.0457C99.6153 71.53 98.1174 79.909 96.625 88.1828Z" fill="white"/>
<path opacity="0.4" d="M95.2432 87.9737L95.6819 88.0434C97.4257 79.8434 99.1833 71.5067 100.954 63.0334C99.0411 71.5149 97.1374 79.8284 95.2432 87.9737Z" fill="white"/>
<path opacity="0.4" d="M93.8657 87.7154L94.3085 87.8056C96.4405 79.7614 98.6012 71.5067 100.791 63.0416C98.4618 71.5094 96.1535 79.734 93.8657 87.7154Z" fill="white"/>
<path opacity="0.4" d="M92.4961 87.4038L92.9389 87.5145C95.4522 79.6507 98.0352 71.4958 100.626 63.0375C97.8835 71.4958 95.1488 79.6138 92.4961 87.4038Z" fill="white"/>
<path opacity="0.4" d="M91.1309 87.0348L91.5778 87.166C94.4478 79.5236 97.4531 71.4794 100.462 63.0293C97.3014 71.4794 94.1526 79.4785 91.1309 87.0348Z" fill="white"/>
<path opacity="0.4" d="M89.79 86.6166L90.2369 86.7601C93.48 79.3801 96.883 71.463 100.311 63.0252C96.7149 71.463 93.1561 79.3227 89.79 86.6166Z" fill="white"/>
<path opacity="0.4" d="M88.4292 86.1369L88.8802 86.3009C92.4718 79.1997 96.2889 71.4425 100.135 63.017C96.129 71.4425 92.152 79.13 88.4292 86.1369Z" fill="white"/>
<path opacity="0.4" d="M87.1006 85.5957L87.5516 85.7843C91.4712 79.0029 95.7024 71.4343 99.9705 63.0088C95.5302 71.4179 91.1473 78.9455 87.1006 85.5957Z" fill="white"/>
<path opacity="0.4" d="M85.7847 84.9889L86.2357 85.2062C90.4669 78.7897 95.1122 71.3892 99.8067 63.0006C94.9441 71.3892 90.1389 78.72 85.7847 84.9889Z" fill="white"/>
<path opacity="0.4" d="M84.4888 84.3165L84.9398 84.5625C89.4498 78.5478 94.5215 71.3564 99.6424 62.9883C94.9719 70.3607 89.9136 77.4801 84.4888 84.3165Z" fill="white"/>
<path opacity="0.4" d="M83.2305 83.5785C83.3781 83.6728 83.5339 83.7589 83.6856 83.8491C89.3758 77.2214 94.6555 70.2521 99.4952 62.9801C94.5423 70.2037 89.1084 77.0854 83.2305 83.5785Z" fill="white"/>
<path opacity="0.4" d="M81.9717 82.7626L82.4186 83.0701C88.5586 76.8177 94.2074 70.1011 99.3147 62.9801C94.1014 70.0511 88.2997 76.6688 81.9717 82.7626Z" fill="white"/>
<path opacity="0.4" d="M99.1503 62.9555C92.5534 71.217 86.1 77.5187 80.77 81.8729L81.2087 82.2132C87.789 76.3801 93.7968 69.9316 99.1503 62.9555Z" fill="white"/>
<path opacity="0.4" d="M98.9864 62.9432C91.959 71.1432 85.0915 77.1374 79.6016 80.9094L80.0362 81.2825C85.4523 77.2727 92.1435 71.1637 98.9864 62.9432Z" fill="white"/>
<path opacity="0.4" d="M98.8103 62.9309C91.3606 71.0694 84.1036 76.711 78.4907 79.8598C78.626 79.9992 78.7613 80.1386 78.9007 80.2698C84.4603 76.8668 91.5574 71.0899 98.8103 62.9309Z" fill="white"/>
<path opacity="0.4" d="M98.6587 62.9145C90.8031 70.971 83.1689 76.2395 77.4658 78.7405L77.8758 79.1874C83.5215 76.4117 90.9835 70.9956 98.6587 62.9145Z" fill="white"/>
<path opacity="0.4" d="M76.5225 77.5433C76.6414 77.7073 76.7644 77.8713 76.8874 78.0312C82.6069 75.9197 90.4174 70.8808 98.4985 62.9022C90.2534 70.8439 82.2748 75.7188 76.5225 77.5433Z" fill="white"/>
<path opacity="0.4" d="M75.686 76.2969C75.7926 76.4691 75.9033 76.6413 76.014 76.8135C81.754 75.3703 89.9048 70.7332 98.3344 62.8735C89.7408 70.6881 81.4465 75.153 75.686 76.2969Z" fill="white"/>
<path opacity="0.4" d="M74.9727 75.03C75.0629 75.2104 75.1572 75.3867 75.2515 75.5671C80.9915 74.7881 89.4211 70.561 98.1705 62.8776C89.2776 70.4872 80.7127 74.538 74.9727 75.03Z" fill="white"/>
<path opacity="0.4" d="M74.3906 73.7344C74.4644 73.9148 74.5423 74.0993 74.6202 74.2797C80.3274 74.1403 88.9702 70.3314 97.9902 62.8489C88.8677 70.2535 80.0896 73.8779 74.3906 73.7344Z" fill="white"/>
<path opacity="0.4" d="M100.782 88.5026H101.213C101.344 80.0293 101.481 71.545 101.623 63.0498C101.336 71.5395 101.056 80.0238 100.782 88.5026Z" fill="white"/>
<path opacity="0.4" d="M102.168 88.5108H102.603C102.329 80.0375 102.056 71.5532 101.783 63.058L102.168 88.5108Z" fill="white"/>
<path opacity="0.4" d="M103.554 88.4739H103.988C103.305 80.0279 102.622 71.5546 101.938 63.0539C102.477 71.5436 103.015 80.017 103.554 88.4739Z" fill="white"/>
<path opacity="0.4" d="M104.96 88.3878L105.395 88.355C104.301 79.9719 103.208 71.5368 102.115 63.0498C103.055 71.5368 104.003 79.9828 104.96 88.3878Z" fill="white"/>
<path opacity="0.4" d="M106.325 88.2566L106.76 88.2033C105.273 79.9186 103.77 71.5327 102.25 63.0457C103.619 71.5327 104.978 79.9363 106.325 88.2566Z" fill="white"/>
<path opacity="0.4" d="M107.707 88.0721L108.146 88.0065C106.26 79.8475 104.353 71.5272 102.426 63.0457C104.197 71.53 105.958 79.8721 107.707 88.0721Z" fill="white"/>
<path opacity="0.4" d="M109.085 87.8384L109.523 87.7564C107.247 79.7586 104.936 71.5204 102.59 63.0416C104.772 71.5204 106.936 79.786 109.085 87.8384Z" fill="white"/>
<path opacity="0.4" d="M110.454 87.5514L110.901 87.4489C108.244 79.6589 105.505 71.5122 102.754 63.0375C105.354 71.5135 107.92 79.6848 110.454 87.5514Z" fill="white"/>
<path opacity="0.4" d="M111.824 87.2152L112.266 87.0881C109.241 79.5154 106.088 71.5081 102.918 63.0293C105.932 71.4999 108.933 79.54 111.824 87.2152Z" fill="white"/>
<path opacity="0.4" d="M113.181 86.8175L113.632 86.6699C110.241 79.3637 106.662 71.4999 103.083 63.0252C106.518 71.4835 109.93 79.4088 113.181 86.8175Z" fill="white"/>
<path opacity="0.4" d="M114.53 86.3624L114.981 86.1943C111.25 79.1874 107.265 71.4671 103.247 63.017C107.105 71.4671 110.93 79.2407 114.53 86.3624Z" fill="white"/>
<path opacity="0.4" d="M115.866 85.8499C116.018 85.7843 116.174 85.7269 116.322 85.6613C112.263 78.9947 107.859 71.4466 103.411 63.0088C107.695 71.4466 111.93 79.0521 115.866 85.8499Z" fill="white"/>
<path opacity="0.4" d="M117.19 85.28L117.645 85.0627C113.279 78.7774 108.453 71.4261 103.574 63.0047C108.285 71.4179 112.943 78.843 117.19 85.28Z" fill="white"/>
<path opacity="0.4" d="M118.49 84.6363C118.642 84.5584 118.794 84.4723 118.941 84.3903C113.497 77.53 108.419 70.386 103.73 62.9883C108.88 71.3933 113.98 78.6052 118.49 84.6363Z" fill="white"/>
<path opacity="0.4" d="M119.778 83.927L120.237 83.6564C114.333 77.1395 108.876 70.2317 103.902 62.9801C108.76 70.2808 114.062 77.2762 119.778 83.927Z" fill="white"/>
<path opacity="0.4" d="M104.066 62.9678C109.194 70.1221 114.868 76.869 121.036 83.148L121.491 82.8405C115.132 76.7207 109.303 70.0727 104.066 62.9678Z" fill="white"/>
<path opacity="0.4" d="M104.23 62.9555C109.609 69.9651 115.65 76.4402 122.27 82.2911C122.422 82.1804 122.566 82.0656 122.713 81.9508C117.367 77.5966 110.864 71.2662 104.23 62.9555Z" fill="white"/>
<path opacity="0.4" d="M104.395 62.9432C111.283 71.2129 118.015 77.3465 123.447 81.3563C123.595 81.2333 123.747 81.1103 123.89 80.9832C118.38 77.2194 111.467 71.2088 104.395 62.9432Z" fill="white"/>
<path opacity="0.4" d="M104.55 62.9309C111.869 71.1309 119.003 76.9488 124.579 80.3477C124.722 80.2124 124.858 80.0689 124.989 79.9377C119.372 76.793 112.061 71.1309 104.55 62.9309Z" fill="white"/>
<path opacity="0.4" d="M104.723 62.9145C112.459 71.0571 119.979 76.4978 125.633 79.253L126.043 78.802C120.34 76.3297 112.644 71.0407 104.723 62.9145Z" fill="white"/>
<path opacity="0.4" d="M126.645 78.0886C126.772 77.9246 126.891 77.7606 127.014 77.5925C121.254 75.809 113.201 70.9177 104.874 62.9022C113.025 70.9505 120.913 76.0058 126.645 78.0886Z" fill="white"/>
<path opacity="0.4" d="M127.535 76.8545L127.871 76.3297C122.102 75.2432 113.73 70.766 105.046 62.8858C113.57 70.8111 121.77 75.4605 127.535 76.8545Z" fill="white"/>
<path opacity="0.4" d="M128.33 75.5794C128.428 75.399 128.523 75.2186 128.617 75.0341C122.877 74.6241 114.222 70.5692 105.247 62.8694C114.054 70.6348 122.59 74.8701 128.33 75.5794Z" fill="white"/>
<path opacity="0.4" d="M105.37 62.8489C114.489 70.4175 123.246 74.2264 128.945 74.2838C129.027 74.0993 129.105 73.9148 129.183 73.7303C123.492 73.964 114.62 70.3355 105.37 62.8489Z" fill="white"/>
</g>
<path opacity="0.2" d="M89.7899 63.6607C88.236 67.6459 89.917 79.2407 101.13 79.2407C112.344 79.2407 116.415 71.094 115.96 66.0592L130.929 63.6484C130.929 63.6484 135.517 76.3256 125.776 85.1939C116.034 94.0622 82.2664 93.4882 75.1283 86.7478C67.9902 80.0074 71.9508 66.6906 71.9508 66.6906L89.7899 63.6607Z" fill="black"/>
<path d="M155.488 46.4653V43.6691C155.488 43.5656 155.521 43.4648 155.582 43.3814C155.643 43.298 155.73 43.2364 155.829 43.2058L157.879 42.5662V39.77C157.879 39.435 158.012 39.1139 158.248 38.877C158.485 38.6402 158.806 38.5072 159.141 38.5072H161.601C161.723 38.5049 161.84 38.5498 161.929 38.6324C162.017 38.715 162.071 38.8289 162.077 38.95V39.852C162.077 39.9752 162.028 40.0935 161.942 40.181C161.855 40.2686 161.737 40.3183 161.614 40.3194H158.485V43.0541C158.484 43.1365 158.462 43.2173 158.421 43.2889C158.38 43.3606 158.322 43.4208 158.252 43.4641L156.505 44.5219V46.4694L155.488 46.4653Z" fill="#999999" stroke="#263238" stroke-linecap="round" stroke-linejoin="round"/>
<path d="M158.186 46.4653H155.488V54.5341H158.186V46.4653Z" fill="#263238"/>
<path d="M161.56 45.7806H158.186V55.2188H161.56V45.7806Z" fill="#757575"/>
<path opacity="0.2" d="M161.552 51.5287H158.186V55.2187H161.552V51.5287Z" fill="black"/>
<path d="M161.56 45.7806H158.186V55.2188H161.56V45.7806Z" stroke="#263238" stroke-linecap="round" stroke-linejoin="round"/>
<path d="M45.3872 54.53H48.085V46.4612H45.3872V54.53Z" fill="#263238"/>
<path d="M42.0129 55.2147H45.3872V45.7765H42.0129V55.2147Z" fill="#757575"/>
<path opacity="0.2" d="M45.3909 51.5287H42.0166V55.1285H45.3909V51.5287Z" fill="black"/>
<path d="M42.0129 55.2147H45.3872V45.7765H42.0129V55.2147Z" stroke="#263238" stroke-linecap="round" stroke-linejoin="round"/>
<path d="M47.6789 50.9794C47.9225 50.3402 47.9602 49.6409 47.7867 48.9792C47.6132 48.3176 47.2372 47.7268 46.7113 47.2894L44.7269 45.6494C44.6007 45.543 44.4538 45.4637 44.2956 45.4166C44.1373 45.3695 43.9711 45.3555 43.8072 45.3755C43.6433 45.3955 43.4853 45.4491 43.343 45.5329C43.2007 45.6167 43.0773 45.7289 42.9803 45.8626L35.1124 56.7153C34.9627 56.9183 34.8822 57.1641 34.8828 57.4164V69.0727C34.8828 69.2291 34.9139 69.384 34.9742 69.5284C35.0346 69.6727 35.123 69.8036 35.2344 69.9135C35.3458 70.0233 35.4779 70.11 35.6231 70.1683C35.7683 70.2267 35.9236 70.2556 36.08 70.2535C36.3932 70.2535 36.6935 70.1291 36.915 69.9076C37.1364 69.6862 37.2608 69.3858 37.2608 69.0727V59.6058C37.2615 59.3721 37.3346 59.1444 37.4699 58.9539L43.3534 50.7539C43.4049 50.6819 43.4708 50.6214 43.5469 50.5761C43.6231 50.5309 43.7077 50.502 43.7956 50.4912C43.8835 50.4804 43.9726 50.488 44.0574 50.5135C44.1422 50.5389 44.2208 50.5817 44.2882 50.6391L45.3706 51.5575C45.6386 51.7849 45.9786 51.9098 46.33 51.9101C46.6223 51.9083 46.9073 51.8186 47.1479 51.6526C47.3885 51.4866 47.5735 51.252 47.6789 50.9794Z" fill="white" stroke="#263238" stroke-linecap="round" stroke-linejoin="round"/>
<path d="M46.0554 49.9175C46.3656 49.9175 46.6171 49.666 46.6171 49.3558C46.6171 49.0455 46.3656 48.7941 46.0554 48.7941C45.7451 48.7941 45.4937 49.0455 45.4937 49.3558C45.4937 49.666 45.7451 49.9175 46.0554 49.9175Z" fill="#999999" stroke="#263238" stroke-linecap="round" stroke-linejoin="round"/>
<path d="M152.987 42.5662H50.5898V58.425H152.987V42.5662Z" fill="#263238"/>
<path opacity="0.2" d="M151.508 43.7593H52.0292C51.7167 43.7593 51.4634 44.0126 51.4634 44.3251V46.8917C51.4634 47.2042 51.7167 47.4575 52.0292 47.4575H151.508C151.82 47.4575 152.073 47.2042 152.073 46.8917V44.3251C152.073 44.0126 151.82 43.7593 151.508 43.7593Z" fill="white"/>
<path d="M143.82 61.6148H59.7696C57.401 56.2007 56.1461 50.3654 56.0796 44.4563H147.526C147.526 52.4021 143.82 61.6148 143.82 61.6148Z" fill="white"/>
<g opacity="0.7">
<path opacity="0.7" d="M66.5674 60.3274C66.5674 60.3274 68.4083 60.229 69.4374 59.6099C70.4665 58.9908 70.3927 60.1675 70.9831 60.2454C71.5735 60.3233 72.9675 59.8354 73.7055 59.8354C74.4435 59.8354 73.8818 60.2864 74.7141 60.2454C75.5464 60.2044 75.0995 60.2864 75.5341 60.2044L79.097 59.6099C79.097 59.6099 80.9051 59.2614 81.27 59.4377C81.6349 59.614 82.1146 60.4832 82.6476 60.2577C83.1806 60.0322 82.8977 59.8477 83.7013 59.8477C84.1981 59.85 84.6921 59.9218 85.1691 60.0609C85.1691 60.0609 85.2429 59.8518 85.6119 59.8477H86.272C86.272 59.8477 87.6701 60.2167 87.8915 60.2167C88.1129 60.2167 89.7652 59.8518 89.8226 59.8477C89.88 59.8436 91.4626 59.4377 91.4626 59.4377C91.7983 59.7887 92.2237 60.0411 92.6926 60.1675C93.2912 60.2454 93.9226 60.0855 94.3736 60.2864C94.8246 60.4873 96.3088 60.2044 96.3088 60.2044C96.6629 60.2067 97.0164 60.2341 97.3666 60.2864C97.8258 60.3913 98.3042 60.3772 98.7565 60.2454C99.5879 60.0256 100.46 60.0115 101.298 60.2044C102.631 60.4463 103.857 59.8395 104.423 59.8354C104.988 59.8313 107.252 60.0855 108.031 60.0855C108.81 60.0855 110.872 60.3643 112.307 60.2044C113.742 60.0445 114.681 60.4053 115.644 60.4053C116.608 60.4053 117.637 60.3643 117.858 60.3643C118.08 60.3643 119.146 59.6673 120.671 59.8354C122.196 60.0035 120.839 59.6263 121.778 59.8354C122.717 60.0445 123.459 60.2454 123.857 60.2864C124.176 60.305 124.496 60.2913 124.812 60.2454L126.452 60.1265H134.627" stroke="#263238" stroke-linecap="round" stroke-linejoin="round"/>
<path opacity="0.7" d="M64.8657 57.1622C64.8657 57.1622 69.9292 57.1622 70.8435 57.0802C71.7578 56.9982 72.2457 56.5308 72.7336 56.5308C73.2215 56.5308 75.6856 56.9982 75.6856 56.9982C75.7575 56.8453 75.8749 56.7184 76.0216 56.6347C76.1684 56.551 76.3374 56.5148 76.5056 56.5308C77.1739 56.5308 76.8336 56.5923 77.4486 56.8383C78.0636 57.0843 77.7438 56.8383 78.0677 57.0802C78.5506 57.297 79.0611 57.4461 79.5847 57.523C79.5847 57.523 81.8684 57.6296 81.9545 57.0802C82.0406 56.5308 83.1845 57.523 83.1845 57.523C83.1845 57.523 86.2841 57.0802 87.4813 57.0802C88.6785 57.0802 91.6797 56.8383 91.6797 56.8383C91.6797 56.8383 94.1397 57.1622 94.2545 57.1622C94.3693 57.1622 94.7752 57.8059 95.2139 57.523C95.6526 57.2401 96.0749 56.9162 96.5956 56.9982C97.0792 57.1181 97.547 57.2943 97.9896 57.523L99.1335 56.9162L100.446 56.9982C100.446 56.9982 101.782 57.8879 102.737 57.523C103.465 57.2323 104.175 56.9011 104.865 56.5308L106.042 57.523H106.813L109.097 57.0802C109.272 57.2962 109.509 57.4541 109.776 57.5331C110.043 57.6121 110.328 57.6086 110.593 57.523C111.561 57.2442 120.806 57.523 123.16 57.523C125.513 57.523 126.03 56.9162 126.03 56.9162L127.842 57.523H136.862" stroke="#263238" stroke-linecap="round" stroke-linejoin="round"/>
</g>
<path opacity="0.2" d="M144.676 59.245C144.18 60.721 143.82 61.6148 143.82 61.6148H59.7695C59.7695 61.6148 59.3596 60.7538 58.7979 59.245H144.676Z" fill="black"/>
<path opacity="0.2" d="M146.427 53.0376C146.144 54.2676 145.833 55.4689 145.525 56.5308H57.8836C57.5802 55.4894 57.2686 54.3127 56.998 53.0376H146.427Z" fill="black"/>
<path d="M143.82 61.6148H59.7696C57.401 56.2007 56.1461 50.3654 56.0796 44.4563H147.526C147.526 52.4021 143.82 61.6148 143.82 61.6148Z" stroke="#263238" stroke-linecap="round" stroke-linejoin="round"/>
<path d="M50.5695 41.7502H48.0645V59.249H50.5695V41.7502Z" fill="#757575"/>
<path opacity="0.2" d="M50.5201 54.0585H48.0806V59.2491H50.5201V54.0585Z" fill="black"/>
<path d="M50.5695 41.7502H48.0645V59.249H50.5695V41.7502Z" stroke="#263238" stroke-linecap="round" stroke-linejoin="round"/>
<path d="M155.509 41.7502H153.004V59.249H155.509V41.7502Z" fill="#757575"/>
<path opacity="0.2" d="M155.509 54.0585H152.983V59.2491H155.509V54.0585Z" fill="black"/>
<path d="M155.509 41.7502H153.004V59.249H155.509V41.7502Z" stroke="#263238" stroke-linecap="round" stroke-linejoin="round"/>
<path d="M153.024 41.0164V53.7797H50.5489V41.0164H49.5649V54.6366H154.008V41.0164H153.024Z" fill="#999999" stroke="#263238" stroke-linecap="round" stroke-linejoin="round"/>
<path d="M159.08 62.5168V91.1389C159.08 91.6217 158.888 92.0847 158.547 92.4261C158.206 92.7675 157.742 92.9593 157.26 92.9593H46.3014C45.8186 92.9593 45.3555 92.7675 45.0141 92.4261C44.6727 92.0847 44.481 91.6217 44.481 91.1389V62.5168C44.481 62.034 44.6727 61.571 45.0141 61.2296C45.3555 60.8882 45.8186 60.6964 46.3014 60.6964H97.4284V62.5168C97.4284 62.5168 88.6995 70.0895 73.6484 72.8816C75.805 82.6437 87.5884 90.1016 101.807 90.1016C116.026 90.1016 127.809 82.6355 129.97 72.8816C114.898 70.0895 106.17 62.5168 106.17 62.5168V60.68H157.272C157.511 60.6816 157.748 60.7304 157.969 60.8236C158.189 60.9169 158.389 61.0527 158.557 61.2233C158.725 61.3939 158.858 61.596 158.947 61.818C159.037 62.0399 159.082 62.2774 159.08 62.5168Z" fill="white" stroke="#263238" stroke-linecap="round" stroke-linejoin="round"/>
<path d="M159.08 62.5168V91.1389C159.08 91.3783 159.033 91.6153 158.941 91.8365C158.85 92.0576 158.715 92.2585 158.546 92.4275C158.376 92.5966 158.175 92.7306 157.954 92.8219C157.732 92.9131 157.495 92.9598 157.256 92.9593H46.3015C46.0621 92.9598 45.825 92.9131 45.6037 92.8219C45.3823 92.7306 45.1812 92.5966 45.0117 92.4275C44.8422 92.2585 44.7078 92.0576 44.616 91.8365C44.5243 91.6153 44.4771 91.3783 44.4771 91.1389V62.5168C44.4781 62.0332 44.6707 61.5698 45.0126 61.2279C45.3546 60.8859 45.818 60.6934 46.3015 60.6923H97.4286V62.5168C97.4286 62.5168 88.6956 70.0854 73.6486 72.8816C75.8052 82.6437 87.5886 90.1016 101.811 90.1016C116.034 90.1016 127.81 82.6355 129.97 72.8816C114.899 70.0854 106.17 62.5168 106.17 62.5168V60.68H157.272C157.755 60.6843 158.217 60.8801 158.556 61.2245C158.895 61.5689 159.084 62.0336 159.08 62.5168Z" fill="white"/>
<path opacity="0.2" d="M156.62 62.9554V89.3799C156.62 89.5556 156.585 89.7296 156.518 89.8918C156.45 90.054 156.352 90.2012 156.227 90.3251C156.102 90.4489 155.955 90.5469 155.792 90.6134C155.629 90.6799 155.455 90.7135 155.279 90.7124H47.3921C47.2169 90.713 47.0434 90.6789 46.8815 90.6121C46.7196 90.5453 46.5725 90.4472 46.4486 90.3234C46.3248 90.1995 46.2267 90.0524 46.1599 89.8905C46.0931 89.7286 46.059 89.5551 46.0596 89.3799V62.9554C46.059 62.7799 46.0931 62.606 46.1597 62.4436C46.2264 62.2813 46.3244 62.1336 46.4482 62.0091C46.5719 61.8846 46.7189 61.7857 46.8809 61.7181C47.0429 61.6504 47.2166 61.6153 47.3921 61.6147H97.4121V62.5167C97.4121 62.5167 88.6791 70.0853 73.6321 72.8815C75.7887 82.6436 87.5721 90.1015 101.795 90.1015C116.018 90.1015 127.793 82.6354 129.954 72.8815C114.882 70.0853 106.153 62.5167 106.153 62.5167V61.6147H155.292C155.645 61.618 155.983 61.7607 156.232 62.0118C156.481 62.2628 156.62 62.602 156.62 62.9554Z" fill="white"/>
<path d="M159.08 62.5168V91.1389C159.08 91.3783 159.033 91.6153 158.941 91.8365C158.85 92.0576 158.715 92.2585 158.546 92.4275C158.376 92.5966 158.175 92.7306 157.954 92.8219C157.732 92.9131 157.495 92.9598 157.256 92.9593H46.3015C46.0621 92.9598 45.825 92.9131 45.6037 92.8219C45.3823 92.7306 45.1812 92.5966 45.0117 92.4275C44.8422 92.2585 44.7078 92.0576 44.616 91.8365C44.5243 91.6153 44.4771 91.3783 44.4771 91.1389V62.5168C44.4781 62.0332 44.6707 61.5698 45.0126 61.2279C45.3546 60.8859 45.818 60.6934 46.3015 60.6923H97.4286V62.5168C97.4286 62.5168 88.6956 70.0854 73.6486 72.8816C75.8052 82.6437 87.5886 90.1016 101.811 90.1016C116.034 90.1016 127.81 82.6355 129.97 72.8816C114.899 70.0854 106.17 62.5168 106.17 62.5168V60.68H157.272C157.755 60.6843 158.217 60.8801 158.556 61.2245C158.895 61.5689 159.084 62.0336 159.08 62.5168V62.5168Z" stroke="#263238" stroke-linecap="round" stroke-linejoin="round"/>
<path opacity="0.2" d="M122.426 101.442L127.875 116.641C127.875 116.641 130.232 99.9129 131.639 99.9129C133.045 99.9129 136.075 109.06 136.075 109.06C136.075 109.06 137.944 104.288 139.715 104.115C141.487 103.943 143.09 115.833 143.09 115.833L143.365 142.225L141.13 182.138C141.13 182.138 126.874 166.435 122.717 162.389C118.56 158.342 114.587 149.437 113.439 147.629C112.291 145.821 112 136.354 112 136.354C113.453 134.494 114.213 132.186 114.148 129.826C114.148 129.826 117.494 124.226 117.289 120.093C117.084 115.96 116.567 99.9006 122.426 101.442Z" fill="black" fill-opacity="0.7"/>
<path d="M165.316 175.07L143.734 186.423C143.734 186.308 140.896 181.712 137.469 176.513C135.919 174.16 134.246 171.688 132.66 169.449C130.06 165.788 126.756 162.627 126.473 161.938C125.653 159.888 119.33 152.213 117.916 149.228C116.501 146.243 116.178 136.956 115.554 134.771C114.931 132.586 116.719 130.499 118.154 129.482C119.589 128.465 121.093 125.792 121.093 125.792C121.093 125.792 119.507 119.609 119.49 116.465C119.474 113.32 118.404 102.344 119.683 101.319C120.962 100.294 122.106 100.725 122.426 101.43C123.476 103.755 124.419 109.601 125.226 112.295C126.034 114.989 127.551 122.803 128.297 123.365C129.043 123.927 130.372 121.819 130.372 121.819C130.372 121.819 130.499 115.259 130.782 112.541L130.372 103.931C130.372 103.931 129.605 98.7567 131.389 98.2647C133.849 97.5882 134.746 99.1339 135.025 99.7858C135.304 100.438 136.452 104.193 136.452 104.193L136.518 104.452C136.518 104.476 136.518 104.501 136.518 104.529V104.575C136.537 104.646 136.557 104.724 136.579 104.808C136.624 104.981 136.678 105.185 136.735 105.419C137.28 107.555 138.33 111.832 138.285 112.885C138.223 114.308 137.727 122.188 138.428 123.824L139.519 112.939C139.519 112.939 137.76 104.55 138.272 103.341C138.785 102.131 141.2 103.468 141.487 103.943C141.774 104.419 144.119 107.297 144.537 108.396L144.947 109.495C144.947 109.495 145.525 106.895 146.882 107.572C148.24 108.248 148.408 111.553 148.502 112.996C148.596 114.439 149.58 123.722 149.732 123.738C149.884 123.754 151.45 128.576 151.237 131.762C150.79 138.58 151.971 143.652 152.012 146.268C152.053 148.883 150.08 154.943 150.08 154.943C150.15 155.062 151.438 157.251 151.79 159.174C152.048 160.585 156.645 165.681 160.4 169.736C163.012 172.532 165.201 174.82 165.316 175.07Z" fill="white"/>
<path opacity="0.4" d="M137.473 176.521C135.923 174.168 134.25 171.696 132.663 169.457C130.064 165.796 126.759 162.635 126.477 161.946C125.657 159.896 119.334 152.221 117.92 149.236C116.505 146.251 116.181 136.965 115.558 134.779C114.935 132.594 116.723 130.507 118.158 129.49C119.593 128.474 121.097 125.8 121.097 125.8C121.097 125.8 119.511 119.618 119.494 116.473C119.478 113.328 118.408 102.352 119.687 101.327C120.966 100.302 122.11 100.733 122.43 101.438C123.479 103.763 124.422 109.609 125.23 112.303C126.038 114.997 127.555 122.811 128.301 123.373C129.047 123.935 130.376 121.827 130.376 121.827C130.376 121.827 130.503 115.267 130.786 112.549L130.376 103.939C130.376 103.939 129.609 98.7649 131.392 98.2729C133.852 97.5964 134.75 99.1421 135.029 99.794C135.308 100.446 136.456 104.202 136.456 104.202L136.522 104.46C136.522 104.484 136.522 104.509 136.522 104.538V104.583C136.538 104.654 136.558 104.732 136.583 104.817C136.628 104.989 136.681 105.194 136.739 105.427C136.103 104.423 135.23 103.566 134.062 103.341C130.782 102.701 131.491 106.35 131.802 108.539C131.979 109.992 131.945 111.463 131.7 112.906L132.52 112.434C131.93 113.488 131.085 122.246 131.085 124.193C131.085 126.141 129.543 126.788 128.162 126.219C126.78 125.649 126.288 116.711 125.238 115.108C124.189 113.504 121.27 116.567 121.138 119.367C121.007 122.168 123.619 130.519 123 132.487C122.381 134.455 122.389 141.917 122.389 141.917L121.634 139.995C121.684 140.257 121.634 141.138 120.056 143.734C119.463 144.673 119.08 145.729 118.932 146.83C118.784 147.931 118.875 149.051 119.199 150.113C120.163 152.241 125.05 157.85 125.87 158.428C125.87 158.428 126.464 155.993 128.33 156.641C127.695 157.65 127.232 158.759 126.96 159.921C126.575 161.708 130.466 162.852 131.684 164.554C132.43 165.591 132.93 168.752 137.473 176.521Z" fill="white"/>
<path opacity="0.4" d="M160.424 169.74C156.587 165.874 149.834 162.192 150.244 161.228C150.794 159.933 150.097 157.174 148.916 154.935C147.735 152.696 149.326 149.064 149.326 149.064L150.056 151.175C150.639 148.74 150.708 146.209 150.256 143.746C149.51 139.56 148.928 141.032 148.928 141.032C148.928 141.032 149.08 137.26 149.748 135.202C150.416 133.143 150.978 128.146 150.056 125.189C149.133 122.233 147.186 122.791 146.665 123.808C146.144 124.825 146.702 128.789 147.132 130.089C147.563 131.389 145.73 133.574 145.693 131.95C145.656 130.327 144.963 125.8 144.963 125.8L146.353 116.711L144.963 109.491C144.963 109.491 145.541 106.891 146.899 107.568C148.256 108.244 148.424 111.549 148.518 112.992C148.612 114.435 149.596 123.718 149.748 123.734C149.9 123.75 151.466 128.572 151.253 131.758C150.806 138.576 151.987 143.648 152.028 146.263C152.069 148.879 150.097 154.939 150.097 154.939C150.166 155.058 151.454 157.247 151.806 159.17C152.065 160.581 156.661 165.677 160.416 169.732L160.424 169.74Z" fill="white"/>
<path opacity="0.4" d="M144.537 108.396C144.615 108.601 144.681 108.769 144.73 108.904C143.426 105.874 141.204 106.813 140.81 107.674C140.417 108.535 141.741 113.878 142.04 114.706C142.34 115.534 140.851 122.147 140.634 124.337C140.417 126.526 139.839 126.973 139.839 126.973C138.367 127.084 138.199 123.021 138.199 122.463C138.227 122.929 138.318 123.39 138.469 123.832L139.56 112.947C139.56 112.947 137.76 104.55 138.272 103.341C138.785 102.131 141.2 103.468 141.487 103.943C141.774 104.419 144.119 107.297 144.537 108.396Z" fill="white"/>
<path d="M165.316 175.07C165.037 174.439 152.233 161.54 151.786 159.17C151.425 157.194 150.072 154.935 150.072 154.935C150.072 154.935 152.044 148.887 152.003 146.259C151.962 143.631 150.773 138.572 151.228 131.754C151.441 128.568 149.879 123.746 149.724 123.73C149.568 123.713 148.584 114.431 148.494 112.988C148.403 111.545 148.235 108.24 146.874 107.564C145.513 106.887 144.939 109.486 144.939 109.486L144.529 108.388C144.119 107.289 141.765 104.411 141.478 103.935C141.191 103.459 138.781 102.119 138.264 103.332C137.747 104.546 139.547 112.922 139.547 112.922L138.465 123.82C137.764 122.18 138.26 114.304 138.321 112.881C138.383 111.459 136.456 104.189 136.456 104.189C136.456 104.189 135.3 100.45 135.029 99.7776C134.759 99.1052 133.852 97.58 131.392 98.2565C129.609 98.7485 130.376 103.923 130.376 103.923L130.786 112.533C130.511 115.263 130.376 121.811 130.376 121.811C130.376 121.811 129.047 123.914 128.301 123.357C127.555 122.799 126.038 114.989 125.23 112.287C124.422 109.585 123.479 103.746 122.43 101.422C122.11 100.717 120.966 100.286 119.687 101.311C118.408 102.336 119.474 113.308 119.494 116.456C119.515 119.605 121.097 125.784 121.097 125.784C121.097 125.784 119.593 128.441 118.158 129.474C116.723 130.507 114.935 132.574 115.558 134.763C116.181 136.952 116.505 146.243 117.92 149.22C119.334 152.196 125.64 159.88 126.477 161.93C126.759 162.618 130.064 165.779 132.663 169.441C137.768 176.628 143.733 186.251 143.733 186.415" stroke="#263238" stroke-linecap="round" stroke-linejoin="round"/>
<path d="M121.093 125.804C121.093 125.804 122.11 130.843 122.073 131.688C122.073 131.688 121.183 135.579 121.175 138.1C120.553 139.05 119.994 140.041 119.502 141.065C119.158 141.975 118.543 144.213 118.797 145.46" stroke="#263238" stroke-linecap="round" stroke-linejoin="round"/>
<path d="M119.236 133.25C119.236 133.25 121.729 133.27 121.569 134.32" stroke="#263238" stroke-linecap="round" stroke-linejoin="round"/>
<path d="M121.175 138.1C121.175 138.1 119.576 137.407 119.015 138.338" stroke="#263238" stroke-linecap="round" stroke-linejoin="round"/>
<path d="M130.38 121.827C130.38 121.827 130.265 125.69 129.248 125.382" stroke="#263238" stroke-linecap="round" stroke-linejoin="round"/>
<path d="M138.465 123.82C138.465 123.82 138.17 125.932 138.965 126.583" stroke="#263238" stroke-linecap="round" stroke-linejoin="round"/>
<path d="M144.951 109.495C144.951 109.495 146.058 114.825 146.312 116.087C146.567 117.35 145.054 123.795 145.082 125.472C145.111 127.149 145.829 129.548 145.73 130.675" stroke="#263238" stroke-linecap="round" stroke-linejoin="round"/>
<path d="M149.371 149.974C149.371 149.974 149.014 153.455 150.084 154.943" stroke="#263238" stroke-linecap="round" stroke-linejoin="round"/>
<path d="M127.875 156.862C127.875 156.862 125.488 159.035 126.362 161.708" stroke="#263238" stroke-linecap="round" stroke-linejoin="round"/>
<path d="M143.557 129.769C143.594 131.303 142.696 133.09 142.602 135.21" stroke="#263238" stroke-linecap="round" stroke-linejoin="round"/>
<path d="M135.956 128.4C136.464 129.654 135.357 132.385 135.189 133.41C135.122 134.212 135.209 135.019 135.447 135.788" stroke="#263238" stroke-linecap="round" stroke-linejoin="round"/>
<path d="M150.244 132.721C150.039 134.054 149.096 135.005 148.916 139.105" stroke="#263238" stroke-linecap="round" stroke-linejoin="round"/>
<path d="M126.964 128.01C127.653 128.761 127.19 132.344 127.374 132.93" stroke="#263238" stroke-linecap="round" stroke-linejoin="round"/>
<path d="M139.81 107.367C139.81 107.367 142.155 105.649 144.172 107.674" stroke="#263238" stroke-linecap="round" stroke-linejoin="round"/>
<path d="M131.733 103.418C131.733 103.418 132.143 102.734 134.123 102.902C136.104 103.07 136.456 104.185 136.456 104.185" stroke="#263238" stroke-linecap="round" stroke-linejoin="round"/>
<path d="M125.948 115.124C125.948 115.124 125.283 114.144 123.533 114.468C121.782 114.792 121.003 117.268 121.003 117.268" fill="white"/>
<path d="M125.948 115.124C125.948 115.124 125.283 114.144 123.533 114.468C121.782 114.792 121.003 117.268 121.003 117.268" stroke="#263238" stroke-linecap="round" stroke-linejoin="round"/>
<path d="M149.736 123.738C149.736 123.738 148.276 121.622 146.521 122.528" stroke="#263238" stroke-linecap="round" stroke-linejoin="round"/>
<path opacity="0.2" d="M87.5555 108.24C90.0155 110.146 87.9409 121.848 87.9409 121.848L88.1582 125.657L92.3771 123.82L94.3 131.958C94.3 131.958 94.2508 134.939 95.8129 136.058C95.8129 136.058 96.1983 142.746 95.8129 147.633C95.4275 152.52 87.6129 158.264 84.9192 163.393C82.2255 168.522 64.657 183.598 64.657 183.598L49.7822 176.521L60.5365 133.086L70.1715 120.7L75.8828 106.452C75.8828 106.452 76.8627 115.759 76.2928 122.032L87.5555 108.24Z" fill="black" fill-opacity="0.7"/>
<path d="M91.6964 134.234C91.3233 136.03 92.2212 145.874 92.0654 147.202C91.9096 148.531 84.0786 157.452 83.685 158.129C83.2914 158.805 78.0557 161.819 76.838 163.258C71.1472 169.896 68.0394 176.009 65.5425 182.138C65.0628 183.319 64.6036 184.504 64.1526 185.693L41.5698 172.573C43.4681 170.22 45.2598 168.129 46.8998 166.226C50.1798 162.368 52.7915 159.281 54.0707 156.366C54.4633 155.622 54.9129 154.909 55.4155 154.234C55.9239 153.512 56.379 152.918 56.379 152.918C56.379 152.918 54.739 148.297 55.1203 146.846C55.5016 145.394 54.6488 133.463 54.6488 133.463C54.6488 133.463 53.5377 125.341 52.443 123.291C52.1742 122.756 52.0525 122.159 52.0904 121.561C52.1437 119.687 53.2302 117.326 53.7632 114.591C54.4766 110.901 54.1322 109.076 56.3708 110.352C58.6094 111.627 57.5639 119.372 57.5639 119.372L60.9464 126.866C61.8361 125.054 60.9464 119.765 60.9013 118.515C60.9013 118.31 60.9013 117.969 60.8685 117.527C60.7988 115.37 60.6553 110.88 60.8398 109.109C60.8398 109.011 60.8398 108.921 60.8726 108.839C61.1473 107.01 62.1272 101.192 62.7504 100.544C63.677 99.5849 65.1489 98.7772 66.5347 100.954C67.3096 102.184 66.9775 111.938 66.9775 111.938C66.9775 111.938 70.1919 108.06 71.1677 107.113C72.1435 106.165 75.1037 104.435 75.895 106.44C76.6863 108.445 73.7671 114.64 73.7671 114.64C74.378 116.075 74.4518 120.048 74.4518 120.048C74.4518 120.048 75.8335 125.013 76.6822 124.968H76.7191C76.9651 124.915 77.2357 124.013 77.5186 122.746C78.2156 119.642 78.9741 114.333 79.5686 113.869L79.9786 113.541C79.9974 113.518 80.0195 113.497 80.0442 113.48L80.1959 113.345C81.6473 112.053 84.7059 109.183 84.7059 109.183C84.7059 109.183 84.9232 107.81 87.6005 108.232C90.2778 108.654 86.4115 116.555 86.4115 116.555C85.8744 119.068 85.0503 125.534 85.0503 125.534C84.8002 128.223 84.9478 135.452 84.9478 135.452C84.9478 135.452 86.2147 131.245 86.1327 129.712C86.0507 128.178 88.6501 124.423 89.4127 123.455C90.1753 122.488 93.5783 122.828 92.6312 124.685C91.6841 126.542 92.0695 132.43 91.6964 134.234Z" fill="white"/>
<path opacity="0.4" d="M54.0586 156.382C54.4512 155.638 54.9008 154.925 55.4034 154.25C55.4034 154.25 54.0709 157.94 53.9397 159.904C53.8536 161.2 50.4424 163.442 46.8877 166.243C50.1882 162.385 52.7794 159.297 54.0586 156.382Z" fill="white"/>
<path opacity="0.4" d="M55.4037 154.25C55.9121 153.529 56.3672 152.934 56.3672 152.934C56.3672 152.934 54.7272 148.313 55.1085 146.862C55.4898 145.411 54.637 133.48 54.637 133.48C54.637 133.48 53.5259 125.357 52.4312 123.307L54.9814 127.764C54.9814 127.764 54.7313 131.286 55.457 133.217C56.1827 135.148 57.097 141.04 57.097 141.04C57.097 141.04 56.0228 145.993 56.3877 147.776C56.7526 149.56 58.3966 148.912 58.3966 148.912C58.3966 148.912 59.2044 152.176 55.4037 154.25Z" fill="white"/>
<path opacity="0.4" d="M61.3523 120.7C63.1112 130.999 60.0813 128.15 58.9866 125.927C57.8919 123.705 55.3212 119.499 53.386 120.396C52.8426 120.652 52.3873 121.063 52.0781 121.577C52.1314 119.704 53.2179 117.342 53.7509 114.607C54.4643 110.917 54.1199 109.093 56.3585 110.368C58.5971 111.643 57.5516 119.388 57.5516 119.388L60.9341 126.883C61.8238 125.07 60.9341 119.781 60.889 118.531C60.889 118.326 60.889 117.986 60.8562 117.543C60.9915 118.49 61.1555 119.544 61.3523 120.7Z" fill="white"/>
<path opacity="0.4" d="M65.6574 110.524C65.6574 110.524 63.7591 108.039 62.1109 108.166C61.8279 108.182 61.5556 108.279 61.3275 108.448C61.0995 108.616 60.9257 108.847 60.8276 109.113C60.8276 109.015 60.8276 108.925 60.8604 108.843C61.1351 107.014 62.115 101.196 62.7382 100.548C63.6648 99.589 65.1367 98.7813 66.5225 100.958C67.2974 102.188 66.9653 111.942 66.9653 111.942C66.9653 111.942 70.1797 108.064 71.1555 107.117C72.1313 106.169 75.0915 104.439 75.8828 106.444C76.6741 108.449 73.7549 114.644 73.7549 114.644C74.3658 116.079 74.4396 120.052 74.4396 120.052C74.4396 120.052 75.8213 125.017 76.67 124.972C74.8004 128.49 73.554 120.712 73.554 120.712C73.8328 119.105 72.8406 115.62 72.939 114.702C73.0374 113.783 71.217 110.536 68.1502 111.422C65.0834 112.307 67.2974 124.427 67.2974 124.427C66.6914 125.392 66.3389 126.495 66.2724 127.633C65.3253 126.464 66.2724 123.123 66.2724 123.123C65.4319 119.925 65.6574 110.524 65.6574 110.524Z" fill="white"/>
<path opacity="0.4" d="M79.9502 113.529C78.6423 114.902 78.8227 118.375 77.4902 122.733C78.1872 119.63 78.9457 114.32 79.5402 113.857L79.9502 113.529Z" fill="white"/>
<path opacity="0.4" d="M91.6969 134.234C91.3238 136.03 92.2217 145.874 92.0659 147.202C91.9101 148.531 84.0791 157.452 83.6855 158.129C83.2919 158.805 78.0562 161.819 76.8385 163.258C71.1477 169.896 68.0399 176.009 65.543 182.138C66.4835 178.961 67.6186 175.845 68.9419 172.807C71.6356 166.751 72.7344 165.673 74.3498 163.943C75.9652 162.212 75.7889 158.535 75.7889 158.535C76.9811 158.248 78.2033 158.103 79.4297 158.104C81.4797 158.104 87.5477 149.453 89.6346 147.936C91.7215 146.419 92.0946 146.419 89.6346 143.074C87.1746 139.728 87.8716 143.611 87.1336 143.484C86.3956 143.357 85.9938 144.972 85.9938 144.972C85.7355 141.561 83.5338 137.592 83.0705 136.6C82.6072 135.608 84.1939 129.79 83.8659 128.17C83.5379 126.551 85.2763 116.69 85.2763 116.69C85.2763 116.69 85.059 112.906 81.6314 112.894C81.1053 112.864 80.5858 113.021 80.1636 113.336C81.615 112.045 84.6736 109.175 84.6736 109.175C84.6736 109.175 84.8909 107.801 87.5682 108.224C90.2455 108.646 86.3792 116.547 86.3792 116.547C85.8421 119.06 85.018 125.526 85.018 125.526C84.7679 128.215 84.9155 135.444 84.9155 135.444C84.9155 135.444 86.1824 131.237 86.1004 129.704C86.0184 128.17 88.6178 124.415 89.3804 123.447C90.143 122.479 93.546 122.82 92.5989 124.677C91.6518 126.534 92.07 132.43 91.6969 134.234Z" fill="white"/>
<path d="M64.1487 185.73C66.9326 178.379 70.0445 171.204 76.8382 163.278C78.0682 161.86 83.2875 158.846 83.6852 158.149C84.0829 157.452 91.9139 148.547 92.0656 147.223C92.2173 145.899 91.3235 136.05 91.6966 134.255C92.0697 132.459 91.6351 126.538 92.5781 124.693C93.5211 122.848 90.1181 122.512 89.3596 123.463C88.6011 124.415 86.0099 128.203 86.0796 129.72C86.1493 131.237 84.8947 135.46 84.8947 135.46C84.8947 135.46 84.7471 128.232 84.9972 125.542C84.9972 125.542 85.8172 119.076 86.3584 116.563C86.3584 116.563 90.2206 108.658 87.5474 108.24C84.8742 107.822 84.6528 109.191 84.6528 109.191C84.6528 109.191 80.3847 113.201 79.5401 113.857C78.6955 114.513 77.5434 124.763 76.6947 124.956C75.846 125.148 74.4274 120.036 74.4274 120.036C74.4274 120.036 74.3536 116.063 73.7427 114.628C73.7427 114.628 76.6578 108.449 75.8706 106.428C75.0834 104.406 72.1232 106.157 71.1433 107.1C70.1634 108.043 66.9531 111.926 66.9531 111.926C66.9531 111.926 67.2852 102.164 66.5103 100.942C65.1245 98.7567 63.6403 99.5644 62.726 100.532C62.1028 101.18 61.1229 106.998 60.8482 108.826C60.5735 110.655 60.8482 117.248 60.8769 118.502C60.9056 119.757 61.8117 125.042 60.922 126.854L57.5395 119.359C57.5395 119.359 58.5891 111.606 56.3464 110.339C54.1037 109.072 54.4522 110.901 53.7388 114.579C53.0254 118.256 51.328 121.245 52.4186 123.299C53.5092 125.353 54.6244 133.471 54.6244 133.471C54.6244 133.471 55.469 145.402 55.0959 146.854C54.7228 148.305 56.3669 152.93 56.3669 152.93C56.3669 152.93 54.4727 155.427 54.0586 156.378C52.148 160.72 47.3141 165.468 41.5659 172.61" stroke="#263238" stroke-linecap="round" stroke-linejoin="round"/>
<path d="M66.9655 111.951C66.4893 112.655 66.2482 113.491 66.2767 114.341C66.2767 115.899 67.2976 124.427 67.2976 124.427C67.2976 124.427 66.5555 125.304 66.5186 126.067" stroke="#263238" stroke-linecap="round" stroke-linejoin="round"/>
<path d="M84.9028 135.439C85.0149 136.88 85.3857 138.288 85.9975 139.597C86.9569 141.491 86.6453 142.536 86.3173 143.656C86.0976 144.637 85.9808 145.639 85.9688 146.645" stroke="#263238" stroke-linecap="round" stroke-linejoin="round"/>
<path d="M61.295 125.185C61.295 125.185 62.0084 127.449 60.6841 128.523" stroke="#263238" stroke-linecap="round" stroke-linejoin="round"/>
<path d="M76.7072 124.956C76.7072 124.956 76.8466 125.845 75.5879 125.927" stroke="#263238" stroke-linecap="round" stroke-linejoin="round"/>
<path d="M85.161 114.706C85.161 114.706 82.004 111.262 79.5522 113.857" stroke="#263238" stroke-linecap="round" stroke-linejoin="round"/>
<path d="M72.3691 112.77C72.3691 112.77 70.9137 110.93 69.6509 111.04C68.3881 111.151 66.6824 111.922 66.4897 112.934" stroke="#263238" stroke-linecap="round" stroke-linejoin="round"/>
<path d="M86.5879 142.549C87.0971 143.277 87.4681 144.093 87.6826 144.956" stroke="#263238" stroke-linecap="round" stroke-linejoin="round"/>
<path d="M78.3879 128.551C77.4081 130.376 77.8754 133.471 77.5146 134.32" stroke="#263238" stroke-linecap="round" stroke-linejoin="round"/>
<path d="M68.0068 125.521C68.2364 126.571 67.5107 128.281 67.4 129.539C67.2893 130.798 68.3184 132.742 68.1298 134.509" stroke="#263238" stroke-linecap="round" stroke-linejoin="round"/>
<path d="M61.3524 129.818C61.3524 129.818 60.4955 131.794 60.5324 133.098C60.5693 134.402 61.0326 137.26 61.0326 137.26" stroke="#263238" stroke-linecap="round" stroke-linejoin="round"/>
<path d="M55.0508 129.724C55.0508 129.724 54.7392 131.774 55.4608 133.217C56.1824 134.66 56.8835 137.727 56.8835 137.727" stroke="#263238" stroke-linecap="round" stroke-linejoin="round"/>
<path d="M56.3667 152.93C56.7446 152.825 57.0824 152.609 57.3361 152.31C57.5898 152.011 57.7477 151.643 57.7894 151.253" stroke="#263238" stroke-linecap="round" stroke-linejoin="round"/>
<path d="M76.9778 159.178C76.9778 159.178 77.7609 162.077 76.2603 163.943" stroke="#263238" stroke-linecap="round" stroke-linejoin="round"/>
<path d="M52.0986 121.233C52.0986 121.233 54.3044 119.08 55.9731 120.897" stroke="#263238" stroke-linecap="round" stroke-linejoin="round"/>
<path d="M60.8604 108.843C60.8604 108.843 62.5003 107.125 64.4191 108.962" stroke="#263238" stroke-linecap="round" stroke-linejoin="round"/>
</svg>
