<svg width="242" height="242" viewBox="0 0 242 242" fill="none" xmlns="http://www.w3.org/2000/svg">
<path d="M231.193 111.727C228.656 99.3217 224.204 87.212 218.909 76.08C209.78 56.8749 194.825 40.9271 175.692 31.46C128.744 8.22804 94.8643 17.908 76.4723 36.784C58.0803 55.66 63.4043 88.088 43.5603 102.124C23.7163 116.16 9.68028 122.452 8.71228 148.104C7.74428 173.756 20.3283 193.116 40.6563 199.408C60.9843 205.7 91.4763 226.028 152.46 214.412C213.444 202.796 228.448 170.368 232.32 147.136C234.256 135.447 233.588 123.454 231.193 111.727Z" fill="#CBCBCB"/>
<path opacity="0.7" d="M231.193 111.727C228.656 99.3217 224.204 87.212 218.909 76.08C209.78 56.8749 194.825 40.9271 175.692 31.46C128.744 8.22804 94.8643 17.908 76.4723 36.784C58.0803 55.66 63.4043 88.088 43.5603 102.124C23.7163 116.16 9.68028 122.452 8.71228 148.104C7.74428 173.756 20.3283 193.116 40.6563 199.408C60.9843 205.7 91.4763 226.028 152.46 214.412C213.444 202.796 228.448 170.368 232.32 147.136C234.256 135.447 233.588 123.454 231.193 111.727Z" fill="white"/>
<path d="M88.2435 40.9077H83.8584V60.3403H88.2435V40.9077Z" fill="#C9C9C9" stroke="#263238" stroke-linecap="round" stroke-linejoin="round"/>
<path d="M88.2435 43.8311H83.8584V45.7283H88.2435V43.8311Z" fill="white" stroke="#263238" stroke-linecap="round" stroke-linejoin="round"/>
<path d="M88.2435 55.8875H83.8584V57.7847H88.2435V55.8875Z" fill="white" stroke="#263238" stroke-linecap="round" stroke-linejoin="round"/>
<path d="M93.3598 40.9077H87.2227V60.3403H93.3598V40.9077Z" fill="#878787" stroke="#263238" stroke-linecap="round" stroke-linejoin="round"/>
<path d="M92.9241 40.9077H88.5391V60.3403H92.9241V40.9077Z" fill="#C9C9C9" stroke="#263238" stroke-linecap="round" stroke-linejoin="round"/>
<path d="M92.9241 43.8311H88.5391V45.7283H92.9241V43.8311Z" fill="white" stroke="#263238" stroke-linecap="round" stroke-linejoin="round"/>
<path d="M92.9241 55.8875H88.5391V57.7847H92.9241V55.8875Z" fill="white" stroke="#263238" stroke-linecap="round" stroke-linejoin="round"/>
<path d="M98.0346 40.9077H91.8975V60.3403H98.0346V40.9077Z" fill="#878787" stroke="#263238" stroke-linecap="round" stroke-linejoin="round"/>
<path d="M97.5989 40.9077H93.2139V60.3403H97.5989V40.9077Z" fill="#C9C9C9" stroke="#263238" stroke-linecap="round" stroke-linejoin="round"/>
<path d="M97.5989 43.8311H93.2139V45.7283H97.5989V43.8311Z" fill="white" stroke="#263238" stroke-linecap="round" stroke-linejoin="round"/>
<path d="M97.5989 55.8875H93.2139V57.7847H97.5989V55.8875Z" fill="white" stroke="#263238" stroke-linecap="round" stroke-linejoin="round"/>
<path d="M102.71 40.9077H96.5732V60.3403H102.71V40.9077Z" fill="#C9C9C9" stroke="#263238" stroke-linecap="round" stroke-linejoin="round"/>
<path d="M106.708 60.5389H117.008L119.747 58.0608H106.708V60.5389Z" fill="white" stroke="#263238" stroke-linecap="round" stroke-linejoin="round"/>
<path d="M118.581 60.6647L118.251 60.0984L106.495 60.0742L106.834 60.6647H118.581Z" fill="white" stroke="#263238" stroke-linecap="round" stroke-linejoin="round"/>
<path d="M100.745 41.3124L96.9492 43.5076L106.677 60.3299L110.473 58.1347L100.745 41.3124Z" fill="#C9C9C9" stroke="#263238" stroke-linecap="round" stroke-linejoin="round"/>
<path d="M102.21 43.8363L98.4141 46.0315L99.3638 47.6739L103.16 45.4788L102.21 43.8363Z" fill="white" stroke="#263238" stroke-linecap="round" stroke-linejoin="round"/>
<path d="M108.249 54.2721L104.453 56.4673L105.403 58.1097L109.199 55.9145L108.249 54.2721Z" fill="white" stroke="#263238" stroke-linecap="round" stroke-linejoin="round"/>
<path d="M119.679 58.2301L110.372 58.2059L100.644 41.3821L109.951 41.4063L119.679 58.2301Z" fill="#C9C9C9" stroke="#263238" stroke-linecap="round" stroke-linejoin="round"/>
<path d="M124.751 50.6991C124.751 50.6991 123.057 50.0941 122.573 47.4321C122.089 44.7701 121.242 41.0191 122.21 40.1721C123.178 39.3251 124.993 38.8411 125.235 40.5351C125.477 42.2291 125.114 45.4961 125.477 46.2221C125.84 46.9481 127.05 46.4641 127.05 45.0121C127.05 42.6211 126.082 40.1721 126.426 37.7521C126.91 34.4076 130.298 34.0398 130.661 37.7521C130.864 39.8042 130.922 41.8999 130.922 43.9618C130.922 44.8088 132.374 45.2928 132.253 43.2358C132.166 41.7838 133.221 40.0898 134.673 40.5738C136.125 41.0578 134.915 47.4708 134.431 48.5598C133.947 49.6488 130.922 49.8521 130.922 49.8521V52.6351L127.292 52.7561L127.171 49.9731C126.432 50.4003 125.603 50.6489 124.751 50.6991Z" fill="#CBCBCB" stroke="#263238" stroke-linecap="round" stroke-linejoin="round"/>
<path d="M128.019 45.3943C128.062 45.9993 128.091 46.3623 128.091 46.3623" stroke="#263238" stroke-linecap="round" stroke-linejoin="round"/>
<path d="M128.26 36.0098C128.26 36.0098 127.466 36.5615 127.525 38.2168C127.563 39.2235 127.757 42.0114 127.907 44.049" stroke="#263238" stroke-linecap="round" stroke-linejoin="round"/>
<path d="M129.625 41.7161L129.751 45.7671" stroke="#263238" stroke-linecap="round" stroke-linejoin="round"/>
<path d="M131.397 48.4001C131.116 48.4438 130.833 48.468 130.55 48.4727" stroke="#263238" stroke-linecap="round" stroke-linejoin="round"/>
<path d="M133.923 41.595C133.644 42.1248 133.496 42.7141 133.492 43.3132C133.492 44.2812 133.555 46.9964 132.941 47.7321C132.791 47.8973 132.607 48.0292 132.403 48.1193" stroke="#263238" stroke-linecap="round" stroke-linejoin="round"/>
<path d="M123.421 47.04C123.566 47.7677 123.915 48.4391 124.428 48.976C124.731 49.2185 125.104 49.3554 125.492 49.3658C125.88 49.3763 126.261 49.2599 126.577 49.0341" stroke="#263238" stroke-linecap="round" stroke-linejoin="round"/>
<path d="M123.305 40.4917C123.305 40.4917 122.08 40.4917 122.506 42.6358C122.69 43.5409 122.859 44.6541 123.077 45.7044" stroke="#263238" stroke-linecap="round" stroke-linejoin="round"/>
<path d="M127.907 48.6516L128.154 51.2894" stroke="#263238" stroke-linecap="round" stroke-linejoin="round"/>
<path d="M134.19 51.5459L133.749 55.1565L133.449 57.6153L133.101 60.4757H124.394L124.045 57.6153L123.745 55.1565L123.305 51.5459H134.19Z" fill="white" stroke="#263238" stroke-linecap="round" stroke-linejoin="round"/>
<path d="M133.749 55.1567L133.449 57.6155H124.045L123.745 55.1567H133.749Z" fill="#CBCBCB" stroke="#263238" stroke-linecap="round" stroke-linejoin="round"/>
<path d="M138.971 60.4758H83.084V64.1784H138.971V60.4758Z" fill="white" stroke="#263238" stroke-linecap="round" stroke-linejoin="round"/>
<path d="M138.971 60.4758H126.087V64.1784H138.971V60.4758Z" fill="white" stroke="#263238" stroke-linecap="round" stroke-linejoin="round"/>
<path d="M124.834 64.1929C130.821 66.3999 129.742 70.572 129.742 70.572H135.409V64.1929H124.834Z" fill="#919191" stroke="#263238" stroke-linecap="round" stroke-linejoin="round"/>
<path d="M126.746 64.1929C132.728 66.3999 131.649 70.572 131.649 70.572H137.322V64.1929H126.746Z" fill="white" stroke="#263238" stroke-linecap="round" stroke-linejoin="round"/>
<path d="M86.4766 64.1931C92.4637 66.4002 91.3843 70.5723 91.3843 70.5723H97.052V64.1931H86.4766Z" fill="#919191" stroke="#263238" stroke-linecap="round" stroke-linejoin="round"/>
<path d="M88.3887 64.1931C94.3709 66.4002 93.2916 70.5723 93.2916 70.5723H98.9641V64.1931H88.3887Z" fill="white" stroke="#263238" stroke-linecap="round" stroke-linejoin="round"/>
<path d="M216.852 41.5999H166.729V111.18H216.852V41.5999Z" fill="#919191" stroke="#263238" stroke-linecap="round" stroke-linejoin="round"/>
<path d="M214.678 44.6201H168.906V108.16H214.678V44.6201Z" fill="#CBCBCB"/>
<path opacity="0.5" d="M214.678 44.6201H168.906V108.16H214.678V44.6201Z" fill="white"/>
<path d="M178.968 103.334C177.741 105.206 176.191 106.845 174.39 108.174H214.678V44.6199H207.253L206.285 44.9248C199.025 47.2141 191.523 53.8401 187.269 65.882" stroke="#263238" stroke-linecap="round" stroke-linejoin="round"/>
<path d="M186.563 67.9924C184.872 73.7352 183.938 79.674 183.784 85.6584C183.518 92.841 181.989 98.0053 179.946 101.718" stroke="#263238" stroke-linecap="round" stroke-linejoin="round"/>
<path d="M210.202 60.7468C203.547 64.6188 195.798 71.1238 192.903 81.099C191.35 86.423 192.807 91.2243 195.686 95.3335" stroke="#263238" stroke-linecap="round" stroke-linejoin="round"/>
<path d="M197.245 97.3372C201.238 102.013 206.925 105.691 211.528 108.164H214.679V58.3994C213.779 58.8205 212.82 59.2948 211.823 59.8514" stroke="#263238" stroke-linecap="round" stroke-linejoin="round"/>
<path d="M176.515 61.1872C180.019 54.0434 180.387 48.3757 179.985 44.6199H168.916V73.6889C170.552 71.3609 172.556 68.2488 174.976 64.0767C175.126 63.8202 175.266 63.5927 175.406 63.3216" stroke="#263238" stroke-linecap="round" stroke-linejoin="round"/>
<path d="M180.852 88.7027C180.315 92.2214 178.698 94.7769 176.791 94.7769C174.444 94.7769 172.537 90.9049 172.537 86.1133C172.537 81.3217 174.444 77.4497 176.791 77.4497C179.139 77.4497 181.046 81.3217 181.046 86.1133" stroke="#263238" stroke-linecap="round" stroke-linejoin="round"/>
<path d="M182.87 68.3313C182.87 70.1753 182.057 71.6757 181.045 71.6757C180.034 71.6757 179.226 70.1753 179.226 68.3313C179.226 66.4872 180.039 64.9868 181.045 64.9868C182.052 64.9868 182.87 66.4824 182.87 68.3313Z" stroke="#263238" stroke-linecap="round" stroke-linejoin="round"/>
<path d="M206.092 82.4591C207.849 83.2965 208.996 84.7581 208.996 86.4183C208.996 89.0173 206.141 91.1276 202.613 91.1276C199.084 91.1276 196.233 89.0173 196.233 86.4183C196.233 83.8192 199.089 81.7041 202.613 81.7041C203.175 81.7037 203.736 81.7588 204.287 81.8687" stroke="#263238" stroke-linecap="round" stroke-linejoin="round"/>
<path d="M205.303 86.4183C205.303 87.5073 204.108 88.393 202.627 88.393C201.146 88.393 199.95 87.5073 199.95 86.4183C199.95 85.3293 201.151 84.4387 202.627 84.4387C204.103 84.4387 205.303 85.3244 205.303 86.4183Z" stroke="#263238" stroke-linecap="round" stroke-linejoin="round"/>
<path d="M209.62 74.4101C209.62 75.9202 208.125 77.1447 206.276 77.1447C204.427 77.1447 202.932 75.9202 202.932 74.4101C202.932 72.9001 204.427 71.6755 206.276 71.6755C208.125 71.6755 209.62 72.9001 209.62 74.4101Z" stroke="#263238" stroke-linecap="round" stroke-linejoin="round"/>
<path d="M185.454 59.2125C186.713 59.2125 187.734 56.6945 187.734 53.5884C187.734 50.4823 186.713 47.9644 185.454 47.9644C184.195 47.9644 183.175 50.4823 183.175 53.5884C183.175 56.6945 184.195 59.2125 185.454 59.2125Z" stroke="#263238" stroke-linecap="round" stroke-linejoin="round"/>
<path d="M191.689 101.921C191.689 102.553 191.501 103.17 191.15 103.695C190.799 104.221 190.3 104.63 189.717 104.872C189.133 105.114 188.491 105.177 187.871 105.054C187.251 104.93 186.682 104.626 186.235 104.18C185.789 103.733 185.484 103.164 185.361 102.544C185.238 101.924 185.301 101.282 185.543 100.698C185.785 100.115 186.194 99.6157 186.719 99.2647C187.245 98.9137 187.862 98.7263 188.494 98.7263C189.341 98.7263 190.154 99.0629 190.753 99.6619C191.352 100.261 191.689 101.074 191.689 101.921Z" stroke="#263238" stroke-linecap="round" stroke-linejoin="round"/>
<path d="M206.581 54.4984C206.582 54.8903 206.467 55.2737 206.25 55.6C206.032 55.9263 205.723 56.1808 205.361 56.3312C205 56.4816 204.601 56.5212 204.217 56.445C203.832 56.3688 203.479 56.1801 203.202 55.903C202.925 55.6259 202.736 55.2727 202.66 54.8882C202.584 54.5038 202.623 54.1054 202.774 53.7435C202.924 53.3816 203.179 53.0724 203.505 52.8553C203.831 52.6381 204.215 52.5227 204.606 52.5237C205.13 52.525 205.631 52.7334 206.001 53.1035C206.371 53.4735 206.58 53.9751 206.581 54.4984Z" stroke="#263238" stroke-linecap="round" stroke-linejoin="round"/>
<path d="M194.118 68.4811C194.119 68.6919 194.057 68.8983 193.941 69.074C193.824 69.2497 193.658 69.387 193.464 69.4683C193.269 69.5496 193.055 69.5714 192.848 69.5309C192.641 69.4903 192.451 69.3893 192.302 69.2406C192.152 69.0919 192.051 68.9022 192.009 68.6955C191.968 68.4888 191.988 68.2744 192.069 68.0796C192.149 67.8847 192.286 67.7182 192.461 67.6009C192.636 67.4837 192.842 67.4212 193.053 67.4212C193.193 67.4205 193.331 67.4475 193.46 67.5004C193.589 67.5534 193.707 67.6314 193.806 67.7299C193.905 67.8284 193.983 67.9454 194.037 68.0744C194.09 68.2033 194.118 68.3415 194.118 68.4811V68.4811Z" stroke="#263238" stroke-linecap="round" stroke-linejoin="round"/>
<path d="M214.678 44.6201H168.906V108.16H214.678V44.6201Z" stroke="#263238" stroke-linecap="round" stroke-linejoin="round"/>
<path d="M139.871 135.225H127.438V139.905H139.871V135.225Z" fill="#263238" stroke="#263238" stroke-linecap="round" stroke-linejoin="round"/>
<path d="M156.554 135.931H107.065L109.408 97.5696H158.902L156.554 135.931Z" fill="#919191" stroke="#263238" stroke-linecap="round" stroke-linejoin="round"/>
<path d="M155.136 135.931H105.647L107.99 97.5696H157.479L155.136 135.931Z" fill="#263238" stroke="#263238" stroke-linecap="round" stroke-linejoin="round"/>
<path d="M152.518 133.797H108.527L110.609 99.6992H154.599L152.518 133.797Z" fill="white" stroke="#263238" stroke-linecap="round" stroke-linejoin="round"/>
<path d="M139.721 128.715H109.839L111.441 102.439H141.328L139.721 128.715Z" fill="#919191" stroke="#263238" stroke-linecap="round" stroke-linejoin="round"/>
<path d="M121.63 117.428C121.63 117.428 115.406 119.892 115.367 120.555C115.328 121.218 114.108 128.715 114.108 128.715H132.617L131.058 120.08L124.209 117.234L121.63 117.428Z" fill="white" stroke="#263238" stroke-linecap="round" stroke-linejoin="round"/>
<path d="M121.813 115.908C121.345 116.032 120.91 116.258 120.54 116.571C120.056 117.055 119.466 118.657 119.466 118.657L119.441 120.555L121.895 119.228L124.388 119.064L126.721 121.247L127.021 117.926C127.021 117.926 126.663 116.029 125.908 115.932C125.153 115.836 121.813 115.908 121.813 115.908Z" fill="white" stroke="#263238" stroke-linecap="round" stroke-linejoin="round"/>
<path d="M121.736 114.108L121.63 117.428L123.096 119.8L125.521 117.331L125.899 114.297L121.736 114.108Z" fill="white" stroke="#263238" stroke-linecap="round" stroke-linejoin="round"/>
<path d="M127.718 110.226C127.544 113.009 125.695 116.383 123.667 116.383C121.639 116.383 120.202 112.995 120.371 110.226C120.54 107.458 122.307 105.188 124.349 105.188C126.392 105.188 127.888 107.448 127.718 110.226Z" fill="white" stroke="#263238" stroke-linecap="round" stroke-linejoin="round"/>
<path d="M120.337 110.594C120.337 110.594 119.683 108.89 119.412 110.216C119.141 111.543 120.477 112.966 120.477 112.966L120.337 110.594Z" fill="white" stroke="#263238" stroke-linecap="round" stroke-linejoin="round"/>
<path d="M127.718 110.226C127.718 110.226 129.32 109.554 128.851 110.976C128.732 111.379 128.524 111.75 128.242 112.061C127.961 112.373 127.613 112.618 127.225 112.777L127.718 110.226Z" fill="white" stroke="#263238" stroke-linecap="round" stroke-linejoin="round"/>
<path d="M123.468 110.594C123.481 110.423 123.458 110.251 123.401 110.09C123.344 109.928 123.253 109.78 123.136 109.656C123.019 109.531 122.876 109.432 122.719 109.365C122.561 109.298 122.391 109.265 122.219 109.268C121.863 109.277 121.522 109.417 121.262 109.662C121.002 109.907 120.842 110.238 120.811 110.594C120.798 110.765 120.821 110.937 120.878 111.099C120.936 111.26 121.026 111.409 121.143 111.534C121.26 111.659 121.403 111.758 121.56 111.825C121.718 111.893 121.888 111.927 122.06 111.925C122.417 111.915 122.759 111.774 123.019 111.529C123.278 111.283 123.439 110.95 123.468 110.594Z" fill="white" stroke="#263238" stroke-linecap="round" stroke-linejoin="round"/>
<path d="M126.692 110.594L128.14 110.217" stroke="#263238" stroke-linecap="round" stroke-linejoin="round"/>
<path d="M126.692 110.594C126.705 110.424 126.682 110.252 126.625 110.091C126.568 109.93 126.478 109.782 126.361 109.658C126.244 109.533 126.103 109.434 125.946 109.367C125.788 109.3 125.619 109.266 125.448 109.268C125.09 109.276 124.748 109.416 124.488 109.661C124.227 109.905 124.066 110.238 124.035 110.594C124.022 110.765 124.045 110.937 124.102 111.099C124.159 111.261 124.249 111.409 124.367 111.534C124.484 111.659 124.626 111.758 124.784 111.826C124.942 111.893 125.112 111.927 125.283 111.925C125.641 111.916 125.982 111.774 126.242 111.529C126.502 111.283 126.662 110.95 126.692 110.594Z" fill="white" stroke="#263238" stroke-linecap="round" stroke-linejoin="round"/>
<path d="M124.02 104.616C124.02 104.616 122.568 103.861 121.479 104.336C120.39 104.81 119.587 107.37 119.64 108.033C119.811 108.903 120.044 109.758 120.337 110.594L121.489 107.274L124.509 105.947L124.02 104.616Z" fill="#263238" stroke="#263238" stroke-linecap="round" stroke-linejoin="round"/>
<path d="M122.559 105.285C122.559 105.285 124.95 103.387 126.886 104.317C127.479 104.574 127.968 105.022 128.278 105.589C128.587 106.156 128.699 106.81 128.595 107.448C128.565 107.932 128.527 110.1 128.527 110.1L127.375 110.294L126.809 108.508C126.154 108.249 125.517 107.948 124.902 107.608C124.902 107.608 122.341 107.274 122.559 105.285Z" fill="#263238" stroke="#263238" stroke-linecap="round" stroke-linejoin="round"/>
<path d="M123.468 110.594L123.299 113.348H123.962" fill="white"/>
<path d="M123.468 110.594L123.299 113.348H123.962" stroke="#263238" stroke-linecap="round" stroke-linejoin="round"/>
<path d="M122.951 114.388H124.374" stroke="#263238" stroke-linecap="round" stroke-linejoin="round"/>
<path d="M123.096 119.8L122.568 128.43" stroke="#263238" stroke-linecap="round" stroke-linejoin="round"/>
<path d="M131.048 120.08C131.048 120.08 129.068 124.543 129.01 125.491C128.952 126.44 128.729 128.526 128.729 128.526" stroke="#263238" stroke-linecap="round" stroke-linejoin="round"/>
<path d="M115.366 120.555C115.366 120.555 117.336 123.972 117.593 124.427C117.849 124.882 117.535 128.507 117.535 128.507" stroke="#263238" stroke-linecap="round" stroke-linejoin="round"/>
<path d="M132.369 123.309L133.023 120.366L134.136 119.228L135.186 117.52H135.66L135.08 119.325L136.551 118.469L137.5 116.954L138.051 117.234L136.696 120.748L134.547 121.789L134.174 123.212L132.369 123.309Z" fill="white" stroke="#263238" stroke-linecap="round" stroke-linejoin="round"/>
<path d="M134.209 128.715L134.388 122.834L132.229 122.452L130.525 128.715H134.209Z" fill="white" stroke="#263238" stroke-linecap="round" stroke-linejoin="round"/>
<path d="M139.591 130.898H109.704L109.84 128.715H139.722L139.591 130.898Z" fill="white" stroke="#263238" stroke-linecap="round" stroke-linejoin="round"/>
<path d="M110.924 129.572H138.342" stroke="#263238" stroke-linecap="round" stroke-linejoin="round"/>
<path d="M152.566 109.452H142.509L142.935 102.526H152.992L152.566 109.452Z" fill="#CBCBCB" stroke="#263238" stroke-linecap="round" stroke-linejoin="round"/>
<path d="M152.566 109.452H142.509L142.581 108.314H152.639L152.566 109.452Z" fill="white" stroke="#263238" stroke-linecap="round" stroke-linejoin="round"/>
<path d="M149.319 105.585L146.705 104.021L146.517 107.148L149.319 105.585Z" fill="white" stroke="#263238" stroke-linecap="round" stroke-linejoin="round"/>
<path d="M151.913 120.172H141.855L142.277 113.251H152.334L151.913 120.172Z" fill="#CBCBCB" stroke="#263238" stroke-linecap="round" stroke-linejoin="round"/>
<path d="M151.913 120.172H141.855L141.928 119.035H151.981L151.913 120.172Z" fill="white" stroke="#263238" stroke-linecap="round" stroke-linejoin="round"/>
<path d="M148.666 116.31L146.052 114.747L145.863 117.873L148.666 116.31Z" fill="white" stroke="#263238" stroke-linecap="round" stroke-linejoin="round"/>
<path d="M151.255 130.898H141.202L141.623 123.972H151.681L151.255 130.898Z" fill="#CBCBCB" stroke="#263238" stroke-linecap="round" stroke-linejoin="round"/>
<path d="M151.255 130.898H141.202L141.27 129.76H151.327L151.255 130.898Z" fill="white" stroke="#263238" stroke-linecap="round" stroke-linejoin="round"/>
<path d="M148.007 127.031L145.399 125.468L145.205 128.594L148.007 127.031Z" fill="white" stroke="#263238" stroke-linecap="round" stroke-linejoin="round"/>
<path d="M142.538 110.594H152.305" stroke="#263238" stroke-linecap="round" stroke-linejoin="round"/>
<path d="M142.466 111.736H152.238" stroke="#263238" stroke-linecap="round" stroke-linejoin="round"/>
<path d="M141.875 121.411H151.647" stroke="#263238" stroke-linecap="round" stroke-linejoin="round"/>
<path d="M141.808 122.549H151.58" stroke="#263238" stroke-linecap="round" stroke-linejoin="round"/>
<path d="M137.543 139.905H130.196C130.196 139.172 130.487 138.469 131.006 137.951C131.524 137.433 132.227 137.142 132.96 137.142H134.77C135.503 137.142 136.206 137.433 136.724 137.951C137.243 138.469 137.534 139.172 137.534 139.905H137.543Z" fill="white" stroke="#263238" stroke-linecap="round" stroke-linejoin="round"/>
<path d="M126.697 138.4H90.7744V139.905H126.697V138.4Z" fill="#919191" stroke="#263238" stroke-linecap="round" stroke-linejoin="round"/>
<path d="M126.687 138.4H117.66V139.905H126.687V138.4Z" fill="white" stroke="#263238" stroke-linecap="round" stroke-linejoin="round"/>
<path d="M76.0508 66.1291V37.5295" stroke="#263238" stroke-linecap="round" stroke-linejoin="round"/>
<path d="M76.0508 209.262V68.9751" stroke="#263238" stroke-linecap="round" stroke-linejoin="round"/>
<path d="M141.362 149.943L145.718 208.667C145.741 208.881 145.844 209.079 146.008 209.22C146.171 209.36 146.382 209.434 146.597 209.424C146.812 209.415 147.016 209.324 147.167 209.17C147.317 209.016 147.403 208.81 147.407 208.594L146.754 149.943H141.362Z" fill="#919191" stroke="#263238" stroke-linecap="round" stroke-linejoin="round"/>
<path d="M144.648 149.943L146.947 209.345C147.083 209.272 147.196 209.164 147.275 209.032C147.353 208.899 147.394 208.748 147.393 208.594L146.754 149.943H144.648Z" fill="white" stroke="#263238" stroke-linecap="round" stroke-linejoin="round"/>
<path d="M168.742 149.943L173.098 208.667C173.121 208.881 173.224 209.079 173.388 209.22C173.551 209.36 173.762 209.434 173.977 209.424C174.192 209.415 174.396 209.324 174.546 209.17C174.697 209.016 174.783 208.81 174.787 208.594L174.134 149.943H168.742Z" fill="#919191" stroke="#263238" stroke-linecap="round" stroke-linejoin="round"/>
<path d="M171.772 149.943L174.454 209.258C174.554 209.179 174.635 209.078 174.691 208.963C174.746 208.848 174.774 208.722 174.773 208.594L174.134 149.943H171.772Z" fill="white" stroke="#263238" stroke-linecap="round" stroke-linejoin="round"/>
<path d="M96.5675 150.582L92.2115 208.662C92.1968 208.876 92.1016 209.075 91.9452 209.221C91.7888 209.366 91.583 209.447 91.3693 209.446C91.2573 209.448 91.146 209.428 91.0419 209.387C90.9377 209.345 90.8429 209.284 90.7627 209.205C90.6826 209.127 90.6188 209.034 90.575 208.93C90.5313 208.827 90.5084 208.716 90.5078 208.604L91.1515 150.427L96.5675 150.582Z" fill="#263238" stroke="#263238" stroke-linecap="round" stroke-linejoin="round"/>
<path d="M69.2123 150.582L64.8562 208.662C64.8415 208.875 64.7463 209.075 64.59 209.221C64.4336 209.366 64.2277 209.447 64.0141 209.446C63.9024 209.446 63.792 209.423 63.6892 209.38C63.5864 209.336 63.4931 209.273 63.4149 209.193C63.3366 209.114 63.2748 209.019 63.2331 208.916C63.1915 208.812 63.1707 208.701 63.1719 208.59L63.8157 150.413L69.2123 150.582Z" fill="#263238" stroke="#263238" stroke-linecap="round" stroke-linejoin="round"/>
<path d="M175.736 141.27H62.1748V150.418H175.736V141.27Z" fill="#919191" stroke="#263238" stroke-linecap="round" stroke-linejoin="round"/>
<path d="M175.736 141.27H143.191V150.418H175.736V141.27Z" fill="white" stroke="#263238" stroke-linecap="round" stroke-linejoin="round"/>
<path d="M175.736 142.722H62.1748V145.244H175.736V142.722Z" fill="#263238" stroke="#263238" stroke-linecap="round" stroke-linejoin="round"/>
<path d="M177.372 139.958H60.5391V143.017H177.372V139.958Z" fill="#919191" stroke="#263238" stroke-linecap="round" stroke-linejoin="round"/>
<path d="M177.367 139.958H145.282V143.017H177.367V139.958Z" fill="white" stroke="#263238" stroke-linecap="round" stroke-linejoin="round"/>
<path d="M142.92 83.248H127.151C126.33 83.248 125.542 83.5744 124.961 84.1553C124.38 84.7362 124.054 85.5241 124.054 86.3456V92.1536C124.053 92.5606 124.133 92.9637 124.288 93.3398C124.444 93.7159 124.672 94.0576 124.96 94.3454C125.247 94.6332 125.589 94.8613 125.965 95.0167C126.341 95.1722 126.744 95.2519 127.151 95.2512H135.408L132.316 103.891L138.24 95.2512H142.92C143.327 95.2519 143.73 95.1722 144.106 95.0167C144.482 94.8613 144.824 94.6332 145.112 94.3454C145.4 94.0576 145.628 93.7159 145.783 93.3398C145.939 92.9637 146.018 92.5606 146.018 92.1536V86.3456C146.018 85.5241 145.691 84.7362 145.11 84.1553C144.529 83.5744 143.742 83.248 142.92 83.248Z" fill="white" stroke="#263238" stroke-linecap="round" stroke-linejoin="round"/>
<path d="M130.81 90.5709C131.433 90.5709 131.938 90.066 131.938 89.4431C131.938 88.8203 131.433 88.3154 130.81 88.3154C130.188 88.3154 129.683 88.8203 129.683 89.4431C129.683 90.066 130.188 90.5709 130.81 90.5709Z" fill="#263238"/>
<path d="M135.036 90.5709C135.659 90.5709 136.164 90.066 136.164 89.4431C136.164 88.8203 135.659 88.3154 135.036 88.3154C134.413 88.3154 133.908 88.8203 133.908 89.4431C133.908 90.066 134.413 90.5709 135.036 90.5709Z" fill="#263238"/>
<path d="M140.384 89.4431C140.384 89.2199 140.318 89.0017 140.194 88.8161C140.07 88.6306 139.893 88.486 139.687 88.4008C139.481 88.3156 139.254 88.2935 139.035 88.3375C138.816 88.3814 138.615 88.4892 138.457 88.6474C138.3 88.8056 138.193 89.007 138.15 89.2261C138.107 89.4452 138.13 89.6721 138.216 89.8781C138.302 90.084 138.448 90.2598 138.634 90.3831C138.82 90.5065 139.038 90.5718 139.261 90.5709C139.409 90.5709 139.556 90.5416 139.692 90.4849C139.829 90.4282 139.953 90.345 140.057 90.2403C140.162 90.1355 140.244 90.0111 140.3 89.8743C140.356 89.7375 140.385 89.591 140.384 89.4431Z" fill="#263238"/>
<path d="M217.8 209.572H230.868" stroke="#263238" stroke-linecap="round" stroke-linejoin="round"/>
<path d="M11.6157 209.572H211.024" stroke="#263238" stroke-linecap="round" stroke-linejoin="round"/>
<path d="M88.3976 124.04C86.9795 121.62 82.8074 112.303 82.8074 112.303C82.9332 111.307 83.1371 110.323 83.4172 109.36C83.7609 108.392 84.6272 105.459 84.453 104.849C84.2788 104.239 81.7668 103.116 81.5103 103.029C81.2538 102.942 81.8539 101.471 80.9004 101.122C79.9469 100.774 79.6033 101.296 79.6033 101.296L79.2403 103.716L78.1271 105.459C77.6636 105.107 77.1786 104.783 76.6751 104.491C75.8959 104.055 74.076 103.881 73.9889 104.578C73.9018 105.275 75.4409 105.875 75.9781 106.311C76.5154 106.746 77.193 108.823 77.8028 109.433C78.357 110.037 78.8773 110.672 79.3613 111.335L79.7098 112.462C79.7098 112.462 80.8956 123.88 81.0359 126.721C81.1763 129.562 81.6022 137.079 82.4541 138.211C83.3059 139.344 83.4511 140.06 85.8421 139.208C88.233 138.356 88.6783 137.219 89.2301 134.663C89.7818 132.108 89.8157 126.45 88.3976 124.04Z" fill="white" stroke="#263238" stroke-linecap="round" stroke-linejoin="round"/>
<path d="M89.2495 134.678C89.8158 132.127 89.8158 126.45 88.3977 124.03C88.2428 123.764 88.0541 123.42 87.8411 123.013C84.6322 122.079 81.583 123.604 81.583 123.604L80.8086 123.943C80.9102 125.128 80.9877 126.121 81.0167 126.726C81.1619 129.562 81.583 137.083 82.4348 138.216C83.2867 139.348 83.4319 140.065 85.8228 139.213C88.2138 138.361 88.6784 137.233 89.2495 134.678Z" fill="#CBCBCB" stroke="#263238" stroke-linecap="round" stroke-linejoin="round"/>
<path d="M78.0498 85.668C78.3993 86.9518 78.5943 88.2728 78.6306 89.6029C78.6306 91.4953 78.0498 92.6618 78.9258 93.2426C79.8019 93.8234 80.5279 93.8282 80.3778 94.9946C80.3204 95.6385 80.0651 96.2489 79.647 96.7419C79.647 96.7419 79.3566 102.714 79.0662 103.3C78.7758 103.886 74.9861 103.155 74.11 103.005C73.234 102.855 70.7607 104.026 69.1539 100.822C67.547 97.6179 68.8635 92.807 71.7771 90.3289C73.7813 88.6618 75.8753 87.1058 78.0498 85.668Z" fill="white" stroke="#263238" stroke-linecap="round" stroke-linejoin="round"/>
<path d="M78.631 89.5787C78.631 89.5787 77.842 88.9883 77.4258 90.024" stroke="#263238" stroke-linecap="round" stroke-linejoin="round"/>
<path d="M77.9238 91.989C77.8105 92.5759 77.8471 93.1818 78.0302 93.7508" stroke="#263238" stroke-linecap="round" stroke-linejoin="round"/>
<path d="M79.3757 98.8327C79.2464 98.8742 79.1097 98.888 78.9747 98.8733C78.8397 98.8585 78.7092 98.8155 78.5919 98.747C78.4746 98.6785 78.373 98.5861 78.2937 98.4758C78.2145 98.3655 78.1593 98.2397 78.1318 98.1067" stroke="#263238" stroke-linecap="round" stroke-linejoin="round"/>
<path d="M81.0263 126.227C81.0263 126.227 80.5423 128.444 80.1115 129.615C79.6807 130.786 71.9561 132.935 68.5923 133.381C66.3764 133.657 64.1462 133.804 61.9131 133.821L62.126 139.948C62.126 139.948 68.6407 140.079 69.1005 139.948C69.5603 139.818 80.5277 134.915 80.5277 134.915L85.2613 134.295C85.2613 134.295 87.2505 133.811 87.3279 132.267C87.4054 130.723 85.6484 126.334 84.8498 125.651C84.0512 124.969 82.3669 123.159 81.3554 124.272C80.3438 125.385 81.0263 126.227 81.0263 126.227Z" fill="white" stroke="#263238" stroke-linecap="round" stroke-linejoin="round"/>
<path d="M66.5021 137.228C66.5021 134.581 67.1797 134.513 67.9541 133.463C65.953 133.686 63.9417 133.806 61.9283 133.821L61.7686 139.445C61.7686 139.445 65.3356 139.774 67.5088 139.929C67.3297 140.205 66.5021 138.932 66.5021 137.228Z" fill="#CBCBCB" stroke="#263238" stroke-linecap="round" stroke-linejoin="round"/>
<path d="M87.5359 149.135C84.9587 146.239 81.6828 144.051 78.0204 142.78L69.5214 146.405C68.8614 144.785 67.9855 143.261 66.9175 141.875L65.3299 139.939L66.3512 134.387C66.3512 134.387 72.4689 130.196 73.2579 128.381L73.2869 128.323C74.5163 130.225 79.8499 138.458 80.8518 139.256C81.9844 140.166 85.3821 140.278 86.8534 138.918C88.3248 137.558 89.0072 136.652 88.6684 134.615C88.6684 134.615 86.4033 129.741 85.1546 127.587C83.9059 125.433 81.1906 117.733 79.8306 115.352C78.8626 113.648 78.4609 112.448 77.7736 111.644C77.2964 110.822 76.7335 110.053 76.0941 109.35C74.7341 107.898 70.9927 107.535 70.199 107.196C69.4052 106.857 69.2939 106.741 64.7637 105.386C60.2334 104.031 55.1321 103.232 51.5069 106.064C51.5069 106.064 46.6379 111.843 44.7309 121.358C42.8239 130.873 42.6884 140.505 42.4658 142.204C42.2431 143.903 40.312 152.174 39.7457 156.932C39.1794 161.69 44.1453 166.467 47.2041 167.948C50.263 169.429 63.4036 169.647 71.1089 167.948C78.8142 166.249 91.0497 158.544 91.0497 158.544C91.0497 158.544 91.4998 153.781 87.5359 149.135Z" fill="#CBCBCB" stroke="#263238" stroke-linecap="round" stroke-linejoin="round"/>
<path d="M67.5038 128.202L65.9502 128.149" stroke="#263238" stroke-linecap="round" stroke-linejoin="round"/>
<path d="M66.918 125.729C69.0943 126.462 71.2136 127.355 73.2584 128.4L69.2702 128.265" stroke="#263238" stroke-linecap="round" stroke-linejoin="round"/>
<path d="M87.967 128.589C88.414 129.291 88.6893 130.089 88.7704 130.917C88.7704 131.987 88.9495 133.419 88.5042 132.974C88.0589 132.529 87.875 131.004 87.875 131.004L87.967 128.589Z" fill="white" stroke="#263238" stroke-linecap="round" stroke-linejoin="round"/>
<path d="M85.2852 127.34C85.2852 127.34 86.9598 126.43 87.7052 127.524C88.4505 128.618 88.2521 130.801 87.7052 131.88C87.1582 132.96 86.5339 131.929 86.6113 130.97C86.6888 130.012 85.2852 127.34 85.2852 127.34Z" fill="white" stroke="#263238" stroke-linecap="round" stroke-linejoin="round"/>
<path d="M84.6562 126.179C84.6562 126.179 86.3357 125.269 87.0762 126.363C87.8168 127.456 87.6183 129.634 87.0762 130.719C86.5342 131.803 85.905 130.767 85.9824 129.809C86.0598 128.85 84.6562 126.179 84.6562 126.179Z" fill="white" stroke="#263238" stroke-linecap="round" stroke-linejoin="round"/>
<path d="M83.8867 124.925C83.8867 124.925 85.5662 124.015 86.3067 125.109C87.0472 126.203 86.8536 128.386 86.3067 129.465C85.7598 130.545 85.1354 129.514 85.2129 128.555C85.2903 127.597 83.8867 124.925 83.8867 124.925Z" fill="white" stroke="#263238" stroke-linecap="round" stroke-linejoin="round"/>
<path d="M79.6377 81.1232C79.6656 82.8627 79.217 84.5766 78.3406 86.0794C75.8625 89.8691 73.5345 89.4287 72.5326 92.4924C71.5307 95.5561 70.0351 98.736 71.6323 100.507C73.2295 102.279 74.5363 101.233 74.5363 101.233C74.5363 101.233 75.5576 103.857 72.9343 106.48C70.311 109.103 65.7953 108.082 64.6288 107.646C63.8943 107.363 63.2072 106.97 62.5912 106.48C62.5912 106.48 61.8604 108.522 58.2352 108.522C54.6101 108.522 50.4912 106.044 50.4912 101.524C50.4912 97.0033 52.9645 93.9492 53.5501 92.1972C54.1357 90.4451 52.5289 85.0582 55.0021 81.7089C57.4753 78.3596 61.2941 75.9009 64.1981 75.9009C67.1021 75.9009 72.7697 77.4932 72.7939 77.5029C73.1763 77.711 75.6253 76.714 76.2884 76.7576C78.7229 76.8931 79.6086 78.892 79.6377 81.1232Z" fill="#263238" stroke="#263238" stroke-linecap="round" stroke-linejoin="round"/>
<path d="M70.1797 101.853C70.7081 101.923 71.2436 101.923 71.772 101.853" stroke="#919191" stroke-linecap="round" stroke-linejoin="round"/>
<path d="M77.5365 83.6643C77.3067 84.9617 76.8284 86.2025 76.128 87.3185C73.8629 90.8759 71.2881 92.1585 68.205 95.5465C66.2254 97.739 66.5981 99.9267 68.205 101.074" stroke="#919191" stroke-linecap="round" stroke-linejoin="round"/>
<path d="M77.5801 79.8843C77.6744 80.4179 77.7214 80.9589 77.7205 81.5008" stroke="#919191" stroke-linecap="round" stroke-linejoin="round"/>
<path d="M74.5361 83.2771C74.5361 83.2771 74.0521 88.2865 71.9515 91.1953C69.851 94.1042 65.6595 95.5513 65.8096 98.6296" stroke="#919191" stroke-linecap="round" stroke-linejoin="round"/>
<path d="M94.0407 167.13C94.0407 167.13 97.0609 182.647 99.6455 190.188C102.23 197.728 104.815 204.625 105.453 205.274C106.092 205.923 107.825 208.289 107.825 208.289C107.024 208.929 106.046 209.306 105.023 209.369C103.513 209.369 101.577 207.433 99.8487 206.348C98.1209 205.264 97.9127 204.625 94.4618 203.333C91.0109 202.041 93.8181 198.595 94.6796 196.867C95.1778 195.934 95.4715 194.906 95.5411 193.852C94.1713 188.998 91.7432 184.509 88.4312 180.706C83.0539 174.676 81.9746 160.688 81.9746 160.688L92.3177 156.816L94.0407 167.13Z" fill="white" stroke="#263238" stroke-linecap="round" stroke-linejoin="round"/>
<path d="M105.028 204.5L104.403 204.625C104.403 204.625 100.74 199.669 97.942 197.946C96.9884 197.288 95.8669 196.915 94.7089 196.872C93.8425 198.595 91.045 202.041 94.4911 203.333C97.9372 204.625 98.155 205.269 99.878 206.349C101.601 207.428 103.542 209.369 105.052 209.369C106.075 209.306 107.054 208.929 107.854 208.289C107.854 208.289 106.126 205.918 105.483 205.274C105.299 205.036 105.147 204.776 105.028 204.5Z" fill="#CBCBCB" stroke="#263238" stroke-linecap="round" stroke-linejoin="round"/>
<path d="M103.29 208.754C101.586 207.578 100.047 204.964 97.274 203.333C94.7523 201.852 93.4552 201.794 92.918 201.905C93.0496 202.251 93.2612 202.561 93.5354 202.809C93.8097 203.057 94.1388 203.237 94.4958 203.333C97.9467 204.625 98.1597 205.269 99.8827 206.349C100.972 207.045 102.172 208.12 103.29 208.754Z" fill="#CBCBCB" stroke="#263238" stroke-linecap="round" stroke-linejoin="round"/>
<path d="M105.028 209.369C104.918 209.365 104.808 209.353 104.699 209.335C104.808 209.356 104.918 209.367 105.028 209.369Z" fill="#CBCBCB" stroke="#263238" stroke-linecap="round" stroke-linejoin="round"/>
<path d="M74.8356 143.748C74.8356 143.748 85.1932 140.079 86.1612 142.499C87.1292 144.919 91.5626 153.946 89.9461 157.653C88.3295 161.361 76.9652 147.005 75.3486 146.695C73.7321 146.386 74.6468 144.832 74.8356 143.748Z" fill="white" stroke="#263238" stroke-linecap="round" stroke-linejoin="round"/>
<path d="M84.9859 148.477C84.9859 148.477 96.7616 147.509 99.0219 149.609C101.282 151.71 93.5382 176.873 89.3419 184.777C82.7644 197.138 84.7536 200.376 84.7536 200.376C84.7536 200.376 85.2376 202.312 88.4659 205.38C91.6942 208.449 92.6622 208.928 91.5296 209.412C90.397 209.896 85.5619 209.412 85.0779 209.088C84.5939 208.764 81.0462 205.864 77.8179 204.896C74.5896 203.928 75.0736 203.28 76.5256 200.376C77.9776 197.472 77.8179 199.892 79.4296 194.892C81.3616 188.731 82.8879 182.45 83.9986 176.089C84.8552 170.905 86.162 165.213 85.7942 159.943L84.9859 148.477Z" fill="white" stroke="#263238" stroke-linecap="round" stroke-linejoin="round"/>
<path d="M93.6105 156.356C92.3774 153.381 90.2561 150.859 87.5363 149.135C82.3866 145.849 78.0209 142.78 78.0209 142.78L69.5219 146.405C69.5219 146.405 71.5934 149.919 60.9454 151.695C52.7464 153.06 45.2202 151.081 41.1595 148.695C40.5932 151.507 40.0027 154.633 39.7075 156.923C39.1412 161.68 44.1264 166.438 47.1853 167.914C50.2441 169.39 74.8894 172.444 81.5251 168.18C93.6105 160.451 93.6105 156.356 93.6105 156.356Z" fill="#263238" stroke="#263238" stroke-linecap="round" stroke-linejoin="round"/>
<path d="M68.5585 149.072C67.4211 150.006 65.2044 151.008 60.9452 151.7C52.7462 153.065 45.22 151.085 41.1592 148.699C41.014 149.42 40.8688 150.151 40.7236 150.901C43.5066 152.576 49.3534 155.412 55.9454 154.604C63.8104 153.641 67.3049 151.492 68.5585 149.072Z" fill="#CBCBCB" stroke="#263238" stroke-linecap="round" stroke-linejoin="round"/>
<path d="M62.2768 159.439C61.8993 159.923 61.5072 160.407 61.1104 160.891" stroke="white" stroke-linecap="round" stroke-linejoin="round"/>
<path d="M68.205 150.253C66.7155 152.992 65.0537 155.633 63.2295 158.161" stroke="white" stroke-linecap="round" stroke-linejoin="round"/>
<path d="M64.6581 153.317C64.6581 153.317 61.7541 157.189 58.6904 159.449" stroke="white" stroke-linecap="round" stroke-linejoin="round"/>
<path d="M88.4659 205.371C85.2376 202.312 84.7536 200.376 84.7536 200.376C84.6455 200.276 84.5597 200.154 84.5019 200.018C84.2841 200.245 83.6259 200.676 82.0142 200.057C80.6154 199.519 79.2892 198.605 77.8905 197.99C77.5565 198.585 77.2322 198.958 76.5256 200.376C75.0736 203.28 74.5896 203.929 77.8179 204.897C81.0462 205.865 84.5939 208.769 85.0779 209.088C85.5619 209.408 90.4019 209.896 91.5296 209.412C92.6573 208.928 91.6942 208.435 88.4659 205.371Z" fill="#CBCBCB" stroke="#263238" stroke-linecap="round" stroke-linejoin="round"/>
<path d="M91.4375 157.997L96.9261 154.609" stroke="#263238" stroke-linecap="round" stroke-linejoin="round"/>
<path d="M25.8701 127.321C25.8701 127.321 43.3522 125.133 54.5229 128.289L56.2218 170.789H30.0083C30.0083 170.789 31.6975 147.959 25.8701 127.321Z" fill="#919191" stroke="#263238" stroke-linecap="round" stroke-linejoin="round"/>
<path d="M54.5229 128.289C43.3522 125.133 25.8701 127.321 25.8701 127.321C27.7409 134.2 28.9834 141.233 29.5824 148.336C39.3441 153.211 48.2848 159.579 56.0814 167.212L54.5229 128.289Z" fill="#757575" stroke="#263238" stroke-linecap="round" stroke-linejoin="round"/>
<path d="M87.4873 210.54C87.2895 210.541 87.0963 210.481 86.9336 210.368C86.7709 210.256 86.6466 210.096 86.5774 209.911C82.7054 199.476 81.7374 172.386 81.6793 171.239C81.6703 170.983 81.7637 170.733 81.9389 170.545C82.1141 170.357 82.3567 170.246 82.6134 170.237C82.8702 170.228 83.1199 170.322 83.3078 170.497C83.4957 170.672 83.6063 170.915 83.6153 171.172C83.6153 171.452 84.622 199.093 88.3924 209.233C88.4816 209.474 88.4715 209.74 88.3644 209.973C88.2573 210.207 88.0619 210.388 87.8213 210.477C87.715 210.519 87.6016 210.541 87.4873 210.54Z" fill="white" stroke="#263238" stroke-linecap="round" stroke-linejoin="round"/>
<path d="M66.4102 210.54C66.2132 210.54 66.021 210.479 65.8593 210.367C65.6976 210.254 65.574 210.095 65.5051 209.911C61.6331 199.476 60.6651 172.386 60.6022 171.239C60.5932 170.983 60.6865 170.733 60.8617 170.545C61.0369 170.357 61.2795 170.246 61.5363 170.237C61.793 170.228 62.0428 170.322 62.2307 170.497C62.4186 170.672 62.5292 170.915 62.5382 171.172C62.5382 171.452 63.5449 199.093 67.3201 209.233C67.4093 209.474 67.3992 209.74 67.2921 209.973C67.185 210.207 66.9896 210.388 66.749 210.477C66.641 210.519 66.5261 210.541 66.4102 210.54Z" fill="white" stroke="#263238" stroke-linecap="round" stroke-linejoin="round"/>
<path d="M87.2261 170.77H29.5479V168.834H85.2998C85.8133 168.834 86.3057 169.038 86.6688 169.401C87.0318 169.764 87.2358 170.256 87.2358 170.77H87.2261Z" fill="#919191" stroke="#263238" stroke-linecap="round" stroke-linejoin="round"/>
<path d="M87.2213 170.3H29.5479V172.222H87.2213V170.3Z" fill="white" stroke="#263238" stroke-linecap="round" stroke-linejoin="round"/>
<path d="M54.0921 210.54C53.9464 210.543 53.8019 210.513 53.6694 210.453C53.5368 210.392 53.4197 210.303 53.3266 210.19C53.2336 210.078 53.167 209.947 53.132 209.805C53.0969 209.664 53.0942 209.516 53.1241 209.374C58.5982 183.441 53.6081 128.909 53.5404 128.362C53.5286 128.235 53.542 128.106 53.5798 127.984C53.6176 127.863 53.679 127.749 53.7606 127.651C53.8421 127.553 53.9423 127.472 54.0552 127.412C54.1681 127.353 54.2917 127.316 54.4188 127.304C54.6755 127.28 54.9312 127.36 55.1295 127.524C55.3278 127.689 55.4526 127.926 55.4764 128.183C55.5296 128.734 60.5583 183.552 55.0262 209.771C54.9812 209.986 54.8641 210.179 54.6943 210.319C54.5245 210.459 54.3121 210.537 54.0921 210.54Z" fill="white" stroke="#263238" stroke-linecap="round" stroke-linejoin="round"/>
<path d="M24.0838 209.833C23.9936 209.834 23.9038 209.821 23.8176 209.795C23.5716 209.725 23.3632 209.56 23.238 209.337C23.1129 209.114 23.0811 208.851 23.1497 208.604C35.7337 163.931 25.0518 127.96 24.9453 127.602C24.8843 127.361 24.9183 127.106 25.0402 126.889C25.1621 126.673 25.3626 126.511 25.6002 126.439C25.8378 126.366 26.0943 126.387 26.3166 126.498C26.5388 126.61 26.7098 126.802 26.7942 127.036C26.9055 127.399 37.7713 163.882 25.0131 209.127C24.9562 209.33 24.8347 209.508 24.667 209.636C24.4993 209.764 24.2945 209.833 24.0838 209.833Z" fill="white" stroke="#263238" stroke-linecap="round" stroke-linejoin="round"/>
<path d="M201.044 130.027C201.044 130.027 195.096 126.721 194.655 134.213C194.215 141.706 193.116 190.401 193.116 190.401" stroke="#263238" stroke-width="2" stroke-linecap="round" stroke-linejoin="round"/>
<path d="M191.567 134.871C191.567 134.871 196.407 145.669 194.215 189.742" stroke="#263238" stroke-width="2" stroke-linecap="round" stroke-linejoin="round"/>
<path d="M196.335 131.537C196.335 131.537 194.055 132.989 192.763 131.324C191.471 129.659 193.639 126.6 191.727 125.293C189.815 123.986 186.51 125.98 186.51 125.98C186.51 125.98 189.051 126.726 188.968 128.115C188.886 129.504 187.662 130.027 187.516 129.422C187.371 128.817 186.137 125.758 184.075 127.031C183.479 127.382 182.961 127.85 182.552 128.408C182.142 128.965 181.85 129.6 181.694 130.273C181.694 130.273 186.5 129.76 186.79 131.566C187.081 133.371 184.82 131.251 182.836 131.135C180.852 131.019 179.041 131.309 179.172 132.51C179.216 133.572 179.153 134.635 178.983 135.685C180.07 134.782 181.443 134.298 182.855 134.32C185.038 134.45 184.956 135.839 182.972 135.723C180.987 135.607 179.283 137.495 179.283 137.495C179.283 137.495 181.094 140.588 183.393 142.117C185.692 143.646 186.519 143.085 186.781 141.919C187.042 140.752 186.432 137.717 187.821 137.8C189.21 137.882 185.522 143.037 187.294 143.341C189.065 143.646 190.493 143.133 190.958 141.967L191.442 140.8C191.442 140.8 190.822 137.775 191.093 136.599C191.364 135.423 191.688 136.633 192.003 138.051C192.318 139.469 192.516 142.857 193.121 142.693C193.726 142.528 195.667 140.06 196.122 139.087C196.577 138.114 193.566 135.157 193.6 134.562C193.634 133.966 195.957 135.099 196.32 135.718C196.584 136.189 196.821 136.674 197.032 137.17C197.032 137.17 198.484 136.261 198.445 133.473C198.406 130.685 196.335 131.537 196.335 131.537Z" fill="#CBCBCB"/>
<path opacity="0.3" d="M196.335 131.537C196.335 131.537 194.055 132.989 192.763 131.324C191.471 129.659 193.639 126.6 191.727 125.293C189.815 123.986 186.51 125.98 186.51 125.98C186.51 125.98 189.051 126.726 188.968 128.115C188.886 129.504 187.662 130.027 187.516 129.422C187.371 128.817 186.137 125.758 184.075 127.031C183.479 127.382 182.961 127.85 182.552 128.408C182.142 128.965 181.85 129.6 181.694 130.273C181.694 130.273 186.5 129.76 186.79 131.566C187.081 133.371 184.82 131.251 182.836 131.135C180.852 131.019 179.041 131.309 179.172 132.51C179.216 133.572 179.153 134.635 178.983 135.685C180.07 134.782 181.443 134.298 182.855 134.32C185.038 134.45 184.956 135.839 182.972 135.723C180.987 135.607 179.283 137.495 179.283 137.495C179.283 137.495 181.094 140.588 183.393 142.117C185.692 143.646 186.519 143.085 186.781 141.919C187.042 140.752 186.432 137.717 187.821 137.8C189.21 137.882 185.522 143.037 187.294 143.341C189.065 143.646 190.493 143.133 190.958 141.967L191.442 140.8C191.442 140.8 190.822 137.775 191.093 136.599C191.364 135.423 191.688 136.633 192.003 138.051C192.318 139.469 192.516 142.857 193.121 142.693C193.726 142.528 195.667 140.06 196.122 139.087C196.577 138.114 193.566 135.157 193.6 134.562C193.634 133.966 195.957 135.099 196.32 135.718C196.584 136.189 196.821 136.674 197.032 137.17C197.032 137.17 198.484 136.261 198.445 133.473C198.406 130.685 196.335 131.537 196.335 131.537Z" fill="#263238"/>
<path d="M184.796 138.075C186.282 136.241 188.465 133.758 190.299 132.572" stroke="#263238" stroke-linecap="round" stroke-linejoin="round"/>
<path d="M183.078 140.307C183.078 140.307 183.456 139.779 184.075 138.985" stroke="#263238" stroke-linecap="round" stroke-linejoin="round"/>
<path d="M191.268 133.028C191.268 133.028 193.475 136.145 193.881 139.353" stroke="#263238" stroke-linecap="round" stroke-linejoin="round"/>
<path d="M188.761 134.871C188.761 134.871 189.38 134.508 189.148 138.477" stroke="#263238" stroke-linecap="round" stroke-linejoin="round"/>
<path d="M190.382 131.164C190.382 131.164 191.645 130.046 190.977 127.815" stroke="#263238" stroke-linecap="round" stroke-linejoin="round"/>
<path d="M188.678 133.076L187.777 131.43" stroke="#263238" stroke-linecap="round" stroke-linejoin="round"/>
<path d="M186.785 134.755C186.785 134.755 183.93 132.597 182.144 132.49" stroke="#263238" stroke-linecap="round" stroke-linejoin="round"/>
<path d="M204.447 125.656C204.447 125.656 204.355 128.928 201.799 129.088C199.244 129.247 197.666 124.988 195.052 126.014C192.439 127.04 192.187 131.706 192.187 131.706C192.187 131.706 194.665 129.668 196.001 130.695C197.337 131.721 197.027 133.308 196.306 133.056C195.585 132.805 191.703 131.938 191.568 134.871C191.513 135.708 191.629 136.546 191.908 137.336C192.187 138.127 192.622 138.852 193.189 139.469C193.189 139.469 195.953 134.305 197.966 135.244C199.98 136.183 196.306 137.006 194.835 138.913C193.363 140.82 192.415 142.828 193.717 143.521C194.81 144.197 195.832 144.984 196.766 145.868C196.766 145.868 196.417 143.167 198.034 141.071C199.65 138.976 200.981 140.002 199.515 141.909C198.048 143.816 198.774 146.812 198.774 146.812C198.774 146.812 203.101 147.107 206.199 145.844C209.297 144.58 209.316 143.38 208.319 142.311C207.322 141.241 203.876 139.799 204.902 138.439C205.928 137.078 208.58 144.309 210.095 142.741C211.61 141.173 212.065 139.397 211.213 138.134L210.361 136.875C210.361 136.875 206.915 135.423 205.918 134.358C204.921 133.294 206.359 133.787 207.99 134.436C209.621 135.084 213.149 137.199 213.401 136.478C213.653 135.757 212.496 132.122 211.838 131.019C211.179 129.915 206.155 130.898 205.584 130.457C205.013 130.017 207.728 128.463 208.595 128.521C209.244 128.575 209.891 128.664 210.531 128.788C210.531 128.788 210.608 126.716 207.791 124.853C204.974 122.989 204.447 125.656 204.447 125.656Z" fill="#CBCBCB"/>
<path opacity="0.2" d="M204.447 125.656C204.447 125.656 204.355 128.928 201.799 129.088C199.244 129.247 197.666 124.988 195.052 126.014C192.439 127.04 192.187 131.706 192.187 131.706C192.187 131.706 194.665 129.668 196.001 130.695C197.337 131.721 197.027 133.308 196.306 133.056C195.585 132.805 191.703 131.938 191.568 134.871C191.513 135.708 191.629 136.546 191.908 137.336C192.187 138.127 192.622 138.852 193.189 139.469C193.189 139.469 195.953 134.305 197.966 135.244C199.98 136.183 196.306 137.006 194.835 138.913C193.363 140.82 192.415 142.828 193.717 143.521C194.81 144.197 195.832 144.984 196.766 145.868C196.766 145.868 196.417 143.167 198.034 141.071C199.65 138.976 200.981 140.002 199.515 141.909C198.048 143.816 198.774 146.812 198.774 146.812C198.774 146.812 203.101 147.107 206.199 145.844C209.297 144.58 209.316 143.38 208.319 142.311C207.322 141.241 203.876 139.799 204.902 138.439C205.928 137.078 208.58 144.309 210.095 142.741C211.61 141.173 212.065 139.397 211.213 138.134L210.361 136.875C210.361 136.875 206.915 135.423 205.918 134.358C204.921 133.294 206.359 133.787 207.99 134.436C209.621 135.084 213.149 137.199 213.401 136.478C213.653 135.757 212.496 132.122 211.838 131.019C211.179 129.915 206.155 130.898 205.584 130.457C205.013 130.017 207.728 128.463 208.595 128.521C209.244 128.575 209.891 128.664 210.531 128.788C210.531 128.788 210.608 126.716 207.791 124.853C204.974 122.989 204.447 125.656 204.447 125.656Z" fill="#263238"/>
<path d="M203.13 141.662C202.312 138.908 201.306 135.036 201.373 132.403" stroke="#263238" stroke-linecap="round" stroke-linejoin="round"/>
<path d="M204.191 144.91C204.191 144.91 203.92 144.164 203.547 143.008" stroke="#263238" stroke-linecap="round" stroke-linejoin="round"/>
<path d="M202.486 131.745C202.486 131.745 207.109 131.658 210.598 133.439" stroke="#263238" stroke-linecap="round" stroke-linejoin="round"/>
<path d="M202.632 135.52C202.632 135.52 202.69 134.654 206.504 137.592" stroke="#263238" stroke-linecap="round" stroke-linejoin="round"/>
<path d="M200.037 131.372C200.037 131.372 199.776 129.349 197.09 128.497" stroke="#263238" stroke-linecap="round" stroke-linejoin="round"/>
<path d="M200.768 134.368L198.508 134.146" stroke="#263238" stroke-linecap="round" stroke-linejoin="round"/>
<path d="M201.16 137.407C201.16 137.407 197.051 138.797 195.729 140.515" stroke="#263238" stroke-linecap="round" stroke-linejoin="round"/>
<path d="M177.028 147.436C177.028 147.436 190.029 156.027 189.811 189.302" stroke="#263238" stroke-width="2" stroke-linecap="round" stroke-linejoin="round"/>
<path d="M193.058 145.166C193.058 145.166 192.642 148.932 189.67 148.874C186.698 148.815 185.314 143.753 182.178 144.692C179.041 145.631 178.33 150.984 178.33 150.984C178.33 150.984 181.389 148.864 182.831 150.18C184.273 151.497 183.765 153.292 182.957 152.934C182.148 152.576 177.749 151.206 177.318 154.58C177.178 155.54 177.235 156.519 177.484 157.456C177.734 158.394 178.171 159.271 178.77 160.035C178.77 160.035 182.449 154.338 184.68 155.616C186.911 156.893 182.599 157.489 180.721 159.551C178.843 161.612 177.57 163.839 178.993 164.758C180.192 165.644 181.299 166.649 182.294 167.759C182.294 167.759 182.144 164.613 184.205 162.343C186.267 160.073 187.714 161.375 185.837 163.452C183.959 165.528 184.52 169.037 184.52 169.037C184.52 169.037 189.491 169.787 193.184 168.626C196.877 167.464 197.007 166.08 195.957 164.754C194.907 163.427 191.069 161.433 192.38 159.991C193.692 158.549 196.068 167.116 197.966 165.446C199.863 163.776 200.55 161.777 199.689 160.238L198.827 158.699C198.827 158.699 194.989 156.71 193.939 155.379C192.888 154.048 194.5 154.764 196.32 155.664C198.14 156.564 202.017 159.338 202.37 158.534C202.723 157.731 201.736 153.433 201.083 152.082C200.429 150.732 194.539 151.405 193.919 150.843C193.3 150.282 196.586 148.748 197.578 148.907C198.317 149.031 199.049 149.192 199.771 149.391C199.771 149.391 200.052 147.01 196.978 144.59C193.905 142.17 193.058 145.166 193.058 145.166Z" fill="#CBCBCB"/>
<path opacity="0.3" d="M193.058 145.166C193.058 145.166 192.642 148.932 189.67 148.874C186.698 148.815 185.314 143.753 182.178 144.692C179.041 145.631 178.33 150.984 178.33 150.984C178.33 150.984 181.389 148.864 182.831 150.18C184.273 151.497 183.765 153.292 182.957 152.934C182.148 152.576 177.749 151.206 177.318 154.58C177.178 155.54 177.235 156.519 177.484 157.456C177.734 158.394 178.171 159.271 178.77 160.035C178.77 160.035 182.449 154.338 184.68 155.616C186.911 156.893 182.599 157.489 180.721 159.551C178.843 161.612 177.57 163.839 178.993 164.758C180.192 165.644 181.299 166.649 182.294 167.759C182.294 167.759 182.144 164.613 184.205 162.343C186.267 160.073 187.714 161.375 185.837 163.452C183.959 165.528 184.52 169.037 184.52 169.037C184.52 169.037 189.491 169.787 193.184 168.626C196.877 167.464 197.007 166.08 195.957 164.754C194.907 163.427 191.069 161.433 192.38 159.991C193.692 158.549 196.068 167.116 197.966 165.446C199.863 163.776 200.55 161.777 199.689 160.238L198.827 158.699C198.827 158.699 194.989 156.71 193.939 155.379C192.888 154.048 194.5 154.764 196.32 155.664C198.14 156.564 202.017 159.338 202.37 158.534C202.723 157.731 201.736 153.433 201.083 152.082C200.429 150.732 194.539 151.405 193.919 150.843C193.3 150.282 196.586 148.748 197.578 148.907C198.317 149.031 199.049 149.192 199.771 149.391C199.771 149.391 200.052 147.01 196.978 144.59C193.905 142.17 193.058 145.166 193.058 145.166Z" fill="#263238"/>
<path d="M190.028 163.51C189.331 160.277 188.552 155.703 188.872 152.658" stroke="#263238" stroke-linecap="round" stroke-linejoin="round"/>
<path d="M190.948 167.357C190.948 167.357 190.706 166.472 190.382 165.102" stroke="#263238" stroke-linecap="round" stroke-linejoin="round"/>
<path d="M190.212 152.005C190.212 152.005 195.536 152.344 199.408 154.725" stroke="#263238" stroke-linecap="round" stroke-linejoin="round"/>
<path d="M190.033 156.332C190.033 156.332 190.183 155.34 194.307 159.091" stroke="#263238" stroke-linecap="round" stroke-linejoin="round"/>
<path d="M187.429 151.347C187.429 151.347 187.318 148.985 184.303 147.746" stroke="#263238" stroke-linecap="round" stroke-linejoin="round"/>
<path d="M187.991 154.87L185.406 154.401" stroke="#263238" stroke-linecap="round" stroke-linejoin="round"/>
<path d="M188.16 158.413C188.16 158.413 183.286 159.633 181.597 161.486" stroke="#263238" stroke-linecap="round" stroke-linejoin="round"/>
<path d="M182.096 173.654C182.096 173.654 190.469 180.043 191.35 189.52L189.588 157.784" stroke="#263238" stroke-width="2" stroke-linecap="round" stroke-linejoin="round"/>
<path d="M202.365 169.027C191.35 167.043 191.35 189.52 191.35 189.52" stroke="#263238" stroke-width="2" stroke-linecap="round" stroke-linejoin="round"/>
<path d="M192.671 189.302C192.671 189.302 186.282 142.809 204.771 142.809" stroke="#263238" stroke-width="2" stroke-linecap="round" stroke-linejoin="round"/>
<path d="M198.169 167.692C196.664 165.998 193.465 165.998 191.587 170.325C189.709 174.651 191.398 173.901 191.398 173.901C191.398 173.901 194.97 172.769 197.23 172.019C199.49 171.268 202.496 169.386 202.685 170.513C202.874 171.641 201.18 172.769 199.108 173.146C197.037 173.524 191.587 175.029 192.148 176.176C192.71 177.323 194.031 180.692 194.031 180.692C195.638 179.327 197.334 178.07 199.108 176.931C201.557 175.426 203.062 175.987 201.746 177.681C200.429 179.375 196.664 181.253 197.419 183.514C198.174 185.774 202.685 188.591 202.685 188.591C202.685 188.591 203.251 183.891 204.568 182.386C205.884 180.881 205.884 182.575 205.507 185.208C205.318 186.329 205.192 187.46 205.129 188.596L210.395 190.478C211.256 189.167 212.199 187.911 213.217 186.718L214.185 185.75C214.185 185.75 210.047 182.178 209.858 179.942C209.669 177.706 212.679 179.942 213.618 180.319C214.557 180.697 216.063 183.33 216.063 183.33C216.063 183.33 217.006 179.003 217.195 177.497L217.384 175.992C217.384 175.992 213.43 174.487 211.924 174.487C210.419 174.487 209.669 175.615 209.669 174.114C209.669 172.614 211.174 171.665 212.868 171.854C214.401 172.11 215.911 172.487 217.384 172.982C217.384 172.982 218.512 172.043 218.134 169.221C217.757 166.399 216.818 166.399 214.562 167.149C212.307 167.9 210.797 169.599 209.103 169.599C207.409 169.599 208.353 167.527 209.48 166.966C210.608 166.404 213.43 165.272 213.996 165.083C214.562 164.894 210.985 162.261 209.103 161.884C207.22 161.506 204.785 162.852 204.965 164.705C205.318 168.631 199.674 169.4 198.169 167.692Z" fill="#CBCBCB"/>
<path d="M210.278 187.061C210.336 187.626 210.375 188.192 210.394 188.76" stroke="#263238" stroke-linecap="round" stroke-linejoin="round"/>
<path d="M206.499 173.558C208.157 177.282 209.352 181.197 210.056 185.212" stroke="#263238" stroke-linecap="round" stroke-linejoin="round"/>
<path d="M205.822 172.047C204.892 170.044 204.19 168.819 204.19 168.819C205.217 168.336 206.07 167.548 206.635 166.564C207.075 165.672 207.72 164.898 208.517 164.303" stroke="#263238" stroke-linecap="round" stroke-linejoin="round"/>
<path d="M197.607 175.208C197.607 175.208 204.383 172.386 204.383 172.948" stroke="#263238" stroke-linecap="round" stroke-linejoin="round"/>
<path d="M208.12 171.641C208.12 171.641 211.131 170.136 213.764 170.136" stroke="#263238" stroke-linecap="round" stroke-linejoin="round"/>
<path d="M207.011 176.176C205.706 177.249 204.508 178.447 203.435 179.753C202.337 181.047 201.449 182.506 200.802 184.075" stroke="#263238" stroke-linecap="round" stroke-linejoin="round"/>
<path d="M209.088 176.912C209.088 176.912 213.042 175.779 215.109 177.662" stroke="#263238" stroke-linecap="round" stroke-linejoin="round"/>
<path d="M216.236 151.492C214.189 150.282 211.924 150.253 210.811 148.975C209.698 147.697 211.88 147.039 213.047 147.523C214.213 148.007 216.919 149.396 217.427 149.696C217.935 149.996 217.587 145.578 216.638 143.888C215.69 142.199 213.09 141.251 211.798 142.615C209.064 145.486 204.795 141.72 205.085 139.474C205.376 137.229 203.28 134.813 198.793 136.227C194.306 137.64 195.971 138.429 195.971 138.429C195.971 138.429 199.166 140.389 201.218 141.599C203.27 142.809 206.658 143.85 205.927 144.731C205.196 145.611 203.236 145.074 201.595 143.763C199.955 142.451 195.245 139.315 194.761 140.481C194.277 141.647 192.583 144.861 192.583 144.861C194.668 145.181 196.73 145.638 198.754 146.231C201.494 147.092 202.055 148.598 199.916 148.714C197.777 148.83 193.885 147.223 192.656 149.27C191.427 151.318 192.274 156.574 192.274 156.574C192.274 156.574 196.194 153.922 198.193 153.927C200.192 153.931 198.914 155.045 196.678 156.487C195.708 157.079 194.773 157.725 193.876 158.423L195.908 163.636C197.463 163.425 199.03 163.312 200.598 163.297L201.925 163.394C201.925 163.394 201.925 157.924 203.493 156.303C205.061 154.682 205.342 158.433 205.676 159.391C206.01 160.349 205.008 163.21 205.008 163.21C205.008 163.21 208.88 161.085 210.148 160.238L211.411 159.396C211.411 159.396 209.959 155.422 208.967 154.29C207.975 153.157 206.639 153.322 207.771 152.354C208.904 151.386 210.608 151.87 211.576 153.292C212.387 154.617 213.091 156.004 213.681 157.44C213.681 157.44 215.133 157.678 217.016 155.543C218.898 153.409 218.284 152.702 216.236 151.492ZM198.44 157.513C196.935 156.758 200.506 155.253 200.506 155.253C201.828 155.069 199.94 158.268 198.44 157.513ZM200.971 150.49C200.332 150.171 202.254 149.522 202.254 149.522C205.032 150.04 201.61 150.81 200.966 150.49H200.971Z" fill="#CBCBCB"/>
<path d="M198.392 161.346C198.004 161.758 197.598 162.159 197.187 162.547" stroke="#263238" stroke-linecap="round" stroke-linejoin="round"/>
<path d="M206.112 149.638C204.383 153.329 202.206 156.793 199.631 159.952" stroke="#263238" stroke-linecap="round" stroke-linejoin="round"/>
<path d="M206.809 148.138C207.714 146.12 208.173 144.789 208.173 144.789C209.214 145.245 210.369 145.373 211.484 145.156C212.444 144.903 213.452 144.881 214.422 145.093" stroke="#263238" stroke-linecap="round" stroke-linejoin="round"/>
<path d="M205.172 147.644C205.598 147.272 199.03 144.01 199.03 144.01" stroke="#263238" stroke-linecap="round" stroke-linejoin="round"/>
<path d="M208.633 149.619C208.633 149.619 211.745 150.906 213.473 152.896" stroke="#263238" stroke-linecap="round" stroke-linejoin="round"/>
<path d="M204.485 151.729C202.82 151.447 201.131 151.327 199.442 151.371C197.743 151.392 196.058 151.678 194.447 152.218" stroke="#263238" stroke-linecap="round" stroke-linejoin="round"/>
<path d="M205.274 153.786C205.274 153.786 208.716 156.027 208.662 158.825" stroke="#263238" stroke-linecap="round" stroke-linejoin="round"/>
<path d="M187.003 177.555C185.358 176.587 183.533 176.563 182.647 175.532C181.762 174.501 183.504 173.983 184.443 174.371C185.382 174.758 187.56 175.881 187.971 176.123C188.383 176.365 188.097 172.802 187.332 171.462C186.568 170.121 184.477 169.342 183.436 170.436C181.234 172.749 177.798 169.715 178.035 167.909C178.272 166.104 176.583 164.158 172.958 165.296C169.332 166.433 170.688 167.067 170.688 167.067C170.688 167.067 173.258 168.645 174.908 169.618C176.559 170.591 179.288 171.433 178.698 172.139C178.107 172.846 176.534 172.42 175.213 171.36C173.892 170.3 170.102 167.779 169.715 168.718C169.328 169.656 167.963 172.241 167.963 172.241C169.64 172.5 171.299 172.868 172.929 173.345C175.131 174.037 175.581 175.247 173.858 175.339C172.135 175.431 169.018 174.138 168.05 175.789C167.082 177.439 167.74 181.669 167.74 181.669C167.74 181.669 170.896 179.53 172.503 179.535C174.11 179.54 173.083 180.435 171.288 181.597C170.507 182.073 169.754 182.594 169.032 183.155L170.663 187.347C171.915 187.179 173.176 187.09 174.439 187.08L175.508 187.153C175.508 187.153 175.508 182.754 176.772 181.447C178.035 180.14 178.257 183.16 178.524 183.934C178.79 184.709 177.986 187.008 177.986 187.008C177.986 187.008 181.113 185.295 182.125 184.617L183.141 183.934C183.141 183.934 181.97 180.74 181.176 179.825C180.382 178.911 179.298 179.051 180.208 178.257C181.118 177.463 182.488 177.88 183.267 179.007C183.92 180.074 184.488 181.191 184.966 182.347C184.966 182.347 186.132 182.536 187.647 180.822C189.162 179.109 188.654 178.533 187.003 177.555ZM172.677 182.395C171.467 181.79 174.342 180.58 174.342 180.58C175.402 180.435 173.887 183.01 172.677 182.4V182.395ZM174.724 176.752C174.206 176.491 175.755 175.978 175.755 175.978C177.986 176.408 175.232 177.008 174.724 176.752Z" fill="#CBCBCB"/>
<path d="M172.648 185.488C172.333 185.817 172.009 186.141 171.68 186.456" stroke="#263238" stroke-linecap="round" stroke-linejoin="round"/>
<path d="M178.857 176.065C177.467 179.035 175.716 181.823 173.645 184.365" stroke="#263238" stroke-linecap="round" stroke-linejoin="round"/>
<path d="M179.419 174.855C180.145 173.233 180.518 172.164 180.518 172.164C181.354 172.53 182.283 172.633 183.18 172.459C183.952 172.254 184.762 172.238 185.542 172.41" stroke="#263238" stroke-linecap="round" stroke-linejoin="round"/>
<path d="M173.156 171.534C173.156 171.534 178.446 174.163 178.103 174.438" stroke="#263238" stroke-linecap="round" stroke-linejoin="round"/>
<path d="M180.886 176.05C180.886 176.05 183.388 177.086 184.758 178.688" stroke="#263238" stroke-linecap="round" stroke-linejoin="round"/>
<path d="M177.546 177.749C176.206 177.522 174.848 177.427 173.49 177.464C172.123 177.477 170.767 177.707 169.473 178.146" stroke="#263238" stroke-linecap="round" stroke-linejoin="round"/>
<path d="M178.185 179.404C178.185 179.404 180.953 181.21 180.9 183.455" stroke="#263238" stroke-linecap="round" stroke-linejoin="round"/>
<path d="M180.285 146.492C180.285 146.492 178.214 147.998 176.897 146.492C175.581 144.987 177.464 141.977 175.581 140.849C173.698 139.721 170.692 141.788 170.692 141.788C170.692 141.788 173.137 142.354 173.137 143.671C173.137 144.987 172.009 145.553 171.82 144.987C171.631 144.421 170.315 141.599 168.432 142.92C167.89 143.286 167.427 143.757 167.072 144.306C166.717 144.855 166.476 145.47 166.366 146.115C166.366 146.115 170.876 145.365 171.254 147.059C171.631 148.753 169.376 146.87 167.493 146.87C165.61 146.87 163.916 147.247 164.105 148.375C164.208 149.376 164.208 150.385 164.105 151.386C165.08 150.473 166.348 149.939 167.682 149.88C169.749 149.88 169.749 151.197 167.871 151.197C165.993 151.197 164.483 153.08 164.483 153.08C164.483 153.08 166.366 155.901 168.621 157.218C170.876 158.534 171.631 157.968 171.82 156.84C172.009 155.713 171.254 152.891 172.57 152.891C173.887 152.891 170.692 157.968 172.382 158.157C174.071 158.345 175.392 157.779 175.77 156.651L176.147 155.524C176.147 155.524 175.392 152.702 175.581 151.574C175.77 150.447 176.147 151.574 176.52 152.891C176.893 154.207 177.275 157.402 177.841 157.218C178.407 157.034 180.097 154.58 180.474 153.641C180.852 152.702 177.841 150.069 177.841 149.503C177.841 148.937 180.097 149.88 180.474 150.442C180.852 151.003 181.224 151.758 181.224 151.758C181.224 151.758 182.541 150.819 182.352 148.186C182.163 145.553 180.285 146.492 180.285 146.492Z" fill="#CBCBCB"/>
<path d="M169.744 153.317C171.046 151.502 172.977 149.033 174.642 147.809" stroke="#263238" stroke-linecap="round" stroke-linejoin="round"/>
<path d="M168.243 155.524C168.243 155.524 168.577 155.001 169.114 154.217" stroke="#263238" stroke-linecap="round" stroke-linejoin="round"/>
<path d="M175.581 148.186C175.581 148.186 177.841 151.008 178.403 154.018" stroke="#263238" stroke-linecap="round" stroke-linejoin="round"/>
<path d="M173.325 150.069C173.325 150.069 173.887 149.692 173.887 153.457" stroke="#263238" stroke-linecap="round" stroke-linejoin="round"/>
<path d="M174.642 146.492C174.642 146.492 175.769 145.364 175.019 143.293" stroke="#263238" stroke-linecap="round" stroke-linejoin="round"/>
<path d="M173.136 148.375L172.197 146.87" stroke="#263238" stroke-linecap="round" stroke-linejoin="round"/>
<path d="M171.442 150.069C171.442 150.069 168.621 148.186 166.927 148.186" stroke="#263238" stroke-linecap="round" stroke-linejoin="round"/>
<path d="M199.283 188.639H184.738V209.572H199.283V188.639Z" fill="#263238" stroke="#263238" stroke-width="2" stroke-linecap="round" stroke-linejoin="round"/>
</svg>
