<svg width="312" height="281" viewBox="0 0 312 281" fill="none" xmlns="http://www.w3.org/2000/svg">
<path d="M139.918 135.241C133.485 135.67 127.23 132.915 124.907 131.484H123.835L122.763 137.387V143.827L125.443 150.804C125.443 150.804 127.588 153.488 128.124 153.488C128.66 153.488 120.619 170.124 120.619 170.124V200.178L119.01 214.668L121.155 220.571C119.189 220.035 118.26 219.927 130.268 223.791C142.276 227.655 147.78 215.741 149.031 209.301C149.567 202.146 150.639 188.264 150.639 189.981C150.639 191.698 158.144 194.99 161.897 196.421C170.832 199.283 189.559 205.008 192.99 205.008C196.421 205.008 200.495 203.577 202.103 202.861C207.464 198.031 204.248 184.614 203.711 183.004C203.283 181.716 200.674 179.605 199.423 178.711C197.692 177.718 196.402 177.135 192.99 176.028L178.516 172.271L177.443 174.954C177.389 174.462 177.054 174.107 175.835 173.344L173.691 169.588L171.547 172.271L169.402 173.344V171.734L170.474 168.514L169.402 166.904C169.045 166.725 168.223 166.26 167.794 165.831C167.365 165.402 166.901 164.579 166.722 164.221L166.186 159.391C167.488 156.912 170.196 150.718 172.083 146.511C173.982 142.274 174.227 133.81 173.691 129.874L169.402 123.971C151.712 136.314 147.959 134.704 139.918 135.241Z" fill="#263238"/>
<path d="M127.277 154.475C127.178 154.474 127.082 154.45 126.994 154.406C126.907 154.361 126.831 154.297 126.773 154.217C125.089 151.856 122.012 144.965 121.691 141.788C121.369 138.611 123.181 131.055 123.256 130.711C123.297 130.554 123.397 130.42 123.535 130.336C123.674 130.252 123.839 130.225 123.997 130.261C124.155 130.298 124.292 130.394 124.38 130.53C124.468 130.666 124.499 130.831 124.467 130.99C124.467 131.076 122.634 138.697 122.924 141.724C123.213 144.751 126.215 151.384 127.78 153.53C127.828 153.597 127.863 153.672 127.882 153.751C127.901 153.831 127.904 153.913 127.891 153.994C127.878 154.075 127.849 154.152 127.806 154.222C127.763 154.291 127.707 154.352 127.641 154.4C127.53 154.46 127.403 154.486 127.277 154.475Z" fill="#263238"/>
<path d="M136.101 224.639L132.016 224.349C136.444 223.158 139.188 216.02 140.904 211.115C141.226 210.192 141.536 209.311 141.847 208.506C143.37 204.524 143.509 192.127 143.423 187.362C142.791 185.118 141.086 179.655 139.885 177.884C139.635 177.526 139.461 177.12 139.372 176.692C139.284 176.264 139.283 175.822 139.371 175.394C139.746 173.591 141.59 172.421 143.209 171.401C143.756 171.077 144.283 170.718 144.785 170.328C145.15 168.031 147.819 167.312 149.803 166.786C150.425 166.614 151.014 166.453 151.475 166.281C153.395 164.521 161.8 148.442 163.645 139.802C165.21 132.514 162.572 129.938 162.572 129.917L164.995 127.083C165.446 127.459 169.359 131.054 167.322 140.586C165.735 147.992 156.547 168.278 153.052 169.684C152.315 169.96 151.563 170.193 150.8 170.381C149.999 170.559 149.219 170.822 148.473 171.165C148.237 172.668 146.779 173.591 145.257 174.567C144.504 174.984 143.793 175.473 143.134 176.027C144.892 178.882 146.854 185.773 147.08 186.578L147.144 187.04C147.144 188.8 147.423 204.363 145.321 209.837C145.032 210.61 144.732 211.447 144.421 212.328C142.501 217.887 142.437 222.943 136.101 224.639Z" fill="white"/>
<path d="M205.202 187.416C202.275 185.977 194.652 184.475 190.084 183.509C188.133 183.101 186.45 182.736 185.184 182.435C183.085 181.936 180.876 182.202 178.955 183.187C178.385 183.436 177.797 183.645 177.197 183.809C174.881 184.389 173.305 182.113 172.168 180.45C172.04 180.267 171.9 180.052 171.75 179.859C170.303 180.707 168.309 181.866 166.389 181.319C165.944 181.185 165.532 180.96 165.178 180.659C164.824 180.358 164.535 179.987 164.331 179.569C163.842 178.515 163.482 177.405 163.259 176.264C162.905 174.772 162.658 173.827 161.918 173.237C159.388 171.219 159.399 170.264 159.345 170.017L161.243 166.915C162.102 168.183 163.11 169.344 164.245 170.371C165.704 171.696 166.64 173.501 166.883 175.459C167.044 176.249 167.281 177.021 167.59 177.766C168.381 177.5 169.137 177.14 169.842 176.693C170.367 176.346 170.937 176.072 171.536 175.877C173.219 175.459 174.248 176.951 175.235 178.378C175.639 179.005 176.098 179.594 176.607 180.138C176.875 180.052 177.197 179.924 177.551 179.773C180.216 178.476 183.252 178.156 186.128 178.872C187.318 179.172 188.969 179.516 190.878 179.945C195.423 180.811 199.855 182.194 204.087 184.067L205.202 187.416Z" fill="white"/>
<path d="M226.323 207.616C226.202 207.616 226.084 207.582 225.98 207.519C219.054 203.001 203.465 201.723 203.293 201.713C203.206 201.715 203.119 201.699 203.039 201.666C202.958 201.632 202.886 201.583 202.825 201.519C202.765 201.456 202.719 201.381 202.69 201.299C202.661 201.216 202.649 201.129 202.656 201.042C202.663 200.955 202.688 200.87 202.73 200.793C202.771 200.717 202.828 200.65 202.898 200.596C202.967 200.543 203.046 200.505 203.131 200.485C203.216 200.465 203.304 200.462 203.39 200.478C204.044 200.478 219.472 201.788 226.656 206.478C226.725 206.522 226.785 206.579 226.832 206.646C226.878 206.713 226.911 206.789 226.928 206.869C226.945 206.949 226.946 207.032 226.931 207.112C226.915 207.192 226.884 207.269 226.838 207.337C226.782 207.422 226.705 207.492 226.616 207.541C226.526 207.59 226.426 207.615 226.323 207.616Z" fill="#263238"/>
<path d="M220.748 195.401C220.264 195.39 219.784 195.311 219.322 195.165C217.103 194.532 205.384 188.231 204.912 187.963C204.768 187.886 204.66 187.754 204.611 187.597C204.563 187.441 204.579 187.271 204.655 187.126C204.734 186.98 204.867 186.872 205.026 186.824C205.184 186.776 205.355 186.792 205.502 186.868C209.673 189.122 217.993 193.491 219.654 193.974C220.099 194.155 220.587 194.203 221.059 194.113C221.097 193.969 221.186 193.843 221.31 193.759C221.433 193.675 221.582 193.639 221.73 193.655C221.878 193.672 222.015 193.742 222.117 193.852C222.218 193.961 222.276 194.104 222.281 194.253C222.275 194.418 222.232 194.579 222.154 194.724C222.076 194.869 221.965 194.994 221.831 195.09C221.514 195.31 221.133 195.419 220.748 195.401Z" fill="#263238"/>
<path d="M227.299 187.104C227.299 187.104 221.402 192.857 221.402 193.48C221.402 194.102 225.594 197.827 225.905 199.072C226.216 200.317 229.015 198.761 229.787 199.072C230.559 199.383 230.409 201.562 228.232 202.024C226.056 202.485 226.216 208.088 226.988 208.861C227.76 209.634 234.493 213.058 238.171 216.943C241.848 220.829 243.918 224.714 245.462 225.337C247.006 225.959 248.571 226.41 249.032 223.319C249.493 220.228 249.965 213.53 245.933 208.711C241.902 203.891 240.187 203.419 238.943 203.419C237.699 203.419 235.726 203.58 236.466 201.873C237.206 200.167 238.943 198.653 238.321 197.204C237.699 195.755 232.842 186.643 227.299 187.104Z" fill="#263238"/>
<path d="M248.828 227.612C248.375 227.635 247.925 227.533 247.526 227.317C247.127 227.101 246.795 226.78 246.566 226.388C246.529 226.316 246.508 226.237 246.502 226.156C246.496 226.075 246.506 225.994 246.532 225.917C246.558 225.84 246.599 225.769 246.653 225.708C246.707 225.647 246.772 225.597 246.845 225.562C246.99 225.49 247.158 225.478 247.312 225.528C247.466 225.578 247.595 225.687 247.67 225.83C247.724 225.916 248.142 226.614 249.45 226.292C251.241 225.841 252.667 225.326 253.031 223.201C253.534 218.562 252.586 213.882 250.319 209.805C248.941 207.725 247.289 205.84 245.408 204.203C243.725 202.625 242.406 201.38 242.309 200.049C242.309 199.566 242.309 199.083 242.256 198.578C242.346 196.652 241.979 194.732 241.184 192.975C239.779 190.174 236.445 186.535 233.282 185.194C230.376 184.002 229.057 184.528 227.921 187.34C227.857 187.493 227.735 187.613 227.582 187.676C227.43 187.738 227.258 187.737 227.106 187.673C226.954 187.609 226.834 187.487 226.771 187.334C226.709 187.181 226.71 187.01 226.774 186.857C228.221 183.401 230.258 182.564 233.796 184.035C237.335 185.505 240.851 189.401 242.374 192.417C243.27 194.328 243.697 196.426 243.617 198.535C243.617 199.022 243.639 199.494 243.682 199.952C243.735 200.789 244.968 201.949 246.384 203.279C248.351 204.994 250.075 206.969 251.509 209.151C253.943 213.484 254.948 218.476 254.382 223.415C253.846 226.26 251.862 226.99 249.879 227.483C249.537 227.577 249.183 227.62 248.828 227.612Z" fill="#263238"/>
<path d="M138.309 130.239C135.254 130.239 129.732 129.842 126.848 127.158C125.694 126.092 124.685 124.88 123.846 123.552C123.29 122.634 122.616 121.793 121.841 121.051C121.151 120.455 120.653 119.668 120.411 118.789C120.169 117.91 120.192 116.979 120.479 116.114C120.541 115.962 120.66 115.841 120.811 115.777C120.961 115.712 121.131 115.71 121.283 115.77C121.36 115.799 121.431 115.842 121.49 115.898C121.55 115.955 121.598 116.022 121.631 116.098C121.664 116.173 121.681 116.254 121.682 116.336C121.684 116.418 121.668 116.499 121.637 116.575C121.445 117.209 121.445 117.885 121.635 118.519C121.826 119.153 122.2 119.717 122.709 120.139C123.537 120.952 124.258 121.868 124.854 122.865C125.636 124.111 126.581 125.248 127.663 126.246C130.643 129.015 137.312 129.047 139.221 128.983C139.386 128.983 139.544 129.049 139.66 129.165C139.777 129.282 139.843 129.44 139.843 129.605C139.843 129.771 139.777 129.929 139.66 130.046C139.544 130.162 139.386 130.228 139.221 130.228L138.309 130.239Z" fill="#263238"/>
<path d="M142.877 135.777C137.712 135.835 132.574 135.029 127.673 133.394C121.101 130.818 121.24 128.028 121.509 127.266C121.59 126.985 121.687 126.709 121.798 126.439C122.055 125.795 122.152 125.559 121.798 124.98C120.919 123.649 121.637 120.761 121.723 120.439C121.763 120.28 121.865 120.144 122.006 120.059C122.146 119.975 122.314 119.949 122.473 119.989C122.633 120.031 122.77 120.135 122.854 120.278C122.938 120.42 122.963 120.59 122.924 120.751C122.634 121.824 122.42 123.67 122.838 124.293C123.113 124.666 123.275 125.11 123.303 125.573C123.332 126.036 123.226 126.497 122.999 126.901C122.897 127.126 122.815 127.359 122.752 127.598C122.463 128.672 123.706 130.486 128.113 132.235C133.474 134.382 147.155 136.164 155.25 132.235C168.384 125.903 169.316 123.563 169.284 122.994C169.252 122.425 169.198 121.921 169.134 121.277C168.808 119.559 168.874 117.791 169.327 116.103C170.056 114.214 170.785 112.336 170.035 109.985C169.537 107.834 169.282 105.635 169.273 103.427C169.198 101.967 169.134 100.583 168.984 99.5307C168.801 97.6352 168.205 95.8031 167.236 94.164C167.173 94.113 167.12 94.0499 167.082 93.9784C167.043 93.9068 167.019 93.8283 167.011 93.7473C167.003 93.6664 167.011 93.5846 167.035 93.5069C167.059 93.4291 167.098 93.357 167.151 93.2946C167.257 93.1683 167.408 93.0886 167.573 93.0726C167.737 93.0565 167.901 93.1054 168.03 93.2087C168.93 93.9708 169.852 96.9547 170.174 99.4019C170.346 100.475 170.41 101.924 170.485 103.416C170.487 105.518 170.725 107.614 171.193 109.663C172.072 112.432 171.193 114.611 170.485 116.532C170.093 118.059 170.042 119.653 170.335 121.201C170.399 121.824 170.464 122.425 170.496 122.983C170.56 124.378 169.113 126.976 155.753 133.405C152.172 135.123 147.487 135.777 142.877 135.777Z" fill="#263238"/>
<path d="M198.748 136.851C195.963 136.778 193.192 136.419 190.481 135.777C187.983 135.198 187.49 131.924 187.125 129.53C187.062 128.699 186.863 127.883 186.536 127.115C185.056 126.128 184.82 125.259 184.82 122.983C184.696 121.811 184.183 120.715 183.362 119.87C182.839 119.199 182.379 118.48 181.99 117.724C181.121 115.985 178.108 107.484 178.837 105.037C179.352 103.33 177.272 99.4662 173.841 98.1353C170.11 96.6756 162.658 92.0602 162.348 91.867C162.278 91.8242 162.217 91.7679 162.169 91.7015C162.121 91.6351 162.086 91.5598 162.067 91.48C162.048 91.4003 162.045 91.3175 162.059 91.2366C162.072 91.1556 162.101 91.078 162.144 91.0083C162.232 90.8693 162.371 90.7702 162.531 90.7321C162.691 90.6941 162.86 90.72 163.002 90.8044C163.077 90.8044 170.668 95.5593 174.291 96.9761C178.205 98.5002 180.724 102.955 180.028 105.391C179.502 107.173 182.011 114.987 183.094 117.198C183.475 117.884 183.916 118.534 184.413 119.141C185.399 120.2 185.999 121.561 186.117 123.005C186.117 125.151 186.321 125.463 187.286 126.107C187.972 126.568 188.155 127.738 188.358 129.327C188.691 131.473 189.098 134.157 190.76 134.543C196.507 135.863 203.004 136.207 203.69 133.867C204.269 131.903 204.023 128.79 203.797 126.042C203.59 124.336 203.547 122.615 203.669 120.901C203.937 119.001 200.452 105.788 198.308 97.8992C197.289 94.0566 196.485 91.0298 196.228 89.8277C195.477 86.2856 173.798 70.572 168.244 68.3609C163.463 66.4181 156.322 63.8636 149.46 64.0675C149.369 64.0757 149.278 64.0614 149.193 64.0258C149.109 63.9903 149.035 63.9345 148.978 63.8636C147.953 62.6612 146.811 61.5646 145.568 60.5899L145.193 60.9978C143.713 62.5971 140.25 66.3645 135.286 65.7205C132.557 65.4282 129.884 64.7413 127.352 63.6811C127.37 64.2519 127.171 64.8081 126.795 65.2375L126.698 65.3126C126.591 65.3877 124.05 66.9763 117.049 66.3859C110.294 65.7741 106.584 65.4414 100.108 58.9584C98.2964 57.1445 96.1949 54.9334 93.9541 52.5828C88.7863 47.0337 82.8894 40.8405 80.6378 39.7135C78.0646 38.4255 73.4329 37.9103 71.7603 37.76C71.578 39.7242 70.6238 45.4558 65.7776 47.4201C65.7776 48.1929 66.1207 50.4683 69.0906 54.3646L70.731 56.5112C75.738 63.1445 87.4782 78.6757 91.1986 80.2749C92.3995 80.7902 94.4151 81.5093 96.7096 82.3358C102.982 84.5898 110.798 87.3912 113.124 89.7311C115.097 91.6953 116.791 99.1979 118.292 105.831C119.171 109.695 120.083 113.699 120.619 114.343C121.719 115.388 122.997 116.227 124.393 116.822C125.327 117.175 126.172 117.728 126.87 118.443C126.959 118.581 126.99 118.749 126.955 118.91C126.921 119.071 126.825 119.212 126.687 119.302C126.55 119.389 126.384 119.42 126.224 119.388C126.064 119.356 125.923 119.264 125.83 119.13C125.221 118.643 124.55 118.238 123.835 117.928C122.284 117.264 120.87 116.318 119.665 115.137C118.968 114.311 118.271 111.316 117.081 106.11C115.794 100.25 113.961 92.3071 112.245 90.579C110.101 88.4323 102.124 85.5665 96.2914 83.4735C93.9648 82.6363 92.0028 81.9172 90.7055 81.3268C86.6848 79.5987 75.2341 64.4539 69.7446 57.1767L68.1042 55.03C64.0085 49.6633 64.5125 47.0122 64.5875 46.7331C64.609 46.6313 64.657 46.5369 64.7267 46.4596C64.7964 46.3823 64.8852 46.3249 64.9842 46.293C70.345 44.4898 70.5595 37.0945 70.5702 37.0194C70.5729 36.9367 70.5921 36.8554 70.6266 36.7802C70.6611 36.7049 70.7103 36.6374 70.7712 36.5814C70.8321 36.5255 70.9035 36.4822 70.9813 36.4542C71.0591 36.4262 71.1417 36.414 71.2242 36.4183C71.4923 36.4183 77.8073 36.8584 81.1954 38.565C83.6292 39.8315 89.3545 45.8315 94.8869 51.6383C97.117 53.9782 99.1756 56.1892 101.02 57.9924C107.174 64.1534 110.519 64.4325 117.188 65.0657C123.063 65.6024 125.529 64.4861 125.948 64.2607C126.075 63.9669 126.13 63.6466 126.108 63.3269C126.108 62.9727 126.108 62.157 126.87 62.157C127.137 62.1907 127.395 62.2745 127.631 62.4039C130.111 63.4738 132.739 64.1614 135.425 64.4432C139.714 64.9906 142.931 61.5667 144.271 60.1498C144.509 59.8486 144.791 59.5845 145.107 59.3663C145.472 59.1946 146.179 58.8618 149.696 62.8225C156.686 62.6937 163.881 65.2589 168.705 67.2232C174.291 69.5094 196.507 85.2552 197.429 89.6345C197.675 90.8044 198.501 93.8205 199.498 97.6416C202.618 109.319 205.17 119.108 204.859 121.137C204.754 122.762 204.8 124.393 204.998 126.01C205.223 128.865 205.481 132.096 204.837 134.275C204.28 136.25 201.653 136.851 198.748 136.851Z" fill="#263238"/>
<path d="M135.189 70.9154C133.276 70.925 131.374 70.6167 129.561 70.0031C123.363 67.8564 123.428 65.7634 123.503 65.3663C123.528 65.2026 123.618 65.0558 123.752 64.9582C123.885 64.8605 124.052 64.8201 124.216 64.8457C124.379 64.8713 124.526 64.9609 124.624 65.0948C124.721 65.2286 124.761 65.3958 124.736 65.5595C124.736 65.6668 124.982 67.1051 129.968 68.7795C133.345 69.8629 136.973 69.8874 140.365 68.8496C143.756 67.8118 146.75 65.7613 148.945 62.9727C148.996 62.9085 149.058 62.855 149.129 62.8153C149.2 62.7756 149.278 62.7505 149.359 62.7415C149.44 62.7325 149.522 62.7398 149.6 62.7629C149.678 62.786 149.751 62.8245 149.814 62.8761C149.942 62.9811 150.023 63.132 150.041 63.2965C150.059 63.461 150.012 63.626 149.91 63.7563C148.151 65.9799 145.915 67.7783 143.366 69.0177C140.818 70.2571 138.023 70.9057 135.189 70.9154Z" fill="#263238"/>
<path d="M80.9164 21.7565L4.12793 8.28613L75.116 10.7763L80.9164 21.7565Z" fill="#E8E8E8"/>
<path d="M68.2756 10.5294V7.04102L4.12793 8.28609L68.2756 10.5294Z" fill="#D9D9D9"/>
<path d="M72.4356 6.96597L59.1836 0L4.12793 8.28617L72.4356 6.96597Z" fill="#E8E8E8"/>
<path d="M65.1876 47.5488C65.0977 47.5522 65.0083 47.5345 64.9264 47.4973C64.8445 47.46 64.7725 47.4042 64.7159 47.3342C64.6194 47.2268 55.1951 36.268 52.386 34.057C51.807 33.6062 51.2066 33.1124 50.5848 32.608C48.0829 30.3583 45.2876 28.4591 42.2755 26.9622C38.4157 25.3307 33.4837 17.388 33.28 17.0445C33.2378 16.9741 33.2098 16.8959 33.1977 16.8147C33.1856 16.7334 33.1897 16.6505 33.2096 16.5707C33.2295 16.491 33.2649 16.416 33.3138 16.3499C33.3627 16.2839 33.424 16.2282 33.4944 16.1859C33.5648 16.1436 33.6429 16.1156 33.7241 16.1035C33.8053 16.0914 33.8881 16.0954 33.9677 16.1154C34.0474 16.1353 34.1223 16.1707 34.1883 16.2197C34.2542 16.2686 34.3099 16.3301 34.3522 16.4005C34.3522 16.4757 39.2841 24.3325 42.7901 25.8244C45.8565 27.1232 48.7942 29.5275 51.3674 31.6419L53.1472 33.0802C56.0635 35.3664 65.2627 46.0676 65.6594 46.5292C65.7128 46.5902 65.7535 46.6613 65.7792 46.7382C65.8049 46.8151 65.815 46.8964 65.809 46.9773C65.803 47.0582 65.781 47.1371 65.7443 47.2095C65.7076 47.2818 65.6568 47.3461 65.5951 47.3986C65.4827 47.4978 65.3374 47.5514 65.1876 47.5488Z" fill="#263238"/>
<path d="M46.3715 15.6063L5.7793 8.28613L47.851 20.9515L46.3715 15.6063Z" fill="#9E9E9E"/>
<path d="M54.0371 22.8084L69.1225 27.3487L70.1947 19.889L52.2681 16.6689C52.2681 16.6689 52.6648 18.9981 52.8899 19.889C53.203 20.888 53.5863 21.8636 54.0371 22.8084Z" fill="#9E9E9E"/>
<path d="M129.732 64.4969H129.56C129.481 64.4747 129.407 64.437 129.343 64.386C129.279 64.3351 129.225 64.2718 129.185 64.2C129.145 64.1281 129.12 64.0491 129.111 63.9674C129.102 63.8858 129.109 63.8031 129.131 63.7241C129.131 63.7241 130.3 59.5918 129.131 56.7474C129.09 56.6703 129.066 56.5854 129.06 56.4981C129.053 56.4109 129.066 56.3234 129.096 56.2412C129.125 56.159 129.172 56.0841 129.233 56.0212C129.294 55.9584 129.367 55.909 129.448 55.8764C129.529 55.8438 129.616 55.8287 129.703 55.832C129.791 55.8353 129.876 55.857 129.955 55.8956C130.033 55.9342 130.102 55.9889 130.158 56.0562C130.214 56.1234 130.255 56.2017 130.279 56.2859C131.597 59.5059 130.354 63.8851 130.279 64.0676C130.241 64.1855 130.168 64.2894 130.071 64.3659C129.973 64.4424 129.855 64.488 129.732 64.4969Z" fill="#263238"/>
<path d="M143.584 62.3288C143.486 62.3289 143.389 62.3055 143.301 62.2607C143.214 62.216 143.138 62.151 143.08 62.0712C141.386 59.7314 138.556 55.6312 138.663 54.4827C138.682 54.3204 138.763 54.1717 138.889 54.0677C139.015 53.9637 139.176 53.9124 139.339 53.9246C139.502 53.9435 139.651 54.0241 139.757 54.1498C139.862 54.2755 139.916 54.4368 139.907 54.6008C139.907 55.2555 142.051 58.6151 144.088 61.3414C144.136 61.4076 144.171 61.4827 144.189 61.5622C144.208 61.6417 144.211 61.7242 144.198 61.805C144.186 61.8857 144.157 61.9631 144.114 62.0327C144.071 62.1024 144.015 62.1629 143.949 62.2108C143.842 62.2863 143.715 62.3275 143.584 62.3288Z" fill="#263238"/>
<path d="M212.964 159.015C212.816 159.012 212.669 158.994 212.524 158.961C210.809 158.586 204.097 151.706 202.875 150.031C201.93 148.835 200.723 147.873 199.347 147.219C198.664 148.168 198.236 149.277 198.104 150.439C197.975 152.028 197.729 153.584 196.806 154.217C196.586 154.363 196.334 154.455 196.072 154.487C195.81 154.519 195.544 154.489 195.295 154.4C193.386 153.82 193.676 152.049 194.083 149.602L194.223 148.733C194.648 146.817 195.371 144.981 196.367 143.291C196.538 142.969 196.721 142.615 196.817 142.4C196.324 141.573 194.308 138.246 192.925 135.96C192.841 135.818 192.815 135.649 192.853 135.489C192.891 135.329 192.99 135.19 193.129 135.101C193.199 135.058 193.276 135.029 193.357 135.016C193.438 135.003 193.52 135.006 193.6 135.025C193.68 135.044 193.755 135.078 193.821 135.126C193.888 135.174 193.944 135.235 193.987 135.305C194.641 136.378 197.879 141.67 198.029 141.981C198.179 142.293 198.029 142.722 197.46 143.827C196.533 145.401 195.857 147.111 195.456 148.894L195.305 149.763C194.887 152.317 194.866 152.929 195.649 153.165C195.949 153.262 196.056 153.165 196.11 153.165C196.667 152.79 196.817 150.933 196.871 150.321C196.985 148.712 197.656 147.194 198.769 146.028C198.88 145.951 199.007 145.9 199.14 145.877C199.274 145.855 199.41 145.862 199.54 145.899C201.224 146.635 202.697 147.778 203.829 149.226C205.48 151.373 211.742 157.47 212.782 157.695C212.9 157.695 213.103 157.749 213.157 157.641C213.211 157.534 213.157 156.675 212.235 155.806C211.002 154.733 206.938 149.366 207.292 148.131C207.329 147.997 207.403 147.876 207.506 147.781C207.608 147.686 207.734 147.622 207.871 147.595C208.45 147.477 209.029 147.895 212.342 150.815C214.047 152.328 216.631 154.604 217.274 154.733C217.522 154.782 217.773 154.817 218.025 154.84C217.89 154.601 217.739 154.372 217.574 154.153C217.06 153.434 216.041 152.317 215.055 151.233C213.849 150.017 212.755 148.695 211.785 147.284C211.709 147.138 211.693 146.969 211.741 146.812C211.789 146.655 211.898 146.524 212.042 146.446C212.187 146.369 212.357 146.351 212.516 146.398C212.674 146.444 212.808 146.55 212.889 146.693C213.812 148.009 214.841 149.248 215.966 150.396C217.038 151.555 218.025 152.65 218.582 153.423C219.14 154.196 219.654 155.001 219.215 155.57C218.775 156.139 217.907 156.085 217.07 155.902C216.234 155.72 214.379 154.196 211.559 151.706C210.809 151.04 209.908 150.235 209.179 149.634C210.289 151.511 211.605 153.257 213.103 154.84C214.293 155.913 214.776 157.244 214.304 158.156C214.193 158.418 214.005 158.639 213.766 158.792C213.527 158.945 213.248 159.023 212.964 159.015Z" fill="#263238"/>
<path d="M219.247 153.82C218.369 153.772 217.512 153.531 216.738 153.112C216.617 153.021 216.533 152.889 216.502 152.74C216.471 152.592 216.496 152.437 216.571 152.305C216.646 152.173 216.766 152.073 216.91 152.024C217.053 151.975 217.209 151.98 217.349 152.038C218 152.414 218.744 152.596 219.494 152.564L219.547 152.5C219.547 152.5 219.547 152.135 218.357 151.051C216.429 149.026 214.638 146.874 212.996 144.611C212.908 144.487 212.861 144.339 212.861 144.187C212.861 144.035 212.908 143.887 212.996 143.763C213.736 142.861 220.062 145.824 220.126 145.91C220.169 145.918 220.212 145.918 220.255 145.91C220.255 145.91 220.255 145.405 219.462 144.74C218.475 143.935 212.953 141.906 204.676 139.309L204.526 139.255C202.768 138.707 202.028 136.207 201.953 135.928C201.929 135.777 201.961 135.622 202.044 135.493C202.126 135.365 202.253 135.271 202.4 135.23C202.547 135.189 202.704 135.203 202.841 135.27C202.978 135.338 203.086 135.453 203.143 135.595C203.315 136.174 203.947 137.741 204.891 138.074H205.041C211.174 140.006 218.797 142.55 220.244 143.731C221.692 144.911 221.659 145.963 221.316 146.564C221.135 146.831 220.859 147.019 220.545 147.091C220.231 147.162 219.901 147.112 219.622 146.951C218.979 146.629 216.599 145.684 215.012 145.137C216.333 146.891 217.765 148.558 219.301 150.128C220.426 151.201 220.898 151.92 220.877 152.564C220.862 152.761 220.805 152.953 220.709 153.125C220.612 153.298 220.479 153.447 220.319 153.562C220.006 153.778 219.624 153.87 219.247 153.82Z" fill="#263238"/>
<path d="M120.876 10.5402C120.876 10.5402 113.199 12.5152 112.17 16.7227C111.141 20.9301 112.17 25.3094 115.483 24.8693C118.796 24.4292 123.138 21.5527 126.033 21.7566C128.928 21.9605 128.317 23.0554 127.277 24.8908C126.237 26.7262 128.102 29.8389 133.281 28.3898C138.46 26.9408 138.642 24.2468 142.384 25.2772C146.126 26.3076 142.716 34.8084 143.585 36.0106C144.453 37.2127 144.657 38.9086 146.608 36.0106C148.559 33.1125 151.497 29.1734 154.596 30.2145C157.694 31.2557 151.701 37.2556 148.602 38.5007L145.493 39.7458C145.493 39.7458 144.249 48.4398 142.384 49.6849C142.384 49.6849 154.81 48.0319 159.538 43.6742C164.267 39.3164 160.16 39.3808 160.986 37.0517C161.811 34.7225 166.572 34.6045 166.572 31.7816C166.572 28.9587 165.95 29.3773 161.608 27.3058C157.265 25.2342 158.498 24.2038 159.12 23.1627C159.742 22.1215 160.364 20.2647 156.847 19.2235C153.331 18.1824 145.053 15.703 146.576 13.4275C148.098 11.152 148.892 6.59034 143.552 6.98748C138.213 7.38461 133.109 10.8622 130.075 10.4866C127.041 10.1109 124.243 9.30589 120.876 10.5402Z" fill="#263238"/>
<path d="M131.008 57.3915H130.858L129.464 57.0803C125.851 56.286 118.335 54.6438 114.325 51.7995C109.425 48.3218 110.315 39.6707 111.194 36.9123C112.074 34.1538 114.057 24.8265 114.078 24.6869C114.095 24.605 114.128 24.5273 114.176 24.4589C114.224 24.3906 114.286 24.333 114.357 24.2898C114.426 24.2437 114.503 24.2132 114.585 24.2002C114.666 24.1872 114.75 24.1922 114.829 24.2147C114.954 24.2262 115.079 24.2262 115.204 24.2147C115.268 24.182 115.337 24.1602 115.408 24.1503C117.036 23.8353 118.62 23.3235 120.125 22.6261C122.27 21.746 124.35 20.9088 126.076 21.0376C127.03 21.1127 128.22 21.2844 128.606 22.1109C128.992 22.9374 128.51 23.9034 127.824 25.1163C127.669 25.4146 127.606 25.7521 127.642 26.0862C127.678 26.4204 127.812 26.7364 128.027 26.9946C128.885 28.0679 130.794 28.3792 133.109 27.7245C134.68 27.2859 136.167 26.5856 137.505 25.6529C138.985 24.6977 140.143 23.9463 142.555 24.5796C145.536 25.4168 144.85 29.678 144.356 32.8014C144.14 33.7221 144.053 34.6687 144.099 35.6135C144.26 35.8389 144.399 36.0858 144.539 36.3219C144.647 36.5543 144.792 36.768 144.968 36.9552C145.387 36.557 145.747 36.1017 146.04 35.6028C147.787 33.059 151.036 28.3255 154.746 29.5706C155.109 29.6644 155.431 29.8747 155.664 30.1694C155.896 30.464 156.025 30.8268 156.032 31.2021C156.107 33.66 151.497 37.9319 148.774 39.016L145.965 40.143C145.589 41.6457 143.981 47.9354 142.877 49.9318L142.662 50.3397C141.976 51.6921 140.518 54.5257 137.763 55.9855C137.617 56.0615 137.448 56.0771 137.292 56.0288C137.135 55.9806 137.004 55.8724 136.926 55.7279C136.85 55.5809 136.834 55.4099 136.882 55.2513C136.93 55.0928 137.038 54.9595 137.184 54.8799C139.607 53.6027 140.925 51.0159 141.558 49.7708L141.794 49.3308C142.93 47.2485 144.817 39.6707 144.839 39.5419C144.861 39.4464 144.905 39.3575 144.969 39.2827C145.032 39.208 145.113 39.1497 145.203 39.1126L148.313 37.8675C150.704 36.9123 154.842 32.9194 154.746 31.2343C154.746 31.0733 154.746 30.8801 154.306 30.7406C151.829 29.9141 149.342 32.8872 147.026 36.3112C146.072 37.6958 145.407 38.211 144.764 38.1895C144.121 38.1681 143.692 37.5133 143.359 36.9337C143.241 36.7298 143.123 36.5151 142.984 36.3112C142.555 35.7101 142.705 34.626 142.984 32.5974C143.413 29.9463 143.992 26.3184 142.083 25.7817C140.175 25.2451 139.446 25.7817 138.041 26.6619C136.651 27.6837 135.1 28.4672 133.452 28.9803C129.389 30.118 127.62 28.5509 127.019 27.8211C126.655 27.3755 126.431 26.8316 126.376 26.2583C126.32 25.6851 126.436 25.1083 126.709 24.6011C127.084 23.9249 127.598 23.0125 127.47 22.7764C127.47 22.7764 127.277 22.4866 125.958 22.39C124.639 22.2934 122.506 23.0984 120.597 23.8927C119.024 24.6012 117.377 25.1339 115.687 25.4812C115.522 25.542 115.347 25.5711 115.172 25.5671C114.711 27.7137 113.124 34.948 112.374 37.2879C111.623 39.6278 110.765 47.7422 115.043 50.7905C118.839 53.4846 126.194 55.0839 129.721 55.8674L131.147 56.1787C131.227 56.1976 131.302 56.232 131.368 56.2801C131.435 56.3281 131.491 56.3887 131.534 56.4585C131.576 56.5283 131.605 56.6059 131.618 56.6868C131.631 56.7677 131.627 56.8504 131.608 56.93C131.575 57.0633 131.497 57.1813 131.388 57.265C131.279 57.3488 131.145 57.3933 131.008 57.3915Z" fill="#263238"/>
<path d="M112.76 34.014C112.658 34.0158 112.558 33.9898 112.47 33.9389C111.054 33.1148 109.817 32.0134 108.836 30.7004C107.854 29.3873 107.146 27.8896 106.756 26.2967C106.434 25.3686 106.434 24.359 106.756 23.4309C106.921 23.1899 107.15 22.9999 107.417 22.8823C107.684 22.7647 107.978 22.7242 108.267 22.7654C109.34 22.862 110.733 23.8387 111.72 26.1464C112.277 27.5933 112.997 28.9723 113.864 30.2573C113.965 30.3882 114.01 30.554 113.989 30.718C113.968 30.8821 113.882 31.031 113.751 31.1321C113.621 31.2331 113.455 31.278 113.291 31.2569C113.127 31.2358 112.979 31.1503 112.878 31.0194C111.924 29.6583 111.136 28.1882 110.53 26.6401C109.693 24.6545 108.61 24.0427 108.096 23.9997C107.849 23.9997 107.763 24.0856 107.742 24.1178C107.388 24.9013 108.643 30.5578 113.017 32.844C113.138 32.9097 113.234 33.0138 113.29 33.14C113.345 33.2662 113.358 33.4073 113.325 33.5412C113.291 33.6751 113.215 33.7941 113.107 33.8797C112.999 33.9653 112.865 34.0125 112.728 34.014H112.76Z" fill="#263238"/>
<path d="M138.074 32.2967H137.752C137.485 32.2499 137.238 32.1218 137.047 31.9297C136.855 31.7376 136.727 31.4909 136.68 31.2233C136.508 30.4935 134.964 29.4523 133.914 28.9478C133.839 28.9123 133.773 28.8624 133.718 28.8009C133.663 28.7394 133.621 28.6677 133.594 28.5898C133.567 28.5119 133.556 28.4295 133.561 28.3472C133.566 28.265 133.588 28.1845 133.624 28.1106C133.659 28.0367 133.708 27.9703 133.768 27.9155C133.828 27.8607 133.899 27.8186 133.976 27.7916C134.053 27.7646 134.135 27.7533 134.216 27.7583C134.297 27.7633 134.377 27.7846 134.45 27.8208C134.964 28.0677 137.527 29.3879 137.892 30.9443C137.892 31.0409 137.892 31.0409 137.977 31.0516C138.113 31.056 138.247 31.0269 138.369 30.967C138.49 30.9071 138.595 30.8182 138.674 30.7081C138.743 30.6068 138.78 30.4871 138.78 30.3647C138.78 30.2422 138.743 30.1225 138.674 30.0212C137.859 28.5078 137.302 27.6598 136.616 27.4774C136.532 27.462 136.452 27.4294 136.381 27.3817C136.31 27.334 136.249 27.2722 136.203 27.2001C136.157 27.128 136.127 27.0471 136.113 26.9626C136.1 26.8781 136.104 26.7918 136.125 26.7089C136.147 26.6261 136.185 26.5486 136.238 26.4812C136.29 26.4138 136.356 26.3581 136.432 26.3174C136.507 26.2767 136.59 26.2519 136.675 26.2447C136.76 26.2374 136.846 26.2478 136.927 26.2752C138.17 26.5972 138.921 27.8423 139.768 29.4416C139.947 29.7538 140.03 30.1124 140.005 30.4718C139.98 30.8311 139.849 31.175 139.628 31.4595C139.448 31.7057 139.214 31.9086 138.945 32.0534C138.676 32.1982 138.379 32.2813 138.074 32.2967Z" fill="#263238"/>
<path d="M115.794 27.9713C115.726 27.9817 115.658 27.9817 115.59 27.9713C115.269 27.9008 114.972 27.748 114.727 27.5278C114.483 27.3077 114.3 27.0278 114.196 26.7155C114.147 26.4023 114.167 26.082 114.256 25.7776C114.345 25.4732 114.5 25.1924 114.711 24.9553C114.829 24.8412 114.986 24.7774 115.15 24.7774C115.314 24.7774 115.472 24.8412 115.59 24.9553C115.703 25.0715 115.767 25.2275 115.767 25.39C115.767 25.5524 115.703 25.7084 115.59 25.8247C115.483 25.9535 115.301 26.2647 115.354 26.4365C115.408 26.6082 115.515 26.6511 115.719 26.7477C116.861 26.2257 118.089 25.92 119.343 25.8461C119.526 25.8391 119.703 25.7756 119.849 25.6641C119.994 25.5527 120.102 25.3988 120.157 25.2236C120.319 24.8549 120.349 24.442 120.243 24.0537C120.102 24.075 119.958 24.0472 119.835 23.9749C119.712 23.9026 119.618 23.7902 119.568 23.6565C119.511 23.5083 119.513 23.3436 119.575 23.1974C119.638 23.0512 119.754 22.9348 119.9 22.873C120.095 22.7908 120.311 22.7683 120.519 22.8084C120.727 22.8486 120.918 22.9495 121.069 23.0984C121.334 23.4567 121.499 23.8795 121.546 24.323C121.593 24.7665 121.521 25.2146 121.337 25.6207C121.2 26.0338 120.942 26.3957 120.595 26.6583C120.249 26.9209 119.83 27.0719 119.396 27.0912C118.231 27.1608 117.09 27.4599 116.04 27.9713C115.959 27.9898 115.875 27.9898 115.794 27.9713Z" fill="#263238"/>
<path d="M117.348 31.6741C116.722 31.4149 116.077 31.2032 115.419 31.0408C115.133 30.9643 114.843 30.9034 114.55 30.8583C114.218 30.7939 113.864 30.7617 113.403 30.6329C113.647 30.2504 114.005 29.955 114.427 29.7892C114.849 29.6233 115.312 29.5956 115.751 29.7098C116.201 29.8054 116.605 30.0524 116.896 30.4098C117.186 30.7671 117.346 31.2133 117.348 31.6741Z" fill="#263238"/>
<path d="M128.66 33.3916C129.047 32.8685 129.598 32.4906 130.226 32.3183C130.857 32.1357 131.524 32.1136 132.166 32.2538C132.8 32.4001 133.389 32.6985 133.882 33.1233C134.377 33.5318 134.748 34.0709 134.954 34.6796C134.343 34.4649 133.882 34.2181 133.346 34.0356C132.873 33.8464 132.385 33.6991 131.887 33.5955C131.395 33.4738 130.893 33.4019 130.386 33.3809C129.807 33.3809 129.261 33.3809 128.66 33.3916Z" fill="#263238"/>
<path d="M120.972 40.787H120.854C119.755 40.5658 118.678 40.2424 117.638 39.8209C117.446 39.7382 117.275 39.6133 117.137 39.4553C117 39.2974 116.9 39.1105 116.845 38.9086C116.745 38.1509 116.937 37.3837 117.381 36.7619L120.447 30.719L120.554 30.5688C120.757 30.3301 121.013 30.1425 121.302 30.0213C121.591 29.9001 121.904 29.8486 122.216 29.8711C122.548 29.9395 122.862 30.0771 123.137 30.275C123.412 30.4728 123.643 30.7266 123.814 31.0196C123.881 31.1443 123.907 31.287 123.889 31.4274C123.889 31.4274 123.192 35.9999 123.117 37.8675C123.148 38.5008 122.974 39.1273 122.62 39.6534C122.266 40.1795 121.752 40.5771 121.155 40.787H120.972ZM121.476 31.3416L118.421 37.363C118.157 37.7083 118.014 38.1306 118.013 38.5651C118.013 38.5651 118.013 38.6403 118.131 38.6832C119.031 39.052 119.965 39.3324 120.919 39.5204C121.22 39.3517 121.467 39.1005 121.63 38.7963C121.793 38.4921 121.866 38.1475 121.841 37.8031C121.916 36.0857 122.441 32.4364 122.591 31.4596C122.452 31.2739 122.257 31.1383 122.034 31.0732C121.927 31.0784 121.822 31.1059 121.726 31.1539C121.63 31.202 121.545 31.2695 121.476 31.3523V31.3416Z" fill="#263238"/>
<path d="M113.403 33.3594C113.645 33.2805 113.901 33.2531 114.153 33.279C114.406 33.3049 114.651 33.3834 114.872 33.5097C115.554 33.8851 116.098 34.4685 116.426 35.175C116.754 35.8815 116.848 36.6744 116.695 37.4381C116.352 38.3182 115.237 37.32 113.628 36.6868C113.103 36.4828 113.049 36.6868 112.556 36.515L113.403 33.3594Z" fill="#263238"/>
<path d="M126.108 39.3593C125.926 40.4326 127.909 40.175 130.236 40.5507C132.562 40.9263 134.331 41.8387 134.524 40.7224C134.717 39.6061 133.216 36.8584 130.9 36.4827C128.585 36.107 126.29 38.243 126.108 39.3593Z" fill="#263238"/>
<path d="M120.308 45.4775C121.712 45.0481 122.902 44.8335 124.039 44.4793C124.609 44.3158 125.168 44.115 125.711 43.8782C126.28 43.6528 126.784 43.3308 127.491 42.998C127.349 43.737 126.973 44.4105 126.419 44.9193C125.867 45.4213 125.206 45.7887 124.489 45.9927C123.793 46.1942 123.065 46.2563 122.345 46.1751C121.617 46.1198 120.916 45.8796 120.308 45.4775Z" fill="#263238"/>
<path d="M147.562 97.4053C147.562 103.352 145.074 108.139 136.165 108.139C129.882 108.139 126.097 103.33 126.097 97.4053C126.097 91.4804 128.627 86.6719 136.165 86.6719C143.702 86.6719 147.562 91.4697 147.562 97.4053Z" fill="#E8E8E8"/>
<path d="M135.093 98.7474H134.889C134.546 98.7474 133.892 98.7474 133.699 98.1571C133.506 97.5667 133.945 97.2876 134.246 97.0837C134.398 96.9616 134.538 96.825 134.664 96.6758L134.567 96.6114C133.763 96.0533 128.381 96.225 123.642 96.7188C123.561 96.7292 123.478 96.7233 123.4 96.7012C123.321 96.6792 123.247 96.6415 123.183 96.5904C123.119 96.5394 123.066 96.476 123.027 96.404C122.988 96.332 122.964 96.2529 122.956 96.1714C122.941 96.0067 122.991 95.8426 123.095 95.7142C123.199 95.5858 123.349 95.5034 123.513 95.4844C125.197 95.3127 133.688 94.4862 135.307 95.5918C135.494 95.7032 135.65 95.86 135.76 96.0475C135.871 96.2351 135.933 96.4475 135.94 96.6651C135.944 96.8347 135.916 97.0036 135.855 97.162C135.794 97.3204 135.703 97.4652 135.586 97.5882C136.101 97.5882 136.808 97.4701 137.623 97.3735C141.215 96.9442 147.272 96.225 152.526 97.6311C152.681 97.6777 152.812 97.7828 152.89 97.9242C152.969 98.0655 152.99 98.2321 152.948 98.3885C152.906 98.5448 152.805 98.6787 152.666 98.7618C152.528 98.8448 152.362 98.8705 152.204 98.8333C147.133 97.4916 141.279 98.1893 137.773 98.6079C136.551 98.6293 135.661 98.7474 135.093 98.7474Z" fill="#263238"/>
<path d="M48.4191 26.1036C48.2978 26.1045 48.179 26.0692 48.0778 26.0023C47.9766 25.9354 47.8976 25.8399 47.8508 25.7279C47.3956 24.2075 47.1857 22.6241 47.229 21.0374L45.7601 15.8639C45.7341 15.7626 45.7336 15.6564 45.7587 15.5548C45.7837 15.4532 45.8335 15.3594 45.9036 15.2818C45.9737 15.2042 46.0619 15.1452 46.1603 15.11C46.2588 15.0749 46.3644 15.0647 46.4677 15.0804L51.657 15.9927C51.9143 15.9927 53.158 16.4006 53.3832 19.2128C53.4863 20.4045 53.8923 21.5499 54.5626 22.5401C54.6065 22.6092 54.6359 22.6866 54.6489 22.7674C54.6619 22.8483 54.6582 22.931 54.6381 23.0104C54.6181 23.0898 54.582 23.1643 54.5321 23.2292C54.4822 23.2942 54.4196 23.3482 54.3481 23.3881C54.2787 23.4305 54.2015 23.4587 54.121 23.4709C54.0405 23.4831 53.9584 23.4791 53.8795 23.4591C53.8006 23.4391 53.7265 23.4035 53.6615 23.3544C53.5966 23.3054 53.542 23.2438 53.5011 23.1734C52.7301 22.0253 52.265 20.6988 52.1502 19.3201C52.0001 17.4632 51.3997 17.1734 51.389 17.1734L47.229 16.4436L48.4512 20.7369C48.4564 20.7976 48.4564 20.8587 48.4512 20.9194C48.4033 22.3684 48.5769 23.8162 48.9659 25.2127C49.0306 25.3637 49.0331 25.5341 48.9729 25.6869C48.9126 25.8397 48.7945 25.9625 48.6442 26.0285C48.5743 26.0668 48.498 26.0923 48.4191 26.1036Z" fill="#263238"/>
<path d="M71.1916 37.7065C71.0781 37.7114 70.9659 37.6814 70.8699 37.6207C69.4546 36.7835 56.9961 29.2916 55.3235 26.2003C55.268 26.1041 55.2388 25.9949 55.2388 25.8837C55.2388 25.7725 55.268 25.6633 55.3235 25.5671C55.6708 24.9389 55.8792 24.2435 55.9347 23.5277C55.9417 23.446 55.9647 23.3664 56.0025 23.2936C56.0403 23.2207 56.092 23.1561 56.1547 23.1032C56.2174 23.0504 56.2899 23.0105 56.3681 22.9857C56.4462 22.9609 56.5285 22.9518 56.6101 22.9589C56.6918 22.9659 56.7713 22.989 56.844 23.0268C56.9168 23.0646 56.9814 23.1163 57.0341 23.1791C57.0869 23.2419 57.1268 23.3145 57.1515 23.3927C57.1763 23.471 57.1854 23.5533 57.1784 23.6351C57.1047 24.4124 56.898 25.1712 56.5672 25.8783C58.3899 28.4221 67.8571 34.3899 71.481 36.6117C71.5525 36.6516 71.6151 36.7056 71.665 36.7706C71.7149 36.8355 71.7509 36.91 71.771 36.9894C71.7911 37.0688 71.7948 37.1515 71.7818 37.2323C71.7688 37.3132 71.7394 37.3906 71.6955 37.4597C71.6367 37.5375 71.5604 37.6003 71.4729 37.6432C71.3854 37.6861 71.289 37.7078 71.1916 37.7065Z" fill="#263238"/>
<path d="M134.257 250.496C134.257 250.496 133.667 241.415 133.184 240.975C132.702 240.535 126.537 241.372 125.272 240.739C124.007 240.106 123.31 243.573 122.495 243.959C121.68 244.346 119.965 242.693 121.133 240.535C122.302 238.378 117.499 234.503 116.298 234.6C115.097 234.696 107.442 237.82 101.523 238.185C95.6051 238.55 90.8983 237.433 89.2686 238.292C87.6389 239.151 86.1272 240.117 88.4002 242.736C90.6732 245.355 95.9053 250.539 102.853 250.603C109.801 250.668 111.43 249.53 112.288 248.521C113.146 247.512 114.432 245.677 115.365 247.555C116.298 249.433 116.319 251.977 117.938 252.46C119.557 252.943 130.643 255.519 134.257 250.496Z" fill="#263238"/>
<path d="M123.9 259.748C122.276 259.761 120.657 259.584 119.075 259.222C116.843 258.601 114.79 257.461 113.081 255.895C112.674 255.562 112.267 255.229 111.859 254.929C111.087 254.36 109.222 254.564 107.077 254.8C104.236 255.222 101.35 255.251 98.5 254.886C93.1501 253.829 88.2713 251.105 84.5618 247.104C82.5783 244.646 83.3932 242.489 84.3903 240.481C84.6215 239.861 85.0587 239.339 85.6287 239.003C86.1987 238.667 86.8668 238.537 87.521 238.635C87.664 238.688 87.7826 238.792 87.8543 238.926C87.9261 239.061 87.946 239.217 87.9103 239.365C87.8746 239.514 87.7858 239.644 87.6606 239.731C87.5355 239.818 87.3828 239.856 87.2315 239.837C87.1243 239.837 86.1594 239.666 85.4946 241.04C84.5833 242.875 84.0043 244.431 85.4946 246.32C89.0253 250.081 93.6385 252.647 98.693 253.662C101.43 254 104.199 253.967 106.927 253.565C109.425 253.286 111.409 253.072 112.567 253.93C112.996 254.242 113.414 254.585 113.843 254.929C115.409 256.382 117.298 257.441 119.354 258.02C122.72 258.857 128.22 258.685 131.587 256.946C134.707 255.336 135.211 253.834 133.731 250.775C133.702 250.64 133.718 250.5 133.776 250.375C133.835 250.25 133.933 250.149 134.056 250.086C134.179 250.024 134.319 250.004 134.454 250.029C134.589 250.055 134.712 250.124 134.803 250.227C136.626 253.877 135.876 256.141 132.166 258.041C129.576 259.231 126.749 259.815 123.9 259.748Z" fill="#263238"/>
<path d="M118.528 238.882C118.414 238.883 118.301 238.851 118.204 238.79C118.108 238.729 118.03 238.642 117.981 238.539C117.944 238.468 117.921 238.391 117.914 238.312C117.907 238.233 117.916 238.153 117.939 238.077C117.963 238.001 118.002 237.931 118.054 237.87C118.105 237.809 118.168 237.759 118.238 237.723C118.324 237.658 121.123 235.748 124.178 223.168C124.189 223.081 124.218 222.997 124.263 222.922C124.308 222.846 124.369 222.782 124.441 222.731C124.513 222.681 124.595 222.647 124.681 222.631C124.767 222.615 124.856 222.617 124.941 222.637C125.027 222.658 125.107 222.696 125.176 222.75C125.246 222.804 125.303 222.872 125.344 222.949C125.386 223.027 125.41 223.112 125.416 223.2C125.422 223.288 125.409 223.376 125.379 223.458C122.163 236.81 119.139 238.657 118.807 238.818C118.72 238.86 118.625 238.883 118.528 238.882Z" fill="#263238"/>
<path d="M131.126 243.219C130.969 243.219 130.818 243.159 130.704 243.051C130.591 242.943 130.523 242.796 130.515 242.639C130.214 237.959 136.39 224.993 136.658 224.446C136.749 224.345 136.871 224.276 137.004 224.251C137.138 224.226 137.276 224.245 137.398 224.306C137.52 224.367 137.618 224.466 137.678 224.588C137.738 224.71 137.756 224.849 137.73 224.982C137.666 225.111 131.437 238.206 131.705 242.553C131.71 242.635 131.7 242.717 131.674 242.795C131.648 242.872 131.607 242.944 131.553 243.006C131.499 243.068 131.434 243.119 131.361 243.155C131.287 243.191 131.207 243.213 131.126 243.219Z" fill="#263238"/>
<path d="M135.972 225.401C131.898 225.401 124.575 223.254 121.069 221.183C117.402 219.036 118.517 211.115 119.493 204.117C119.611 203.258 119.729 202.41 119.836 201.605C120.265 198.278 120.158 191.881 120.04 185.687C119.911 178.378 119.793 171.466 120.469 168.6C121.712 163.233 132.488 143.484 132.949 142.647C132.986 142.574 133.037 142.509 133.1 142.457C133.163 142.405 133.235 142.366 133.314 142.343C133.392 142.32 133.474 142.313 133.555 142.323C133.636 142.332 133.714 142.359 133.785 142.4C133.856 142.438 133.92 142.49 133.971 142.553C134.022 142.616 134.061 142.689 134.084 142.766C134.106 142.844 134.114 142.926 134.105 143.007C134.096 143.088 134.071 143.166 134.031 143.237C133.924 143.441 122.881 163.738 121.669 168.879C121.037 171.594 121.165 178.754 121.283 185.666C121.391 191.902 121.509 198.353 121.069 201.766C120.962 202.582 120.844 203.43 120.715 204.288C119.847 210.567 118.753 218.392 121.691 220.109C125.347 222.256 133.935 224.65 137.098 224.07C138.652 223.791 143.928 222.267 146.876 214.517C149.278 208.217 149.942 187.373 149.942 185.204C149.525 183.942 148.929 182.745 148.173 181.652C146.683 179.14 146.029 177.906 146.629 177.208C147.23 176.51 148.012 177.036 148.334 177.208C149.681 177.885 150.938 178.729 152.076 179.72L152.805 180.289C152.805 180.289 152.805 180.17 152.805 180.106C152.537 179.129 152.237 178.26 151.99 177.562C151.476 176.049 151.186 175.212 151.669 174.653C151.829 174.498 152.028 174.389 152.245 174.338C152.462 174.287 152.689 174.296 152.902 174.364C154.531 174.686 155.421 174.568 156.118 173.913C156.954 173.011 171.675 149.226 172.715 144.074C173.895 138.364 173.787 132.01 172.49 129.927C170.968 127.491 169.123 125.022 169.102 125.001C169.004 124.868 168.963 124.702 168.987 124.54C169.011 124.377 169.099 124.23 169.231 124.131C169.295 124.081 169.369 124.044 169.448 124.023C169.526 124.001 169.609 123.996 169.69 124.007C169.771 124.018 169.849 124.045 169.919 124.087C169.989 124.128 170.051 124.184 170.099 124.249C170.099 124.249 171.997 126.783 173.541 129.262C175.245 131.999 175.02 139.062 173.937 144.289C172.855 149.516 157.823 173.881 156.901 174.804C155.7 176.006 154.145 175.877 152.612 175.598C152.739 176.13 152.9 176.654 153.095 177.165C153.341 177.884 153.652 178.775 153.931 179.795C154.145 180.6 154.306 181.416 153.738 181.78C153.17 182.145 152.462 181.662 151.272 180.707C150.211 179.783 149.041 178.993 147.787 178.356H147.723C148.16 179.3 148.658 180.214 149.213 181.094C150.414 183.133 151.154 184.432 151.154 185.28C151.154 185.494 150.671 208.034 148.012 215.032C144.796 223.394 139.006 225.057 137.291 225.369C136.853 225.42 136.412 225.43 135.972 225.401Z" fill="#263238"/>
<path d="M192.368 205.813C191.821 205.813 191.296 205.813 190.878 205.748C188.304 205.555 179.363 202.614 171.471 200.027C166.732 198.471 162.262 197.001 160.031 196.41C156.158 195.281 152.7 193.043 150.082 189.97C150.02 189.908 149.971 189.834 149.94 189.752C149.908 189.67 149.895 189.583 149.899 189.495C149.904 189.408 149.927 189.322 149.967 189.244C150.007 189.166 150.063 189.097 150.132 189.043C150.2 188.988 150.279 188.948 150.364 188.926C150.449 188.904 150.537 188.9 150.624 188.915C150.71 188.93 150.793 188.962 150.865 189.011C150.938 189.06 151 189.123 151.047 189.197C153.515 192.039 156.738 194.12 160.342 195.197C162.615 195.798 167.108 197.269 171.857 198.836C179.298 201.272 188.551 204.321 190.974 204.503C194.598 204.782 200.742 204.009 202.768 200.747C204.794 197.484 205.116 189.53 204.558 187.577L204.483 187.308C203.819 184.958 202.264 179.43 197.193 177.745C190.845 175.598 179.77 172.582 178.591 172.786C178.344 172.786 178.076 173.451 177.915 173.806C177.669 174.364 177.411 174.933 176.843 174.943C176.275 174.954 175.899 174.289 175.771 174.01C175.546 173.559 175.321 173.033 175.095 172.485C174.752 171.659 174.023 169.942 173.626 169.845C173.115 170.317 172.652 170.838 172.243 171.401C171.257 172.668 170.592 173.548 169.842 173.237C169.091 172.926 169.177 172.163 169.177 171.863C169.199 171.112 169.292 170.364 169.456 169.63C169.799 167.892 169.81 167.291 168.652 166.85C165.907 165.777 165.296 161.258 165.296 159.595C165.296 159.43 165.361 159.271 165.478 159.155C165.595 159.038 165.753 158.972 165.918 158.972C166.083 158.972 166.241 159.038 166.357 159.155C166.474 159.271 166.539 159.43 166.539 159.595C166.539 160.668 166.979 164.897 169.091 165.691C171.203 166.486 170.978 168.299 170.678 169.867C170.564 170.483 170.496 171.107 170.474 171.734C170.742 171.434 171.064 171.015 171.311 170.661C171.766 170.015 172.295 169.424 172.887 168.901C173.036 168.783 173.21 168.701 173.396 168.66C173.581 168.619 173.774 168.621 173.959 168.664C174.945 168.933 175.546 170.371 176.243 172.024C176.436 172.486 176.629 172.947 176.811 173.344C177.1 172.7 177.497 171.831 178.333 171.616C179.92 171.23 193.44 175.212 197.632 176.607C203.315 178.507 205.062 184.689 205.716 187.019L205.791 187.276C206.435 189.509 206.199 197.773 203.862 201.455C201.642 204.922 196.013 205.813 192.368 205.813Z" fill="#263238"/>
<path d="M275.236 246.428C275.018 246.444 274.799 246.444 274.582 246.428C274.418 246.404 274.271 246.315 274.173 246.183C274.074 246.05 274.032 245.883 274.056 245.719C274.081 245.556 274.169 245.408 274.301 245.31C274.434 245.211 274.601 245.169 274.764 245.194C274.85 245.194 282.269 246.095 288.799 233.58C294.428 222.847 294.696 219.627 294.61 218.811C294.406 218.961 294.138 219.208 293.891 219.433C293.255 220.085 292.507 220.615 291.683 221C290.45 221.494 277.144 232.807 274.421 244.721C274.403 244.801 274.37 244.875 274.323 244.942C274.276 245.008 274.217 245.064 274.148 245.107C274.079 245.15 274.002 245.179 273.922 245.192C273.842 245.205 273.76 245.202 273.681 245.183C273.601 245.166 273.525 245.134 273.458 245.087C273.39 245.041 273.333 244.981 273.289 244.912C273.245 244.843 273.215 244.766 273.201 244.685C273.188 244.605 273.191 244.522 273.209 244.442C276.061 231.97 289.764 220.432 291.222 219.841C291.905 219.517 292.523 219.069 293.044 218.521C293.461 218.024 294.006 217.653 294.621 217.448C294.797 217.41 294.981 217.425 295.149 217.492C295.317 217.559 295.462 217.674 295.564 217.823C297.044 219.798 292.648 228.89 289.892 234.127C283.942 245.462 277.316 246.428 275.236 246.428Z" fill="#263238"/>
<path d="M276.179 244.968C276.089 244.967 276 244.946 275.918 244.907C275.837 244.868 275.765 244.812 275.707 244.743C275.654 244.68 275.614 244.607 275.589 244.529C275.564 244.451 275.555 244.369 275.562 244.287C275.569 244.205 275.592 244.125 275.63 244.053C275.668 243.98 275.719 243.915 275.782 243.862C275.868 243.798 284.263 236.66 287.898 228.932C287.972 228.791 288.098 228.683 288.25 228.632C288.401 228.581 288.566 228.59 288.711 228.658C288.856 228.725 288.969 228.846 289.027 228.995C289.086 229.144 289.084 229.31 289.024 229.458C285.271 237.444 276.94 244.485 276.586 244.818C276.473 244.914 276.328 244.968 276.179 244.968Z" fill="#263238"/>
<path d="M274.71 229.973H274.657C274.575 229.968 274.496 229.946 274.423 229.91C274.35 229.873 274.285 229.822 274.233 229.76C274.18 229.698 274.14 229.626 274.115 229.549C274.09 229.471 274.081 229.389 274.088 229.308C274.935 219.1 279.91 208.571 288.874 198.031C289.249 197.58 289.506 197.279 289.613 197.129C289.829 196.782 290.026 196.424 290.203 196.056C290.932 194.682 291.522 193.609 292.347 193.845C293.173 194.081 293.42 194.918 293.194 199.211C292.744 207.798 286.901 224.413 286.654 225.111C286.634 225.196 286.596 225.275 286.543 225.344C286.49 225.413 286.424 225.47 286.347 225.512C286.271 225.553 286.187 225.578 286.101 225.586C286.014 225.593 285.927 225.582 285.845 225.553C285.763 225.524 285.688 225.479 285.624 225.419C285.561 225.36 285.511 225.288 285.477 225.208C285.443 225.128 285.426 225.042 285.428 224.955C285.429 224.868 285.449 224.782 285.486 224.703C285.55 224.531 291.522 207.583 291.918 199.147C292.016 197.915 292.016 196.676 291.918 195.444C291.693 195.798 291.425 196.303 291.254 196.625C291.082 196.947 290.782 197.516 290.589 197.795C290.396 198.074 290.182 198.299 289.763 198.793C280.972 209.14 276.104 219.422 275.279 229.361C275.276 229.516 275.217 229.664 275.112 229.777C275.007 229.89 274.864 229.96 274.71 229.973Z" fill="#263238"/>
<path d="M275.021 236.135H274.85C274.692 236.087 274.56 235.979 274.481 235.835C274.403 235.69 274.385 235.52 274.432 235.362C278.045 222.975 286.472 207.455 286.558 207.262C286.596 207.19 286.648 207.127 286.711 207.075C286.774 207.024 286.847 206.986 286.924 206.963C287.002 206.94 287.084 206.933 287.165 206.941C287.245 206.95 287.323 206.975 287.394 207.015C287.466 207.053 287.529 207.105 287.58 207.168C287.632 207.231 287.67 207.304 287.693 207.382C287.716 207.46 287.723 207.541 287.714 207.622C287.705 207.703 287.68 207.781 287.641 207.852C287.555 208.013 279.203 223.458 275.622 235.759C275.573 235.876 275.489 235.975 275.382 236.043C275.274 236.11 275.148 236.142 275.021 236.135Z" fill="#263238"/>
<path d="M271.258 245.172C271.098 245.173 270.944 245.112 270.829 245C270.4 244.592 260.364 234.75 261.533 222.46C262.552 211.727 265.157 201.627 267.216 200.307C267.353 200.207 267.512 200.141 267.68 200.115C267.848 200.089 268.019 200.103 268.181 200.156C269.414 200.586 269.671 202.4 269.992 204.707C270.168 206.541 270.579 208.345 271.215 210.074C272.941 214.142 277.112 232.775 274.871 242.864C274.826 243.016 274.726 243.145 274.591 243.225C274.455 243.305 274.294 243.331 274.14 243.297C273.986 243.263 273.851 243.171 273.762 243.041C273.672 242.911 273.636 242.752 273.659 242.596C275.804 232.754 271.762 214.539 270.068 210.557C269.394 208.738 268.955 206.841 268.759 204.911C268.556 203.484 268.309 201.691 267.848 201.401C266.69 202.131 263.903 210.675 262.766 222.611C261.694 234.267 271.59 244.002 271.686 244.077C271.782 244.161 271.85 244.272 271.88 244.395C271.91 244.519 271.901 244.649 271.854 244.767C271.806 244.885 271.724 244.985 271.617 245.054C271.51 245.123 271.384 245.157 271.258 245.151V245.172Z" fill="#263238"/>
<path d="M272.115 243.701C271.996 243.7 271.879 243.666 271.779 243.601C271.678 243.536 271.598 243.445 271.547 243.336C266.186 231.465 265.318 214.796 265.318 214.635C265.312 214.554 265.323 214.472 265.349 214.395C265.375 214.318 265.416 214.247 265.47 214.186C265.524 214.125 265.589 214.076 265.663 214.04C265.736 214.005 265.816 213.985 265.897 213.981C266.057 213.978 266.212 214.038 266.329 214.148C266.445 214.259 266.513 214.411 266.519 214.571C266.519 214.732 267.43 231.175 272.652 242.832C272.717 242.982 272.721 243.151 272.663 243.303C272.605 243.456 272.489 243.58 272.341 243.648C272.27 243.681 272.193 243.699 272.115 243.701Z" fill="#263238"/>
<path d="M271.386 212.982C271.228 212.983 271.077 212.923 270.961 212.816C270.846 212.708 270.775 212.56 270.764 212.403C269.81 196.024 276.597 181.888 279.856 175.104C280.454 173.932 280.987 172.728 281.454 171.498C282.172 169.083 283.094 168.675 283.727 168.761C284.66 168.879 285.925 170.017 286.15 178.335C286.44 188.832 283.384 207.186 283.362 207.315C283.349 207.396 283.32 207.474 283.276 207.544C283.233 207.613 283.176 207.674 283.11 207.722C283.043 207.77 282.968 207.804 282.888 207.822C282.808 207.841 282.725 207.844 282.644 207.83C282.563 207.817 282.486 207.788 282.416 207.744C282.346 207.701 282.286 207.644 282.238 207.578C282.19 207.511 282.156 207.435 282.137 207.355C282.119 207.275 282.116 207.192 282.129 207.111C282.129 206.929 285.185 188.682 284.906 178.314C284.703 170.575 283.555 169.942 283.545 169.931C283.096 170.47 282.787 171.112 282.644 171.798C282.163 173.094 281.604 174.359 280.971 175.587C277.755 182.285 271.075 196.217 272.008 212.274C272.012 212.356 272.001 212.438 271.973 212.515C271.946 212.592 271.904 212.663 271.849 212.724C271.794 212.785 271.728 212.834 271.654 212.869C271.58 212.904 271.5 212.925 271.418 212.929L271.386 212.982Z" fill="#263238"/>
<path d="M274.474 227.322C274.32 227.321 274.173 227.263 274.058 227.161C273.944 227.058 273.871 226.917 273.852 226.764C273.649 224.907 274.313 222.074 275.536 216.922C276.147 214.324 276.897 211.094 277.755 207.101C279.547 197.872 280.867 188.557 281.711 179.194C281.73 179.031 281.811 178.881 281.936 178.775C282.062 178.669 282.223 178.616 282.387 178.625C282.468 178.632 282.547 178.655 282.62 178.693C282.692 178.73 282.756 178.782 282.808 178.845C282.86 178.908 282.899 178.981 282.922 179.06C282.946 179.138 282.953 179.22 282.944 179.301C282.098 188.715 280.774 198.079 278.977 207.358C278.109 211.362 277.348 214.593 276.736 217.19C275.557 222.213 274.903 224.972 275.085 226.625C275.103 226.788 275.056 226.952 274.954 227.081C274.851 227.21 274.702 227.293 274.538 227.312L274.474 227.322Z" fill="#263238"/>
<path d="M284.038 249.541C283.904 249.54 283.774 249.497 283.666 249.418C283.558 249.339 283.478 249.228 283.438 249.101C283.391 248.943 283.409 248.773 283.487 248.628C283.566 248.483 283.698 248.375 283.856 248.328L285.121 247.931C285.06 247.897 285.002 247.858 284.949 247.813C284.828 247.7 284.74 247.557 284.694 247.398C284.649 247.239 284.648 247.07 284.692 246.911C284.904 246.27 285.219 245.668 285.625 245.129L285.764 244.925C283.438 245.805 280.21 246.761 277.991 245.795C277.916 245.763 277.847 245.717 277.79 245.659C277.732 245.6 277.687 245.532 277.656 245.456C277.625 245.38 277.609 245.299 277.61 245.217C277.61 245.135 277.627 245.054 277.659 244.979C277.727 244.828 277.851 244.709 278.006 244.649C278.16 244.589 278.332 244.592 278.484 244.657C280.629 245.58 284.338 244.142 285.571 243.669C286.011 243.498 286.815 243.186 287.244 243.734C287.673 244.281 287.244 244.925 286.665 245.816C286.461 246.117 286.236 246.46 286.075 246.761C286.429 246.675 286.911 246.525 287.297 246.406C288.332 246.026 289.415 245.795 290.514 245.72C291.2 245.72 291.404 246.052 291.436 246.331C291.522 246.911 291.586 247.287 284.231 249.551L284.038 249.541Z" fill="#263238"/>
<path d="M269.221 244.807C269.119 244.809 269.019 244.783 268.931 244.732C267.237 243.804 265.697 242.62 264.364 241.222C263.345 240.149 262.595 239.859 262.219 239.956C262.15 239.984 262.09 240.031 262.047 240.092C262.003 240.153 261.977 240.224 261.973 240.299C261.955 240.46 261.893 240.613 261.795 240.742C261.697 240.87 261.566 240.97 261.415 241.029C260.826 241.254 260.247 240.782 259.571 240.235L259.4 240.106C259.4 240.181 259.4 240.256 259.4 240.321C259.507 241.576 259.678 243.465 258.327 244.088C258.253 244.122 258.172 244.141 258.09 244.143C258.008 244.146 257.927 244.132 257.85 244.103C257.774 244.075 257.703 244.031 257.644 243.975C257.584 243.919 257.536 243.851 257.502 243.777C257.468 243.702 257.449 243.621 257.447 243.539C257.444 243.457 257.457 243.376 257.486 243.299C257.515 243.222 257.559 243.152 257.615 243.092C257.671 243.032 257.738 242.984 257.813 242.95C258.36 242.703 258.231 241.276 258.156 240.428C258.081 239.58 258.027 238.893 258.542 238.603C259.056 238.313 259.668 238.743 260.332 239.269L260.847 239.677C260.936 239.459 261.073 239.264 261.248 239.106C261.422 238.948 261.629 238.831 261.855 238.764C262.402 238.603 263.56 238.603 265.211 240.374C266.451 241.652 267.875 242.737 269.435 243.594C269.509 243.632 269.574 243.683 269.628 243.747C269.682 243.81 269.722 243.883 269.747 243.962C269.772 244.041 269.781 244.124 269.773 244.206C269.766 244.289 269.742 244.369 269.703 244.442C269.659 244.538 269.592 244.622 269.508 244.686C269.424 244.75 269.325 244.791 269.221 244.807Z" fill="#263238"/>
<path d="M54.166 244.045C53.0578 244.044 51.951 243.969 50.853 243.819C45.9853 243.165 38.8876 240.599 32.7548 232.399C22.58 218.735 22.1833 207.616 22.0332 202.861C22.0332 202.142 22.0332 201.584 21.9367 201.176C21.6686 199.029 21.9367 196.496 23.1911 195.97C23.5128 195.82 24.1668 195.712 24.8637 196.56C25.3151 197.19 25.5824 197.934 25.6357 198.707C25.8608 200.081 26.1181 201.648 29.1524 203.419C35.4996 207.101 56.6427 220.689 62.4967 240.868C62.5281 240.948 62.5423 241.035 62.5385 241.121C62.5348 241.207 62.513 241.292 62.4747 241.37C62.4364 241.447 62.3824 241.516 62.316 241.571C62.2497 241.627 62.1726 241.668 62.0895 241.692C62.0065 241.716 61.9194 241.722 61.8337 241.711C61.7481 241.699 61.6658 241.67 61.5921 241.624C61.5185 241.579 61.455 241.519 61.4059 241.448C61.3567 241.377 61.3229 241.296 61.3066 241.211C55.5812 221.483 34.7705 208.12 28.5305 204.492C24.9816 202.431 24.6493 200.392 24.4134 198.911C24.3809 198.368 24.2072 197.842 23.9095 197.387C23.8377 197.283 23.7421 197.199 23.6307 197.14C23.427 197.269 22.8695 198.664 23.1697 201.058C23.1697 201.487 23.2447 202.131 23.2769 202.85C23.4377 207.487 23.8237 218.338 33.7627 231.691C39.6167 239.569 46.3499 241.973 50.9709 242.617C53.8916 243.048 56.8697 242.873 59.7198 242.102C59.8762 242.051 60.0463 242.064 60.193 242.139C60.3397 242.213 60.451 242.343 60.5025 242.499C60.5291 242.577 60.5399 242.659 60.5343 242.74C60.5287 242.822 60.5067 242.902 60.4697 242.975C60.4328 243.048 60.3815 243.113 60.3189 243.166C60.2564 243.219 60.1839 243.258 60.1058 243.283C58.1747 243.831 56.1727 244.088 54.166 244.045Z" fill="#263238"/>
<path d="M60.0412 241.855H59.934C59.5373 241.78 50.0594 240.084 39.8416 230.961C33.51 225.094 28.9046 217.603 26.5254 209.301C26.5063 209.221 26.5032 209.139 26.5161 209.058C26.529 208.977 26.5576 208.9 26.6004 208.83C26.6432 208.76 26.6994 208.699 26.7656 208.651C26.8318 208.603 26.9068 208.569 26.9864 208.55C27.0659 208.531 27.1485 208.528 27.2292 208.54C27.31 208.553 27.3874 208.582 27.4571 208.625C27.5268 208.668 27.5874 208.724 27.6354 208.79C27.6834 208.857 27.7179 208.932 27.7369 209.011C30.0441 217.076 34.5164 224.352 40.6672 230.049C50.5955 238.925 60.052 240.632 60.1484 240.643C60.309 240.674 60.4512 240.766 60.5452 240.9C60.6392 241.035 60.6776 241.2 60.6524 241.362C60.6247 241.503 60.5483 241.63 60.4365 241.72C60.3248 241.81 60.1848 241.858 60.0412 241.855Z" fill="#263238"/>
<path d="M66.1097 241.641C65.9476 241.655 65.7865 241.604 65.6619 241.499C65.5372 241.395 65.4592 241.245 65.4449 241.083C65.4307 240.92 65.4815 240.759 65.586 240.634C65.6906 240.509 65.8404 240.431 66.0025 240.417C66.1204 240.417 77.7963 237.959 78.2359 216.288C78.772 192.385 73.9472 180.933 70.9559 177.938C70.334 177.305 69.7872 177.004 69.5192 177.112C68.372 177.562 68.2755 182.833 68.2219 185.977C68.1361 190.185 66.0775 194.231 63.3113 199.845C62.3571 201.755 61.2849 203.924 60.1592 206.285C55.967 215.312 58.2186 230.886 58.24 231.036C58.2626 231.121 58.2671 231.209 58.2531 231.296C58.2392 231.382 58.2071 231.465 58.1591 231.538C58.111 231.612 58.048 231.674 57.9742 231.721C57.9005 231.768 57.8175 231.8 57.7309 231.813C57.6443 231.825 57.5559 231.82 57.4716 231.796C57.3873 231.773 57.3089 231.731 57.2415 231.675C57.1742 231.619 57.1195 231.55 57.0809 231.471C57.0423 231.392 57.0208 231.306 57.0177 231.219C56.9212 230.575 54.6804 215.119 59.0334 205.759C60.1056 203.344 61.2528 201.176 62.2499 199.255C64.9732 193.791 66.946 189.852 67.021 185.924C67.1175 180.342 67.3212 176.629 69.101 175.92C70.3126 175.437 71.492 176.639 71.8779 176.994C76.0272 181.19 79.9942 194.961 79.5225 216.246C79.0078 239 66.7852 241.469 66.2705 241.566L66.1097 241.641Z" fill="#263238"/>
<path d="M51.6248 247.179C47.9687 247.051 47.84 246.407 47.7757 246.106C47.7114 245.805 47.9687 245.29 48.6013 245.033C49.4887 244.636 50.466 244.484 51.4318 244.593C52.153 244.671 52.8825 244.601 53.5761 244.389C55.2165 243.884 55.4739 243.262 55.4739 243.262C55.4927 243.183 55.5268 243.11 55.5743 243.044C55.6217 242.979 55.6815 242.924 55.7502 242.882C55.8189 242.841 55.8953 242.813 55.9748 242.8C56.0543 242.788 56.1355 242.792 56.2136 242.811C56.3738 242.854 56.5111 242.957 56.597 243.099C56.6829 243.241 56.7108 243.411 56.6747 243.573C56.6747 243.777 56.278 244.861 53.9407 245.58C53.0972 245.835 52.2122 245.922 51.3353 245.838C50.8761 245.779 50.4114 245.779 49.9522 245.838C50.4561 245.902 51.0244 245.945 51.6355 245.966C51.8004 245.966 51.9586 246.032 52.0752 246.149C52.1918 246.266 52.2574 246.424 52.2574 246.589C52.2574 246.754 52.1918 246.912 52.0752 247.029C51.9586 247.146 51.8004 247.212 51.6355 247.212L51.6248 247.179Z" fill="#263238"/>
<path d="M70.4199 243.648C70.3357 243.648 70.2523 243.631 70.1749 243.598C70.0975 243.565 70.0276 243.516 69.9696 243.455C69.853 243.338 69.7876 243.18 69.7876 243.015C69.7876 242.85 69.853 242.691 69.9696 242.575C70.3623 242.215 70.7212 241.82 71.0417 241.394L70.9774 241.458C70.5378 241.984 69.9052 242.768 69.0153 242.328C68.6667 242.118 68.3631 241.841 68.122 241.513C67.8809 241.185 67.7072 240.813 67.6108 240.417C67.5724 240.256 67.5994 240.087 67.6859 239.946C67.7723 239.805 67.9112 239.704 68.0718 239.666C68.2325 239.628 68.4018 239.655 68.5426 239.741C68.6833 239.828 68.784 239.967 68.8224 240.127C68.9384 240.568 69.2134 240.951 69.5943 241.201C69.7231 240.998 69.8703 240.808 70.0339 240.632C70.4842 240.106 71.2454 239.215 72.1782 239.838C72.3103 239.929 72.4203 240.048 72.5001 240.188C72.5799 240.327 72.6275 240.483 72.6393 240.643C72.7036 241.641 71.417 242.95 70.8595 243.466C70.7404 243.579 70.5839 243.644 70.4199 243.648Z" fill="#263238"/>
<path d="M66.0348 238.925C65.9534 238.941 65.8696 238.941 65.7882 238.925C65.7125 238.893 65.644 238.845 65.5871 238.786C65.5301 238.726 65.4857 238.656 65.4567 238.578C65.4277 238.501 65.4145 238.419 65.418 238.336C65.4216 238.254 65.4417 238.173 65.4773 238.099C71.4959 223.016 73.7553 206.692 72.0604 190.539C72.0422 190.374 72.0892 190.209 72.1914 190.078C72.2937 189.948 72.443 189.863 72.6072 189.841C72.6884 189.831 72.7708 189.837 72.8496 189.859C72.9284 189.881 73.002 189.919 73.066 189.97C73.13 190.021 73.1831 190.084 73.2222 190.156C73.2612 190.228 73.2854 190.307 73.2934 190.389C76.3812 216.557 66.6996 238.388 66.6031 238.614C66.5461 238.713 66.4629 238.795 66.3626 238.849C66.2624 238.904 66.149 238.931 66.0348 238.925Z" fill="#263238"/>
<path d="M57.2429 228.686C57.1283 228.687 57.0157 228.656 56.9173 228.598C56.8189 228.539 56.7386 228.454 56.6853 228.353C56.6103 228.192 48.494 212.049 51.1101 187.866C52.1619 177.354 54.5916 167.025 58.3365 157.148C59.5802 153.702 60.395 151.427 60.1699 150.01C60.0519 149.28 59.0977 142.84 60.8668 142.046C61.2206 141.885 61.7996 141.863 62.4643 142.679C64.3299 144.976 69.9694 162.364 69.6371 176.714C69.6371 176.796 69.621 176.877 69.5897 176.953C69.5585 177.028 69.5127 177.097 69.4549 177.155C69.3972 177.212 69.3286 177.258 69.2532 177.29C69.1777 177.321 69.0969 177.337 69.0152 177.337C68.9336 177.337 68.8527 177.321 68.7772 177.29C68.7018 177.258 68.6332 177.212 68.5755 177.155C68.5178 177.097 68.472 177.028 68.4407 176.953C68.4094 176.877 68.3934 176.796 68.3934 176.714C68.7257 162.246 62.936 145.255 61.4993 143.441L61.3278 143.259C61.0062 143.945 60.8882 146.564 61.4029 149.795C61.6709 151.523 60.8132 153.917 59.5051 157.545C55.8004 167.331 53.3926 177.561 52.3431 187.974C49.7699 211.77 57.7039 227.601 57.7897 227.762C57.8283 227.835 57.8521 227.914 57.8595 227.996C57.8669 228.077 57.8578 228.16 57.8328 228.238C57.8078 228.316 57.7674 228.388 57.7139 228.45C57.6605 228.513 57.5951 228.563 57.5216 228.6C57.4368 228.65 57.3413 228.679 57.2429 228.686Z" fill="#263238"/>
<path d="M57.4466 214.732C57.2854 214.732 57.1304 214.669 57.0143 214.557C56.8983 214.445 56.8304 214.292 56.8248 214.131C56.8248 213.905 56.6854 208.678 58.7118 197.365C60.7382 186.052 63.0005 159.273 63.0005 158.993C63.0193 158.83 63.0998 158.681 63.2254 158.575C63.3509 158.469 63.5121 158.415 63.6759 158.425C63.7573 158.431 63.8365 158.454 63.9089 158.492C63.9812 158.53 64.0453 158.582 64.0973 158.645C64.1492 158.708 64.1881 158.781 64.2114 158.859C64.2348 158.937 64.2423 159.02 64.2335 159.101C64.2335 159.369 61.9283 186.321 59.9448 197.591C57.9613 208.861 58.0685 214.034 58.0792 214.088C58.0794 214.253 58.0161 214.412 57.9023 214.532C57.7885 214.652 57.6331 214.724 57.4681 214.732H57.4466Z" fill="#263238"/>
<path d="M42.1145 213.905C42.0253 213.904 41.9373 213.885 41.8561 213.848C41.7749 213.811 41.7023 213.757 41.6428 213.691C41.557 213.583 32.6581 203.247 30.4816 189.369C28.3051 175.491 27.383 170.865 25.9785 168.868C25.1636 167.698 25.1315 166.442 25.9034 165.723C26.3216 165.326 28.0477 164.274 31.8539 167.408C36.9038 171.541 48.8049 186.728 51.8069 196.635C51.8432 196.79 51.819 196.953 51.7394 197.09C51.6598 197.227 51.5308 197.329 51.3787 197.374C51.2267 197.42 51.0631 197.405 50.9214 197.333C50.7798 197.262 50.6708 197.139 50.6168 196.99C47.7327 187.469 35.896 172.303 31.0605 168.374C28.6482 166.399 27.1579 166.228 26.7719 166.636C26.536 166.861 26.536 167.451 27.0292 168.149C28.5946 170.371 29.4845 174.868 31.736 189.176C33.8803 202.7 42.5327 212.789 42.6185 212.875C42.6722 212.937 42.7131 213.009 42.7389 213.087C42.7648 213.165 42.775 213.247 42.769 213.328C42.763 213.41 42.741 213.49 42.7041 213.563C42.6672 213.636 42.6163 213.702 42.5541 213.755C42.4319 213.859 42.2748 213.913 42.1145 213.905Z" fill="#263238"/>
<path d="M55.7527 225.262C55.6606 225.262 55.5696 225.242 55.4862 225.203C55.4027 225.164 55.329 225.107 55.2702 225.036C55.2702 224.972 50.0381 218.704 43.1548 208.689C36.2715 198.675 32.5296 180.493 32.3688 179.709C32.3532 179.629 32.3536 179.546 32.37 179.466C32.3864 179.386 32.4184 179.31 32.4642 179.242C32.51 179.174 32.5687 179.116 32.637 179.071C32.7052 179.026 32.7817 178.995 32.862 178.979C33.0223 178.95 33.1875 178.984 33.3233 179.074C33.4591 179.164 33.555 179.303 33.5911 179.462C33.5911 179.655 37.3972 198.095 44.184 207.981C50.9708 217.866 56.1816 224.167 56.2352 224.231C56.3384 224.36 56.3872 224.524 56.3712 224.689C56.3551 224.853 56.2756 225.005 56.1494 225.111C56.0388 225.206 55.8984 225.26 55.7527 225.262Z" fill="#263238"/>
<path d="M37.6546 175.115C37.5214 175.112 37.3927 175.066 37.2868 174.985C37.1809 174.904 37.1033 174.792 37.0649 174.664C37.0649 174.535 33.1194 161.376 31.8971 152.811C31.6076 150.74 31.3289 149.044 31.1037 147.648C30.5033 144.01 30.2781 142.636 30.9965 141.949C31.1888 141.789 31.4176 141.679 31.6625 141.628C31.9075 141.578 32.1612 141.588 32.401 141.659C34.4167 142.056 51.3891 155.022 55.4847 169.995C55.5087 170.075 55.5163 170.159 55.5073 170.242C55.4983 170.324 55.4728 170.405 55.4322 170.477C55.3917 170.55 55.337 170.614 55.2713 170.665C55.2057 170.716 55.1304 170.754 55.05 170.775C54.9696 170.797 54.8857 170.802 54.8033 170.791C54.7209 170.779 54.6416 170.751 54.5702 170.709C54.4987 170.666 54.4366 170.609 54.3874 170.542C54.3382 170.475 54.303 170.398 54.2839 170.317C50.392 156.128 34.02 143.237 32.1652 142.872C32.0553 142.852 31.9427 142.852 31.8328 142.872C31.6184 143.183 31.9507 145.169 32.326 147.477C32.5511 148.861 32.8299 150.579 33.1301 152.661C34.3309 161.14 38.2122 174.203 38.2551 174.331C38.3017 174.489 38.2838 174.66 38.2055 174.804C38.1271 174.949 37.9946 175.057 37.8369 175.104C37.7773 175.119 37.7155 175.123 37.6546 175.115Z" fill="#263238"/>
<path d="M51.3244 193.673C51.1793 193.676 51.0382 193.626 50.9262 193.534C50.8142 193.441 50.7387 193.312 50.7133 193.169C49.5702 188.384 47.5291 183.86 44.6985 179.838C39.7236 172.582 36.7001 156.396 36.5822 155.709C36.5666 155.629 36.567 155.546 36.5834 155.466C36.5998 155.386 36.6318 155.31 36.6776 155.242C36.7234 155.174 36.7821 155.116 36.8504 155.071C36.9186 155.026 36.9951 154.995 37.0754 154.979C37.2383 154.954 37.4048 154.992 37.5405 155.086C37.6762 155.18 37.7707 155.322 37.8044 155.484C37.8044 155.645 40.8923 172.099 45.717 179.097C48.6645 183.255 50.7765 187.947 51.9356 192.911C51.951 192.992 51.95 193.074 51.9329 193.155C51.9157 193.235 51.8826 193.31 51.8356 193.378C51.7886 193.445 51.7287 193.502 51.6593 193.545C51.5899 193.588 51.5125 193.617 51.4317 193.63L51.3244 193.673Z" fill="#263238"/>
<path d="M58.6472 158.725C58.5655 158.722 58.4852 158.704 58.4108 158.67C58.3364 158.636 58.2694 158.588 58.2137 158.528C58.1579 158.468 58.1145 158.398 58.0858 158.321C58.0572 158.245 58.0439 158.163 58.0468 158.081C58.272 152.146 57.5429 148.228 55.4415 144.128L55.1949 143.666C51.0563 135.52 46.1994 125.731 45.4918 122.339C45.0307 120.192 44.3124 119.323 43.9693 119.312C43.8942 119.312 43.0043 119.387 41.9215 122.983C40.0773 129.058 44.4089 151.695 44.4625 151.963C44.4938 152.125 44.4594 152.294 44.3669 152.43C44.2744 152.567 44.1314 152.662 43.9693 152.693C43.8072 152.724 43.6393 152.69 43.5026 152.597C43.3659 152.505 43.2715 152.362 43.2402 152.199C43.0579 151.255 38.8015 129.026 40.7314 122.661C41.6534 119.591 42.7149 118.099 43.9478 118.099H43.9586C45.5668 118.164 46.3281 120.643 46.639 122.114C47.4109 125.774 53.8225 138.385 56.2885 143.13L56.5243 143.602C58.733 147.895 59.505 152.028 59.2691 158.189C59.2482 158.338 59.1736 158.475 59.0592 158.574C58.9448 158.673 58.7983 158.727 58.6472 158.725Z" fill="#263238"/>
<path d="M54.2086 168.664C54.0533 168.663 53.904 168.604 53.7893 168.499C53.6746 168.394 53.6025 168.25 53.5867 168.096C53.5867 168.02 52.9863 160.142 52.3966 155.119C51.807 150.096 45.9637 140.844 45.8779 140.758C45.7897 140.615 45.7617 140.444 45.7999 140.281C45.8381 140.118 45.9394 139.976 46.0816 139.888C46.2238 139.8 46.3951 139.772 46.558 139.81C46.7209 139.848 46.8619 139.95 46.95 140.092C47.1966 140.479 53.0399 149.752 53.6511 154.969C54.2622 160.185 54.8412 167.924 54.8519 167.999C54.8638 168.162 54.8108 168.324 54.7044 168.449C54.598 168.573 54.4468 168.651 54.2837 168.664H54.2086Z" fill="#263238"/>
<ellipse cx="169.938" cy="173.344" rx="0.536087" ry="0.536667" fill="#263238"/>
<ellipse cx="176.907" cy="174.954" rx="1.07216" ry="1.07334" fill="#263238"/>
<ellipse cx="169.402" cy="172.808" rx="1.07216" ry="1.07333" fill="#263238"/>
<ellipse rx="0.806743" ry="4.03638" transform="matrix(0.894793 0.446481 -0.445698 0.895183 124.939 161.942)" fill="#263238"/>
</svg>
